<?xml version="1.0" encoding="UTF-8" standalone="no"?>
<svg width="177px" height="136px" viewBox="0 0 177 136" version="1.1" xmlns="http://www.w3.org/2000/svg" xmlns:xlink="http://www.w3.org/1999/xlink">
    <!-- Generator: Sketch 3.6.1 (26313) - http://www.bohemiancoding.com/sketch -->
    <title>Group 3</title>
    <desc>Created with Sketch.</desc>
    <defs>
        <path id="path-1" d="M0.213460216,12.6222956 L9.97805606,12.6222956 L9.97805606,0.822002725 L0.213460216,0.822002725 L0.213460216,12.6222956 L0.213460216,12.6222956 Z"></path>
    </defs>
    <g id="Page-1" stroke="none" stroke-width="1" fill="none" fill-rule="evenodd">
        <g id="Careers" transform="translate(-879.000000, -806.000000)">
            <g id="Group-3" transform="translate(879.000000, 806.000000)">
                <path d="M16.0070319,116.338656 L12.2890978,116.338656 L5.94331501,106.409764 L5.94331501,116.338656 L2.40806557,116.338656 L2.40806557,101.873506 L7.01734025,101.873506 L12.4717825,110.159557 L12.4717825,101.873506 L16.0070319,101.873506 L16.0070319,116.338656 Z" id="Fill-83" fill="#444444"></path>
                <path d="M29.6322968,116.338656 L18.8137509,116.338656 L18.8137509,101.873506 L29.6322968,101.873506 L29.6322968,104.671771 L22.650129,104.671771 L22.650129,107.167102 L29.1304158,107.167102 L29.1304158,109.965368 L22.650129,109.965368 L22.650129,113.54039 L29.6322968,113.54039 L29.6322968,116.338656 Z" id="Fill-85" fill="#444444"></path>
                <path d="M52.4973908,101.872923 L48.470298,116.338074 L44.1942723,116.338074 L41.5202506,106.916016 L38.904447,116.338074 L34.6384589,116.338074 L30.6133737,101.872923 L34.6384589,101.872923 L36.9330587,111.830943 L39.6913964,101.872923 L43.537812,101.872923 L46.1576306,111.830943 L48.5646516,101.872923 L52.4973908,101.872923 Z" id="Fill-87" fill="#444444"></path>
                <path d="M68.4399404,106.522006 C68.4399404,106.11615 68.3235041,105.764668 68.0966539,105.4695 C67.8698037,105.176275 67.6048105,104.970434 67.3056895,104.855863 C66.9021772,104.700511 66.5107101,104.615068 66.1292805,104.597591 C65.747851,104.582056 65.23794,104.574288 64.6035624,104.574288 L63.9410796,104.574288 L63.9410796,108.896939 L65.0452177,108.896939 C65.701678,108.896939 66.2396943,108.858101 66.6652894,108.780426 C67.0908844,108.70275 67.4482237,108.547399 67.7352996,108.314372 C67.982225,108.108531 68.1629022,107.861911 68.273316,107.574511 C68.3837298,107.287111 68.4399404,106.935629 68.4399404,106.522006 M72.4248752,106.440446 C72.4248752,107.087096 72.3104464,107.720153 72.0755661,108.339616 C71.8406858,108.957138 71.5054293,109.475623 71.0718042,109.897013 C70.4755696,110.467929 69.8110792,110.897088 69.0763255,111.190313 C68.3435793,111.481597 67.4321635,111.627239 66.3400705,111.627239 L63.9410796,111.627239 L63.9410796,116.338268 L60.0826188,116.338268 L60.0826188,101.873117 L66.4304091,101.873117 C67.3819754,101.873117 68.1829774,101.952735 68.8354226,102.11197 C69.4878679,102.269263 70.0680423,102.508116 70.5699232,102.824644 C71.1701728,103.207197 71.6319033,103.696553 71.9490921,104.292714 C72.2662808,104.888875 72.4248752,105.603491 72.4248752,106.440446" id="Fill-89" fill="#444444"></path>
                <path d="M82.5357689,106.30296 C82.5357689,105.939827 82.459483,105.629124 82.3049037,105.370852 C82.1523319,105.110639 81.8873387,104.90674 81.5099242,104.759156 C81.2489462,104.654294 80.9458101,104.592154 80.5965009,104.568851 C80.2491993,104.545548 79.8436795,104.533897 79.381949,104.533897 L77.9847124,104.533897 L77.9847124,108.431274 L79.171159,108.431274 C79.7874688,108.431274 80.3034024,108.402145 80.7189599,108.343888 C81.1325098,108.285632 81.4818189,108.151641 81.7628722,107.945801 C82.0298729,107.743844 82.2266103,107.522468 82.3490692,107.279732 C82.4735357,107.036995 82.5357689,106.710758 82.5357689,106.30296 L82.5357689,106.30296 Z M88.5523178,116.338656 L83.8406594,116.338656 L79.7734161,111.03535 L77.9847124,111.03535 L77.9847124,116.338656 L74.1483344,116.338656 L74.1483344,101.873506 L80.6185837,101.873506 C81.4998866,101.873506 82.2607382,101.922053 82.8971232,102.019147 C83.5335083,102.116242 84.1297428,102.325966 84.6838194,102.650262 C85.2479336,102.974558 85.6936039,103.392065 86.0248453,103.908608 C86.3560867,104.423209 86.5227112,105.069859 86.5227112,105.846616 C86.5227112,106.914656 86.2657482,107.786566 85.7558371,108.460402 C85.2439185,109.134238 84.5091648,109.693503 83.5616136,110.140138 L88.5523178,116.338656 Z" id="Fill-91" fill="#444444"></path>
                <path d="M98.6626092,112.773343 C99.0380162,112.332534 99.3150545,111.812107 99.4957316,111.214004 C99.6764088,110.615902 99.7667473,109.910995 99.7667473,109.101226 C99.7667473,108.233201 99.6623561,107.495282 99.4555811,106.885528 C99.2488062,106.277716 98.975783,105.784475 98.642534,105.40969 C98.2992474,105.021312 97.9077803,104.739738 97.46211,104.563025 C97.0164397,104.390197 96.5527017,104.30087 96.070896,104.30087 C95.5830677,104.30087 95.1213372,104.386313 94.6897196,104.555258 C94.258102,104.722261 93.8606123,105.001893 93.5012655,105.390271 C93.166009,105.753405 92.8929858,106.252471 92.6821958,106.891353 C92.4693983,107.528294 92.365007,108.268155 92.365007,109.110936 C92.365007,109.973135 92.4673907,110.705229 92.6721582,111.311099 C92.8749181,111.916969 93.1459338,112.410209 93.4791827,112.792762 C93.8144392,113.175315 94.2059064,113.456889 94.6555917,113.637485 C95.1032695,113.820023 95.5750376,113.90935 96.070896,113.90935 C96.5667544,113.90935 97.0385225,113.818081 97.4862003,113.633601 C97.9358856,113.449122 98.3273528,113.161722 98.6626092,112.773343 M103.773765,109.110936 C103.773765,111.415961 103.091207,113.247165 101.724083,114.604547 C100.360974,115.961929 98.469887,116.639649 96.0608584,116.639649 C93.6578524,116.639649 91.77078,115.961929 90.4076713,114.604547 C89.0405476,113.247165 88.3579895,111.415961 88.3579895,109.110936 C88.3579895,106.786491 89.0405476,104.94752 90.4076713,103.597905 C91.77078,102.246349 93.6578524,101.57057 96.0608584,101.57057 C98.4578418,101.57057 100.342907,102.246349 101.716053,103.597905 C103.087192,104.94752 103.773765,106.786491 103.773765,109.110936" id="Fill-93" fill="#444444"></path>
                <path d="M115.852032,109.091517 C115.852032,108.13999 115.673362,107.324395 115.314016,106.648617 C114.958684,105.970897 114.388547,105.442702 113.613643,105.06015 C113.218161,104.871786 112.814648,104.743621 112.403106,104.675655 C111.991564,104.607689 111.371239,104.572735 110.540124,104.572735 L109.566475,104.572735 L109.566475,113.627776 L110.540124,113.627776 C111.457562,113.627776 112.130083,113.586996 112.557685,113.505436 C112.987295,113.425819 113.40486,113.278235 113.814395,113.064627 C114.517029,112.676249 115.032962,112.155822 115.360189,111.505288 C115.689422,110.854754 115.852032,110.050811 115.852032,109.091517 M119.838974,109.120645 C119.838974,110.466376 119.521785,111.674233 118.887408,112.738389 C118.249015,113.804488 117.446006,114.622024 116.476372,115.19294 C115.745633,115.620156 114.946639,115.917266 114.075373,116.08621 C113.206116,116.253213 112.174248,116.338656 110.981779,116.338656 L105.708014,116.338656 L105.708014,101.873506 L111.132343,101.873506 C112.35091,101.873506 113.400845,101.9706 114.286163,102.168673 C115.169474,102.366746 115.912258,102.646378 116.516522,103.009512 C117.546382,103.619266 118.359429,104.438744 118.951649,105.471831 C119.543868,106.504917 119.838974,107.720541 119.838974,109.120645" id="Fill-95" fill="#444444"></path>
                <path d="M134.872517,111.102734 C134.872517,112.889274 134.31041,114.258308 133.18419,115.211777 C132.059976,116.163303 130.401762,116.641009 128.213561,116.641009 C126.023352,116.641009 124.369152,116.163303 123.246947,115.211777 C122.124741,114.258308 121.564642,112.893158 121.564642,111.112443 L121.564642,101.872923 L125.44117,101.872923 L125.44117,110.898835 C125.44117,111.902793 125.657983,112.650421 126.093615,113.14172 C126.529248,113.634961 127.233889,113.881581 128.213561,113.881581 C129.177172,113.881581 129.881813,113.64467 130.327483,113.170848 C130.773153,112.698969 130.993981,111.941631 130.993981,110.898835 L130.993981,101.872923 L134.872517,101.872923 L134.872517,111.102734 Z" id="Fill-97" fill="#444444"></path>
                <path d="M144.22798,116.620231 C143.115811,116.620231 142.091974,116.460995 141.150446,116.144467 C140.208917,115.825997 139.401892,115.354117 138.725357,114.724944 C138.048821,114.097713 137.524858,113.313189 137.153466,112.375255 C136.780066,111.43538 136.595374,110.349862 136.595374,109.120645 C136.595374,107.972987 136.772036,106.934075 137.127368,106.001967 C137.4827,105.069859 137.996626,104.2698 138.673161,103.601789 C139.323599,102.960965 140.128616,102.465782 141.09022,102.116242 C142.049816,101.766701 143.099751,101.591931 144.238017,101.591931 C144.866372,101.591931 145.436509,101.624943 145.942405,101.69291 C146.444286,101.760876 146.914046,101.850203 147.341649,101.960891 C147.789327,102.08323 148.196854,102.221104 148.562223,102.374514 C148.927593,102.525981 149.246789,102.665797 149.52182,102.795904 L149.52182,106.30296 L149.078157,106.30296 C148.891457,106.147609 148.65457,105.965071 148.369501,105.751463 C148.08644,105.539797 147.763229,105.330073 147.401875,105.124232 C147.03249,104.918392 146.635001,104.743621 146.205391,104.601863 C145.777788,104.460105 145.320073,104.390197 144.830237,104.390197 C144.288205,104.390197 143.772272,104.471757 143.284443,104.636817 C142.794608,104.801878 142.344922,105.073743 141.927357,105.454354 C141.531875,105.823313 141.212679,106.31267 140.969768,106.91854 C140.72485,107.526352 140.602392,108.264271 140.602392,109.130355 C140.602392,110.035276 140.734888,110.790672 140.999881,111.398484 C141.262867,112.006296 141.596116,112.484001 141.999628,112.833542 C142.407155,113.188908 142.860856,113.443296 143.362737,113.594763 C143.866625,113.746231 144.360476,113.821965 144.852319,113.821965 C145.320073,113.821965 145.781803,113.753998 146.241526,113.620008 C146.699241,113.484076 147.122829,113.301538 147.512289,113.068511 C147.841522,112.882089 148.144659,112.682074 148.425712,112.468466 C148.706765,112.2568 148.939638,112.07232 149.120315,111.918911 L149.52182,111.918911 L149.52182,115.37742 C149.146413,115.538597 148.787066,115.690064 148.447795,115.833764 C148.106516,115.975523 147.747169,116.097862 147.371762,116.202724 C146.881926,116.338656 146.424211,116.441577 145.996608,116.513426 C145.566998,116.585276 144.978793,116.620231 144.22798,116.620231" id="Fill-99" fill="#444444"></path>
                <path d="M163.046508,104.671189 L158.375,104.671189 L158.375,116.338074 L154.518547,116.338074 L154.518547,104.671189 L149.849046,104.671189 L149.849046,101.872923 L163.046508,101.872923 L163.046508,104.671189 Z" id="Fill-101" fill="#444444"></path>
                <path d="M176.328687,111.791911 C176.328687,113.21726 175.702339,114.374627 174.45366,115.265955 C173.20498,116.155342 171.512637,116.601977 169.368602,116.601977 C168.12996,116.601977 167.049912,116.495173 166.130466,116.285448 C165.209012,116.075724 164.345777,115.807743 163.542768,115.483447 L163.542768,112.015229 L163.966355,112.015229 C164.761335,112.630808 165.654683,113.102688 166.642384,113.434752 C167.630086,113.764873 168.579645,113.929934 169.489053,113.929934 C169.723934,113.929934 170.031085,113.910515 170.412514,113.871677 C170.793944,113.832839 171.10511,113.766815 171.34802,113.677488 C171.641119,113.560974 171.884029,113.413391 172.074744,113.240562 C172.267466,113.06385 172.359812,112.805579 172.359812,112.461864 C172.359812,112.145335 172.221293,111.871529 171.944255,111.640444 C171.667217,111.4113 171.259689,111.234588 170.72368,111.112249 C170.161574,110.982142 169.567347,110.861745 168.940999,110.747174 C168.316659,110.634544 167.728455,110.490844 167.178393,110.316074 C165.919676,109.919928 165.014283,109.383966 164.462214,108.708187 C163.908137,108.030467 163.635114,107.189628 163.635114,106.18567 C163.635114,104.837997 164.257446,103.740829 165.506126,102.888338 C166.754806,102.03779 168.360825,101.610573 170.322176,101.610573 C171.305862,101.610573 172.277504,101.703784 173.241115,101.886322 C174.200712,102.072744 175.031827,102.303829 175.736467,102.581519 L175.736467,105.913805 L175.324925,105.913805 C174.72066,105.447751 173.983899,105.057431 173.108619,104.744786 C172.235346,104.428258 171.344005,104.272907 170.432589,104.272907 C170.111386,104.272907 169.792189,104.294268 169.472993,104.335047 C169.155804,104.377769 168.848653,104.457387 168.555555,104.5739 C168.294577,104.670995 168.069734,104.818578 167.881027,105.016651 C167.694327,105.212782 167.599973,105.438042 167.599973,105.690488 C167.599973,106.07304 167.752545,106.366266 168.053674,106.570165 C168.352795,106.774063 168.924939,106.960485 169.760069,107.129429 C170.308123,107.238175 170.836102,107.344979 171.341998,107.449842 C171.847894,107.552762 172.391933,107.696462 172.974115,107.877058 C174.118403,108.240191 174.963571,108.733432 175.509617,109.358721 C176.055664,109.98401 176.328687,110.793779 176.328687,111.791911" id="Fill-103" fill="#444444"></path>
                <g id="Group-107" transform="translate(4.596005, 122.718935)">
                    <mask id="mask-2" fill="white">
                        <use xlink:href="#path-1"></use>
                    </mask>
                    <g id="Clip-106"></g>
                    <path d="M9.97805606,11.5897918 C9.68696511,11.712131 9.42598701,11.8267026 9.1890992,11.9335066 C8.95622644,12.0403106 8.64907529,12.1529404 8.26764577,12.2713957 C7.94644196,12.3665484 7.59713281,12.4500498 7.22172586,12.5199579 C6.84431138,12.5879241 6.42875395,12.6228781 5.97706109,12.6228781 C5.12185595,12.6228781 4.34494423,12.5063646 3.64833347,12.2752795 C2.94971518,12.0422525 2.34143546,11.6791188 1.82550184,11.1839364 C1.31960584,10.7004054 0.924123647,10.0848258 0.641062789,9.3371975 C0.353986883,8.59151112 0.213460216,7.72154367 0.213460216,6.73312083 C0.213460216,5.79518718 0.349971835,4.95629 0.625002598,4.21642929 C0.898025837,3.47656858 1.29350803,2.85322137 1.80944165,2.34250387 C2.3113226,1.8473215 2.91357975,1.47059453 3.62424318,1.21038105 C4.33289909,0.950167572 5.11984842,0.822002725 5.98509119,0.822002725 C6.61746119,0.822002725 7.24983119,0.895794607 7.87818615,1.04337837 C8.50854863,1.19096213 9.20716691,1.45117561 9.97805606,1.82207691 L9.97805606,3.62026856 L9.85760463,3.62026856 C9.20917444,3.09401593 8.56676682,2.71340517 7.92837424,2.47261061 C7.29198919,2.23375794 6.60943109,2.11336066 5.88270747,2.11336066 C5.2864729,2.11336066 4.75046404,2.20657145 4.27267337,2.39299305 C3.7948827,2.57941465 3.36928766,2.8687565 2.9938807,3.26101861 C2.63252641,3.64357126 2.34745803,4.12710227 2.14670565,4.70966976 C1.94193822,5.29417914 1.84156203,5.96801553 1.84156203,6.73312083 C1.84156203,7.53318018 1.95398336,8.22255171 2.17681851,8.79929352 C2.40166118,9.37409344 2.68873708,9.84403122 3.0440688,10.2052231 C3.41144566,10.58195 3.84306328,10.8615824 4.33490661,11.0421784 C4.82875747,11.2247162 5.34870614,11.3140432 5.89876766,11.3140432 C6.65158909,11.3140432 7.35622995,11.1897621 8.01469777,10.9392581 C8.6751731,10.690696 9.29148291,10.3159109 9.86563473,9.81490284 L9.97805606,9.81490284 L9.97805606,11.5897918 Z" id="Fill-105" fill="#444444" mask="url(#mask-2)"></path>
                </g>
                <path d="M22.0747726,126.950706 C22.0747726,126.624468 22.0165544,126.335126 21.896103,126.08268 C21.7796666,125.830234 21.5829293,125.616626 21.3078985,125.443798 C21.0810483,125.296214 20.8120402,125.193294 20.500874,125.135037 C20.1917153,125.07678 19.8243384,125.047652 19.4027584,125.047652 L17.5598516,125.047652 L17.5598516,129.345058 L19.1417803,129.345058 C19.6356312,129.345058 20.0692563,129.302336 20.4386407,129.218835 C20.8060176,129.135334 21.1191913,128.97804 21.3781619,128.748897 C21.6150497,128.533347 21.7897043,128.288669 21.9041331,128.009037 C22.018562,127.731346 22.0747726,127.379864 22.0747726,126.950706 L22.0747726,126.950706 Z M25.7344886,135.133837 L23.704882,135.133837 L19.7661202,130.607288 L17.5598516,130.607288 L17.5598516,135.133837 L15.9959905,135.133837 L15.9959905,123.746584 L19.2903371,123.746584 C20.0030081,123.746584 20.5972351,123.791248 21.0710107,123.880575 C21.5447863,123.969902 21.9723889,124.129137 22.3518109,124.35828 C22.7794135,124.618494 23.1126624,124.946673 23.3515578,125.340877 C23.5924606,125.737023 23.7109045,126.236089 23.7109045,126.843902 C23.7109045,127.665322 23.498107,128.352751 23.0705044,128.904249 C22.6429019,129.45963 22.0567049,129.875194 21.3078985,130.154827 L25.7344886,135.133837 Z" id="Fill-108" fill="#444444"></path>
                <path d="M34.2158752,135.134614 L26.4608107,135.134614 L26.4608107,123.747361 L34.2158752,123.747361 L34.2158752,125.093092 L28.0246717,125.093092 L28.0246717,128.213712 L34.2158752,128.213712 L34.2158752,129.559443 L28.0246717,129.559443 L28.0246717,133.788883 L34.2158752,133.788883 L34.2158752,135.134614 Z" id="Fill-110" fill="#444444"></path>
                <path d="M41.8834116,130.660107 L39.8196772,125.069401 L37.7459051,130.660107 L41.8834116,130.660107 Z M45.1877958,135.134225 L43.517536,135.134225 L42.3652174,131.961174 L37.2721294,131.961174 L36.1198108,135.134225 L34.5298519,135.134225 L38.8159152,123.746973 L40.90374,123.746973 L45.1877958,135.134225 Z" id="Fill-112" fill="#444444"></path>
                <path d="M54.5793938,125.092315 L50.3716238,125.092315 L50.3716238,135.133837 L48.8077628,135.133837 L48.8077628,125.092315 L44.5999929,125.092315 L44.5999929,123.746584 L54.5793938,123.746584 L54.5793938,125.092315 Z" id="Fill-114" fill="#444444"></path>
                <path d="M63.1212068,135.134614 L55.3661423,135.134614 L55.3661423,123.747361 L63.1212068,123.747361 L63.1212068,125.093092 L56.9300034,125.093092 L56.9300034,128.213712 L63.1212068,128.213712 L63.1212068,129.559443 L56.9300034,129.559443 L56.9300034,133.788883 L63.1212068,133.788883 L63.1212068,135.134614 Z" id="Fill-116" fill="#444444"></path>
                <path d="M73.121486,129.429336 C73.121486,128.538008 72.9608841,127.784554 72.6396803,127.172858 C72.3184765,126.561162 71.8386783,126.079573 71.2002857,125.728091 C70.7385552,125.471761 70.2426968,125.295049 69.7227482,125.196012 C69.200792,125.096976 68.5744445,125.046487 67.8477209,125.046487 L66.3782135,125.046487 L66.3782135,133.835488 L67.8477209,133.835488 C68.6025499,133.835488 69.2590102,133.781115 69.8211168,133.674311 C70.3832235,133.565565 70.8991571,133.367492 71.3669102,133.076209 C71.9510996,132.715017 72.3907473,132.239253 72.6838458,131.646976 C72.9769443,131.054699 73.121486,130.316781 73.121486,129.429336 M74.7576179,129.452639 C74.7576179,130.487667 74.5247451,131.425601 74.0589996,132.26644 C73.5912466,133.107279 72.9729292,133.759754 72.1960175,134.223866 C71.6580011,134.546221 71.059759,134.777306 70.3992837,134.921006 C69.7368008,135.062764 68.8655355,135.134614 67.7854877,135.134614 L64.8123449,135.134614 L64.8123449,123.747361 L67.7533673,123.747361 C68.9016709,123.747361 69.8171018,123.826979 70.4916298,123.988156 C71.1701728,124.147391 71.7423171,124.368766 72.2140852,124.648399 C73.0130797,125.133872 73.6394271,125.77858 74.0850974,126.584465 C74.5347827,127.39035 74.7576179,128.345761 74.7576179,129.452639" id="Fill-118" fill="#444444"></path>
                <path d="M89.1503591,135.134614 L81.3952946,135.134614 L81.3952946,123.747361 L89.1503591,123.747361 L89.1503591,125.093092 L82.9591557,125.093092 L82.9591557,128.213712 L89.1503591,128.213712 L89.1503591,129.559443 L82.9591557,129.559443 L82.9591557,133.788883 L89.1503591,133.788883 L89.1503591,135.134614 Z" id="Fill-120" fill="#444444"></path>
                <path d="M100.121075,123.746779 L95.8370195,135.134031 L93.7491947,135.134031 L89.4631314,123.746779 L91.1394137,123.746779 L94.83125,133.764998 L98.5250939,123.746779 L100.121075,123.746779 Z" id="Fill-122" fill="#444444"></path>
                <path d="M108.872675,135.134614 L101.11761,135.134614 L101.11761,123.747361 L108.872675,123.747361 L108.872675,125.093092 L102.681471,125.093092 L102.681471,128.213712 L108.872675,128.213712 L108.872675,129.559443 L102.681471,129.559443 L102.681471,133.788883 L108.872675,133.788883 L108.872675,135.134614 Z" id="Fill-124" fill="#444444"></path>
                <path d="M116.641993,126.950706 C116.641993,126.624468 116.583774,126.335126 116.463323,126.08268 C116.346887,125.830234 116.150149,125.616626 115.875118,125.443798 C115.648268,125.296214 115.37926,125.193294 115.068094,125.135037 C114.758935,125.07678 114.391558,125.047652 113.969978,125.047652 L112.127071,125.047652 L112.127071,129.345058 L113.709,129.345058 C114.202851,129.345058 114.636476,129.302336 115.005861,129.218835 C115.373237,129.135334 115.686411,128.97804 115.945382,128.748897 C116.18227,128.533347 116.356924,128.288669 116.471353,128.009037 C116.585782,127.731346 116.641993,127.379864 116.641993,126.950706 L116.641993,126.950706 Z M120.301708,135.133837 L118.272102,135.133837 L114.33334,130.607288 L112.127071,130.607288 L112.127071,135.133837 L110.56321,135.133837 L110.56321,123.746584 L113.857557,123.746584 C114.570228,123.746584 115.164455,123.791248 115.638231,123.880575 C116.112006,123.969902 116.539609,124.129137 116.919031,124.35828 C117.346633,124.618494 117.679882,124.946673 117.918778,125.340877 C118.159681,125.737023 118.278124,126.236089 118.278124,126.843902 C118.278124,127.665322 118.065327,128.352751 117.637724,128.904249 C117.210122,129.45963 116.623925,129.875194 115.875118,130.154827 L120.301708,135.133837 Z" id="Fill-126" fill="#444444"></path>
                <path d="M129.359656,123.746779 L125.218134,130.139486 L125.218134,135.134031 L123.652266,135.134031 L123.652266,130.300663 L119.492676,123.746779 L121.223162,123.746779 L124.44323,128.84036 L127.691404,123.746779 L129.359656,123.746779 Z" id="Fill-128" fill="#444444"></path>
                <path d="M143.427981,123.746779 L139.28646,130.139486 L139.28646,135.134031 L137.720591,135.134031 L137.720591,130.300663 L133.561002,123.746779 L135.291487,123.746779 L138.511555,128.84036 L141.759729,123.746779 L143.427981,123.746779 Z" id="Fill-130" fill="#444444"></path>
                <path d="M152.020786,135.134614 L144.265721,135.134614 L144.265721,123.747361 L152.020786,123.747361 L152.020786,125.093092 L145.829582,125.093092 L145.829582,128.213712 L152.020786,128.213712 L152.020786,129.559443 L145.829582,129.559443 L145.829582,133.788883 L152.020786,133.788883 L152.020786,135.134614 Z" id="Fill-132" fill="#444444"></path>
                <path d="M159.688121,130.660107 L157.624387,125.069401 L155.550615,130.660107 L159.688121,130.660107 Z M162.992505,135.134225 L161.322246,135.134225 L160.169927,131.961174 L155.076839,131.961174 L153.92452,135.134225 L152.334561,135.134225 L156.620625,123.746973 L158.70845,123.746973 L162.992505,135.134225 Z" id="Fill-134" fill="#444444"></path>
                <path d="M170.066819,126.950706 C170.066819,126.624468 170.0086,126.335126 169.888149,126.08268 C169.771713,125.830234 169.574975,125.616626 169.299945,125.443798 C169.073094,125.296214 168.804086,125.193294 168.49292,125.135037 C168.183761,125.07678 167.816384,125.047652 167.394804,125.047652 L165.551898,125.047652 L165.551898,129.345058 L167.133826,129.345058 C167.627677,129.345058 168.061302,129.302336 168.430687,129.218835 C168.798064,129.135334 169.111237,128.97804 169.370208,128.748897 C169.607096,128.533347 169.78175,128.288669 169.896179,128.009037 C170.010608,127.731346 170.066819,127.379864 170.066819,126.950706 L170.066819,126.950706 Z M173.726535,135.133837 L171.696928,135.133837 L167.758166,130.607288 L165.551898,130.607288 L165.551898,135.133837 L163.988036,135.133837 L163.988036,123.746584 L167.282383,123.746584 C167.995054,123.746584 168.589281,123.791248 169.063057,123.880575 C169.536832,123.969902 169.964435,124.129137 170.343857,124.35828 C170.771459,124.618494 171.104708,124.946673 171.343604,125.340877 C171.584507,125.737023 171.702951,126.236089 171.702951,126.843902 C171.702951,127.665322 171.490153,128.352751 171.06255,128.904249 C170.634948,129.45963 170.048751,129.875194 169.299945,130.154827 L173.726535,135.133837 Z" id="Fill-136" fill="#444444"></path>
                <path d="M18.4523967,71.2558945 C18.4523967,69.5567393 18.2837647,68.1605192 17.9444931,67.0652923 C17.6072291,65.9720073 17.1454987,65.1253426 16.5552867,64.52724 C16.1377217,64.0806049 15.655916,63.7601928 15.1098695,63.5660036 C14.563823,63.3698726 13.9876637,63.272778 13.3854065,63.272778 C12.8232999,63.272778 12.2892985,63.3659888 11.77738,63.5543523 C11.2674689,63.7427158 10.7756256,64.0670117 10.2998424,64.52724 C9.85617968,64.9719332 9.49081034,65.5564425 9.21176453,66.28271 C8.9307112,67.0070356 8.79219206,67.8711774 8.79219206,68.8731934 C8.79219206,69.848023 8.94275634,70.6675013 9.24388491,71.3296863 C9.54501349,71.9918714 9.96257844,72.5161821 10.4945723,72.9084442 C10.9984607,73.2832293 11.5906803,73.5492685 12.2752459,73.7026779 C12.957804,73.8541455 13.7005878,73.9318211 14.5056048,73.9318211 C15.1520275,73.9318211 15.8566684,73.8522036 16.6195274,73.6910266 C17.3823865,73.5317914 17.9705909,73.3667307 18.3881559,73.199728 C18.3881559,73.0463185 18.400201,72.8268848 18.4182688,72.5414267 C18.442359,72.2559686 18.4523967,71.8268106 18.4523967,71.2558945 M26.7113496,72.4190875 C26.7113496,75.0192804 26.3660555,77.4427612 25.6774749,79.6817622 C24.9868867,81.9227052 23.9369517,83.8082819 22.52767,85.3384925 C21.0039594,86.9949261 19.112872,88.2377367 16.8564152,89.0649826 C14.5999585,89.8922284 11.9701023,90.3077932 8.96283158,90.3077932 C7.89884396,90.3077932 6.75054033,90.2437108 5.51390566,90.1194297 C4.27526347,89.9932068 3.46422385,89.8825189 3.07677175,89.7854243 L3.07677175,83.6742914 L3.94000699,83.6742914 C4.36961709,83.8684806 4.9859269,84.0782049 5.78090633,84.2995805 C6.58190833,84.522898 7.66998624,84.6335859 9.0491551,84.6335859 C10.1713609,84.6335859 11.271484,84.4976535 12.3495243,84.2257886 C13.4275645,83.9558657 14.3550406,83.5267076 15.1319523,82.9441402 C15.9811348,82.3169092 16.6757381,81.5343268 17.2237921,80.5963932 C17.7698386,79.6565176 18.1372154,78.5263367 18.3239151,77.2039085 C17.0732278,77.9010476 15.9108715,78.4331259 14.8388538,78.8020853 C13.7688436,79.1710447 12.4358478,79.3555244 10.8398663,79.3555244 C9.63133701,79.3555244 8.47901834,79.2137663 7.37688777,78.9283083 C6.28077976,78.6428502 5.27701785,78.2000989 4.36961709,77.6019963 C3.17714794,76.7805761 2.22558165,75.6989425 1.5129107,74.3551535 C0.802247267,73.0113645 0.444908027,71.3160931 0.444908027,69.2712812 C0.444908027,65.942879 1.64139222,63.2319983 4.03636813,61.1366972 C6.42933652,59.0413961 9.56709625,57.9947165 13.4496473,57.9947165 C15.4471335,57.9947165 17.219777,58.2491043 18.7635629,58.7559381 C20.3113637,59.2647137 21.6443595,60.0395284 22.7645578,61.0842661 C24.0734633,62.2804714 25.0591575,63.8048563 25.7196329,65.655479 C26.3801082,67.5061017 26.7113496,69.7606379 26.7113496,72.4190875" id="Fill-138" fill="#E30536"></path>
                <path d="M55.9465175,79.1885217 C55.9465175,80.8022337 55.6333438,82.301374 55.0090039,83.6840009 C54.3826564,85.0685696 53.4752557,86.2531235 52.280779,87.2396044 C50.9578208,88.2979354 49.4381253,89.0805177 47.7196849,89.5873514 C46.0012445,90.0941851 44.0419012,90.3485729 41.8436627,90.3485729 C39.2680096,90.3349797 37.0938613,90.1369067 35.3192103,89.7543541 C33.5445592,89.3718014 32.095127,88.9445853 30.9749287,88.4707637 L30.9749287,81.6081187 L31.880322,81.6081187 C33.18722,82.3596308 34.5965017,82.9849199 36.1061596,83.4859279 C37.6158175,83.986936 39.1174453,84.23744 40.6130506,84.23744 C41.5184438,84.23744 42.5021305,84.1364616 43.5560805,83.9345049 C44.6140455,83.7325482 45.451183,83.3674725 46.0695003,82.839278 C46.5573286,82.4081781 46.9287205,81.9712524 47.179661,81.5246174 C47.432609,81.0799242 47.5570754,80.3924946 47.5570754,79.4603866 C47.5570754,78.7380029 47.3884434,78.1146557 47.0491719,77.5922868 C46.7119079,77.0718599 46.2782828,76.6504694 45.746289,76.3300573 C44.9693772,75.8717709 44.0338711,75.5688358 42.9417782,75.4231939 C41.8516928,75.277552 40.8579685,75.2037601 39.9666279,75.2037601 C38.6737826,75.2037601 37.4311253,75.3125061 36.2466863,75.528056 C35.0602397,75.743606 34.0223499,75.9552722 33.1310093,76.1630546 L32.1814505,76.1630546 L32.1814505,58.6413665 L55.0190415,58.6413665 L55.0190415,64.5854967 L39.9666279,64.5854967 L39.9666279,69.6557758 C40.4122982,69.6285893 40.9764124,69.6033447 41.6589705,69.5819839 C42.3435361,69.5606231 42.9417782,69.5509136 43.4597193,69.5509136 C45.2283478,69.5509136 46.8062615,69.7159744 48.195468,70.0422122 C49.5806595,70.36845 50.7791512,70.8228526 51.7849206,71.407362 C53.0918186,72.1724673 54.1136482,73.1841928 54.8463944,74.4425386 C55.5791406,75.7028263 55.9465175,77.2835261 55.9465175,79.1885217" id="Fill-140" fill="#E30536"></path>
                <path d="M77.3097829,74.1508665 C77.3097829,70.3913643 76.9303609,67.7173795 76.1675019,66.1230865 C75.4046428,64.5287935 74.1399028,63.730676 72.3712743,63.730676 C70.6026458,63.730676 69.3379058,64.5287935 68.5750468,66.1230865 C67.8141953,67.7173795 67.4327657,70.4068994 67.4327657,74.1916462 C67.4327657,77.8812403 67.8202178,80.5416318 68.5971296,82.168937 C69.3740413,83.7981841 70.6327587,84.6118367 72.3712743,84.6118367 C74.10979,84.6118367 75.3685074,83.7981841 76.1454191,82.168937 C76.9223308,80.5416318 77.3097829,77.8676471 77.3097829,74.1508665 M85.6550594,74.1508665 C85.6550594,76.7665945 85.4101415,79.1085158 84.9223132,81.1746885 C84.4344849,83.2408612 83.6716259,84.9361326 82.6357436,86.2566189 C81.571756,87.6081755 80.2066398,88.6276686 78.5383875,89.3150982 C76.8701352,90.0044697 74.8164383,90.3481845 72.3712743,90.3481845 C69.9702758,90.3481845 67.920594,90.0005859 66.2262439,89.3053887 C64.5298863,88.6101915 63.1547325,87.580989 62.1068051,86.2158392 C61.0408099,84.8526312 60.2739358,83.1573599 59.7981527,81.1339088 C59.324377,79.1085158 59.0874892,76.7879553 59.0874892,74.1722273 C59.0874892,71.4729979 59.3324071,69.1271929 59.8202354,67.1367539 C60.3080637,65.1482569 61.0849754,63.4646369 62.1489631,62.0858938 C63.2149582,60.720744 64.5941271,59.699309 66.2904847,59.0177051 C67.9848348,58.3361011 70.0124338,57.9943282 72.3712743,57.9943282 C74.830491,57.9943282 76.892218,58.3458106 78.5604703,59.0487753 C80.2287225,59.7517401 81.5938387,60.7984197 82.6578264,62.190756 C83.7077613,63.5539639 84.4686128,65.2337001 84.944396,67.2319066 C85.4181716,69.2281712 85.6550594,71.5351385 85.6550594,74.1508665" id="Fill-142" fill="#E30536"></path>
                <path d="M104.232886,75.9267264 L97.9633887,75.9267264 L97.9633887,81.9349391 L94.7393054,81.9349391 L94.7393054,75.9267264 L88.4698086,75.9267264 L88.4698086,72.8779565 L94.7393054,72.8779565 L94.7393054,66.8697438 L97.9633887,66.8697438 L97.9633887,72.8779565 L104.232886,72.8779565 L104.232886,75.9267264 Z" id="Fill-144" fill="#E30536"></path>
                <path d="M143.181257,75.0754011 C143.106978,75.0754011 143.0327,75.0754011 142.956414,75.0715173 C141.15165,75.0249119 139.455292,74.4132161 138.050026,73.3063378 C134.579017,70.5663287 134.057061,65.6028537 136.891685,62.2433812 C138.439485,60.4063518 140.736093,59.3519046 143.193302,59.3519046 C143.26758,59.3519046 143.341859,59.3519046 143.418144,59.3538465 C145.222908,59.4023938 146.919266,60.0140896 148.324533,61.1229098 C150.006838,62.4492217 151.052758,64.3309147 151.273585,66.4203901 C151.492405,68.5079236 150.858028,70.5546774 149.484881,72.1819826 C147.935073,74.0209539 145.636458,75.0754011 143.181257,75.0754011 M138.692433,40.2029113 C137.801093,40.387391 135.434222,40.8806315 134.85204,43.1778893 C133.099472,50.0871397 133.872369,49.6074924 127.331856,47.3529562 C126.902246,47.2034306 126.448546,47.1296387 125.986815,47.1296387 C122.768754,47.1296387 120.371771,50.9609909 119.924093,51.72998 C119.020708,53.2796095 118.952452,54.6894228 119.721333,55.9186402 C123.535629,62.0045286 123.702253,61.1481544 117.458854,64.0143864 C115.513563,64.9057147 114.692486,66.9272238 115.015697,70.0225991 C115.238533,72.1547961 115.818707,74.6753714 118.340157,75.2754159 C125.482927,76.9706873 124.973016,76.259955 122.654326,82.549742 C122.381302,83.2915446 122.112294,84.7926268 123.373019,86.5247941 C124.210157,87.6724521 127.189322,90.4221706 129.604373,90.4221706 C130.280909,90.4221706 130.941384,90.2454585 131.511521,89.9114531 C137.76295,86.2451617 136.867594,85.9616455 139.880887,92.1019069 C140.422919,93.210727 141.711749,94.5312133 144.763185,94.5312133 C145.676609,94.5312133 146.740596,94.4205255 147.682125,94.2243944 C148.571458,94.0399147 150.940336,93.5466742 151.522518,91.2494164 C153.267056,84.3654106 152.439956,84.7965106 159.042702,87.0743495 C159.47432,87.2238751 159.926013,87.297667 160.387743,87.297667 C163.605804,87.297667 166.002787,83.4663148 166.450465,82.6973257 C167.353851,81.1476962 167.422107,79.7378829 166.653225,78.5086655 C162.83893,72.4227771 162.688366,73.2694419 168.915704,70.4129193 C170.863003,69.5196492 171.68408,67.4961981 171.356853,64.3949972 C171.134018,62.2666839 170.553844,59.7461086 168.036409,59.1499479 C160.891632,57.4546765 161.401543,58.1654088 163.720233,51.8775637 C163.993256,51.1357611 164.262264,49.6346789 163.001539,47.9025116 C162.164402,46.7567955 159.185237,44.0051351 156.770185,44.0051351 C156.09365,44.0051351 155.433174,44.1818472 154.863038,44.5158526 C148.609601,48.182144 149.504957,48.4637183 146.493671,42.3253988 C145.949632,41.2165787 144.662809,39.8960924 141.611373,39.8960924 C140.69795,39.8960924 139.633962,40.0067802 138.692433,40.2029113 M143.181257,78.4911885 C146.561927,78.4911885 149.918507,77.0755495 152.221136,74.3413661 C156.292395,69.5157654 155.545596,62.4123258 150.556899,58.4741696 C148.483127,56.8371549 145.99982,56.0060253 143.514506,55.940001 C143.408107,55.9361172 143.299701,55.9361172 143.193302,55.9361172 C139.810624,55.9341753 136.456052,57.3517562 134.153422,60.0859396 C130.082164,64.9115403 130.828963,72.0169218 135.817659,75.9531361 C137.893439,77.5901508 140.374738,78.4212804 142.860053,78.4873047 C142.966452,78.4911885 143.074858,78.4911885 143.181257,78.4911885 M141.611373,43.3118798 C142.434458,43.3118798 143.131069,43.4400446 143.303716,43.7895851 L145.244991,47.7491021 C145.704714,48.6889777 146.555904,49.3977681 147.587771,49.6968194 L149.484881,50.2463748 C149.842221,50.3512369 150.209598,50.4017261 150.576974,50.4017261 C151.265555,50.4017261 151.948113,50.2211302 152.548363,49.8696478 L156.693899,47.4383995 C156.711967,47.4267481 156.738065,47.4209225 156.770185,47.4209225 C157.432668,47.4209225 160.745083,49.776437 160.393766,50.7299058 L158.872063,54.8583674 C158.508701,55.8390227 158.595025,56.9206563 159.104936,57.8372291 L160.042449,59.5227911 C160.55236,60.4393639 161.439686,61.1034908 162.485606,61.352053 L167.193249,62.4686407 C167.665017,62.5793285 168.393748,66.870909 167.404039,67.3253116 L163.30869,69.2031208 C162.337049,69.6497559 161.60631,70.4731179 161.297152,71.4693083 L160.727015,73.3043959 C160.417856,74.3005863 160.56039,75.3783362 161.118482,76.2677226 L163.631902,80.2796707 C163.870797,80.6602814 161.505934,83.8818796 160.387743,83.8818796 C160.331533,83.8818796 160.279337,83.8741121 160.229149,83.856635 L155.961153,82.3846812 C155.547603,82.2409812 155.113978,82.1710731 154.684368,82.1710731 C154.062036,82.1710731 153.441711,82.3186569 152.879604,82.6099406 L151.137074,83.5187459 C150.19153,84.0119864 149.502949,84.8703025 149.247994,85.8800861 L148.093667,90.4357639 C148.019389,90.7251057 146.200572,91.1154259 144.763185,91.1154259 C143.940101,91.1154259 143.24349,90.9872611 143.070843,90.6377206 L141.129567,86.6782036 C140.667837,85.738328 139.816647,85.0314795 138.786787,84.7324281 L136.891685,84.1809309 C136.532338,84.0760688 136.164961,84.0255796 135.797584,84.0255796 C135.109003,84.0255796 134.426445,84.2061755 133.826196,84.5576579 L129.678651,86.9889062 C129.660584,87.0005576 129.634486,87.0063832 129.604373,87.0063832 C128.94189,87.0063832 125.629476,84.6528106 125.980793,83.6993418 L127.502496,79.5689383 C127.865857,78.588283 127.779534,77.5066494 127.269623,76.5900766 L126.332109,74.9045146 C125.822198,73.9879418 124.934873,73.3238148 123.89096,73.0752527 L119.181309,71.958665 C118.709541,71.8460353 117.98081,67.5563967 118.970519,67.1019941 L123.065868,65.222243 C124.03751,64.7775498 124.768248,63.9541878 125.077407,62.9579974 L125.645536,61.1229098 C125.956702,60.1267194 125.814168,59.0489695 125.256076,58.1595831 L122.742657,54.147635 C122.503761,53.7670243 124.868624,50.5454261 125.986815,50.5454261 C126.043026,50.5454261 126.095221,50.5531936 126.14541,50.5706707 L130.413405,52.0426245 C130.828963,52.1863245 131.26058,52.2562326 131.69019,52.2562326 C132.31453,52.2562326 132.934855,52.1086488 133.494954,51.8154232 L135.237485,50.9085598 C136.185036,50.4153193 136.871609,49.5570032 137.126565,48.5472196 L138.282899,43.9915418 C138.355169,43.7022 140.173986,43.3118798 141.611373,43.3118798" id="Fill-146" fill="#818286"></path>
                <path d="M143.181257,75.0754011 C143.106978,75.0754011 143.0327,75.0754011 142.956414,75.0715173 C141.15165,75.0249119 139.455292,74.4132161 138.050026,73.3063378 C134.579017,70.5663287 134.057061,65.6028537 136.891685,62.2433812 C138.439485,60.4063518 140.736093,59.3519046 143.193302,59.3519046 C143.26758,59.3519046 143.341859,59.3519046 143.418144,59.3538465 C145.222908,59.4023938 146.919266,60.0140896 148.324533,61.1229098 C150.006838,62.4492217 151.052758,64.3309147 151.273585,66.4203901 C151.492405,68.5079236 150.858028,70.5546774 149.484881,72.1819826 C147.935073,74.0209539 145.636458,75.0754011 143.181257,75.0754011 M138.692433,40.2029113 C137.801093,40.387391 135.434222,40.8806315 134.85204,43.1778893 C133.099472,50.0871397 133.872369,49.6074924 127.331856,47.3529562 C126.902246,47.2034306 126.448546,47.1296387 125.986815,47.1296387 C122.768754,47.1296387 120.371771,50.9609909 119.924093,51.72998 C119.020708,53.2796095 118.952452,54.6894228 119.721333,55.9186402 C123.535629,62.0045286 123.702253,61.1481544 117.458854,64.0143864 C115.513563,64.9057147 114.692486,66.9272238 115.015697,70.0225991 C115.238533,72.1547961 115.818707,74.6753714 118.340157,75.2754159 C125.482927,76.9706873 124.973016,76.259955 122.654326,82.549742 C122.381302,83.2915446 122.112294,84.7926268 123.373019,86.5247941 C124.210157,87.6724521 127.189322,90.4221706 129.604373,90.4221706 C130.280909,90.4221706 130.941384,90.2454585 131.511521,89.9114531 C137.76295,86.2451617 136.867594,85.9616455 139.880887,92.1019069 C140.422919,93.210727 141.711749,94.5312133 144.763185,94.5312133 C145.676609,94.5312133 146.740596,94.4205255 147.682125,94.2243944 C148.571458,94.0399147 150.940336,93.5466742 151.522518,91.2494164 C153.267056,84.3654106 152.439956,84.7965106 159.042702,87.0743495 C159.47432,87.2238751 159.926013,87.297667 160.387743,87.297667 C163.605804,87.297667 166.002787,83.4663148 166.450465,82.6973257 C167.353851,81.1476962 167.422107,79.7378829 166.653225,78.5086655 C162.83893,72.4227771 162.688366,73.2694419 168.915704,70.4129193 C170.863003,69.5196492 171.68408,67.4961981 171.356853,64.3949972 C171.134018,62.2666839 170.553844,59.7461086 168.036409,59.1499479 C160.891632,57.4546765 161.401543,58.1654088 163.720233,51.8775637 C163.993256,51.1357611 164.262264,49.6346789 163.001539,47.9025116 C162.164402,46.7567955 159.185237,44.0051351 156.770185,44.0051351 C156.09365,44.0051351 155.433174,44.1818472 154.863038,44.5158526 C148.609601,48.182144 149.504957,48.4637183 146.493671,42.3253988 C145.949632,41.2165787 144.662809,39.8960924 141.611373,39.8960924 C140.69795,39.8960924 139.633962,40.0067802 138.692433,40.2029113 M143.181257,78.4911885 C146.561927,78.4911885 149.918507,77.0755495 152.221136,74.3413661 C156.292395,69.5157654 155.545596,62.4123258 150.556899,58.4741696 C148.483127,56.8371549 145.99982,56.0060253 143.514506,55.940001 C143.408107,55.9361172 143.299701,55.9361172 143.193302,55.9361172 C139.810624,55.9341753 136.456052,57.3517562 134.153422,60.0859396 C130.082164,64.9115403 130.828963,72.0169218 135.817659,75.9531361 C137.893439,77.5901508 140.374738,78.4212804 142.860053,78.4873047 C142.966452,78.4911885 143.074858,78.4911885 143.181257,78.4911885 M141.611373,43.3118798 C142.434458,43.3118798 143.131069,43.4400446 143.303716,43.7895851 L145.244991,47.7491021 C145.704714,48.6889777 146.555904,49.3977681 147.587771,49.6968194 L149.484881,50.2463748 C149.842221,50.3512369 150.209598,50.4017261 150.576974,50.4017261 C151.265555,50.4017261 151.948113,50.2211302 152.548363,49.8696478 L156.693899,47.4383995 C156.711967,47.4267481 156.738065,47.4209225 156.770185,47.4209225 C157.432668,47.4209225 160.745083,49.776437 160.393766,50.7299058 L158.872063,54.8583674 C158.508701,55.8390227 158.595025,56.9206563 159.104936,57.8372291 L160.042449,59.5227911 C160.55236,60.4393639 161.439686,61.1034908 162.485606,61.352053 L167.193249,62.4686407 C167.665017,62.5793285 168.393748,66.870909 167.404039,67.3253116 L163.30869,69.2031208 C162.337049,69.6497559 161.60631,70.4731179 161.297152,71.4693083 L160.727015,73.3043959 C160.417856,74.3005863 160.56039,75.3783362 161.118482,76.2677226 L163.631902,80.2796707 C163.870797,80.6602814 161.505934,83.8818796 160.387743,83.8818796 C160.331533,83.8818796 160.279337,83.8741121 160.229149,83.856635 L155.961153,82.3846812 C155.547603,82.2409812 155.113978,82.1710731 154.684368,82.1710731 C154.062036,82.1710731 153.441711,82.3186569 152.879604,82.6099406 L151.137074,83.5187459 C150.19153,84.0119864 149.502949,84.8703025 149.247994,85.8800861 L148.093667,90.4357639 C148.019389,90.7251057 146.200572,91.1154259 144.763185,91.1154259 C143.940101,91.1154259 143.24349,90.9872611 143.070843,90.6377206 L141.129567,86.6782036 C140.667837,85.738328 139.816647,85.0314795 138.786787,84.7324281 L136.891685,84.1809309 C136.532338,84.0760688 136.164961,84.0255796 135.797584,84.0255796 C135.109003,84.0255796 134.426445,84.2061755 133.826196,84.5576579 L129.678651,86.9889062 C129.660584,87.0005576 129.634486,87.0063832 129.604373,87.0063832 C128.94189,87.0063832 125.629476,84.6528106 125.980793,83.6993418 L127.502496,79.5689383 C127.865857,78.588283 127.779534,77.5066494 127.269623,76.5900766 L126.332109,74.9045146 C125.822198,73.9879418 124.934873,73.3238148 123.89096,73.0752527 L119.181309,71.958665 C118.709541,71.8460353 117.98081,67.5563967 118.970519,67.1019941 L123.065868,65.222243 C124.03751,64.7775498 124.768248,63.9541878 125.077407,62.9579974 L125.645536,61.1229098 C125.956702,60.1267194 125.814168,59.0489695 125.256076,58.1595831 L122.742657,54.147635 C122.503761,53.7670243 124.868624,50.5454261 125.986815,50.5454261 C126.043026,50.5454261 126.095221,50.5531936 126.14541,50.5706707 L130.413405,52.0426245 C130.828963,52.1863245 131.26058,52.2562326 131.69019,52.2562326 C132.31453,52.2562326 132.934855,52.1086488 133.494954,51.8154232 L135.237485,50.9085598 C136.185036,50.4153193 136.871609,49.5570032 137.126565,48.5472196 L138.282899,43.9915418 C138.355169,43.7022 140.173986,43.3118798 141.611373,43.3118798" id="Fill-148" fill="#CFCDD0"></path>
                <path d="M140.741914,21.2978196 C140.693734,21.2978196 140.645553,21.2978196 140.597373,21.2958777 C139.435016,21.2648074 138.342923,20.8725453 137.43753,20.1579292 C135.203156,18.3946916 134.8679,15.198338 136.690731,13.0350707 C137.688471,11.8524587 139.168016,11.1727966 140.749945,11.1727966 C140.798125,11.1727966 140.846306,11.1747385 140.894486,11.1747385 C142.056843,11.2058088 143.148936,11.6000128 144.054329,12.312687 C145.136384,13.1671193 145.810912,14.3788597 145.951439,15.7245906 C146.093973,17.0703215 145.684438,18.386924 144.801128,19.4355455 C143.803388,20.6181575 142.323843,21.2978196 140.741914,21.2978196 M140.741914,23.4979828 C142.920078,23.4979828 145.080173,22.5852937 146.563734,20.823998 C149.183552,17.7169714 148.703754,13.1438166 145.491716,10.609648 C144.154705,9.553259 142.556716,9.0192388 140.956719,8.97651719 C140.888464,8.97457529 140.8182,8.9726334 140.749945,8.9726334 C138.571781,8.9726334 136.411686,9.88532247 134.928125,11.6466182 C132.308307,14.7536448 132.788105,19.3287414 136.000143,21.86291 C137.337154,22.9173572 138.935143,23.4533193 140.535139,23.494099 C140.603395,23.4960409 140.673659,23.4979828 140.741914,23.4979828 M139.730122,0.84581695 C140.260109,0.84581695 140.709794,0.927376398 140.820208,1.15263583 L142.070895,3.70233953 C142.368009,4.30820972 142.916063,4.76455425 143.578546,4.95680152 L144.801128,5.3102258 C145.029985,5.378192 145.268881,5.41120416 145.503761,5.41120416 C145.947424,5.41120416 146.387071,5.29469066 146.772516,5.06748934 L149.442523,3.50232469 C149.454568,3.49455713 149.470628,3.49067334 149.490703,3.49067334 C149.918306,3.49067334 152.050296,5.0072907 151.825453,5.62092846 L150.843774,8.27937809 C150.610902,8.91049287 150.667112,9.60763196 150.994339,10.197967 L151.598603,11.2834844 C151.927837,11.8738195 152.499981,12.3010356 153.172502,12.4602708 L156.203863,13.1807126 C156.506999,13.2525625 156.97676,16.0158743 156.338367,16.3071581 L153.702488,17.5169566 C153.076141,17.8043565 152.60638,18.3344929 152.407635,18.9753172 L152.040258,20.1579292 C151.841514,20.7987534 151.931852,21.4920087 152.291199,22.0648667 L153.909263,24.6475826 C154.063842,24.8942028 152.540132,26.9681431 151.821438,26.9681431 C151.785303,26.9681431 151.751175,26.9623174 151.719055,26.952608 L148.970755,26.003023 C148.703754,25.9117541 148.424708,25.8670905 148.14767,25.8670905 C147.748173,25.8670905 147.348675,25.9622432 146.987321,26.1486648 L145.865115,26.7351161 C145.254828,27.0516444 144.813173,27.6050836 144.648556,28.2556172 L143.903764,31.1878736 C143.857591,31.3742952 142.685198,31.6267411 141.759729,31.6267411 C141.229743,31.6267411 140.782065,31.5432398 140.671651,31.3179803 L139.420964,28.7682766 C139.12385,28.1643483 138.575796,27.7080038 137.913313,27.5157565 L136.690731,27.1603904 C136.459866,27.0943661 136.222978,27.0613539 135.988098,27.0613539 C135.544435,27.0613539 135.104788,27.1778674 134.717335,27.4031268 L132.047329,28.9702334 C132.035284,28.976059 132.019223,28.9799428 131.999148,28.9799428 C131.573553,28.9799428 129.441563,27.4633255 129.666406,26.8496877 L130.646077,24.1912381 C130.87895,23.5601233 130.824747,22.8629842 130.49752,22.2726491 L129.893256,21.1871317 C129.564022,20.5967967 128.991878,20.1695805 128.321365,20.0103454 L125.287996,19.2899036 C124.98486,19.2180536 124.515099,16.4566837 125.153492,16.1634581 L127.789371,14.9536596 C128.415718,14.6662596 128.885479,14.1361232 129.084224,13.495299 L129.451601,12.3146289 C129.650345,11.6718628 129.560007,10.9786075 129.20066,10.4057494 L127.580588,7.82303356 C127.428017,7.57641332 128.951727,5.50247307 129.670421,5.50247307 C129.706556,5.50247307 129.740684,5.50829874 129.772804,5.51995009 L132.521104,6.46759321 C132.788105,6.55886211 133.065143,6.60546751 133.344189,6.60546751 C133.743686,6.60546751 134.143184,6.51031482 134.504538,6.32195133 L135.626744,5.73744195 C136.237031,5.41897173 136.678686,4.86553261 136.843303,4.21499892 L137.588095,1.28274257 C137.634268,1.09632097 138.806661,0.84581695 139.730122,0.84581695" id="Fill-150" fill="#CFCDD0"></path>
                <path d="M94.5732832,34.9953405 C94.5732832,30.2629506 98.5381428,26.4277147 103.430478,26.4277147 C108.322814,26.4277147 112.287673,30.2629506 112.287673,34.9953405 C112.287673,39.7277304 108.322814,43.5629664 103.430478,43.5629664 C98.5381428,43.5629664 94.5732832,39.7277304 94.5732832,34.9953405 L94.5732832,34.9953405 Z M85.362764,36.886743 C85.4209821,37.9004104 85.0315225,38.8888332 84.2927538,39.609275 L81.1790843,42.6444516 C80.4262629,43.3765448 82.5622682,47.0797321 83.0320288,47.0311848 L87.7336496,46.5476538 C88.777562,46.4408498 89.8194668,46.7670875 90.6003936,47.4448077 L92.0377806,48.6915021 C92.8187074,49.3692223 93.2663852,50.3343425 93.2704003,51.3480099 L93.2864605,55.6240552 C93.2904755,56.6571416 97.508283,57.8125671 97.8053966,57.4572009 L100.776532,53.9015974 C101.437007,53.1112475 102.410656,52.6296584 103.458584,52.5733435 L105.385807,52.4723651 C106.433734,52.4160503 107.455564,52.7927773 108.200355,53.5073934 L111.336107,56.5192673 C112.094951,57.2474766 115.923299,55.181304 115.873111,54.7269013 L115.375245,50.1789911 C115.262824,49.1692075 115.600088,48.1613657 116.300713,47.4059699 L117.589544,46.0155755 C118.29017,45.2601796 119.287909,44.8271378 120.335836,44.823254 L124.754396,44.8077189 C125.822399,44.8038351 127.020891,40.7239208 126.651506,40.4365208 L122.97573,37.5625212 C122.158668,36.9236389 121.660802,35.9818215 121.602584,34.968154 L121.498193,33.1039381 C121.439974,32.0922125 121.829434,31.1018478 122.568203,30.381406 L125.681872,27.3481713 C126.434694,26.6141363 124.298688,22.9109489 123.82692,22.9594962 L119.127307,23.4410853 C118.083395,23.5498313 117.04149,23.2235935 116.260563,22.5458733 L114.823176,21.2991789 C114.042249,20.6234006 113.594571,19.6563386 113.590556,18.6426711 L113.574496,14.3685677 C113.570481,13.3354813 109.352674,12.1781139 109.05556,12.5334801 L106.084425,16.0890836 C105.423949,16.8794335 104.4503,17.3610227 103.40438,17.4153956 L101.47515,17.5183159 C100.42923,17.5746307 99.4053931,17.1979038 98.6606017,16.4832876 L95.5248495,13.4714137 C94.7660055,12.7432044 90.9376576,14.8093771 90.9878457,15.2637797 L91.4857116,19.8116899 C91.5981329,20.8214735 91.2608689,21.8293153 90.5602431,22.5847111 L89.2714128,23.9751055 C88.5727945,24.7305014 87.5730477,25.1635432 86.5251202,25.167427 L82.1065603,25.1829621 C81.0385577,25.1868459 79.8420735,29.2667602 80.2094503,29.5541602 L83.887234,32.4301017 C84.7022886,33.0670421 85.2001545,34.0088596 85.2583727,35.022527 L85.362764,36.886743 Z" id="Fill-152" fill="#818286"></path>
            </g>
        </g>
    </g>
</svg>