<?xml version="1.0" encoding="UTF-8" standalone="no"?>
<svg width="241px" height="160px" viewBox="0 0 241 160" version="1.1" xmlns="http://www.w3.org/2000/svg" xmlns:xlink="http://www.w3.org/1999/xlink">
    <!-- Generator: Sketch 3.6.1 (26313) - http://www.bohemiancoding.com/sketch -->
    <title>Group 5</title>
    <desc>Created with Sketch.</desc>
    <defs>
        <path id="path-1" d="M0.923357108,11.954023 L10.9923113,11.954023 L10.9923113,0.649232184 L0.923357108,0.649232184 L0.923357108,11.954023 L0.923357108,11.954023 Z"></path>
        <path id="path-3" d="M0.598317108,11.954023 L10.6672713,11.954023 L10.6672713,0.649232184 L0.598317108,0.649232184 L0.598317108,11.954023 L0.598317108,11.954023 Z"></path>
        <path id="path-5" d="M0.618220482,11.954023 L10.6871747,11.954023 L10.6871747,0.649232184 L0.618220482,0.649232184 L0.618220482,11.954023 L0.618220482,11.954023 Z"></path>
    </defs>
    <g id="Page-1" stroke="none" stroke-width="1" fill="none" fill-rule="evenodd">
        <g id="College" transform="translate(-785.000000, -1095.000000)">
            <g id="Group-5" transform="translate(785.000000, 1095.000000)">
                <g id="Group-4">
                    <path d="M32.0473913,115.929993 C32.0473913,115.619097 31.9937937,115.345211 31.8829022,115.104637 C31.775707,114.864062 31.5927359,114.658648 31.3413817,114.495798 C31.1325359,114.353303 30.8848781,114.255223 30.5984082,114.199706 C30.3137865,114.144189 29.9755672,114.11643 29.5874467,114.11643 L27.8908058,114.11643 L27.8908058,118.211752 L29.3471817,118.211752 C29.8018371,118.211752 30.2010467,118.17289 30.5411142,118.091464 C30.8793335,118.01189 31.1676516,117.861993 31.4060684,117.643625 C31.6241552,117.438211 31.784948,117.205039 31.8902949,116.940407 C31.9956419,116.673924 32.0473913,116.33897 32.0473913,115.929993 L32.0473913,115.929993 Z M35.4166467,123.730166 L33.5481239,123.730166 L29.9219696,119.414625 L27.8908058,119.414625 L27.8908058,123.730166 L26.4492154,123.730166 L26.4492154,112.878395 L29.483948,112.878395 C30.1400564,112.878395 30.6871214,112.919108 31.1232949,113.004234 C31.5594684,113.089361 31.9512853,113.241108 32.3024419,113.459476 C32.696107,113.707453 33.002907,114.0202 33.2228419,114.395867 C33.4427769,114.773384 33.5536684,115.250832 33.5536684,115.828211 C33.5536684,116.611005 33.35776,117.266108 32.9640949,117.793522 C32.5704299,118.320936 32.0289094,118.716959 31.3413817,118.983441 L35.4166467,123.730166 Z" id="Fill-1" fill="#444444"></path>
                    <path d="M43.2250764,123.729795 L36.0855077,123.729795 L36.0855077,112.878025 L43.2250764,112.878025 L43.2250764,114.158623 L37.5252499,114.158623 L37.5252499,117.134347 L43.2250764,117.134347 L43.2250764,118.416795 L37.5252499,118.416795 L37.5252499,122.447347 L43.2250764,122.447347 L43.2250764,123.729795 Z" id="Fill-3" fill="#444444"></path>
                    <path d="M50.3705593,116.193885 C50.3705593,115.820069 50.3058725,115.492517 50.1746508,115.216782 C50.0434292,114.939195 49.8438243,114.713425 49.5776846,114.537621 C49.3448123,114.387724 49.0786725,114.280391 48.7811135,114.215621 C48.4835545,114.149 48.1046749,114.11569 47.6481713,114.11569 L46.2213665,114.11569 L46.2213665,118.453437 L47.4374773,118.453437 C48.0215063,118.453437 48.4927954,118.39977 48.8568894,118.296138 C49.2209834,118.190655 49.5166942,118.024103 49.7440219,117.796483 C49.9731978,117.56331 50.1339906,117.317184 50.2300966,117.061805 C50.3243545,116.802724 50.3705593,116.514034 50.3705593,116.193885 M51.8712918,116.155023 C51.8712918,116.638023 51.7881231,117.082161 51.6199376,117.492989 C51.451752,117.905667 51.2170316,118.260977 50.9176243,118.56077 C50.5442894,118.934586 50.1007231,119.217724 49.5924701,119.402782 C49.0823689,119.59154 48.4391978,119.684069 47.6629569,119.684069 L46.2213665,119.684069 L46.2213665,123.729425 L44.7816243,123.729425 L44.7816243,112.877655 L47.7202508,112.877655 C48.3708147,112.877655 48.9234243,112.931322 49.3743834,113.040506 C49.8253424,113.14969 50.2264002,113.321793 50.5738605,113.554966 C50.9878557,113.832552 51.307593,114.176759 51.5330725,114.589437 C51.758552,115.002115 51.8712918,115.525828 51.8712918,116.155023" id="Fill-5" fill="#444444"></path>
                    <path d="M58.6367863,115.929993 C58.6367863,115.619097 58.5831887,115.345211 58.4741453,115.104637 C58.3651019,114.864062 58.183979,114.658648 57.9307766,114.495798 C57.7219308,114.353303 57.474273,114.255223 57.1896513,114.199706 C56.9031814,114.144189 56.5649622,114.11643 56.1768417,114.11643 L54.4802007,114.11643 L54.4802007,118.211752 L55.9365766,118.211752 C56.3930802,118.211752 56.7904417,118.17289 57.1305092,118.091464 C57.4705766,118.01189 57.7588947,117.861993 57.9954634,117.643625 C58.2135501,117.438211 58.3761911,117.205039 58.4815381,116.940407 C58.5850369,116.673924 58.6367863,116.33897 58.6367863,115.929993 L58.6367863,115.929993 Z M62.0078899,123.730166 L60.1375188,123.730166 L56.5132128,119.414625 L54.4802007,119.414625 L54.4802007,123.730166 L53.0404586,123.730166 L53.0404586,112.878395 L56.0751911,112.878395 C56.7312995,112.878395 57.2765164,112.919108 57.7126899,113.004234 C58.1488634,113.089361 58.5425284,113.241108 58.8918369,113.459476 C59.2855019,113.707453 59.5923019,114.0202 59.8140851,114.395867 C60.03402,114.773384 60.1430634,115.250832 60.1430634,115.828211 C60.1430634,116.611005 59.9471549,117.266108 59.5534899,117.793522 C59.161673,118.320936 58.6201525,118.716959 57.9307766,118.983441 L62.0078899,123.730166 Z" id="Fill-7" fill="#444444"></path>
                    <path d="M69.8161347,123.729795 L62.6747178,123.729795 L62.6747178,112.878025 L69.8161347,112.878025 L69.8161347,114.158623 L64.1163082,114.158623 L64.1163082,117.134347 L69.8161347,117.134347 L69.8161347,118.416795 L64.1163082,118.416795 L64.1163082,122.447347 L69.8161347,122.447347 L69.8161347,123.729795 Z" id="Fill-9" fill="#444444"></path>
                    <path d="M79.2467231,120.632303 C79.2467231,121.056085 79.1487689,121.472464 78.9528605,121.885143 C78.7551039,122.297821 78.4797231,122.64943 78.1267183,122.934418 C77.7385978,123.245315 77.2839424,123.489591 76.7682966,123.663545 C76.2526508,123.837499 75.6298099,123.926326 74.8997737,123.926326 C74.1198364,123.926326 73.4175231,123.852303 72.7946822,123.707959 C72.169993,123.561763 71.5360629,123.345246 70.8910436,123.060257 L70.8910436,121.252246 L70.9926942,121.252246 C71.5397593,121.707487 72.1736894,122.059097 72.8926364,122.307074 C73.6097352,122.555051 74.2843255,122.679039 74.9145593,122.679039 C75.8090846,122.679039 76.5040051,122.512487 77.0011689,122.177533 C77.500181,121.840729 77.7459906,121.39474 77.7459906,120.835867 C77.7459906,120.354717 77.6295545,119.999407 77.394834,119.771786 C77.1582653,119.542315 76.8015641,119.36466 76.321034,119.238821 C75.95694,119.142591 75.5632749,119.061166 75.1363424,118.998246 C74.7131063,118.935326 74.2639954,118.855752 73.7871617,118.757671 C72.8261014,118.554108 72.1145472,118.204349 71.652499,117.712097 C71.1886027,117.219844 70.9557304,116.577694 70.9557304,115.785648 C70.9557304,114.877016 71.3401545,114.131234 72.1071545,113.552005 C72.8723063,112.969074 73.8463039,112.680384 75.0254508,112.680384 C75.7869063,112.680384 76.4855231,112.752556 77.1213014,112.898752 C77.7570798,113.043097 78.3207786,113.224453 78.8105496,113.437269 L78.8105496,115.143499 L78.708899,115.143499 C78.2949039,114.79374 77.7533834,114.5032 77.0806412,114.271878 C76.4097472,114.040556 75.7222195,113.925821 75.0180581,113.925821 C74.2455135,113.925821 73.6263689,114.086821 73.156928,114.40697 C72.6893352,114.72897 72.4546147,115.139798 72.4546147,115.646855 C72.4546147,116.098395 72.572899,116.451855 72.8057713,116.710936 C73.0386436,116.968166 73.4470942,117.164326 74.0348195,117.301269 C74.3453159,117.36789 74.787034,117.451166 75.3581255,117.549246 C75.9329135,117.647326 76.4189882,117.745407 76.8163496,117.847189 C77.6203135,118.060005 78.2283689,118.383855 78.6349713,118.81689 C79.0434219,119.249924 79.2467231,119.855062 79.2467231,120.632303" id="Fill-11" fill="#444444"></path>
                    <path d="M87.9714867,123.729795 L80.8319181,123.729795 L80.8319181,112.878025 L87.9714867,112.878025 L87.9714867,114.158623 L82.2716602,114.158623 L82.2716602,117.134347 L87.9714867,117.134347 L87.9714867,118.416795 L82.2716602,118.416795 L82.2716602,122.447347 L87.9714867,122.447347 L87.9714867,123.729795 Z" id="Fill-13" fill="#444444"></path>
                    <path d="M97.7953706,123.729795 L96.0118646,123.729795 L90.8738887,114.02168 L90.8738887,123.729795 L89.5265561,123.729795 L89.5265561,112.878025 L91.7610212,112.878025 L96.4480381,121.740428 L96.4480381,112.878025 L97.7953706,112.878025 L97.7953706,123.729795 Z" id="Fill-15" fill="#444444"></path>
                    <path d="M107.678951,114.158993 L103.805139,114.158993 L103.805139,123.730166 L102.365397,123.730166 L102.365397,114.158993 L98.4915848,114.158993 L98.4915848,112.878395 L107.678951,112.878395 L107.678951,114.158993 Z" id="Fill-17" fill="#444444"></path>
                    <path d="M115.54449,123.729795 L108.404921,123.729795 L108.404921,112.878025 L115.54449,112.878025 L115.54449,114.158623 L109.844663,114.158623 L109.844663,117.134347 L115.54449,117.134347 L115.54449,118.416795 L109.844663,118.416795 L109.844663,122.447347 L115.54449,122.447347 L115.54449,123.729795 Z" id="Fill-19" fill="#444444"></path>
                    <path d="M124.751262,118.292067 C124.751262,117.442653 124.603407,116.72463 124.307696,116.141699 C124.011985,115.558768 123.568419,115.099825 122.982542,114.764871 C122.555609,114.522446 122.100954,114.352193 121.620424,114.257814 C121.139893,114.163434 120.565106,114.11532 119.89606,114.11532 L118.541334,114.11532 L118.541334,122.491021 L119.89606,122.491021 C120.589132,122.491021 121.193491,122.439205 121.710985,122.337423 C122.228479,122.235641 122.703465,122.045032 123.134093,121.769297 C123.673766,121.423239 124.07852,120.969848 124.346508,120.407274 C124.616344,119.842848 124.751262,119.137779 124.751262,118.292067 M126.255691,118.314274 C126.255691,119.30063 126.041301,120.194457 125.614368,120.995756 C125.183739,121.798906 124.612648,122.418848 123.899245,122.862986 C123.40393,123.168331 122.853168,123.3904 122.243265,123.525492 C121.633361,123.660584 120.831245,123.729055 119.836918,123.729055 L117.099744,123.729055 L117.099744,112.877285 L119.807347,112.877285 C120.864513,112.877285 121.707289,112.953159 122.33013,113.106756 C122.952971,113.258503 123.481554,113.47132 123.914031,113.735952 C124.649612,114.198595 125.226248,114.812986 125.638395,115.580975 C126.050542,116.348963 126.255691,117.259446 126.255691,118.314274" id="Fill-21" fill="#444444"></path>
                    <path d="M139.042228,120.449837 C139.042228,120.013101 138.975693,119.665193 138.84632,119.407963 C138.71325,119.150733 138.474833,118.932366 138.132917,118.751009 C137.898197,118.630722 137.617271,118.551147 137.284597,118.514136 C136.950074,118.478975 136.547168,118.460469 136.072182,118.460469 L133.808146,118.460469 L133.808146,122.496572 L135.715481,122.496572 C136.345715,122.496572 136.86136,122.465113 137.266115,122.400343 C137.669021,122.333722 137.999847,122.213434 138.254898,122.03763 C138.52843,121.848871 138.726187,121.634205 138.851864,121.389929 C138.979389,121.147503 139.042228,120.832906 139.042228,120.449837 M138.116283,115.499549 C138.116283,115.238618 138.073775,115.016549 137.98691,114.837044 C137.898197,114.657538 137.757734,114.511343 137.563674,114.398457 C137.336346,114.268917 137.059117,114.187492 136.733835,114.156032 C136.408553,114.124572 136.005647,114.107917 135.526965,114.107917 L133.808146,114.107917 L133.808146,117.242791 L135.671124,117.242791 C136.122083,117.242791 136.480633,117.220584 136.748621,117.172469 C137.01476,117.126205 137.262418,117.029975 137.491594,116.88563 C137.718922,116.739434 137.879715,116.552526 137.975821,116.321205 C138.070079,116.089883 138.116283,115.815998 138.116283,115.499549 M140.541112,120.392469 C140.541112,120.930986 140.439462,121.408434 140.23616,121.819262 C140.031011,122.233791 139.757479,122.572446 139.411867,122.840779 C139.005264,123.160929 138.556153,123.3904 138.070079,123.525492 C137.582156,123.660584 136.963011,123.729055 136.210797,123.729055 L132.366556,123.729055 L132.366556,112.877285 L135.576867,112.877285 C136.367893,112.877285 136.959315,112.906894 137.35298,112.964262 C137.746645,113.02163 138.121828,113.143768 138.480377,113.328825 C138.879587,113.53794 139.167905,113.806274 139.34718,114.133825 C139.528303,114.463228 139.617016,114.855549 139.617016,115.312641 C139.617016,115.827101 139.485794,116.263837 139.225199,116.6284 C138.960907,116.989262 138.613447,117.277952 138.175426,117.49632 L138.175426,117.557389 C138.909158,117.707285 139.485794,118.027434 139.90903,118.521538 C140.330418,119.015641 140.541112,119.639285 140.541112,120.392469" id="Fill-23" fill="#444444"></path>
                    <path d="M149.528504,112.877655 L145.713834,118.969747 L145.713834,123.729425 L144.272244,123.729425 L144.272244,119.123345 L140.442788,112.877655 L142.037779,112.877655 L145.000432,117.731713 L147.992656,112.877655 L149.528504,112.877655 Z" id="Fill-25" fill="#444444"></path>
                    <path d="M158.62882,123.729795 L154.350254,123.729795 L154.350254,122.621301 L155.767818,122.621301 L155.767818,113.984669 L154.350254,113.984669 L154.350254,112.878025 L158.62882,112.878025 L158.62882,113.984669 L157.209408,113.984669 L157.209408,122.621301 L158.62882,122.621301 L158.62882,123.729795 Z" id="Fill-27" fill="#444444"></path>
                    <path d="M168.62052,123.729795 L166.837014,123.729795 L161.699038,114.02168 L161.699038,123.729795 L160.351706,123.729795 L160.351706,112.878025 L162.586171,112.878025 L167.273188,121.740428 L167.273188,112.878025 L168.62052,112.878025 L168.62052,123.729795 Z" id="Fill-29" fill="#444444"></path>
                    <path d="M178.504101,114.158993 L174.630289,114.158993 L174.630289,123.730166 L173.190547,123.730166 L173.190547,114.158993 L169.316734,114.158993 L169.316734,112.878395 L178.504101,112.878395 L178.504101,114.158993 Z" id="Fill-31" fill="#444444"></path>
                    <path d="M186.36964,123.729795 L179.230071,123.729795 L179.230071,112.878025 L186.36964,112.878025 L186.36964,114.158623 L180.669813,114.158623 L180.669813,117.134347 L186.36964,117.134347 L186.36964,118.416795 L180.669813,118.416795 L180.669813,122.447347 L186.36964,122.447347 L186.36964,123.729795 Z" id="Fill-33" fill="#444444"></path>
                    <path d="M193.52233,115.929993 C193.52233,115.619097 193.468733,115.345211 193.359689,115.104637 C193.250646,114.864062 193.069523,114.658648 192.816321,114.495798 C192.607475,114.353303 192.359817,114.255223 192.075195,114.199706 C191.788726,114.144189 191.450506,114.11643 191.062386,114.11643 L189.365745,114.11643 L189.365745,118.211752 L190.822121,118.211752 C191.278624,118.211752 191.675986,118.17289 192.016053,118.091464 C192.356121,118.01189 192.644439,117.861993 192.881007,117.643625 C193.099094,117.438211 193.261735,117.205039 193.367082,116.940407 C193.470581,116.673924 193.52233,116.33897 193.52233,115.929993 L193.52233,115.929993 Z M196.893434,123.730166 L195.023063,123.730166 L191.398757,119.414625 L189.365745,119.414625 L189.365745,123.730166 L187.926003,123.730166 L187.926003,112.878395 L190.960735,112.878395 C191.616844,112.878395 192.16206,112.919108 192.598234,113.004234 C193.034407,113.089361 193.428073,113.241108 193.777381,113.459476 C194.171046,113.707453 194.477846,114.0202 194.699629,114.395867 C194.919564,114.773384 195.028607,115.250832 195.028607,115.828211 C195.028607,116.611005 194.832699,117.266108 194.439034,117.793522 C194.047217,118.320936 193.505697,118.716959 192.816321,118.983441 L196.893434,123.730166 Z" id="Fill-35" fill="#444444"></path>
                    <path d="M205.827967,123.729795 L204.044461,123.729795 L198.906486,114.02168 L198.906486,123.729795 L197.559153,123.729795 L197.559153,112.878025 L199.793618,112.878025 L204.480635,121.740428 L204.480635,112.878025 L205.827967,112.878025 L205.827967,123.729795 Z" id="Fill-37" fill="#444444"></path>
                    <path d="M215.855892,120.632303 C215.855892,121.056085 215.757938,121.472464 215.562029,121.885143 C215.364273,122.297821 215.09074,122.64943 214.735887,122.934418 C214.347767,123.245315 213.893111,123.489591 213.377465,123.663545 C212.86182,123.837499 212.238979,123.926326 211.510791,123.926326 C210.730853,123.926326 210.02854,123.852303 209.403851,123.707959 C208.78101,123.561763 208.145232,123.345246 207.500212,123.060257 L207.500212,121.252246 L207.601863,121.252246 C208.150776,121.707487 208.784706,122.059097 209.501805,122.307074 C210.218904,122.555051 210.893494,122.679039 211.525576,122.679039 C212.418253,122.679039 213.115022,122.512487 213.610338,122.177533 C214.10935,121.840729 214.357007,121.39474 214.357007,120.835867 C214.357007,120.354717 214.238723,119.999407 214.004003,119.771786 C213.769282,119.542315 213.410733,119.36466 212.930203,119.238821 C212.566109,119.142591 212.172444,119.061166 211.747359,118.998246 C211.322275,118.935326 210.873164,118.855752 210.398179,118.757671 C209.43527,118.554108 208.725564,118.204349 208.261668,117.712097 C207.797771,117.219844 207.566747,116.577694 207.566747,115.785648 C207.566747,114.877016 207.949323,114.131234 208.716323,113.552005 C209.483323,112.969074 210.455473,112.680384 211.63462,112.680384 C212.396075,112.680384 213.094692,112.752556 213.732318,112.898752 C214.366248,113.043097 214.929947,113.224453 215.419718,113.437269 L215.419718,115.143499 L215.318068,115.143499 C214.904073,114.79374 214.362552,114.5032 213.691658,114.271878 C213.018916,114.040556 212.331388,113.925821 211.627227,113.925821 C210.85653,113.925821 210.235538,114.086821 209.767945,114.40697 C209.298504,114.72897 209.065632,115.139798 209.065632,115.646855 C209.065632,116.098395 209.182068,116.451855 209.41494,116.710936 C209.647812,116.968166 210.056263,117.164326 210.645836,117.301269 C210.956333,117.36789 211.396203,117.451166 211.969142,117.549246 C212.542082,117.647326 213.028157,117.745407 213.425518,117.847189 C214.23133,118.060005 214.837538,118.383855 215.245988,118.81689 C215.652591,119.249924 215.855892,119.855062 215.855892,120.632303" id="Fill-39" fill="#444444"></path>
                    <path d="M48.2316458,141.640953 L41.3748506,141.640953 L41.3748506,130.789183 L42.8145928,130.789183 L42.8145928,140.358505 L48.2316458,140.358505 L48.2316458,141.640953 Z" id="Fill-41" fill="#444444"></path>
                    <path d="M54.4458243,137.377784 L52.5458822,132.049979 L50.6385472,137.377784 L54.4458243,137.377784 Z M57.4879496,141.641508 L55.9521014,141.641508 L54.8893906,138.617669 L50.2023737,138.617669 L49.1396629,141.641508 L47.6758942,141.641508 L51.6217858,130.787887 L53.5439063,130.787887 L57.4879496,141.641508 Z" id="Fill-43" fill="#444444"></path>
                    <path d="M66.2786937,138.543461 C66.2786937,138.967243 66.1807395,139.383622 65.9848311,139.798151 C65.7870745,140.208978 65.5116937,140.560587 65.1586889,140.847426 C64.7705684,141.158323 64.315913,141.400748 63.8002672,141.576553 C63.2846214,141.750507 62.6617805,141.837484 61.9317443,141.837484 C61.151807,141.837484 60.4494937,141.765311 59.8266528,141.619116 C59.2019636,141.472921 58.5680335,141.258254 57.9230142,140.971415 L57.9230142,139.163403 L58.0246648,139.163403 C58.5717299,139.620495 59.20566,139.972105 59.924607,140.220082 C60.6417058,140.468059 61.3162961,140.590197 61.9465299,140.590197 C62.8410552,140.590197 63.5359757,140.425495 64.0331395,140.088691 C64.5321516,139.753737 64.7779612,139.305898 64.7779612,138.747024 C64.7779612,138.267725 64.6615251,137.912415 64.4268046,137.682944 C64.1902359,137.455323 63.8335347,137.277668 63.3530046,137.151829 C62.9889106,137.053748 62.5952455,136.974174 62.168313,136.911254 C61.7450769,136.848334 61.295966,136.76876 60.8191323,136.670679 C59.858072,136.467116 59.1465178,136.117357 58.6844696,135.625105 C58.2205733,135.131001 57.987701,134.488852 57.987701,133.696806 C57.987701,132.788174 58.3721251,132.042392 59.1391251,131.463162 C59.9042769,130.882082 60.8782745,130.591541 62.0574214,130.591541 C62.8188769,130.591541 63.5174937,130.663714 64.153272,130.809909 C64.7890504,130.956105 65.3527492,131.13561 65.8425202,131.350277 L65.8425202,133.054656 L65.7408696,133.054656 C65.3268745,132.706748 64.785354,132.414357 64.1126118,132.183036 C63.4417178,131.953564 62.7541901,131.838829 62.0500287,131.838829 C61.2774841,131.838829 60.6583395,131.999829 60.1888986,132.319978 C59.7213058,132.640128 59.4865853,133.052806 59.4865853,133.559863 C59.4865853,134.011403 59.6048696,134.364863 59.8377419,134.622093 C60.0706142,134.881174 60.4790648,135.077334 61.0667901,135.212426 C61.3772865,135.280898 61.8190046,135.362323 62.3900961,135.460403 C62.9648841,135.558484 63.4509588,135.656564 63.8483202,135.760197 C64.6522841,135.973013 65.2603395,136.296863 65.6669419,136.729898 C66.0753925,137.161082 66.2786937,137.76622 66.2786937,138.543461" id="Fill-45" fill="#444444"></path>
                    <path d="M75.5935853,132.071816 L71.7197733,132.071816 L71.7197733,141.641138 L70.2800311,141.641138 L70.2800311,132.071816 L66.406219,132.071816 L66.406219,130.789368 L75.5935853,130.789368 L75.5935853,132.071816 Z" id="Fill-47" fill="#444444"></path>
                    <path d="M88.5021029,130.788813 L84.687433,136.882755 L84.687433,141.640583 L83.2458427,141.640583 L83.2458427,137.034502 L79.4163872,130.788813 L81.0113776,130.788813 L83.9740306,135.64287 L86.9662547,130.788813 L88.5021029,130.788813 Z" id="Fill-49" fill="#444444"></path>
                    <path d="M96.4110742,141.640953 L89.2715055,141.640953 L89.2715055,130.789183 L96.4110742,130.789183 L96.4110742,132.071631 L90.7112477,132.071631 L90.7112477,135.045505 L96.4110742,135.045505 L96.4110742,136.327953 L90.7112477,136.327953 L90.7112477,140.358505 L96.4110742,140.358505 L96.4110742,141.640953 Z" id="Fill-51" fill="#444444"></path>
                    <path d="M103.469877,137.377784 L101.569935,132.049979 L99.6625998,137.377784 L103.469877,137.377784 Z M106.512002,141.641508 L104.976154,141.641508 L103.913443,138.617669 L99.2264263,138.617669 L98.1637154,141.641508 L96.6999467,141.641508 L100.645838,130.787887 L102.567959,130.787887 L106.512002,141.641508 Z" id="Fill-53" fill="#444444"></path>
                    <path d="M113.025033,133.843001 C113.025033,133.532105 112.971436,133.256369 112.860544,133.015794 C112.753349,132.77522 112.570378,132.571656 112.319024,132.406955 C112.110178,132.264461 111.86252,132.168231 111.57605,132.110863 C111.291429,132.055346 110.953209,132.029438 110.565089,132.029438 L108.868448,132.029438 L108.868448,136.122909 L110.324824,136.122909 C110.779479,136.122909 111.178689,136.084047 111.518756,136.004472 C111.856976,135.923047 112.145294,135.775001 112.383711,135.556633 C112.601797,135.35122 112.76259,135.116197 112.867937,134.851564 C112.973284,134.586932 113.025033,134.251978 113.025033,133.843001 L113.025033,133.843001 Z M116.394289,141.641323 L114.525766,141.641323 L110.899612,137.327633 L108.868448,137.327633 L108.868448,141.641323 L107.426858,141.641323 L107.426858,130.789553 L110.46159,130.789553 C111.117699,130.789553 111.664764,130.832116 112.100937,130.917243 C112.537111,131.002369 112.928927,131.154116 113.280084,131.372484 C113.673749,131.620461 113.980549,131.933208 114.200484,132.308875 C114.420419,132.684541 114.531311,133.16199 114.531311,133.739369 C114.531311,134.522162 114.335402,135.179116 113.941737,135.704679 C113.548072,136.232093 113.006552,136.629967 112.319024,136.896449 L116.394289,141.641323 Z" id="Fill-55" fill="#444444"></path>
                    <path d="M125.393694,141.640953 L121.115128,141.640953 L121.115128,140.532459 L122.532692,140.532459 L122.532692,131.895826 L121.115128,131.895826 L121.115128,130.789183 L125.393694,130.789183 L125.393694,131.895826 L123.974282,131.895826 L123.974282,140.532459 L125.393694,140.532459 L125.393694,141.640953 Z" id="Fill-57" fill="#444444"></path>
                    <path d="M135.385579,141.640953 L133.602073,141.640953 L128.464097,131.932838 L128.464097,141.640953 L127.116764,141.640953 L127.116764,130.789183 L129.351229,130.789183 L134.038246,139.651585 L134.038246,130.789183 L135.385579,130.789183 L135.385579,141.640953 Z" id="Fill-59" fill="#444444"></path>
                    <path d="M145.907894,140.854829 C145.639907,140.969564 145.40149,141.080599 145.183403,141.18238 C144.967164,141.284162 144.686239,141.391495 144.335082,141.50438 C144.039372,141.595059 143.717786,141.672783 143.372174,141.741254 C143.024714,141.806024 142.642138,141.837484 142.226294,141.837484 C141.438964,141.837484 140.723714,141.7283 140.082391,141.508082 C139.43922,141.284162 138.879217,140.939955 138.402384,140.468059 C137.938487,140.007266 137.574393,139.420633 137.31195,138.708162 C137.049507,137.995691 136.920133,137.168484 136.920133,136.226541 C136.920133,135.332714 137.043962,134.533266 137.297164,133.828197 C137.550367,133.123128 137.914461,132.529093 138.389446,132.042392 C138.851494,131.570495 139.405952,131.211484 140.060213,130.963507 C140.710776,130.71553 141.437116,130.591541 142.233687,130.591541 C142.81402,130.591541 143.3962,130.661863 143.976533,130.802507 C144.556866,130.945001 145.200037,131.191128 145.907894,131.546438 L145.907894,133.26007 L145.798851,133.26007 C145.201885,132.758564 144.610463,132.395852 144.022738,132.16638 C143.435013,131.93876 142.806627,131.824024 142.137581,131.824024 C141.588668,131.824024 141.0952,131.912852 140.657179,132.090507 C140.217309,132.266311 139.825492,132.543898 139.47988,132.917714 C139.147205,133.280426 138.884762,133.74122 138.699943,134.298243 C138.511427,134.855266 138.417169,135.495564 138.417169,136.226541 C138.417169,136.988978 138.520668,137.645932 138.727666,138.195553 C138.934663,138.741472 139.198955,139.191162 139.524237,139.535369 C139.864304,139.89438 140.259817,140.160863 140.714473,140.332967 C141.169128,140.506921 141.64781,140.590197 142.152367,140.590197 C142.847287,140.590197 143.496003,140.47361 144.10221,140.234886 C144.710266,139.996162 145.277661,139.640852 145.806244,139.163403 L145.907894,139.163403 L145.907894,140.854829 Z" id="Fill-61" fill="#444444"></path>
                    <path d="M154.075058,141.640953 L147.216415,141.640953 L147.216415,130.789183 L148.658005,130.789183 L148.658005,140.358505 L154.075058,140.358505 L154.075058,141.640953 Z" id="Fill-63" fill="#444444"></path>
                    <path d="M162.944166,137.282109 C162.944166,138.070454 162.857301,138.757017 162.685419,139.341799 C162.513537,139.928431 162.230763,140.413282 161.837098,140.801902 C161.463763,141.173868 161.02759,141.442201 160.52673,141.612454 C160.027718,141.782707 159.443689,141.867833 158.780187,141.867833 C158.101901,141.867833 157.510479,141.777155 157.004074,141.597649 C156.499518,141.418144 156.074433,141.153511 155.730669,140.801902 C155.337004,140.404029 155.054231,139.92473 154.882349,139.360305 C154.710467,138.795879 154.623602,138.103764 154.623602,137.282109 L154.623602,130.788443 L156.065192,130.788443 L156.065192,137.356132 C156.065192,137.942764 156.105853,138.407259 156.185325,138.747764 C156.266645,139.08827 156.399715,139.397316 156.590079,139.673052 C156.802621,139.9895 157.092787,140.228224 157.45873,140.389224 C157.824672,140.548374 158.26639,140.629799 158.780187,140.629799 C159.29953,140.629799 159.741248,140.550224 160.105342,140.392925 C160.469436,140.233776 160.759602,139.995052 160.979537,139.673052 C161.168053,139.397316 161.301122,139.080868 161.382443,138.721856 C161.461915,138.364695 161.502575,137.922408 161.502575,137.393144 L161.502575,130.788443 L162.944166,130.788443 L162.944166,137.282109 Z" id="Fill-65" fill="#444444"></path>
                    <path d="M172.616498,136.20489 C172.616498,135.353625 172.468642,134.635602 172.172932,134.054522 C171.877221,133.46974 171.433654,133.010798 170.847777,132.677694 C170.420845,132.433418 169.966189,132.265016 169.485659,132.168786 C169.005129,132.076257 168.430341,132.028143 167.761295,132.028143 L166.40657,132.028143 L166.40657,140.403844 L167.761295,140.403844 C168.454368,140.403844 169.058727,140.350177 169.576221,140.250246 C170.093715,140.146614 170.5687,139.957855 170.999329,139.680269 C171.539001,139.334211 171.943756,138.880821 172.211744,138.318246 C172.48158,137.753821 172.616498,137.048752 172.616498,136.20489 M174.120927,136.227097 C174.120927,137.213453 173.906536,138.10543 173.479604,138.908579 C173.048975,139.709878 172.477883,140.331671 171.764481,140.773959 C171.269165,141.081154 170.718404,141.301372 170.1085,141.436464 C169.498597,141.573407 168.696481,141.641878 167.702153,141.641878 L164.96498,141.641878 L164.96498,130.788257 L167.672582,130.788257 C168.729748,130.788257 169.572524,130.864131 170.195365,131.017729 C170.818206,131.171326 171.346789,131.382292 171.779267,131.648775 C172.514847,132.109568 173.091483,132.723959 173.50363,133.491947 C173.915777,134.259936 174.120927,135.170418 174.120927,136.227097" id="Fill-67" fill="#444444"></path>
                    <path d="M179.543709,141.640953 L175.263295,141.640953 L175.263295,140.532459 L176.682707,140.532459 L176.682707,131.895826 L175.263295,131.895826 L175.263295,130.789183 L179.543709,130.789183 L179.543709,131.895826 L178.122449,131.895826 L178.122449,140.532459 L179.543709,140.532459 L179.543709,141.640953 Z" id="Fill-69" fill="#444444"></path>
                    <path d="M189.533561,141.640953 L187.750055,141.640953 L182.612079,131.932838 L182.612079,141.640953 L181.264746,141.640953 L181.264746,130.789183 L183.499211,130.789183 L188.186228,139.651585 L188.186228,130.789183 L189.533561,130.789183 L189.533561,141.640953 Z" id="Fill-71" fill="#444444"></path>
                    <path d="M200.72751,140.840394 C200.136088,141.110578 199.489221,141.347452 198.786907,141.551015 C198.086442,141.750877 197.408156,141.852659 196.753895,141.852659 C195.909271,141.852659 195.134879,141.736072 194.430717,141.5029 C193.726556,141.269728 193.127741,140.919969 192.632426,140.453624 C192.133413,139.981728 191.747141,139.393245 191.475457,138.686325 C191.203773,137.979406 191.067006,137.152199 191.067006,136.204705 C191.067006,134.470716 191.573411,133.09944 192.586221,132.096429 C193.59903,131.093417 194.987023,130.591911 196.753895,130.591911 C197.369344,130.591911 197.997729,130.665934 198.6409,130.81398 C199.28592,130.962026 199.978992,131.213705 200.720117,131.569015 L200.720117,133.280797 L200.588895,133.280797 C200.439192,133.166061 200.221105,133.012463 199.932787,132.821854 C199.648165,132.631245 199.36724,132.473946 199.088163,132.348107 C198.755488,132.19821 198.376609,132.074222 197.949676,131.97244 C197.52644,131.872509 197.044062,131.824394 196.506238,131.824394 C195.293823,131.824394 194.332763,132.213015 193.626753,132.993957 C192.918895,133.7749 192.567739,134.829728 192.567739,136.160291 C192.567739,137.563026 192.935529,138.656716 193.674806,139.435808 C194.412235,140.216751 195.415804,140.607222 196.68736,140.607222 C197.153105,140.607222 197.617001,140.560957 198.080898,140.468429 C198.544794,140.3759 198.951397,140.257463 199.300705,140.109417 L199.300705,137.450141 L196.395346,137.450141 L196.395346,136.180647 L200.72751,136.180647 L200.72751,140.840394 Z" id="Fill-73" fill="#444444"></path>
                    <path d="M5.75038048,156.732945 C5.75038048,157.685991 5.46021422,158.418818 4.87988169,158.933278 C4.30139735,159.449589 3.52330819,159.706818 2.54746241,159.706818 C2.31459012,159.706818 2.00409373,159.686462 1.61597325,159.645749 C1.22785277,159.605037 0.902570843,159.553221 0.64012747,159.495853 L0.64012747,158.148634 L0.719599759,158.148634 C0.919204578,158.217106 1.16501422,158.285577 1.45518048,158.3596 C1.74719494,158.431772 2.04475398,158.466933 2.34970578,158.466933 C2.79696843,158.466933 3.15366964,158.416968 3.41611301,158.315186 C3.68225277,158.213405 3.87631301,158.06906 4.00383831,157.878451 C4.13506,157.68414 4.21822867,157.445416 4.25334434,157.162278 C4.29030819,156.882841 4.30879012,156.55529 4.30879012,156.187025 L4.30879012,149.852508 L2.01518289,149.852508 L2.01518289,148.701451 L5.75038048,148.701451 L5.75038048,156.732945 Z" id="Fill-75" fill="#444444"></path>
                    <g id="Group-79" transform="translate(6.279518, 147.825893)">
                        <mask id="mask-2" fill="white">
                            <use xlink:href="#path-1"></use>
                        </mask>
                        <g id="Clip-78"></g>
                        <path d="M9.4915788,6.30643908 C9.4915788,4.89630115 9.17553783,3.80816322 8.5453041,3.04387586 C7.91322217,2.27773793 7.05381253,1.89651954 5.9615306,1.89651954 C4.86000771,1.89651954 3.9932053,2.27773793 3.36666795,3.04387586 C2.73828241,3.80816322 2.42408964,4.89630115 2.42408964,6.30643908 C2.42408964,7.72953103 2.74382699,8.81766897 3.38330169,9.57455402 C4.02462458,10.3314391 4.88403422,10.7089563 5.9615306,10.7089563 C7.03902699,10.7089563 7.89658843,10.3314391 8.53421494,9.57455402 C9.17184145,8.81766897 9.4915788,7.72953103 9.4915788,6.30643908 M9.62280048,2.12228966 C10.0645186,2.6089908 10.4027378,3.20302529 10.6374583,3.90809425 C10.874027,4.61316322 10.9923113,5.41261149 10.9923113,6.30643908 C10.9923113,7.19841609 10.8703306,7.99971494 10.6300655,8.70848506 C10.3898005,9.4154046 10.0552776,10.0038874 9.62280048,10.4757839 C9.17553783,10.9661862 8.64880289,11.3344506 8.03889928,11.5842782 C7.43084386,11.8304046 6.73592337,11.9543931 5.95413783,11.9543931 C5.19268241,11.9543931 4.49961012,11.8267034 3.87492096,11.5768759 C3.25208,11.3233471 2.72164867,10.9569333 2.28547518,10.4757839 C1.84745349,9.99278391 1.5129306,9.40430115 1.27821012,8.70478391 C1.04164145,8.00341609 0.923357108,7.20396782 0.923357108,6.30643908 C0.923357108,5.42001379 1.04164145,4.62796782 1.27451373,3.9266 C1.50738602,3.22338161 1.8456053,2.6237954 2.29101976,2.12228966 C2.71980048,1.64484138 3.25023181,1.28212874 3.88231373,1.0286 C4.51624386,0.776921839 5.20746795,0.649232184 5.95413783,0.649232184 C6.7303788,0.649232184 7.42899566,0.778772414 8.04629205,1.03230115 C8.66543663,1.28768046 9.19032337,1.6503931 9.62280048,2.12228966" id="Fill-77" fill="#444444" mask="url(#mask-2)"></path>
                    </g>
                    <path d="M27.116413,159.553961 L25.6748227,159.553961 L25.6748227,154.240961 L20.2670106,154.240961 L20.2670106,159.553961 L18.8254202,159.553961 L18.8254202,148.702191 L20.2670106,148.702191 L20.2670106,152.958513 L25.6748227,152.958513 L25.6748227,148.702191 L27.116413,148.702191 L27.116413,159.553961 Z" id="Fill-80" fill="#444444"></path>
                    <path d="M37.5666494,159.553961 L35.7831434,159.553961 L30.6433193,149.845846 L30.6433193,159.553961 L29.2959867,159.553961 L29.2959867,148.702191 L31.5323,148.702191 L36.2193169,157.564593 L36.2193169,148.702191 L37.5666494,148.702191 L37.5666494,159.553961 Z" id="Fill-82" fill="#444444"></path>
                    <path d="M52.5200075,159.553961 L51.0784171,159.553961 L51.0784171,154.240961 L45.6706051,154.240961 L45.6706051,159.553961 L44.2290147,159.553961 L44.2290147,148.702191 L45.6706051,148.702191 L45.6706051,152.958513 L51.0784171,152.958513 L51.0784171,148.702191 L52.5200075,148.702191 L52.5200075,159.553961 Z" id="Fill-84" fill="#444444"></path>
                    <g id="Group-88" transform="translate(53.484337, 147.825893)">
                        <mask id="mask-4" fill="white">
                            <use xlink:href="#path-3"></use>
                        </mask>
                        <g id="Clip-87"></g>
                        <path d="M9.1665388,6.30643908 C9.1665388,4.89630115 8.85049783,3.80816322 8.2202641,3.04387586 C7.58818217,2.27773793 6.72877253,1.89651954 5.6364906,1.89651954 C4.53496771,1.89651954 3.6681653,2.27773793 3.04162795,3.04387586 C2.41324241,3.80816322 2.09904964,4.89630115 2.09904964,6.30643908 C2.09904964,7.72953103 2.41878699,8.81766897 3.05826169,9.57455402 C3.69958458,10.3314391 4.55899422,10.7089563 5.6364906,10.7089563 C6.71398699,10.7089563 7.57154843,10.3314391 8.20917494,9.57455402 C8.84680145,8.81766897 9.1665388,7.72953103 9.1665388,6.30643908 M9.29776048,2.12228966 C9.73947855,2.6089908 10.0776978,3.20302529 10.3124183,3.90809425 C10.548987,4.61316322 10.6672713,5.41261149 10.6672713,6.30643908 C10.6672713,7.19841609 10.5452906,7.99971494 10.3050255,8.70848506 C10.0647605,9.4154046 9.73023759,10.0038874 9.29776048,10.4757839 C8.85049783,10.9661862 8.32376289,11.3344506 7.71385928,11.5842782 C7.10580386,11.8304046 6.41088337,11.9543931 5.62909783,11.9543931 C4.86764241,11.9543931 4.17457012,11.8267034 3.54988096,11.5768759 C2.92704,11.3233471 2.39660867,10.9569333 1.96043518,10.4757839 C1.52241349,9.99278391 1.1878906,9.40430115 0.95317012,8.70478391 C0.716601446,8.00341609 0.598317108,7.20396782 0.598317108,6.30643908 C0.598317108,5.42001379 0.716601446,4.62796782 0.949473735,3.9266 C1.18234602,3.22338161 1.5205653,2.6237954 1.96597976,2.12228966 C2.39476048,1.64484138 2.92519181,1.28212874 3.55727373,1.0286 C4.19120386,0.776921839 4.88242795,0.649232184 5.62909783,0.649232184 C6.4053388,0.649232184 7.10395566,0.778772414 7.72125205,1.03230115 C8.34039663,1.28768046 8.86528337,1.6503931 9.29776048,2.12228966" id="Fill-86" fill="#444444" mask="url(#mask-4)"></path>
                    </g>
                    <path d="M71.2961675,152.018051 C71.2961675,151.644234 71.2296325,151.318533 71.100259,151.042798 C70.9671892,150.763361 70.7694325,150.537591 70.5014446,150.363637 C70.2685723,150.21189 70.0042807,150.104556 69.7067217,150.039786 C69.4073145,149.975016 69.0284349,149.941706 68.5719313,149.941706 L67.1469747,149.941706 L67.1469747,154.277602 L68.3612373,154.277602 C68.9452663,154.277602 69.4165554,154.223936 69.7824976,154.122154 C70.1465916,154.016671 70.4404542,153.85012 70.6696301,153.620648 C70.8969578,153.387476 71.0595988,153.1432 71.1538566,152.88597 C71.2499627,152.62874 71.2961675,152.340051 71.2961675,152.018051 M72.7969,151.981039 C72.7969,152.462189 72.7118831,152.908177 72.5436976,153.319005 C72.3773602,153.729832 72.1426398,154.085143 71.8413843,154.386786 C71.4680494,154.760602 71.0263313,155.04189 70.5162301,155.228798 C70.0079771,155.415706 69.364806,155.510085 68.5867169,155.510085 L67.1469747,155.510085 L67.1469747,159.553591 L65.7053843,159.553591 L65.7053843,148.701821 L68.645859,148.701821 C69.2964229,148.701821 69.8471843,148.755487 70.2981434,148.866522 C70.7491024,148.973855 71.1501602,149.145959 71.4994687,149.379131 C71.9116157,149.656717 72.231353,150.000924 72.4568325,150.415453 C72.682312,150.82628 72.7969,151.349993 72.7969,151.981039" id="Fill-89" fill="#444444"></path>
                    <path d="M82.6777082,159.553961 L80.8054889,159.553961 L76.5195299,154.72211 L75.4420335,155.875018 L75.4420335,159.553961 L74.0022913,159.553961 L74.0022913,148.702191 L75.4420335,148.702191 L75.4420335,154.364949 L80.7056865,148.702191 L82.4522287,148.702191 L77.6118118,153.804225 L82.6777082,159.553961 Z" id="Fill-91" fill="#444444"></path>
                    <path d="M87.3848704,159.553961 L83.1044559,159.553961 L83.1044559,158.445467 L84.523868,158.445467 L84.523868,149.808834 L83.1044559,149.808834 L83.1044559,148.702191 L87.3848704,148.702191 L87.3848704,149.808834 L85.9636101,149.808834 L85.9636101,158.445467 L87.3848704,158.445467 L87.3848704,159.553961 Z" id="Fill-93" fill="#444444"></path>
                    <path d="M97.3767549,159.553961 L95.5932489,159.553961 L90.4534248,149.845846 L90.4534248,159.553961 L89.1060923,159.553961 L89.1060923,148.702191 L91.3424055,148.702191 L96.0294224,157.564593 L96.0294224,148.702191 L97.3767549,148.702191 L97.3767549,159.553961 Z" id="Fill-95" fill="#444444"></path>
                    <path d="M107.404494,156.456469 C107.404494,156.880251 107.30654,157.29663 107.110632,157.711159 C106.912875,158.121986 106.637494,158.473595 106.28449,158.760434 C105.896369,159.071331 105.441714,159.313756 104.926068,159.489561 C104.410422,159.663515 103.787581,159.750492 103.057545,159.750492 C102.277608,159.750492 101.575294,159.67832 100.952453,159.532124 C100.327764,159.385929 99.6938342,159.171262 99.0488149,158.884423 L99.0488149,157.076411 L99.1504655,157.076411 C99.6975306,157.533503 100.331461,157.885113 101.050408,158.13309 C101.767507,158.381067 102.442097,158.503205 103.072331,158.503205 C103.966856,158.503205 104.661776,158.338503 105.15894,158.001699 C105.657952,157.666745 105.903762,157.218906 105.903762,156.660032 C105.903762,156.180733 105.787326,155.825423 105.552605,155.595952 C105.316037,155.368331 104.959335,155.190676 104.478805,155.064837 C104.114711,154.966756 103.721046,154.887182 103.294114,154.824262 C102.870878,154.761343 102.421767,154.681768 101.944933,154.583687 C100.983873,154.380124 100.272319,154.030366 99.8102704,153.538113 C99.346374,153.044009 99.1135017,152.40186 99.1135017,151.609814 C99.1135017,150.701182 99.4979258,149.9554 100.264926,149.37617 C101.030078,148.79509 102.004075,148.504549 103.183222,148.504549 C103.944678,148.504549 104.643294,148.576722 105.279073,148.722917 C105.914851,148.869113 106.47855,149.048618 106.968321,149.263285 L106.968321,150.967664 L106.86667,150.967664 C106.452675,150.619756 105.911155,150.327366 105.238413,150.096044 C104.567519,149.866572 103.879991,149.751837 103.175829,149.751837 C102.403285,149.751837 101.78414,149.912837 101.314699,150.232986 C100.847107,150.553136 100.612386,150.965814 100.612386,151.472871 C100.612386,151.924411 100.73067,152.277871 100.963543,152.535101 C101.196415,152.794182 101.604866,152.990343 102.192591,153.125434 C102.503087,153.193906 102.944805,153.275331 103.515897,153.373411 C104.090685,153.471492 104.57676,153.569572 104.974121,153.673205 C105.778085,153.886021 106.38614,154.209871 106.792743,154.642906 C107.201193,155.07409 107.404494,155.679228 107.404494,156.456469" id="Fill-97" fill="#444444"></path>
                    <path d="M119.002643,155.290792 L117.102701,149.962987 L115.195366,155.290792 L119.002643,155.290792 Z M122.044769,159.554516 L120.50892,159.554516 L119.44621,156.530677 L114.759193,156.530677 L113.696482,159.554516 L112.232713,159.554516 L116.178605,148.700895 L118.100725,148.700895 L122.044769,159.554516 Z" id="Fill-99" fill="#444444"></path>
                    <path d="M131.228993,159.553961 L129.445487,159.553961 L124.305663,149.845846 L124.305663,159.553961 L122.95833,159.553961 L122.95833,148.702191 L125.194644,148.702191 L129.88166,157.564593 L129.88166,148.702191 L131.228993,148.702191 L131.228993,159.553961 Z" id="Fill-101" fill="#444444"></path>
                    <path d="M141.031253,154.117898 C141.031253,153.266633 140.883398,152.54861 140.587687,151.96753 C140.291976,151.382748 139.84841,150.923806 139.262533,150.590702 C138.8356,150.346426 138.380945,150.178024 137.902263,150.081794 C137.421733,149.989266 136.845096,149.941151 136.176051,149.941151 L134.823173,149.941151 L134.823173,158.316852 L136.176051,158.316852 C136.870971,158.316852 137.47533,158.263185 137.990976,158.163254 C138.510318,158.059622 138.983455,157.870863 139.415933,157.593277 C139.953757,157.24722 140.358511,156.793829 140.626499,156.231254 C140.896335,155.666829 141.031253,154.96176 141.031253,154.117898 M142.53753,154.140105 C142.53753,155.126461 142.32314,156.018438 141.894359,156.821587 C141.46373,157.622886 140.892639,158.244679 140.179236,158.686967 C139.68392,158.994162 139.133159,159.21438 138.525104,159.349472 C137.913352,159.486415 137.113084,159.554886 136.118757,159.554886 L133.379735,159.554886 L133.379735,148.701266 L136.089186,148.701266 C137.146352,148.701266 137.989128,148.777139 138.61012,148.930737 C139.23481,149.084334 139.761545,149.2953 140.194022,149.561783 C140.931451,150.022576 141.508087,150.636967 141.918386,151.404955 C142.332381,152.172944 142.53753,153.083426 142.53753,154.140105" id="Fill-103" fill="#444444"></path>
                    <path d="M156.915915,159.553961 L155.132409,159.553961 L149.994433,149.845846 L149.994433,159.553961 L148.647101,159.553961 L148.647101,148.702191 L150.881566,148.702191 L155.568583,157.564593 L155.568583,148.702191 L156.915915,148.702191 L156.915915,159.553961 Z" id="Fill-105" fill="#444444"></path>
                    <g id="Group-109" transform="translate(157.831325, 147.825893)">
                        <mask id="mask-6" fill="white">
                            <use xlink:href="#path-5"></use>
                        </mask>
                        <g id="Clip-108"></g>
                        <path d="M9.18644217,6.30643908 C9.18644217,4.89630115 8.8704012,3.80816322 8.24016747,3.04387586 C7.60808554,2.27773793 6.7486759,1.89651954 5.65639398,1.89651954 C4.55487108,1.89651954 3.68806867,2.27773793 3.06153133,3.04387586 C2.43314578,3.80816322 2.11895301,4.89630115 2.11895301,6.30643908 C2.11895301,7.72953103 2.43869036,8.81766897 3.07816506,9.57455402 C3.71948795,10.3314391 4.57889759,10.7089563 5.65639398,10.7089563 C6.73389036,10.7089563 7.59145181,10.3314391 8.22907831,9.57455402 C8.86670482,8.81766897 9.18644217,7.72953103 9.18644217,6.30643908 M9.31766386,2.12228966 C9.75938193,2.6089908 10.0976012,3.20302529 10.3323217,3.90809425 C10.5688904,4.61316322 10.6871747,5.41261149 10.6871747,6.30643908 C10.6871747,7.19841609 10.565194,7.99971494 10.3249289,8.70848506 C10.0846639,9.4154046 9.75014096,10.0038874 9.31766386,10.4757839 C8.8704012,10.9661862 8.34366627,11.3344506 7.73376265,11.5842782 C7.12570723,11.8304046 6.43078675,11.9543931 5.6490012,11.9543931 C4.88754578,11.9543931 4.19447349,11.8267034 3.56978434,11.5768759 C2.94694337,11.3233471 2.41651205,10.9569333 1.98033855,10.4757839 C1.54231687,9.99278391 1.20779398,9.40430115 0.973073494,8.70478391 C0.736504819,8.00341609 0.618220482,7.20396782 0.618220482,6.30643908 C0.618220482,5.42001379 0.736504819,4.62796782 0.969377108,3.9266 C1.2022494,3.22338161 1.54046867,2.6237954 1.98588313,2.12228966 C2.41466386,1.64484138 2.94509518,1.28212874 3.57717711,1.0286 C4.21110723,0.776921839 4.90233133,0.649232184 5.6490012,0.649232184 C6.42524217,0.649232184 7.12385904,0.778772414 7.74115542,1.03230115 C8.3603,1.28768046 8.88518675,1.6503931 9.31766386,2.12228966" id="Fill-107" fill="#444444" mask="url(#mask-6)"></path>
                    </g>
                    <path d="M177.801972,149.984824 L173.930008,149.984824 L173.930008,159.554146 L172.488418,159.554146 L172.488418,149.984824 L168.616454,149.984824 L168.616454,148.702376 L177.801972,148.702376 L177.801972,149.984824 Z" id="Fill-110" fill="#444444"></path>
                    <path d="M184.126303,151.756009 C184.126303,151.445113 184.072706,151.169377 183.961814,150.928802 C183.854619,150.688228 183.671648,150.484664 183.420293,150.319963 C183.211448,150.177469 182.96379,150.081239 182.67732,150.023871 C182.392698,149.968354 182.054479,149.942446 181.666359,149.942446 L179.969718,149.942446 L179.969718,154.035917 L181.426093,154.035917 C181.880749,154.035917 182.279959,153.997055 182.620026,153.91748 C182.958245,153.836055 183.246563,153.688009 183.48498,153.469641 C183.703067,153.264228 183.86386,153.029205 183.969207,152.764572 C184.074554,152.49994 184.126303,152.164986 184.126303,151.756009 L184.126303,151.756009 Z M187.495559,159.554331 L185.627036,159.554331 L182.000881,155.240641 L179.969718,155.240641 L179.969718,159.554331 L178.528127,159.554331 L178.528127,148.702561 L181.56286,148.702561 C182.218968,148.702561 182.766033,148.745124 183.202207,148.830251 C183.63838,148.915377 184.030197,149.067124 184.381354,149.285492 C184.775019,149.533469 185.081819,149.846216 185.301754,150.221883 C185.521689,150.597549 185.63258,151.074998 185.63258,151.652377 C185.63258,152.43517 185.436672,153.092124 185.043007,153.617687 C184.649342,154.145101 184.107821,154.542975 183.420293,154.809457 L187.495559,159.554331 Z" id="Fill-112" fill="#444444"></path>
                    <path d="M195.303803,159.553961 L188.164235,159.553961 L188.164235,148.702191 L195.303803,148.702191 L195.303803,149.984639 L189.603977,149.984639 L189.603977,152.958513 L195.303803,152.958513 L195.303803,154.240961 L189.603977,154.240961 L189.603977,158.271513 L195.303803,158.271513 L195.303803,159.553961 Z" id="Fill-114" fill="#444444"></path>
                    <path d="M209.020905,154.117898 C209.020905,153.266633 208.87305,152.54861 208.577339,151.96753 C208.281628,151.382748 207.838062,150.923806 207.252185,150.590702 C206.825252,150.346426 206.370597,150.178024 205.890067,150.081794 C205.409537,149.989266 204.834749,149.941151 204.165703,149.941151 L202.810978,149.941151 L202.810978,158.316852 L204.165703,158.316852 C204.858775,158.316852 205.463134,158.263185 205.980628,158.163254 C206.498122,158.059622 206.973108,157.870863 207.403737,157.593277 C207.941561,157.24722 208.346315,156.793829 208.616151,156.231254 C208.884139,155.666829 209.020905,154.96176 209.020905,154.117898 M210.525334,154.140105 C210.525334,155.126461 210.310944,156.018438 209.882163,156.821587 C209.451534,157.622886 208.880443,158.244679 208.168888,158.686967 C207.673573,158.994162 207.122811,159.21438 206.512908,159.349472 C205.903004,159.486415 205.100888,159.554886 204.106561,159.554886 L201.369387,159.554886 L201.369387,148.701266 L204.07699,148.701266 C205.134156,148.701266 205.976932,148.777139 206.599773,148.930737 C207.222614,149.084334 207.751197,149.2953 208.183674,149.561783 C208.919255,150.022576 209.495891,150.636967 209.90619,151.404955 C210.320185,152.172944 210.525334,153.083426 210.525334,154.140105" id="Fill-116" fill="#444444"></path>
                    <path d="M217.628309,155.290792 L215.728367,149.962987 L213.819183,155.290792 L217.628309,155.290792 Z M220.670434,159.554516 L219.132738,159.554516 L218.071875,156.530677 L213.38301,156.530677 L212.322147,159.554516 L210.858379,159.554516 L214.80427,148.700895 L216.726391,148.700895 L220.670434,159.554516 Z" id="Fill-118" fill="#444444"></path>
                    <path d="M231.237107,159.553961 L229.797364,159.553961 L229.797364,150.203007 L226.782962,156.567133 L225.923552,156.567133 L222.933176,150.203007 L222.933176,159.553961 L221.585844,159.553961 L221.585844,148.702191 L223.552321,148.702191 L226.441046,154.742467 L229.235514,148.702191 L231.237107,148.702191 L231.237107,159.553961 Z" id="Fill-120" fill="#444444"></path>
                    <path d="M240.559206,159.553961 L233.419637,159.553961 L233.419637,148.702191 L240.559206,148.702191 L240.559206,149.984639 L234.85938,149.984639 L234.85938,152.958513 L240.559206,152.958513 L240.559206,154.240961 L234.85938,154.240961 L234.85938,158.271513 L240.559206,158.271513 L240.559206,159.553961 Z" id="Fill-122" fill="#444444"></path>
                    <path d="M120.60096,3.70114943 C95.9941219,3.70114943 75.9744978,23.7465747 75.9744978,48.3851264 C75.9744978,73.0236782 95.9941219,93.0691034 120.60096,93.0691034 C145.205951,93.0691034 165.227423,73.0236782 165.227423,48.3851264 C165.227423,23.7465747 145.205951,3.70114943 120.60096,3.70114943 M120.60096,96.7702529 C93.9555653,96.7702529 72.2781123,75.0648621 72.2781123,48.3851264 C72.2781123,21.7053908 93.9555653,0 120.60096,0 C147.246356,0 168.923809,21.7053908 168.923809,48.3851264 C168.923809,75.0648621 147.246356,96.7702529 120.60096,96.7702529" id="Fill-124" fill="#818286"></path>
                    <path d="M117.472155,40.3647356 C117.980408,40.8014713 118.385162,41.3122299 118.686418,41.8933103 C118.987673,42.4762414 119.137377,43.2516322 119.137377,44.2176322 C119.137377,45.3094713 118.922986,46.3291379 118.492357,47.2747816 C118.05988,48.2222759 117.398227,49.0346782 116.507398,49.7082874 C115.633203,50.3633908 114.607456,50.8667471 113.428309,51.2128046 C112.25101,51.5625632 110.818661,51.7383678 109.136806,51.7383678 C107.214685,51.7383678 105.567945,51.5847701 104.189193,51.2831264 C102.814138,50.9814828 101.695981,50.6446782 100.832875,50.2708621 L100.832875,45.1706782 L101.440931,45.1706782 C102.335456,45.711046 103.401863,46.1792414 104.643849,46.5734138 C105.882138,46.9675862 107.018777,47.1674483 108.046372,47.1674483 C108.648883,47.1674483 109.303143,47.1156322 110.009153,47.0194023 C110.71701,46.9194713 111.312128,46.7048046 111.8019,46.3698506 C112.186324,46.1107701 112.493124,45.7961724 112.720451,45.4260575 C112.949627,45.0577931 113.062367,44.5248276 113.062367,43.8271609 C113.062367,43.1517011 112.907119,42.6298391 112.594774,42.2597241 C112.28243,41.8914598 111.873979,41.6286782 111.363878,41.4732299 C110.855625,41.3066782 110.243873,41.216 109.526774,41.1993448 C108.809675,41.1826897 108.144326,41.1752874 107.532574,41.1752874 L106.255473,41.1752874 L106.255473,37.0262989 L107.578779,37.0262989 C108.390136,37.0262989 109.107234,37.0022414 109.730075,36.9485747 C110.351068,36.8967586 110.883348,36.7783218 111.317673,36.5895632 C111.774177,36.3934023 112.11794,36.1306207 112.347116,35.803069 C112.574444,35.4736667 112.689032,34.9943678 112.689032,34.3596207 C112.689032,33.8914253 112.570748,33.5157586 112.330483,33.2289195 C112.092066,32.9420805 111.79081,32.7163103 111.426716,32.5497586 C111.021962,32.3628506 110.545128,32.2370115 109.994367,32.1759425 C109.443606,32.113023 108.970468,32.0815632 108.576803,32.0815632 C107.599109,32.0815632 106.540095,32.2518161 105.397912,32.5904713 C104.255728,32.9272759 103.150509,33.413977 102.080406,34.0487241 L101.503769,34.0487241 L101.503769,29.0096092 C102.353938,28.6672529 103.512755,28.336 104.976524,28.0195517 C106.44214,27.7012529 107.928087,27.5421034 109.432516,27.5421034 C110.896285,27.5421034 112.180779,27.6716437 113.280454,27.9251724 C114.381977,28.1805517 115.289439,28.5210575 116.006538,28.9466897 C116.858555,29.4555977 117.492485,30.0755402 117.90648,30.8028161 C118.322324,31.5319425 118.531169,32.3850575 118.531169,33.3621609 C118.531169,34.6501609 118.130112,35.803069 117.331692,36.8171839 C116.531425,37.8312989 115.477955,38.4771494 114.169434,38.7584368 L114.169434,38.9768046 C114.698018,39.048977 115.259868,39.1951724 115.85129,39.4135402 C116.442712,39.631908 116.982384,39.9483563 117.472155,40.3647356" id="Fill-126" fill="#E30536"></path>
                    <path d="M134.400122,37.4606287 C134.400122,36.1892839 134.278141,35.1437092 134.03418,34.3276057 C133.790219,33.5078011 133.453847,32.8749046 133.028763,32.4270655 C132.727508,32.0939621 132.380047,31.8552379 131.984534,31.7090425 C131.589021,31.5609966 131.175026,31.4888241 130.738852,31.4888241 C130.334098,31.4888241 129.947826,31.5609966 129.578187,31.7016402 C129.208549,31.8422839 128.853696,32.0847092 128.509932,32.4270655 C128.190194,32.760169 127.927751,33.1987552 127.72445,33.7409736 C127.521149,34.2813414 127.421346,34.9290425 127.421346,35.6785253 C127.421346,36.4076517 127.528541,37.020192 127.746628,37.5142954 C127.966563,38.0102494 128.267819,38.4025713 128.652243,38.6949621 C129.014488,38.9762494 129.443269,39.1742609 129.936737,39.2889966 C130.430204,39.4037322 130.968028,39.4611 131.548361,39.4611 C132.015953,39.4611 132.524207,39.4018816 133.074968,39.2797437 C133.625729,39.1613069 134.052662,39.039169 134.353917,38.9133299 C134.353917,38.8004448 134.36131,38.6357437 134.376096,38.4229276 C134.392729,38.2064103 134.400122,37.8862609 134.400122,37.4606287 M140.367937,38.3285483 C140.367937,40.2753529 140.118431,42.0852149 139.61757,43.7599851 C139.120407,45.4366057 138.362647,46.8448931 137.344293,47.9903989 C136.24277,49.2284333 134.876956,50.1574218 133.24685,50.7755138 C131.616744,51.3954563 129.716802,51.7045023 127.545175,51.7045023 C126.776327,51.7045023 125.946488,51.6582379 125.051963,51.5657092 C124.159286,51.4713299 123.573409,51.388054 123.292484,51.3158816 L123.292484,46.7468126 L123.915325,46.7468126 C124.227669,46.8911575 124.671235,47.0466057 125.247872,47.2131575 C125.82266,47.3797092 126.60999,47.4629851 127.608014,47.4629851 C128.417522,47.4629851 129.212245,47.3612034 129.990334,47.1576402 C130.770272,46.9559276 131.439317,46.6357782 132.001168,46.1990425 C132.61292,45.7308471 133.117476,45.1460655 133.51299,44.4428471 C133.906655,43.7433299 134.170946,42.8976172 134.305864,41.9075598 C133.402098,42.4294218 132.564867,42.8254448 131.790474,43.103031 C131.016081,43.3787667 130.053173,43.5157092 128.8999,43.5157092 C128.029402,43.5157092 127.195867,43.4102264 126.401144,43.1974103 C125.604573,42.9827437 124.881929,42.6533414 124.227669,42.2036517 C123.364563,41.5892609 122.677035,40.7824103 122.163238,39.7775483 C121.64944,38.7726862 121.392541,37.5050425 121.392541,35.9746172 C121.392541,33.4874448 122.257496,31.4610655 123.985556,29.8936287 C125.715464,28.326192 127.981349,27.5433989 130.785057,27.5433989 C132.228496,27.5433989 133.509293,27.7321575 134.625602,28.1133759 C135.743758,28.4927437 136.704819,29.0738241 137.516175,29.8547667 C138.460602,30.7485943 139.172156,31.8866977 139.650838,33.2709276 C140.127672,34.6551575 140.367937,36.3428816 140.367937,38.3285483" id="Fill-128" fill="#E30536"></path>
                    <path d="M94.6819051,65.8029207 C94.6819051,66.8096333 94.2568207,67.6257368 93.4048039,68.2549322 C92.552787,68.8859782 91.3958183,69.2005759 89.9338978,69.2005759 C89.0892737,69.2005759 88.3518448,69.1247023 87.7234593,68.9766563 C87.0969219,68.8286103 86.5073484,68.6380011 85.9584352,68.4103805 L85.9584352,65.9602195 L86.2467533,65.9602195 C86.7901219,66.3951046 87.4000255,66.7300586 88.0727677,66.963231 C88.7473581,67.1964034 89.3942255,67.3111391 90.0170665,67.3111391 C90.1760111,67.3111391 90.3867051,67.3000356 90.645452,67.272277 C90.9060472,67.2426678 91.1185894,67.198254 91.2830786,67.1353345 C91.4845316,67.0520586 91.6490207,66.9484264 91.7802424,66.8262885 C91.9114641,66.7004494 91.9761508,66.5190931 91.9761508,66.2766678 C91.9761508,66.0527483 91.8800448,65.8584379 91.6915292,65.6955874 C91.5011653,65.5327368 91.2239364,65.4087483 90.8598424,65.3217713 C90.4754183,65.2310931 90.0688159,65.1459667 89.6418834,65.066392 C89.2149508,64.9868172 88.813893,64.8831851 88.4387099,64.7610471 C87.5793002,64.4816103 86.9620039,64.1022425 86.5849725,63.6229437 C86.2079412,63.1454954 86.0194255,62.5533115 86.0194255,61.8426908 C86.0194255,60.893346 86.4463581,60.1161046 87.2983749,59.5146678 C88.1503918,58.9113805 89.2463701,58.6115874 90.5844617,58.6115874 C91.2553557,58.6115874 91.9207051,58.6763575 92.5749653,58.8077483 C93.2310737,58.9372885 93.7984689,59.1019897 94.2771508,59.2981506 L94.2771508,61.6520816 L93.9980737,61.6520816 C93.5859267,61.3226793 93.0832183,61.0469437 92.486252,60.8248747 C91.8892858,60.6028057 91.2812304,60.4917713 90.6602376,60.4917713 C90.4403027,60.4917713 90.2222159,60.5065759 90.0059773,60.5361851 C89.7897388,60.5657943 89.5790448,60.6213115 89.37944,60.7045874 C89.2001653,60.7730586 89.0467653,60.8766908 88.91924,61.0173345 C88.7898665,61.1561276 88.727028,61.315277 88.727028,61.4947828 C88.727028,61.7631161 88.8305267,61.9703805 89.0356761,62.1147253 C89.2426737,62.2590701 89.6307942,62.3904609 90.2000376,62.5088977 C90.5752207,62.5884724 90.9356183,62.6624954 91.2793822,62.7365184 C91.6249942,62.8086908 91.996481,62.9104724 92.3938424,63.0381621 C93.175628,63.295392 93.7522641,63.6433 94.1237508,64.0837368 C94.4952376,64.5260241 94.6819051,65.0978517 94.6819051,65.8029207" id="Fill-130" fill="#444444"></path>
                    <path d="M100.410748,69.2131598 C99.6529892,69.2131598 98.9525241,69.1002747 98.309353,68.8763552 C97.6680301,68.6524356 97.1172687,68.3193322 96.6552205,67.8751943 C96.1931723,67.4310563 95.8346229,66.8777345 95.5832687,66.2152287 C95.3282181,65.5508724 95.202541,64.7847345 95.202541,63.9168149 C95.202541,63.1062632 95.3226735,62.3734356 95.5647867,61.7127805 C95.8069,61.0558264 96.1580566,60.4895506 96.6201048,60.017654 C97.0636711,59.5661138 97.6125843,59.2163552 98.2686928,58.9683782 C98.922953,58.7222517 99.6400518,58.5982632 100.418141,58.5982632 C100.845073,58.5982632 101.233194,58.6223207 101.578806,58.6704356 C101.92257,58.7185506 102.242307,58.7796195 102.534322,58.8573437 C102.839273,58.9461713 103.118351,59.0424011 103.367857,59.1515851 C103.615514,59.2570678 103.835449,59.3569989 104.022117,59.4495276 L104.022117,61.9255966 L103.720861,61.9255966 C103.593336,61.8164126 103.432543,61.688723 103.236635,61.5369759 C103.042575,61.3870793 102.82264,61.2371828 102.57683,61.0928379 C102.323628,60.9466425 102.053792,60.8245046 101.759929,60.7245736 C101.467914,60.622792 101.153722,60.574677 100.822895,60.574677 C100.451408,60.574677 100.100252,60.6320448 99.7657289,60.748631 C99.4330542,60.8652172 99.124406,61.0595276 98.8397843,61.3278609 C98.5717964,61.588792 98.3537096,61.9311483 98.1873723,62.3623322 C98.0191867,62.7898149 97.9360181,63.311677 97.9360181,63.9242172 C97.9360181,64.5608149 98.0265795,65.095631 98.2077024,65.5249644 C98.3869771,65.9542977 98.6143048,66.2929529 98.8896855,66.5390793 C99.1669145,66.7889069 99.4774108,66.9684126 99.8211747,67.0775966 C100.16309,67.1830793 100.50131,67.2385966 100.833984,67.2385966 C101.153722,67.2385966 101.471611,67.188631 101.783955,67.0924011 C102.0963,66.9980218 102.386466,66.8684816 102.650758,66.705631 C102.874389,66.5723897 103.083235,66.431746 103.275447,66.2818494 C103.465811,66.1319529 103.624755,66.0024126 103.748584,65.8913782 L104.022117,65.8913782 L104.022117,68.3341368 C103.765218,68.4488724 103.523105,68.5580563 103.290233,68.6579874 C103.055512,68.7579184 102.811551,68.8448954 102.554652,68.9189184 C102.220129,69.0151483 101.909633,69.0873207 101.61577,69.1372862 C101.323755,69.1872517 100.920849,69.2131598 100.410748,69.2131598" id="Fill-132" fill="#444444"></path>
                    <path d="M114.41469,69.014408 L111.782863,69.014408 L111.782863,64.5119598 L107.897962,64.5119598 L107.897962,69.014408 L105.266135,69.014408 L105.266135,58.7973851 L107.897962,58.7973851 L107.897962,62.5373966 L111.782863,62.5373966 L111.782863,58.7973851 L114.41469,58.7973851 L114.41469,69.014408 Z" id="Fill-134" fill="#444444"></path>
                    <path d="M122.765933,66.4968862 C123.022832,66.1841391 123.211348,65.8177253 123.335177,65.3939437 C123.457158,64.9720126 123.518148,64.474208 123.518148,63.9023805 C123.518148,63.2898402 123.447917,62.7679782 123.307454,62.3386448 C123.165143,61.9093115 122.980324,61.5595529 122.751148,61.2930701 C122.518276,61.0210356 122.250288,60.8211736 121.947184,60.6971851 C121.64408,60.5750471 121.326191,60.5139782 120.997213,60.5139782 C120.66269,60.5139782 120.348497,60.571346 120.054635,60.6897828 C119.760772,60.8100701 119.490936,61.006231 119.243278,61.2819667 C119.01595,61.537346 118.827435,61.8908057 118.685124,62.3404954 C118.540965,62.7920356 118.468885,63.3138977 118.468885,63.9097828 C118.468885,64.5186218 118.539117,65.0349322 118.677731,65.4624149 C118.816346,65.8917483 119.001165,66.2396563 119.230341,66.5098402 C119.457668,66.7781736 119.723808,66.9798862 120.032456,67.1057253 C120.337408,67.2334149 120.658994,67.3000356 120.997213,67.3000356 C121.335432,67.3000356 121.657018,67.2334149 121.963818,67.1038747 C122.26877,66.9724839 122.536758,66.7689207 122.765933,66.4968862 M126.253473,63.9097828 C126.253473,65.5364379 125.787729,66.8318402 124.85624,67.7885874 C123.922902,68.7490356 122.63656,69.2283345 120.98982,69.2283345 C119.350473,69.2283345 118.064131,68.7490356 117.132642,67.7885874 C116.199305,66.8318402 115.73356,65.5364379 115.73356,63.9097828 C115.73356,62.2664724 116.199305,60.9692195 117.132642,60.014323 C118.064131,59.061277 119.350473,58.5856793 120.98982,58.5856793 C122.627319,58.5856793 123.911813,59.061277 124.848847,60.014323 C125.78588,60.9692195 126.253473,62.2664724 126.253473,63.9097828" id="Fill-136" fill="#444444"></path>
                    <path d="M134.010153,66.4968862 C134.267052,66.1841391 134.455568,65.8177253 134.579397,65.3939437 C134.701378,64.9720126 134.762368,64.474208 134.762368,63.9023805 C134.762368,63.2898402 134.692137,62.7679782 134.551674,62.3386448 C134.409363,61.9093115 134.224544,61.5595529 133.995368,61.2930701 C133.762496,61.0210356 133.494508,60.8211736 133.191404,60.6971851 C132.8883,60.5750471 132.570411,60.5139782 132.241433,60.5139782 C131.90691,60.5139782 131.592717,60.571346 131.298855,60.6897828 C131.004992,60.8100701 130.735156,61.006231 130.487498,61.2819667 C130.26017,61.537346 130.071655,61.8908057 129.929344,62.3404954 C129.785185,62.7920356 129.713105,63.3138977 129.713105,63.9097828 C129.713105,64.5186218 129.783337,65.0349322 129.921951,65.4624149 C130.060566,65.8917483 130.245385,66.2396563 130.474561,66.5098402 C130.701888,66.7781736 130.968028,66.9798862 131.276676,67.1057253 C131.581628,67.2334149 131.903214,67.3000356 132.241433,67.3000356 C132.579652,67.3000356 132.901238,67.2334149 133.208038,67.1038747 C133.51299,66.9724839 133.780978,66.7689207 134.010153,66.4968862 M137.497693,63.9097828 C137.497693,65.5364379 137.031949,66.8318402 136.10046,67.7885874 C135.167122,68.7490356 133.88078,69.2283345 132.23404,69.2283345 C130.594693,69.2283345 129.308351,68.7490356 128.376862,67.7885874 C127.443525,66.8318402 126.97778,65.5364379 126.97778,63.9097828 C126.97778,62.2664724 127.443525,60.9692195 128.376862,60.014323 C129.308351,59.061277 130.594693,58.5856793 132.23404,58.5856793 C133.871539,58.5856793 135.156033,59.061277 136.093067,60.014323 C137.0301,60.9692195 137.497693,62.2664724 137.497693,63.9097828" id="Fill-138" fill="#444444"></path>
                    <path d="M146.176991,69.014408 L138.817488,69.014408 L138.817488,58.7973851 L141.447466,58.7973851 L141.447466,67.0379943 L146.176991,67.0379943 L146.176991,69.014408 Z" id="Fill-140" fill="#444444"></path>
                    <path d="M155.240898,65.8029207 C155.240898,66.8096333 154.815814,67.6257368 153.963797,68.2549322 C153.11178,68.8859782 151.954812,69.2005759 150.492891,69.2005759 C149.648267,69.2005759 148.910838,69.1247023 148.282453,68.9766563 C147.655915,68.8286103 147.066342,68.6380011 146.517428,68.4103805 L146.517428,65.9602195 L146.805747,65.9602195 C147.349115,66.3951046 147.959019,66.7300586 148.631761,66.963231 C149.306351,67.1964034 149.953219,67.3111391 150.57606,67.3111391 C150.735004,67.3111391 150.945698,67.3000356 151.204445,67.272277 C151.46504,67.2426678 151.677583,67.198254 151.842072,67.1353345 C152.043525,67.0520586 152.208014,66.9484264 152.339236,66.8262885 C152.470457,66.7004494 152.535144,66.5190931 152.535144,66.2766678 C152.535144,66.0527483 152.439038,65.8584379 152.250522,65.6955874 C152.060159,65.5327368 151.78293,65.4087483 151.418836,65.3217713 C151.034412,65.2310931 150.627809,65.1459667 150.200877,65.066392 C149.773944,64.9868172 149.372886,64.8831851 148.997703,64.7610471 C148.138293,64.4816103 147.520997,64.1022425 147.143966,63.6229437 C146.766934,63.1454954 146.578419,62.5533115 146.578419,61.8426908 C146.578419,60.893346 147.005351,60.1161046 147.857368,59.5146678 C148.709385,58.9113805 149.805363,58.6115874 151.143455,58.6115874 C151.814349,58.6115874 152.479698,58.6763575 153.133959,58.8077483 C153.790067,58.9372885 154.357462,59.1019897 154.836144,59.2981506 L154.836144,61.6520816 L154.557067,61.6520816 C154.14492,61.3226793 153.642212,61.0469437 153.045245,60.8248747 C152.448279,60.6028057 151.840224,60.4917713 151.219231,60.4917713 C150.999296,60.4917713 150.781209,60.5065759 150.564971,60.5361851 C150.348732,60.5657943 150.138038,60.6213115 149.938433,60.7045874 C149.759159,60.7730586 149.605759,60.8766908 149.478233,61.0173345 C149.34886,61.1561276 149.286021,61.315277 149.286021,61.4947828 C149.286021,61.7631161 149.38952,61.9703805 149.594669,62.1147253 C149.801667,62.2590701 150.189787,62.3904609 150.759031,62.5088977 C151.134214,62.5884724 151.494612,62.6624954 151.838375,62.7365184 C152.183987,62.8086908 152.555474,62.9104724 152.952836,63.0381621 C153.734621,63.295392 154.311257,63.6433 154.682744,64.0837368 C155.054231,64.5260241 155.240898,65.0978517 155.240898,65.8029207" id="Fill-142" fill="#444444"></path>
                </g>
            </g>
        </g>
    </g>
</svg>