<?xml version="1.0" encoding="UTF-8" standalone="no"?>
<svg width="178px" height="172px" viewBox="0 0 178 172" version="1.1" xmlns="http://www.w3.org/2000/svg" xmlns:xlink="http://www.w3.org/1999/xlink">
    <!-- Generator: Sketch 3.7.2 (28276) - http://www.bohemiancoding.com/sketch -->
    <title>Page 1</title>
    <desc>Created with Sketch.</desc>
    <defs>
        <polygon id="path-1" points="0 0.3718 0 11.4018 8.2069 11.4018 8.2069 0.3718 0 0.3718"></polygon>
        <polygon id="path-3" points="9.338 11.2093 9.338 0.5643 0.5302 0.5643 0.5302 11.2093 9.338 11.2093"></polygon>
        <polygon id="path-5" points="21.691 0.925 0.05 0.925 0.05 21.9036 21.691 21.9036 21.691 0.925"></polygon>
    </defs>
    <g id="Page-1" stroke="none" stroke-width="1" fill="none" fill-rule="evenodd">
        <g transform="translate(0.000000, -1.000000)">
            <polygon id="Fill-1" fill="#565657" points="14.7193 136.7162 10.5153 136.7162 10.5153 135.6292 11.9103 135.6292 11.9103 127.1582 10.5153 127.1582 10.5153 126.0722 14.7193 126.0722 14.7193 127.1582 13.3253 127.1582 13.3253 135.6292 14.7193 135.6292"></polygon>
            <polygon id="Fill-2" fill="#565657" points="24.9566 136.7162 23.2056 136.7162 18.1576 127.1942 18.1576 136.7162 16.8356 136.7162 16.8356 126.0722 19.0306 126.0722 23.6346 134.7642 23.6346 126.0722 24.9566 126.0722"></polygon>
            <g id="Group-138" transform="translate(0.000000, 0.075000)">
                <path d="M35.7151,135.8683 C35.4531,135.9833 35.2161,136.0903 35.0041,136.1913 C34.7911,136.2903 34.5141,136.3943 34.1711,136.5043 C33.8801,136.5953 33.5651,136.6733 33.2241,136.7373 C32.8831,136.8003 32.5081,136.8343 32.0981,136.8343 C31.3261,136.8343 30.6241,136.7243 29.9921,136.5083 C29.3611,136.2923 28.8121,135.9513 28.3451,135.4893 C27.8871,135.0373 27.5301,134.4613 27.2721,133.7623 C27.0151,133.0663 26.8871,132.2543 26.8871,131.3283 C26.8871,130.4533 27.0101,129.6683 27.2581,128.9763 C27.5061,128.2853 27.8631,127.7023 28.3311,127.2253 C28.7831,126.7623 29.3301,126.4103 29.9711,126.1673 C30.6121,125.9243 31.3241,125.8033 32.1051,125.8033 C32.6771,125.8033 33.2481,125.8733 33.8171,126.0113 C34.3861,126.1493 35.0191,126.3923 35.7151,126.7393 L35.7151,128.4203 L35.6081,128.4203 C35.0221,127.9293 34.4411,127.5713 33.8641,127.3473 C33.2871,127.1223 32.6701,127.0113 32.0121,127.0113 C31.4731,127.0113 30.9881,127.0973 30.5581,127.2713 C30.1261,127.4473 29.7421,127.7163 29.4031,128.0833 C29.0741,128.4413 28.8181,128.8933 28.6351,129.4373 C28.4511,129.9833 28.3591,130.6143 28.3591,131.3283 C28.3591,132.0773 28.4601,132.7203 28.6631,133.2593 C28.8661,133.7983 29.1261,134.2353 29.4451,134.5743 C29.7801,134.9273 30.1691,135.1873 30.6141,135.3583 C31.0601,135.5263 31.5311,135.6113 32.0261,135.6113 C32.7081,135.6113 33.3471,135.4943 33.9421,135.2603 C34.5381,135.0283 35.0951,134.6773 35.6151,134.2113 L35.7151,134.2113 L35.7151,135.8683 Z" id="Fill-3" fill="#565657"></path>
                <polygon id="Fill-5" fill="#565657" points="44.1596 136.6412 37.4246 136.6412 37.4246 125.9972 38.8406 125.9972 38.8406 135.3822 44.1596 135.3822"></polygon>
                <path d="M53.2953,132.3658 C53.2953,133.1388 53.2113,133.8108 53.0423,134.3848 C52.8723,134.9588 52.5953,135.4378 52.2083,135.8188 C51.8423,136.1808 51.4133,136.4458 50.9223,136.6128 C50.4313,136.7798 49.8593,136.8628 49.2073,136.8628 C48.5393,136.8628 47.9583,136.7738 47.4623,136.5988 C46.9663,136.4218 46.5503,136.1628 46.2113,135.8188 C45.8253,135.4288 45.5473,134.9558 45.3783,134.4028 C45.2093,133.8508 45.1243,133.1708 45.1243,132.3658 L45.1243,125.9968 L46.5403,125.9968 L46.5403,132.4368 C46.5403,133.0148 46.5793,133.4688 46.6583,133.8038 C46.7373,134.1368 46.8693,134.4398 47.0553,134.7108 C47.2643,135.0208 47.5483,135.2528 47.9093,135.4108 C48.2683,135.5688 48.7013,135.6468 49.2073,135.6468 C49.7163,135.6468 50.1503,135.5688 50.5083,135.4148 C50.8653,135.2608 51.1513,135.0248 51.3653,134.7108 C51.5513,134.4398 51.6833,134.1278 51.7623,133.7788 C51.8413,133.4278 51.8803,132.9928 51.8803,132.4718 L51.8803,125.9968 L53.2953,125.9968 L53.2953,132.3658 Z" id="Fill-7" fill="#565657"></path>
                <path d="M63.218,131.3075 C63.218,130.4745 63.073,129.7705 62.782,129.1985 C62.491,128.6275 62.057,128.1775 61.481,127.8475 C61.061,127.6095 60.616,127.4435 60.144,127.3515 C59.672,127.2575 59.107,127.2115 58.45,127.2115 L57.12,127.2115 L57.12,135.4255 L58.45,135.4255 C59.131,135.4255 59.725,135.3755 60.233,135.2745 C60.741,135.1755 61.206,134.9895 61.631,134.7175 C62.16,134.3795 62.557,133.9345 62.821,133.3815 C63.085,132.8285 63.218,132.1375 63.218,131.3075 M64.697,131.3285 C64.697,132.2965 64.486,133.1745 64.065,133.9595 C63.643,134.7465 63.082,135.3565 62.381,135.7905 C61.895,136.0895 61.353,136.3075 60.755,136.4405 C60.157,136.5735 59.369,136.6415 58.392,136.6415 L55.704,136.6415 L55.704,125.9965 L58.364,125.9965 C59.403,125.9965 60.229,126.0715 60.841,126.2225 C61.453,126.3705 61.971,126.5785 62.396,126.8385 C63.12,127.2925 63.685,127.8955 64.09,128.6485 C64.495,129.4025 64.697,130.2955 64.697,131.3285" id="Fill-9" fill="#565657"></path>
                <polygon id="Fill-11" fill="#565657" points="70.4456 136.6412 66.2416 136.6412 66.2416 135.5542 67.6366 135.5542 67.6366 127.0832 66.2416 127.0832 66.2416 125.9972 70.4456 125.9972 70.4456 127.0832 69.0516 127.0832 69.0516 135.5542 70.4456 135.5542"></polygon>
                <polygon id="Fill-13" fill="#565657" points="80.683 136.6412 78.932 136.6412 73.884 127.1192 73.884 136.6412 72.562 136.6412 72.562 125.9972 74.757 125.9972 79.361 134.6892 79.361 125.9972 80.683 125.9972"></polygon>
                <path d="M92.1,135.8541 C91.519,136.1221 90.884,136.3541 90.195,136.5511 C89.507,136.7491 88.84,136.8481 88.197,136.8481 C87.368,136.8481 86.608,136.7331 85.916,136.5051 C85.225,136.2761 84.637,135.9321 84.151,135.4751 C83.66,135.0141 83.281,134.4361 83.014,133.7411 C82.747,133.0481 82.614,132.2361 82.614,131.3071 C82.614,129.6061 83.111,128.2641 84.104,127.2781 C85.098,126.2951 86.462,125.8041 88.197,125.8041 C88.802,125.8041 89.421,125.8761 90.052,126.0221 C90.684,126.1671 91.364,126.4131 92.093,126.7611 L92.093,128.4411 L91.964,128.4411 C91.816,128.3261 91.602,128.1771 91.321,127.9911 C91.04,127.8051 90.763,127.6511 90.491,127.5271 C90.163,127.3781 89.79,127.2551 89.373,127.1581 C88.956,127.0601 88.483,127.0111 87.954,127.0111 C86.763,127.0111 85.82,127.3941 85.127,128.1591 C84.433,128.9231 84.086,129.9581 84.086,131.2651 C84.086,132.6421 84.449,133.7131 85.173,134.4781 C85.898,135.2421 86.884,135.6251 88.133,135.6251 C88.59,135.6251 89.047,135.5811 89.501,135.4891 C89.957,135.3981 90.356,135.2811 90.699,135.1401 L90.699,132.5301 L87.847,132.5301 L87.847,131.2861 L92.1,131.2861 L92.1,135.8541 Z" id="Fill-15" fill="#565657"></path>
                <path d="M106.9407,131.3217 C106.9407,129.9387 106.6317,128.8737 106.0117,128.1227 C105.3927,127.3727 104.5457,126.9967 103.4737,126.9967 C102.3927,126.9967 101.5427,127.3727 100.9257,128.1227 C100.3077,128.8737 99.9997,129.9387 99.9997,131.3217 C99.9997,132.7187 100.3137,133.7877 100.9437,134.5287 C101.5727,135.2687 102.4167,135.6397 103.4737,135.6397 C104.5317,135.6397 105.3747,135.2687 106.0017,134.5287 C106.6277,133.7877 106.9407,132.7187 106.9407,131.3217 M107.0697,127.2187 C107.5037,127.6947 107.8357,128.2787 108.0667,128.9697 C108.2987,129.6607 108.4137,130.4447 108.4137,131.3217 C108.4137,132.1987 108.2957,132.9847 108.0597,133.6777 C107.8247,134.3707 107.4937,134.9487 107.0697,135.4107 C106.6317,135.8927 106.1127,136.2547 105.5147,136.4977 C104.9167,136.7407 104.2337,136.8627 103.4667,136.8627 C102.7187,136.8627 102.0377,136.7387 101.4257,136.4907 C100.8127,136.2427 100.2927,135.8827 99.8637,135.4107 C99.4347,134.9397 99.1047,134.3597 98.8737,133.6737 C98.6427,132.9877 98.5277,132.2047 98.5277,131.3217 C98.5277,130.4547 98.6417,129.6767 98.8707,128.9877 C99.0987,128.2997 99.4317,127.7097 99.8707,127.2187 C100.2897,126.7517 100.8117,126.3937 101.4327,126.1457 C102.0547,125.8977 102.7327,125.7737 103.4667,125.7737 C104.2297,125.7737 104.9147,125.8997 105.5217,126.1497 C106.1297,126.3997 106.6457,126.7557 107.0697,127.2187" id="Fill-17" fill="#565657"></path>
                <path d="M118.3798,132.3658 C118.3798,133.1388 118.2958,133.8108 118.1268,134.3848 C117.9568,134.9588 117.6798,135.4378 117.2928,135.8188 C116.9268,136.1808 116.4978,136.4458 116.0068,136.6128 C115.5158,136.7798 114.9438,136.8628 114.2918,136.8628 C113.6238,136.8628 113.0428,136.7738 112.5468,136.5988 C112.0508,136.4218 111.6348,136.1628 111.2958,135.8188 C110.9098,135.4288 110.6318,134.9558 110.4628,134.4028 C110.2938,133.8508 110.2088,133.1708 110.2088,132.3658 L110.2088,125.9968 L111.6248,125.9968 L111.6248,132.4368 C111.6248,133.0148 111.6638,133.4688 111.7428,133.8038 C111.8218,134.1368 111.9538,134.4398 112.1398,134.7108 C112.3488,135.0208 112.6328,135.2528 112.9938,135.4108 C113.3528,135.5688 113.7858,135.6468 114.2918,135.6468 C114.8008,135.6468 115.2348,135.5688 115.5928,135.4148 C115.9498,135.2608 116.2358,135.0248 116.4498,134.7108 C116.6358,134.4398 116.7678,134.1278 116.8468,133.7788 C116.9258,133.4278 116.9648,132.9928 116.9648,132.4718 L116.9648,125.9968 L118.3798,125.9968 L118.3798,132.3658 Z" id="Fill-19" fill="#565657"></path>
                <path d="M126.2863,128.9908 C126.2863,128.6858 126.2333,128.4168 126.1263,128.1808 C126.0183,127.9448 125.8403,127.7448 125.5933,127.5838 C125.3873,127.4448 125.1443,127.3478 124.8643,127.2948 C124.5833,127.2398 124.2513,127.2108 123.8703,127.2108 L122.2043,127.2108 L122.2043,131.2298 L123.6343,131.2298 C124.0823,131.2298 124.4733,131.1908 124.8063,131.1108 C125.1403,131.0328 125.4243,130.8858 125.6573,130.6708 C125.8713,130.4708 126.0303,130.2418 126.1333,129.9818 C126.2353,129.7208 126.2863,129.3918 126.2863,128.9908 L126.2863,128.9908 Z M129.5963,136.6408 L127.7593,136.6408 L124.1993,132.4078 L122.2043,132.4078 L122.2043,136.6408 L120.7883,136.6408 L120.7883,125.9968 L123.7703,125.9968 C124.4133,125.9968 124.9493,126.0378 125.3783,126.1208 C125.8073,126.2048 126.1933,126.3528 126.5363,126.5678 C126.9223,126.8108 127.2243,127.1168 127.4413,127.4858 C127.6573,127.8568 127.7663,128.3248 127.7663,128.8918 C127.7663,129.6588 127.5733,130.3008 127.1863,130.8178 C126.8013,131.3358 126.2693,131.7238 125.5933,131.9868 L129.5963,136.6408 Z" id="Fill-21" fill="#565657"></path>
                <path d="M143.7512,135.8683 C143.4892,135.9833 143.2522,136.0903 143.0402,136.1913 C142.8272,136.2903 142.5502,136.3943 142.2072,136.5043 C141.9162,136.5953 141.6012,136.6733 141.2602,136.7373 C140.9192,136.8003 140.5442,136.8343 140.1342,136.8343 C139.3622,136.8343 138.6602,136.7243 138.0282,136.5083 C137.3972,136.2923 136.8482,135.9513 136.3812,135.4893 C135.9232,135.0373 135.5662,134.4613 135.3082,133.7623 C135.0512,133.0663 134.9232,132.2543 134.9232,131.3283 C134.9232,130.4533 135.0462,129.6683 135.2942,128.9763 C135.5422,128.2853 135.8992,127.7023 136.3672,127.2253 C136.8192,126.7623 137.3662,126.4103 138.0072,126.1673 C138.6482,125.9243 139.3602,125.8033 140.1412,125.8033 C140.7132,125.8033 141.2842,125.8733 141.8532,126.0113 C142.4222,126.1493 143.0552,126.3923 143.7512,126.7393 L143.7512,128.4203 L143.6442,128.4203 C143.0582,127.9293 142.4772,127.5713 141.9002,127.3473 C141.3232,127.1223 140.7062,127.0113 140.0482,127.0113 C139.5092,127.0113 139.0242,127.0973 138.5942,127.2713 C138.1622,127.4473 137.7782,127.7163 137.4392,128.0833 C137.1102,128.4413 136.8542,128.8933 136.6712,129.4373 C136.4872,129.9833 136.3952,130.6143 136.3952,131.3283 C136.3952,132.0773 136.4962,132.7203 136.6992,133.2593 C136.9022,133.7983 137.1622,134.2353 137.4812,134.5743 C137.8162,134.9273 138.2052,135.1873 138.6502,135.3583 C139.0962,135.5263 139.5672,135.6113 140.0622,135.6113 C140.7442,135.6113 141.3832,135.4943 141.9782,135.2603 C142.5742,135.0283 143.1312,134.6773 143.6512,134.2113 L143.7512,134.2113 L143.7512,135.8683 Z" id="Fill-23" fill="#565657"></path>
                <path d="M153.2663,131.3217 C153.2663,129.9387 152.9573,128.8737 152.3373,128.1227 C151.7183,127.3727 150.8713,126.9967 149.7993,126.9967 C148.7183,126.9967 147.8683,127.3727 147.2513,128.1227 C146.6333,128.8737 146.3253,129.9387 146.3253,131.3217 C146.3253,132.7187 146.6393,133.7877 147.2693,134.5287 C147.8983,135.2687 148.7423,135.6397 149.7993,135.6397 C150.8573,135.6397 151.7003,135.2687 152.3273,134.5287 C152.9533,133.7877 153.2663,132.7187 153.2663,131.3217 M153.3953,127.2187 C153.8293,127.6947 154.1613,128.2787 154.3923,128.9697 C154.6243,129.6607 154.7393,130.4447 154.7393,131.3217 C154.7393,132.1987 154.6213,132.9847 154.3853,133.6777 C154.1503,134.3707 153.8193,134.9487 153.3953,135.4107 C152.9573,135.8927 152.4383,136.2547 151.8403,136.4977 C151.2423,136.7407 150.5593,136.8627 149.7923,136.8627 C149.0443,136.8627 148.3633,136.7387 147.7513,136.4907 C147.1383,136.2427 146.6183,135.8827 146.1893,135.4107 C145.7603,134.9397 145.4303,134.3597 145.1993,133.6737 C144.9683,132.9877 144.8533,132.2047 144.8533,131.3217 C144.8533,130.4547 144.9673,129.6767 145.1963,128.9877 C145.4243,128.2997 145.7573,127.7097 146.1963,127.2187 C146.6153,126.7517 147.1373,126.3937 147.7583,126.1457 C148.3803,125.8977 149.0583,125.7737 149.7923,125.7737 C150.5553,125.7737 151.2403,125.8997 151.8473,126.1497 C152.4553,126.3997 152.9713,126.7557 153.3953,127.2187" id="Fill-25" fill="#565657"></path>
                <path d="M164.498,131.3217 C164.498,129.9387 164.189,128.8737 163.569,128.1227 C162.95,127.3727 162.103,126.9967 161.031,126.9967 C159.95,126.9967 159.1,127.3727 158.483,128.1227 C157.865,128.8737 157.557,129.9387 157.557,131.3217 C157.557,132.7187 157.871,133.7877 158.501,134.5287 C159.13,135.2687 159.974,135.6397 161.031,135.6397 C162.089,135.6397 162.932,135.2687 163.559,134.5287 C164.185,133.7877 164.498,132.7187 164.498,131.3217 M164.627,127.2187 C165.061,127.6947 165.393,128.2787 165.624,128.9697 C165.856,129.6607 165.971,130.4447 165.971,131.3217 C165.971,132.1987 165.853,132.9847 165.617,133.6777 C165.382,134.3707 165.051,134.9487 164.627,135.4107 C164.189,135.8927 163.67,136.2547 163.072,136.4977 C162.474,136.7407 161.791,136.8627 161.024,136.8627 C160.276,136.8627 159.595,136.7387 158.983,136.4907 C158.37,136.2427 157.85,135.8827 157.421,135.4107 C156.992,134.9397 156.662,134.3597 156.431,133.6737 C156.2,132.9877 156.085,132.2047 156.085,131.3217 C156.085,130.4547 156.199,129.6767 156.428,128.9877 C156.656,128.2997 156.989,127.7097 157.428,127.2187 C157.847,126.7517 158.369,126.3937 158.99,126.1457 C159.612,125.8977 160.29,125.7737 161.024,125.7737 C161.787,125.7737 162.472,125.8997 163.079,126.1497 C163.687,126.3997 164.203,126.7557 164.627,127.2187" id="Fill-27" fill="#565657"></path>
                <g id="Group-31" transform="translate(0.000000, 143.000000)">
                    <mask id="mask-2" fill="white">
                        <use xlink:href="#path-1"></use>
                    </mask>
                    <g id="Clip-30"></g>
                    <path d="M8.2069,8.1708 C8.2069,8.5858 8.1099,8.9948 7.9169,9.4008 C7.7239,9.8048 7.4539,10.1488 7.1059,10.4308 C6.7239,10.7358 6.2799,10.9728 5.7719,11.1448 C5.2649,11.3168 4.6539,11.4018 3.9389,11.4018 C3.1709,11.4018 2.4819,11.3308 1.8689,11.1878 C1.2569,11.0438 0.6339,10.8328 -0.0001,10.5518 L-0.0001,8.7788 L0.0999,8.7788 C0.6379,9.2268 1.2599,9.5728 1.9659,9.8158 C2.6709,10.0588 3.3329,10.1788 3.9529,10.1788 C4.8299,10.1788 5.5129,10.0158 6.0009,9.6868 C6.4899,9.3588 6.7339,8.9188 6.7339,8.3708 C6.7339,7.8998 6.6189,7.5518 6.3869,7.3268 C6.1559,7.1038 5.8049,6.9298 5.3329,6.8058 C4.9759,6.7098 4.5879,6.6318 4.1709,6.5698 C3.7539,6.5078 3.3119,6.4298 2.8449,6.3348 C1.9009,6.1338 1.2019,5.7918 0.7469,5.3078 C0.2919,4.8238 0.0639,4.1928 0.0639,3.4168 C0.0639,2.5248 0.4409,1.7948 1.1939,1.2258 C1.9459,0.6568 2.9029,0.3718 4.0599,0.3718 C4.8089,0.3718 5.4949,0.4428 6.1189,0.5858 C6.7439,0.7298 7.2969,0.9048 7.7779,1.1158 L7.7779,2.7878 L7.6779,2.7878 C7.2729,2.4458 6.7399,2.1598 6.0799,1.9328 C5.4199,1.7078 4.7439,1.5948 4.0529,1.5948 C3.2949,1.5948 2.6859,1.7528 2.2259,2.0658 C1.7659,2.3798 1.5369,2.7858 1.5369,3.2818 C1.5369,3.7248 1.6509,4.0728 1.8799,4.3248 C2.1089,4.5778 2.5119,4.7708 3.0879,4.9038 C3.3929,4.9718 3.8269,5.0508 4.3889,5.1468 C4.9519,5.2428 5.4289,5.3398 5.8189,5.4408 C6.6099,5.6498 7.2059,5.9678 7.6059,6.3908 C8.0069,6.8148 8.2069,7.4088 8.2069,8.1708" id="Fill-29" fill="#565657" mask="url(#mask-2)"></path>
                </g>
                <polygon id="Fill-32" fill="#565657" points="17.7787 144.8232 13.9757 144.8232 13.9757 154.2092 12.5607 154.2092 12.5607 144.8232 8.7577 144.8232 8.7577 143.5652 17.7787 143.5652"></polygon>
                <path d="M24.3203,150.0275 L22.4543,144.8025 L20.5823,150.0275 L24.3203,150.0275 Z M27.3093,154.2085 L25.8003,154.2085 L24.7563,151.2435 L20.1533,151.2435 L19.1093,154.2085 L17.6723,154.2085 L21.5473,143.5645 L23.4343,143.5645 L27.3093,154.2085 Z" id="Fill-34" fill="#565657"></path>
                <path d="M34.1287,146.5603 C34.1287,146.2553 34.0757,145.9843 33.9687,145.7483 C33.8607,145.5123 33.6827,145.3143 33.4357,145.1513 C33.2297,145.0133 32.9867,144.9173 32.7067,144.8623 C32.4257,144.8073 32.0937,144.7803 31.7127,144.7803 L30.0467,144.7803 L30.0467,148.7973 L31.4767,148.7973 C31.9247,148.7973 32.3157,148.7583 32.6487,148.6803 C32.9827,148.6003 33.2667,148.4553 33.4997,148.2403 C33.7137,148.0403 33.8727,147.8103 33.9757,147.5493 C34.0777,147.2903 34.1287,146.9613 34.1287,146.5603 L34.1287,146.5603 Z M37.4387,154.2093 L35.6017,154.2093 L32.0417,149.9773 L30.0467,149.9773 L30.0467,154.2093 L28.6307,154.2093 L28.6307,143.5643 L31.6127,143.5643 C32.2557,143.5643 32.7917,143.6073 33.2207,143.6903 C33.6497,143.7743 34.0357,143.9223 34.3787,144.1373 C34.7647,144.3803 35.0667,144.6863 35.2837,145.0553 C35.4997,145.4243 35.6087,145.8923 35.6087,146.4593 C35.6087,147.2263 35.4157,147.8703 35.0287,148.3863 C34.6437,148.9033 34.1117,149.2933 33.4357,149.5563 L37.4387,154.2093 Z" id="Fill-36" fill="#565657"></path>
                <polygon id="Fill-38" fill="#565657" points="46.1103 144.8232 42.3073 144.8232 42.3073 154.2092 40.8923 154.2092 40.8923 144.8232 37.0893 144.8232 37.0893 143.5652 46.1103 143.5652"></polygon>
                <polygon id="Fill-40" fill="#565657" points="54.2604 154.2089 47.2474 154.2089 47.2474 143.5649 54.2604 143.5649 54.2604 144.8229 48.6624 144.8229 48.6624 147.7389 54.2604 147.7389 54.2604 148.9979 48.6624 148.9979 48.6624 152.9499 54.2604 152.9499"></polygon>
                <path d="M63.7259,148.8771 C63.7259,148.0421 63.5809,147.3381 63.2899,146.7681 C62.9989,146.1951 62.5649,145.7451 61.9889,145.4171 C61.5689,145.1781 61.1239,145.0131 60.6519,144.9191 C60.1799,144.8271 59.6149,144.7811 58.9579,144.7811 L57.6279,144.7811 L57.6279,152.9951 L58.9579,152.9951 C59.6389,152.9951 60.2329,152.9431 60.7409,152.8441 C61.2489,152.7431 61.7139,152.5591 62.1389,152.2861 C62.6679,151.9471 63.0649,151.5021 63.3289,150.9491 C63.5929,150.3961 63.7259,149.7051 63.7259,148.8771 M65.2049,148.8981 C65.2049,149.8661 64.9939,150.7421 64.5729,151.5291 C64.1509,152.3141 63.5899,152.9261 62.8889,153.3581 C62.4029,153.6591 61.8609,153.8761 61.2629,154.0091 C60.6649,154.1431 59.8769,154.2091 58.8999,154.2091 L56.2119,154.2091 L56.2119,143.5651 L58.8719,143.5651 C59.9109,143.5651 60.7369,143.6391 61.3489,143.7901 C61.9609,143.9401 62.4789,144.1461 62.9039,144.4081 C63.6279,144.8601 64.1929,145.4631 64.5979,146.2161 C65.0029,146.9701 65.2049,147.8631 65.2049,148.8981" id="Fill-42" fill="#565657"></path>
                <polygon id="Fill-44" fill="#565657" points="79.6469 144.8232 75.8439 144.8232 75.8439 154.2092 74.4289 154.2092 74.4289 144.8232 70.6259 144.8232 70.6259 143.5652 79.6469 143.5652"></polygon>
                <polygon id="Fill-46" fill="#565657" points="88.9271 154.2089 87.5111 154.2089 87.5111 148.9979 82.1991 148.9979 82.1991 154.2089 80.7841 154.2089 80.7841 143.5649 82.1991 143.5649 82.1991 147.7389 87.5111 147.7389 87.5111 143.5649 88.9271 143.5649"></polygon>
                <polygon id="Fill-48" fill="#565657" points="98.506 154.2089 91.493 154.2089 91.493 143.5649 98.506 143.5649 98.506 144.8229 92.908 144.8229 92.908 147.7389 98.506 147.7389 98.506 148.9979 92.908 148.9979 92.908 152.9499 98.506 152.9499"></polygon>
                <polygon id="Fill-50" fill="#565657" points="104.2109 154.2089 100.0069 154.2089 100.0069 153.1219 101.4019 153.1219 101.4019 144.6509 100.0069 144.6509 100.0069 143.5649 104.2109 143.5649 104.2109 144.6509 102.8169 144.6509 102.8169 153.1219 104.2109 153.1219"></polygon>
                <path d="M111.8249,146.5603 C111.8249,146.2553 111.7719,145.9843 111.6649,145.7483 C111.5569,145.5123 111.3789,145.3143 111.1319,145.1513 C110.9259,145.0133 110.6829,144.9173 110.4029,144.8623 C110.1219,144.8073 109.7899,144.7803 109.4089,144.7803 L107.7429,144.7803 L107.7429,148.7973 L109.1729,148.7973 C109.6209,148.7973 110.0119,148.7583 110.3449,148.6803 C110.6789,148.6003 110.9629,148.4553 111.1959,148.2403 C111.4099,148.0403 111.5689,147.8103 111.6719,147.5493 C111.7739,147.2903 111.8249,146.9613 111.8249,146.5603 L111.8249,146.5603 Z M115.1349,154.2093 L113.2979,154.2093 L109.7379,149.9773 L107.7429,149.9773 L107.7429,154.2093 L106.3269,154.2093 L106.3269,143.5643 L109.3089,143.5643 C109.9519,143.5643 110.4879,143.6073 110.9169,143.6903 C111.3459,143.7743 111.7319,143.9223 112.0749,144.1373 C112.4609,144.3803 112.7629,144.6863 112.9799,145.0553 C113.1959,145.4243 113.3049,145.8923 113.3049,146.4593 C113.3049,147.2263 113.1119,147.8703 112.7249,148.3863 C112.3399,148.9033 111.8079,149.2933 111.1319,149.5563 L115.1349,154.2093 Z" id="Fill-52" fill="#565657"></path>
                <path d="M129.2899,153.4379 C129.0279,153.5509 128.7909,153.6599 128.5789,153.7589 C128.3669,153.8599 128.0889,153.9639 127.7459,154.0739 C127.4549,154.1649 127.1399,154.2409 126.7989,154.3069 C126.4579,154.3699 126.0829,154.4019 125.6729,154.4019 C124.9009,154.4019 124.1989,154.2939 123.5669,154.0779 C122.9359,153.8599 122.3869,153.5209 121.9199,153.0589 C121.4619,152.6069 121.1049,152.0309 120.8469,151.3319 C120.5899,150.6339 120.4619,149.8219 120.4619,148.8979 C120.4619,148.0209 120.5849,147.2379 120.8329,146.5459 C121.0809,145.8549 121.4379,145.2719 121.9059,144.7949 C122.3579,144.3319 122.9049,143.9799 123.5459,143.7369 C124.1869,143.4939 124.8989,143.3719 125.6799,143.3719 C126.2519,143.3719 126.8229,143.4409 127.3919,143.5789 C127.9609,143.7169 128.5939,143.9599 129.2899,144.3079 L129.2899,145.9879 L129.1829,145.9879 C128.5969,145.4969 128.0159,145.1409 127.4389,144.9159 C126.8619,144.6919 126.2449,144.5809 125.5869,144.5809 C125.0479,144.5809 124.5629,144.6669 124.1329,144.8409 C123.7009,145.0149 123.3169,145.2859 122.9779,145.6529 C122.6489,146.0089 122.3929,146.4609 122.2099,147.0069 C122.0259,147.5529 121.9339,148.1819 121.9339,148.8979 C121.9339,149.6469 122.0349,150.2899 122.2379,150.8289 C122.4409,151.3659 122.7009,151.8049 123.0199,152.1439 C123.3549,152.4969 123.7439,152.7569 124.1889,152.9259 C124.6349,153.0959 125.1059,153.1789 125.6009,153.1789 C126.2829,153.1789 126.9219,153.0639 127.5169,152.8299 C128.1129,152.5959 128.6699,152.2469 129.1899,151.7789 L129.2899,151.7789 L129.2899,153.4379 Z" id="Fill-54" fill="#565657"></path>
                <path d="M136.4031,150.0275 L134.5371,144.8025 L132.6651,150.0275 L136.4031,150.0275 Z M139.3921,154.2085 L137.8831,154.2085 L136.8391,151.2435 L132.2361,151.2435 L131.1921,154.2085 L129.7551,154.2085 L133.6301,143.5645 L135.5171,143.5645 L139.3921,154.2085 Z" id="Fill-56" fill="#565657"></path>
                <path d="M146.2115,146.5603 C146.2115,146.2553 146.1585,145.9843 146.0515,145.7483 C145.9435,145.5123 145.7655,145.3143 145.5185,145.1513 C145.3125,145.0133 145.0695,144.9173 144.7895,144.8623 C144.5085,144.8073 144.1765,144.7803 143.7955,144.7803 L142.1295,144.7803 L142.1295,148.7973 L143.5595,148.7973 C144.0075,148.7973 144.3985,148.7583 144.7315,148.6803 C145.0655,148.6003 145.3495,148.4553 145.5825,148.2403 C145.7965,148.0403 145.9555,147.8103 146.0585,147.5493 C146.1605,147.2903 146.2115,146.9613 146.2115,146.5603 L146.2115,146.5603 Z M149.5215,154.2093 L147.6845,154.2093 L144.1245,149.9773 L142.1295,149.9773 L142.1295,154.2093 L140.7135,154.2093 L140.7135,143.5643 L143.6955,143.5643 C144.3385,143.5643 144.8745,143.6073 145.3035,143.6903 C145.7325,143.7743 146.1185,143.9223 146.4615,144.1373 C146.8475,144.3803 147.1495,144.6863 147.3665,145.0553 C147.5825,145.4243 147.6915,145.8923 147.6915,146.4593 C147.6915,147.2263 147.4985,147.8703 147.1115,148.3863 C146.7265,148.9033 146.1945,149.2933 145.5185,149.5563 L149.5215,154.2093 Z" id="Fill-58" fill="#565657"></path>
                <polygon id="Fill-60" fill="#565657" points="157.6143 154.2089 150.6013 154.2089 150.6013 143.5649 157.6143 143.5649 157.6143 144.8229 152.0163 144.8229 152.0163 147.7389 157.6143 147.7389 157.6143 148.9979 152.0163 148.9979 152.0163 152.9499 157.6143 152.9499"></polygon>
                <polygon id="Fill-62" fill="#565657" points="166.579 154.2089 159.566 154.2089 159.566 143.5649 166.579 143.5649 166.579 144.8229 160.981 144.8229 160.981 147.7389 166.579 147.7389 166.579 148.9979 160.981 148.9979 160.981 152.9499 166.579 152.9499"></polygon>
                <g id="Group-66" transform="translate(168.000000, 143.000000)">
                    <mask id="mask-4" fill="white">
                        <use xlink:href="#path-3"></use>
                    </mask>
                    <g id="Clip-65"></g>
                    <path d="M6.0282,3.5603 C6.0282,3.2553 5.9752,2.9843 5.8682,2.7483 C5.7602,2.5123 5.5822,2.3143 5.3352,2.1513 C5.1292,2.0133 4.8862,1.9173 4.6062,1.8623 C4.3252,1.8073 3.9932,1.7803 3.6122,1.7803 L1.9462,1.7803 L1.9462,5.7973 L3.3762,5.7973 C3.8242,5.7973 4.2152,5.7583 4.5482,5.6803 C4.8822,5.6003 5.1662,5.4553 5.3992,5.2403 C5.6132,5.0403 5.7722,4.8103 5.8752,4.5493 C5.9772,4.2903 6.0282,3.9613 6.0282,3.5603 L6.0282,3.5603 Z M9.3382,11.2093 L7.5012,11.2093 L3.9412,6.9773 L1.9462,6.9773 L1.9462,11.2093 L0.5302,11.2093 L0.5302,0.5643 L3.5122,0.5643 C4.1552,0.5643 4.6912,0.6073 5.1202,0.6903 C5.5492,0.7743 5.9352,0.9223 6.2782,1.1373 C6.6642,1.3803 6.9662,1.6863 7.1832,2.0553 C7.3992,2.4243 7.5082,2.8923 7.5082,3.4593 C7.5082,4.2263 7.3152,4.8703 6.9282,5.3863 C6.5432,5.9033 6.0112,6.2933 5.3352,6.5563 L9.3382,11.2093 Z" id="Fill-64" fill="#565657" mask="url(#mask-4)"></path>
                </g>
                <path d="M11.4702,167.597 L9.6042,162.372 L7.7322,167.597 L11.4702,167.597 Z M14.4592,171.778 L12.9502,171.778 L11.9062,168.813 L7.3032,168.813 L6.2592,171.778 L4.8222,171.778 L8.6972,161.134 L10.5842,161.134 L14.4592,171.778 Z" id="Fill-67" fill="#565657"></path>
                <path d="M23.5164,168.7403 C23.5164,169.1553 23.4194,169.5643 23.2264,169.9703 C23.0334,170.3743 22.7634,170.7183 22.4154,171.0003 C22.0334,171.3053 21.5894,171.5423 21.0814,171.7143 C20.5744,171.8863 19.9634,171.9713 19.2484,171.9713 C18.4804,171.9713 17.7914,171.9003 17.1784,171.7573 C16.5664,171.6133 15.9434,171.4023 15.3094,171.1213 L15.3094,169.3483 L15.4094,169.3483 C15.9474,169.7963 16.5694,170.1423 17.2754,170.3853 C17.9804,170.6283 18.6424,170.7483 19.2624,170.7483 C20.1394,170.7483 20.8224,170.5853 21.3104,170.2563 C21.7994,169.9283 22.0434,169.4883 22.0434,168.9403 C22.0434,168.4693 21.9284,168.1213 21.6964,167.8963 C21.4654,167.6733 21.1144,167.4993 20.6424,167.3753 C20.2854,167.2793 19.8974,167.2013 19.4804,167.1393 C19.0634,167.0773 18.6214,166.9993 18.1544,166.9043 C17.2104,166.7033 16.5114,166.3613 16.0564,165.8773 C15.6014,165.3933 15.3734,164.7623 15.3734,163.9863 C15.3734,163.0943 15.7504,162.3643 16.5034,161.7953 C17.2554,161.2263 18.2124,160.9413 19.3694,160.9413 C20.1184,160.9413 20.8044,161.0123 21.4284,161.1553 C22.0534,161.2993 22.6064,161.4743 23.0874,161.6853 L23.0874,163.3573 L22.9874,163.3573 C22.5824,163.0153 22.0494,162.7293 21.3894,162.5023 C20.7294,162.2773 20.0534,162.1643 19.3624,162.1643 C18.6044,162.1643 17.9954,162.3223 17.5354,162.6353 C17.0754,162.9493 16.8464,163.3553 16.8464,163.8513 C16.8464,164.2943 16.9604,164.6423 17.1894,164.8943 C17.4184,165.1473 17.8214,165.3403 18.3974,165.4733 C18.7024,165.5413 19.1364,165.6203 19.6984,165.7163 C20.2614,165.8123 20.7384,165.9093 21.1284,166.0103 C21.9194,166.2193 22.5154,166.5373 22.9154,166.9603 C23.3164,167.3843 23.5164,167.9783 23.5164,168.7403" id="Fill-69" fill="#565657"></path>
                <polygon id="Fill-71" fill="#565657" points="34.1048 171.7784 29.9008 171.7784 29.9008 170.6914 31.2958 170.6914 31.2958 162.2204 29.9008 162.2204 29.9008 161.1344 34.1048 161.1344 34.1048 162.2204 32.7108 162.2204 32.7108 170.6914 34.1048 170.6914"></polygon>
                <polygon id="Fill-73" fill="#565657" points="44.3412 171.7784 42.5902 171.7784 37.5422 162.2564 37.5422 171.7784 36.2202 171.7784 36.2202 161.1344 38.4152 161.1344 43.0192 169.8264 43.0192 161.1344 44.3412 161.1344"></polygon>
                <polygon id="Fill-75" fill="#565657" points="54.4714 162.3928 50.6684 162.3928 50.6684 171.7788 49.2534 171.7788 49.2534 162.3928 45.4504 162.3928 45.4504 161.1338 54.4714 161.1338"></polygon>
                <polygon id="Fill-77" fill="#565657" points="62.6216 171.7784 55.6086 171.7784 55.6086 161.1344 62.6216 161.1344 62.6216 162.3924 57.0236 162.3924 57.0236 165.3084 62.6216 165.3084 62.6216 166.5674 57.0236 166.5674 57.0236 170.5194 62.6216 170.5194"></polygon>
                <path d="M70.0707,164.1299 C70.0707,163.8249 70.0177,163.5539 69.9107,163.3179 C69.8027,163.0819 69.6247,162.8839 69.3777,162.7209 C69.1717,162.5829 68.9287,162.4869 68.6487,162.4319 C68.3677,162.3769 68.0357,162.3499 67.6547,162.3499 L65.9887,162.3499 L65.9887,166.3669 L67.4187,166.3669 C67.8667,166.3669 68.2577,166.3279 68.5907,166.2499 C68.9247,166.1699 69.2087,166.0249 69.4417,165.8099 C69.6557,165.6099 69.8147,165.3799 69.9177,165.1189 C70.0197,164.8599 70.0707,164.5309 70.0707,164.1299 L70.0707,164.1299 Z M73.3807,171.7789 L71.5437,171.7789 L67.9837,167.5469 L65.9887,167.5469 L65.9887,171.7789 L64.5727,171.7789 L64.5727,161.1339 L67.5547,161.1339 C68.1977,161.1339 68.7337,161.1769 69.1627,161.2599 C69.5917,161.3439 69.9777,161.4919 70.3207,161.7069 C70.7067,161.9499 71.0087,162.2559 71.2257,162.6249 C71.4417,162.9939 71.5507,163.4619 71.5507,164.0289 C71.5507,164.7959 71.3577,165.4399 70.9707,165.9559 C70.5857,166.4729 70.0537,166.8629 69.3777,167.1259 L73.3807,171.7789 Z" id="Fill-79" fill="#565657"></path>
                <polygon id="Fill-81" fill="#565657" points="82.5814 171.7784 80.8304 171.7784 75.7824 162.2564 75.7824 171.7784 74.4604 171.7784 74.4604 161.1344 76.6554 161.1344 81.2594 169.8264 81.2594 161.1344 82.5814 161.1344"></polygon>
                <path d="M92.8551,168.7403 C92.8551,169.1553 92.7581,169.5643 92.5651,169.9703 C92.3721,170.3743 92.1021,170.7183 91.7541,171.0003 C91.3721,171.3053 90.9281,171.5423 90.4201,171.7143 C89.9131,171.8863 89.3021,171.9713 88.5871,171.9713 C87.8191,171.9713 87.1301,171.9003 86.5171,171.7573 C85.9051,171.6133 85.2821,171.4023 84.6481,171.1213 L84.6481,169.3483 L84.7481,169.3483 C85.2861,169.7963 85.9081,170.1423 86.6141,170.3853 C87.3191,170.6283 87.9811,170.7483 88.6011,170.7483 C89.4781,170.7483 90.1611,170.5853 90.6491,170.2563 C91.1381,169.9283 91.3821,169.4883 91.3821,168.9403 C91.3821,168.4693 91.2671,168.1213 91.0351,167.8963 C90.8041,167.6733 90.4531,167.4993 89.9811,167.3753 C89.6241,167.2793 89.2361,167.2013 88.8191,167.1393 C88.4021,167.0773 87.9601,166.9993 87.4931,166.9043 C86.5491,166.7033 85.8501,166.3613 85.3951,165.8773 C84.9401,165.3933 84.7121,164.7623 84.7121,163.9863 C84.7121,163.0943 85.0891,162.3643 85.8421,161.7953 C86.5941,161.2263 87.5511,160.9413 88.7081,160.9413 C89.4571,160.9413 90.1431,161.0123 90.7671,161.1553 C91.3921,161.2993 91.9451,161.4743 92.4261,161.6853 L92.4261,163.3573 L92.3261,163.3573 C91.9211,163.0153 91.3881,162.7293 90.7281,162.5023 C90.0681,162.2773 89.3921,162.1643 88.7011,162.1643 C87.9431,162.1643 87.3341,162.3223 86.8741,162.6353 C86.4141,162.9493 86.1851,163.3553 86.1851,163.8513 C86.1851,164.2943 86.2991,164.6423 86.5281,164.8943 C86.7571,165.1473 87.1601,165.3403 87.7361,165.4733 C88.0411,165.5413 88.4751,165.6203 89.0371,165.7163 C89.6001,165.8123 90.0771,165.9093 90.4671,166.0103 C91.2581,166.2193 91.8541,166.5373 92.2541,166.9603 C92.6551,167.3843 92.8551,167.9783 92.8551,168.7403" id="Fill-83" fill="#565657"></path>
                <path d="M105.0937,167.597 L103.2277,162.372 L101.3557,167.597 L105.0937,167.597 Z M108.0827,171.778 L106.5737,171.778 L105.5297,168.813 L100.9267,168.813 L99.8827,171.778 L98.4457,171.778 L102.3207,161.134 L104.2077,161.134 L108.0827,171.778 Z" id="Fill-85" fill="#565657"></path>
                <polygon id="Fill-87" fill="#565657" points="116.9963 162.3928 113.1933 162.3928 113.1933 171.7788 111.7783 171.7788 111.7783 162.3928 107.9753 162.3928 107.9753 161.1338 116.9963 161.1338"></polygon>
                <polygon id="Fill-89" fill="#565657" points="132.468 171.7784 131.053 171.7784 131.053 162.6074 128.092 168.8484 127.25 168.8484 124.311 162.6074 124.311 171.7784 122.988 171.7784 122.988 161.1344 124.919 161.1344 127.757 167.0594 130.502 161.1344 132.468 161.1344"></polygon>
                <path d="M142.8401,166.4608 C142.8401,165.0778 142.5311,164.0108 141.9111,163.2618 C141.2921,162.5098 140.4451,162.1358 139.3731,162.1358 C138.2921,162.1358 137.4421,162.5098 136.8251,163.2618 C136.2071,164.0108 135.8991,165.0778 135.8991,166.4608 C135.8991,167.8558 136.2131,168.9248 136.8431,169.6658 C137.4721,170.4078 138.3161,170.7788 139.3731,170.7788 C140.4311,170.7788 141.2741,170.4078 141.9011,169.6658 C142.5271,168.9248 142.8401,167.8558 142.8401,166.4608 M142.9691,162.3578 C143.4031,162.8338 143.7351,163.4178 143.9661,164.1088 C144.1981,164.7998 144.3131,165.5838 144.3131,166.4608 C144.3131,167.3368 144.1951,168.1218 143.9591,168.8168 C143.7241,169.5098 143.3931,170.0878 142.9691,170.5498 C142.5311,171.0308 142.0121,171.3918 141.4141,171.6368 C140.8161,171.8798 140.1331,171.9998 139.3661,171.9998 C138.6181,171.9998 137.9371,171.8758 137.3251,171.6298 C136.7121,171.3818 136.1921,171.0218 135.7631,170.5498 C135.3341,170.0768 135.0041,169.4988 134.7731,168.8128 C134.5421,168.1248 134.4271,167.3418 134.4271,166.4608 C134.4271,165.5918 134.5411,164.8138 134.7701,164.1268 C134.9981,163.4368 135.3311,162.8488 135.7701,162.3578 C136.1891,161.8898 136.7111,161.5328 137.3321,161.2848 C137.9541,161.0368 138.6321,160.9128 139.3661,160.9128 C140.1291,160.9128 140.8141,161.0388 141.4211,161.2888 C142.0291,161.5388 142.5451,161.8948 142.9691,162.3578" id="Fill-91" fill="#565657"></path>
                <polygon id="Fill-93" fill="#565657" points="153.0004 171.7784 146.2654 171.7784 146.2654 161.1344 147.6814 161.1344 147.6814 170.5194 153.0004 170.5194"></polygon>
                <polygon id="Fill-95" fill="#565657" points="161.1355 171.7784 154.1225 171.7784 154.1225 161.1344 161.1355 161.1344 161.1355 162.3924 155.5375 162.3924 155.5375 165.3084 161.1355 165.3084 161.1355 166.5674 155.5375 166.5674 155.5375 170.5194 161.1355 170.5194"></polygon>
                <polygon id="Fill-97" fill="#565657" points="171.208 161.1343 167.534 166.3953 171.201 171.7783 169.564 171.7783 166.661 167.3963 163.688 171.7783 162.143 171.7783 165.854 166.4613 162.229 161.1343 163.859 161.1343 166.726 165.4593 169.657 161.1343"></polygon>
                <path d="M29.2099,114.4878 C29.2099,115.4748 28.7919,116.2768 27.9549,116.8928 C27.1179,117.5118 25.9819,117.8198 24.5459,117.8198 C23.7169,117.8198 22.9939,117.7458 22.3769,117.6008 C21.7599,117.4548 21.1819,117.2688 20.6429,117.0458 L20.6429,114.6418 L20.9249,114.6418 C21.4599,115.0688 22.0579,115.3968 22.7189,115.6258 C23.3819,115.8548 24.0159,115.9678 24.6279,115.9678 C24.7839,115.9678 24.9909,115.9558 25.2469,115.9288 C25.5019,115.9008 25.7109,115.8558 25.8719,115.7938 C26.0689,115.7128 26.2319,115.6118 26.3599,115.4908 C26.4889,115.3688 26.5529,115.1898 26.5529,114.9518 C26.5529,114.7328 26.4589,114.5428 26.2729,114.3828 C26.0869,114.2238 25.8139,114.1018 25.4559,114.0168 C25.0779,113.9278 24.6789,113.8428 24.2609,113.7648 C23.8409,113.6868 23.4469,113.5858 23.0789,113.4648 C22.2349,113.1918 21.6289,112.8198 21.2579,112.3498 C20.8879,111.8818 20.7039,111.3008 20.7039,110.6038 C20.7039,109.6718 21.1219,108.9098 21.9579,108.3198 C22.7949,107.7288 23.8709,107.4348 25.1859,107.4348 C25.8459,107.4348 26.4979,107.4988 27.1409,107.6258 C27.7849,107.7538 28.3429,107.9148 28.8129,108.1088 L28.8129,110.4158 L28.5379,110.4158 C28.1339,110.0938 27.6399,109.8228 27.0529,109.6048 C26.4679,109.3878 25.8709,109.2778 25.2609,109.2778 C25.0449,109.2778 24.8299,109.2928 24.6169,109.3228 C24.4049,109.3508 24.1989,109.4058 24.0019,109.4878 C23.8269,109.5548 23.6759,109.6558 23.5499,109.7938 C23.4239,109.9308 23.3619,110.0868 23.3619,110.2618 C23.3619,110.5258 23.4629,110.7278 23.6649,110.8698 C23.8679,111.0118 24.2489,111.1408 24.8089,111.2568 C25.1769,111.3348 25.5299,111.4068 25.8689,111.4798 C26.2069,111.5508 26.5719,111.6498 26.9619,111.7758 C27.7299,112.0278 28.2969,112.3698 28.6619,112.8018 C29.0269,113.2348 29.2099,113.7968 29.2099,114.4878" id="Fill-99" fill="#565657"></path>
                <polygon id="Fill-101" fill="#565657" points="38.2304 117.6376 30.9804 117.6376 30.9804 107.6156 38.2304 107.6156 38.2304 109.5546 33.5524 109.5546 33.5524 111.2846 37.8934 111.2846 37.8934 113.2226 33.5524 113.2226 33.5524 115.6986 38.2304 115.6986"></polygon>
                <polygon id="Fill-103" fill="#565657" points="49.5109 117.6376 47.0209 117.6376 42.7659 110.7596 42.7659 117.6376 40.3969 117.6376 40.3969 107.6156 43.4859 107.6156 47.1409 113.3566 47.1409 107.6156 49.5109 107.6156"></polygon>
                <polygon id="Fill-105" fill="#565657" points="57.4838 117.6376 51.6148 117.6376 51.6148 115.8616 53.2558 115.8616 53.2558 109.3936 51.6148 109.3936 51.6148 107.6156 57.4838 107.6156 57.4838 109.3936 55.8428 109.3936 55.8428 115.8616 57.4838 115.8616"></polygon>
                <path d="M65.9105,115.1685 C66.1625,114.8615 66.3485,114.5025 66.4685,114.0875 C66.5895,113.6725 66.6495,113.1855 66.6495,112.6235 C66.6495,112.0225 66.5805,111.5115 66.4425,111.0895 C66.3025,110.6675 66.1215,110.3255 65.8965,110.0655 C65.6675,109.7975 65.4035,109.6005 65.1055,109.4805 C64.8075,109.3595 64.4955,109.2995 64.1735,109.2995 C63.8455,109.2995 63.5375,109.3565 63.2485,109.4735 C62.9595,109.5905 62.6935,109.7835 62.4505,110.0525 C62.2275,110.3045 62.0425,110.6505 61.9025,111.0915 C61.7605,111.5345 61.6905,112.0475 61.6905,112.6305 C61.6905,113.2275 61.7595,113.7345 61.8955,114.1545 C62.0325,114.5745 62.2125,114.9165 62.4385,115.1805 C62.6615,115.4455 62.9235,115.6415 63.2255,115.7655 C63.5245,115.8915 63.8415,115.9555 64.1735,115.9555 C64.5045,115.9555 64.8225,115.8915 65.1235,115.7645 C65.4235,115.6345 65.6855,115.4365 65.9105,115.1685 M69.3355,112.6305 C69.3355,114.2275 68.8775,115.4965 67.9635,116.4355 C67.0465,117.3775 65.7825,117.8465 64.1665,117.8465 C62.5565,117.8465 61.2935,117.3775 60.3785,116.4355 C59.4615,115.4965 59.0045,114.2275 59.0045,112.6305 C59.0045,111.0185 59.4615,109.7465 60.3785,108.8105 C61.2935,107.8765 62.5565,107.4085 64.1665,107.4085 C65.7745,107.4085 67.0365,107.8765 67.9565,108.8105 C68.8755,109.7465 69.3355,111.0185 69.3355,112.6305" id="Fill-107" fill="#565657"></path>
                <path d="M76.9287,110.6857 C76.9287,110.4337 76.8777,110.2197 76.7747,110.0387 C76.6697,109.8597 76.4927,109.7177 76.2427,109.6147 C76.0677,109.5437 75.8637,109.4997 75.6297,109.4837 C75.3957,109.4677 75.1247,109.4607 74.8157,109.4607 L73.8797,109.4607 L73.8797,112.1587 L74.6737,112.1587 C75.0867,112.1587 75.4327,112.1387 75.7107,112.0987 C75.9897,112.0577 76.2217,111.9657 76.4107,111.8217 C76.5897,111.6837 76.7217,111.5297 76.8047,111.3607 C76.8857,111.1927 76.9287,110.9677 76.9287,110.6857 L76.9287,110.6857 Z M80.9597,117.6377 L77.8027,117.6377 L75.0767,113.9627 L73.8797,113.9627 L73.8797,117.6377 L71.3077,117.6377 L71.3077,107.6157 L75.6437,107.6157 C76.2357,107.6157 76.7447,107.6497 77.1717,107.7167 C77.5967,107.7837 77.9957,107.9307 78.3677,108.1547 C78.7457,108.3797 79.0447,108.6707 79.2667,109.0267 C79.4897,109.3827 79.5997,109.8317 79.5997,110.3687 C79.5997,111.1097 79.4277,111.7117 79.0857,112.1797 C78.7417,112.6457 78.2527,113.0347 77.6147,113.3447 L80.9597,117.6377 Z" id="Fill-109" fill="#565657"></path>
                <polygon id="Fill-111" fill="#565657" points="94.0303 117.6376 86.8023 117.6376 86.8023 107.6156 89.3863 107.6156 89.3863 115.6986 94.0303 115.6986"></polygon>
                <polygon id="Fill-113" fill="#565657" points="102.8345 117.6376 95.5845 117.6376 95.5845 107.6156 102.8345 107.6156 102.8345 109.5546 98.1565 109.5546 98.1565 111.2846 102.4975 111.2846 102.4975 113.2226 98.1565 113.2226 98.1565 115.6986 102.8345 115.6986"></polygon>
                <path d="M110.2722,113.7753 L109.0382,110.1843 L107.8062,113.7753 L110.2722,113.7753 Z M114.2602,117.6373 L111.5912,117.6373 L110.8922,115.6113 L107.1842,115.6113 L106.4862,117.6373 L103.8822,117.6373 L107.5832,107.6153 L110.5592,107.6153 L114.2602,117.6373 Z" id="Fill-115" fill="#565657"></path>
                <path d="M122.4992,112.616 C122.4992,111.957 122.3802,111.393 122.1392,110.925 C121.9002,110.455 121.5192,110.088 120.9992,109.824 C120.7342,109.693 120.4642,109.604 120.1882,109.558 C119.9112,109.51 119.4962,109.487 118.9402,109.487 L118.2862,109.487 L118.2862,115.761 L118.9402,115.761 C119.5552,115.761 120.0052,115.732 120.2922,115.675 C120.5792,115.62 120.8592,115.518 121.1342,115.369 C121.6042,115.101 121.9502,114.74 122.1692,114.289 C122.3892,113.839 122.4992,113.281 122.4992,112.616 M125.1722,112.637 C125.1722,113.57 124.9582,114.406 124.5322,115.144 C124.1072,115.883 123.5682,116.448 122.9172,116.844 C122.4282,117.14 121.8912,117.345 121.3082,117.462 C120.7252,117.579 120.0332,117.638 119.2362,117.638 L115.7012,117.638 L115.7012,107.616 L119.3372,107.616 C120.1522,107.616 120.8582,107.685 121.4502,107.821 C122.0422,107.958 122.5402,108.153 122.9442,108.404 C123.6352,108.826 124.1792,109.394 124.5762,110.11 C124.9732,110.826 125.1722,111.668 125.1722,112.637" id="Fill-117" fill="#565657"></path>
                <polygon id="Fill-119" fill="#565657" points="134.3913 117.6376 127.1413 117.6376 127.1413 107.6156 134.3913 107.6156 134.3913 109.5546 129.7133 109.5546 129.7133 111.2846 134.0543 111.2846 134.0543 113.2226 129.7133 113.2226 129.7133 115.6986 134.3913 115.6986"></polygon>
                <path d="M142.1781,110.6857 C142.1781,110.4337 142.1271,110.2197 142.0241,110.0387 C141.9191,109.8597 141.7421,109.7177 141.4921,109.6147 C141.3171,109.5437 141.1131,109.4997 140.8791,109.4837 C140.6451,109.4677 140.3741,109.4607 140.0651,109.4607 L139.1291,109.4607 L139.1291,112.1587 L139.9231,112.1587 C140.3361,112.1587 140.6821,112.1387 140.9601,112.0987 C141.2391,112.0577 141.4711,111.9657 141.6601,111.8217 C141.8391,111.6837 141.9711,111.5297 142.0541,111.3607 C142.1351,111.1927 142.1781,110.9677 142.1781,110.6857 L142.1781,110.6857 Z M146.2091,117.6377 L143.0521,117.6377 L140.3261,113.9627 L139.1291,113.9627 L139.1291,117.6377 L136.5571,117.6377 L136.5571,107.6157 L140.8931,107.6157 C141.4851,107.6157 141.9941,107.6497 142.4211,107.7167 C142.8461,107.7837 143.2451,107.9307 143.6171,108.1547 C143.9951,108.3797 144.2941,108.6707 144.5161,109.0267 C144.7391,109.3827 144.8491,109.8317 144.8491,110.3687 C144.8491,111.1097 144.6771,111.7117 144.3351,112.1797 C143.9911,112.6457 143.5021,113.0347 142.8641,113.3447 L146.2091,117.6377 Z" id="Fill-121" fill="#565657"></path>
                <path d="M155.3623,114.4878 C155.3623,115.4748 154.9443,116.2768 154.1073,116.8928 C153.2703,117.5118 152.1343,117.8198 150.6983,117.8198 C149.8693,117.8198 149.1463,117.7458 148.5293,117.6008 C147.9123,117.4548 147.3343,117.2688 146.7953,117.0458 L146.7953,114.6418 L147.0773,114.6418 C147.6123,115.0688 148.2103,115.3968 148.8713,115.6258 C149.5343,115.8548 150.1683,115.9678 150.7803,115.9678 C150.9363,115.9678 151.1433,115.9558 151.3993,115.9288 C151.6543,115.9008 151.8633,115.8558 152.0243,115.7938 C152.2213,115.7128 152.3843,115.6118 152.5123,115.4908 C152.6413,115.3688 152.7053,115.1898 152.7053,114.9518 C152.7053,114.7328 152.6113,114.5428 152.4253,114.3828 C152.2393,114.2238 151.9663,114.1018 151.6083,114.0168 C151.2303,113.9278 150.8313,113.8428 150.4133,113.7648 C149.9933,113.6868 149.5993,113.5858 149.2313,113.4648 C148.3873,113.1918 147.7813,112.8198 147.4103,112.3498 C147.0403,111.8818 146.8563,111.3008 146.8563,110.6038 C146.8563,109.6718 147.2743,108.9098 148.1113,108.3198 C148.9473,107.7288 150.0233,107.4348 151.3383,107.4348 C151.9983,107.4348 152.6503,107.4988 153.2933,107.6258 C153.9373,107.7538 154.4953,107.9148 154.9653,108.1088 L154.9653,110.4158 L154.6903,110.4158 C154.2863,110.0938 153.7923,109.8228 153.2053,109.6048 C152.6203,109.3878 152.0233,109.2778 151.4133,109.2778 C151.1973,109.2778 150.9823,109.2928 150.7693,109.3228 C150.5573,109.3508 150.3513,109.4058 150.1543,109.4878 C149.9793,109.5548 149.8283,109.6558 149.7023,109.7938 C149.5763,109.9308 149.5143,110.0868 149.5143,110.2618 C149.5143,110.5258 149.6153,110.7278 149.8173,110.8698 C150.0203,111.0118 150.4013,111.1408 150.9613,111.2568 C151.3293,111.3348 151.6823,111.4068 152.0213,111.4798 C152.3593,111.5508 152.7243,111.6498 153.1143,111.7758 C153.8823,112.0278 154.4493,112.3698 154.8143,112.8018 C155.1793,113.2348 155.3623,113.7968 155.3623,114.4878" id="Fill-123" fill="#565657"></path>
                <path d="M112.3483,36.9805 C112.6223,36.9805 112.9033,37.2605 113.1513,37.7315 C113.3863,38.1745 113.6123,38.4975 113.9343,38.1055 C114.3713,37.5715 114.5233,36.6015 114.7783,35.8575 C115.2463,34.4945 115.8273,34.6865 116.5683,35.2145 C119.0003,36.9525 121.5163,37.7935 123.5733,38.4835 C124.4583,38.7815 125.8853,39.2675 126.6523,39.7195 C127.6703,40.3215 128.2213,41.1015 128.0533,42.4045 C127.9133,44.1355 127.4983,45.7945 126.9033,46.9165 C125.9483,48.7225 124.3893,50.1575 122.1303,51.3835 C121.0643,52.0095 120.0243,52.0095 118.9583,51.3835 C116.6983,50.1575 115.1403,48.7225 114.1843,46.9165 C113.7933,46.1765 113.4783,45.2025 113.2703,44.1285 C113.2463,44.0015 113.1983,43.9895 113.0773,43.9835 C112.4303,43.9835 111.7433,42.4155 111.5413,40.4815 C111.3403,38.5485 111.7013,36.9805 112.3483,36.9805 M112.1373,51.5185 L112.7463,51.2625 C113.1833,51.7325 113.8893,52.5445 114.4753,52.8365 C114.6823,52.9395 115.1563,51.6395 115.2813,50.8325 C115.2813,50.8325 115.3213,50.8665 115.3283,50.8725 C116.1893,51.6125 117.1273,52.2615 118.0823,52.7925 C119.7423,53.7675 121.3453,53.7675 123.0053,52.7925 C123.9603,52.2615 124.8993,51.6125 125.7603,50.8725 C125.7673,50.8665 125.8073,50.8315 125.8073,50.8315 C125.9323,51.6395 126.4063,52.9395 126.6123,52.8365 C127.1983,52.5445 127.9053,51.7325 128.3413,51.2625 L128.9503,51.5185 C131.3503,52.5275 133.6473,53.7635 135.7813,55.2475 C131.6363,48.7785 132.6883,43.3605 132.2543,36.6555 C132.1703,35.3685 131.9683,34.0735 131.4903,32.8215 C130.0973,29.1675 127.0633,26.9675 123.7193,26.1215 C121.2183,25.4875 119.6313,26.0295 117.7373,26.9865 C115.7933,26.2495 113.3063,27.7865 112.1123,28.8495 C110.9313,29.8995 110.2083,31.2215 109.5973,32.8215 C109.1193,34.0735 108.9173,35.3685 108.8343,36.6555 C108.4073,43.2555 109.6603,48.1275 105.5093,54.9215 L105.7083,54.9725 C107.7273,53.6105 109.8873,52.4645 112.1373,51.5185" id="Fill-125" fill="#D7D5D8"></path>
                <path d="M139.8954,69.5792 L138.0074,60.4262 C137.2384,56.6922 131.9194,54.4742 128.7174,53.1132 C127.1074,56.8582 124.5484,60.0072 120.5604,62.2562 C116.8654,60.2152 114.0404,57.2682 112.3704,53.1132 C110.9794,53.7042 109.1734,54.4652 107.5184,55.4442 C108.2204,55.6332 108.8784,55.8232 109.4574,56.0252 C111.3734,56.6292 112.4824,58.7702 113.2114,60.4942 C114.0724,62.5302 114.7104,64.7572 115.2494,66.8992 C115.6824,68.6202 116.0634,70.3642 116.3884,72.1112 L137.3624,72.1112 C138.7554,72.1112 140.1764,70.9422 139.8954,69.5792" id="Fill-127" fill="#D7D5D8"></path>
                <path d="M75.2192,34.7417 C75.6502,34.7417 76.0932,35.2557 76.4672,36.0927 C76.6762,36.5037 77.1122,36.9757 77.3172,36.5567 C77.4222,36.3407 77.4402,34.7337 77.4482,34.3787 C77.4712,33.3407 77.8322,33.3307 78.6862,33.5817 C81.0092,34.2627 91.4522,32.3147 93.9342,31.2047 C94.3702,31.0097 94.7752,30.8877 95.1442,31.3267 C95.3422,31.5617 95.4762,31.8977 95.5672,32.2457 C95.8102,33.1687 95.8522,34.4627 95.9212,35.4237 C95.9362,35.6537 95.9502,35.8467 95.9602,35.9687 C96.0332,36.6927 96.2512,36.7327 96.4672,36.5737 C96.7392,36.3737 96.8692,36.0917 97.0192,35.8027 C97.3622,35.1377 97.7502,34.7417 98.1282,34.7417 C99.0212,34.7417 99.5212,36.9557 99.2422,39.6887 C98.9642,42.4217 98.0152,44.6357 97.1212,44.6357 C96.8912,44.6277 96.7492,44.7527 96.6962,45.0107 C95.8972,48.8457 93.2672,52.1627 90.2592,53.8737 C87.7002,55.3287 86.0832,55.4047 83.3062,53.9867 C80.1712,52.3857 77.4692,48.9367 76.6512,45.0107 C76.5982,44.7527 76.4562,44.6277 76.2252,44.6357 C75.3322,44.6357 74.3832,42.4217 74.1042,39.6887 C73.8262,36.9557 74.3262,34.7417 75.2192,34.7417 M71.8002,40.0637 C72.0002,42.0257 72.7212,45.5107 74.6442,46.6687 C75.5962,50.5627 78.7402,54.2387 82.4442,56.3307 C85.3302,57.9607 88.4252,57.8187 91.1622,56.1657 C94.7302,54.0097 97.7732,50.4707 98.7032,46.6687 C100.6252,45.5107 101.3472,42.0257 101.5462,40.0637 C101.7212,38.3497 101.7122,35.3537 100.5192,33.7307 C100.6632,31.4017 100.3202,28.6827 99.4362,26.5927 C98.3642,24.0567 96.3792,21.9717 92.9622,21.8667 C92.3812,21.8617 92.3842,21.7887 91.9792,21.4897 C84.3852,17.5507 71.5652,22.1547 72.8272,33.7307 C71.6362,35.3537 71.6272,38.3497 71.8002,40.0637" id="Fill-129" fill="#929397"></path>
                <path d="M108.6893,58.3714 C105.1383,57.1214 100.0413,56.5284 97.0383,54.2244 C96.8233,54.0814 96.5583,54.2054 96.4593,54.4324 L89.7643,69.8594 C89.4393,67.6164 89.0403,65.4104 88.7093,63.8624 C88.6513,63.6154 88.5523,63.3354 88.7383,63.1284 C88.9543,62.8824 89.4123,62.5484 89.6533,62.3324 C89.8383,62.1654 89.8403,62.0504 89.8653,61.8394 C89.9563,60.8724 89.7403,58.4014 88.8543,58.4594 C87.4243,58.7894 86.1853,58.7894 84.7553,58.4594 C83.8693,58.4014 83.6533,60.8724 83.7443,61.8394 C83.7693,62.0504 83.7713,62.1654 83.9573,62.3324 C84.1973,62.5484 84.6553,62.8824 84.8713,63.1284 C85.0573,63.3354 84.9573,63.6154 84.9003,63.8624 C84.5693,65.4104 84.1703,67.6164 83.8463,69.8594 L77.1503,54.4324 C77.0513,54.2054 76.7863,54.0814 76.5713,54.2244 C73.5683,56.5284 68.4723,57.1214 64.9203,58.3714 C61.8923,59.2414 59.0113,74.7984 59.0113,77.1044 C59.0113,79.0074 60.5723,80.5624 62.4693,80.5624 L111.1403,80.5624 C113.0373,80.5624 114.5983,79.0074 114.5983,77.1044 C114.5983,74.7984 111.7173,59.2414 108.6893,58.3714" id="Fill-131" fill="#929397"></path>
                <path d="M57.7878,41.2921 C58.1478,40.8971 58.4358,40.4311 58.6498,39.8901 C58.8658,39.3491 58.9728,38.6151 58.9728,37.6851 C58.9728,36.8381 58.8508,36.1431 58.6068,35.6041 C58.3628,35.0631 58.0258,34.6311 57.5968,34.3051 C57.1778,33.9801 56.6848,33.7571 56.1158,33.6351 C55.5468,33.5121 54.9598,33.4521 54.3548,33.4521 C53.8438,33.4521 53.3108,33.5111 52.7528,33.6261 C52.1958,33.7431 51.6838,33.8881 51.2198,34.0621 C51.2198,34.1771 51.2138,34.3701 51.2018,34.6361 C51.1908,34.9041 51.1838,35.2411 51.1838,35.6461 C51.1838,37.0751 51.3268,38.2521 51.6118,39.1761 C51.8958,40.0991 52.2758,40.8051 52.7528,41.2921 C53.0768,41.6521 53.4608,41.9161 53.9028,42.0841 C54.3438,42.2531 54.8198,42.3381 55.3308,42.3381 C55.7148,42.3381 56.1388,42.2511 56.6028,42.0751 C57.0668,41.9021 57.4628,41.6411 57.7878,41.2921 M65.7158,37.3711 C65.7158,38.7081 65.4718,39.9631 64.9838,41.1361 C64.4958,42.3091 63.8098,43.2951 62.9278,44.0981 C61.9868,44.9581 60.8978,45.6131 59.6608,46.0651 C58.4238,46.5191 56.9748,46.7461 55.3138,46.7461 C53.7568,46.7461 52.3368,46.5331 51.0538,46.1101 C49.7708,45.6861 48.6698,45.0371 47.7528,44.1671 C46.6948,43.1671 45.8878,41.8791 45.3308,40.2991 C44.7728,38.7201 44.4938,36.8321 44.4938,34.6361 C44.4938,32.3601 44.7548,30.3391 45.2778,28.5741 C45.8008,26.8081 46.6548,25.2451 47.8398,23.8861 C48.9778,22.5861 50.4558,21.5741 52.2738,20.8541 C54.0908,20.1351 56.2548,19.7751 58.7638,19.7751 C59.6118,19.7751 60.5408,19.8321 61.5518,19.9491 C62.5618,20.0661 63.2178,20.1531 63.5198,20.2091 L63.5198,25.3141 L62.8578,25.3141 C62.5448,25.1641 62.0128,24.9931 61.2638,24.8001 C60.5148,24.6091 59.6638,24.5131 58.7118,24.5131 C56.4818,24.5131 54.7448,25.0591 53.5018,26.1511 C52.2588,27.2431 51.5098,28.7651 51.2538,30.7171 C52.1488,30.1821 53.0928,29.7491 54.0858,29.4181 C55.0788,29.0881 56.1498,28.9211 57.3008,28.9211 C58.3108,28.9211 59.2488,29.0381 60.1138,29.2711 C60.9788,29.5031 61.7838,29.8751 62.5268,30.3851 C63.4908,31.0591 64.2638,31.9651 64.8448,33.1031 C65.4248,34.2431 65.7158,35.6641 65.7158,37.3711" id="Fill-133" fill="#E83649"></path>
                <g id="Group-137" transform="translate(99.000000, 0.000000)">
                    <mask id="mask-6" fill="white">
                        <use xlink:href="#path-5"></use>
                    </mask>
                    <g id="Clip-136"></g>
                    <path d="M5.46,21.9036 L16.281,21.9036 L16.281,11.7456 L21.691,11.7456 L10.87,0.9246 L0.05,11.7456 L5.46,11.7456 L5.46,21.9036" id="Fill-135" fill="#929397" mask="url(#mask-6)"></path>
                </g>
            </g>
        </g>
    </g>
</svg>