<?xml version="1.0" encoding="UTF-8" standalone="no"?>
<svg width="178px" height="160px" viewBox="0 0 178 160" version="1.1" xmlns="http://www.w3.org/2000/svg" xmlns:xlink="http://www.w3.org/1999/xlink">
    <!-- Generator: Sketch 3.6.1 (26313) - http://www.bohemiancoding.com/sketch -->
    <title>Group 2</title>
    <desc>Created with Sketch.</desc>
    <defs></defs>
    <g id="Page-1" stroke="none" stroke-width="1" fill="none" fill-rule="evenodd">
        <g id="College" transform="translate(-530.000000, -1095.000000)">
            <g id="Group-2" transform="translate(530.000000, 1095.000000)">
                <path d="M20.3174554,138.543461 C20.3174554,138.967243 20.2193735,139.383622 20.021359,139.7963 C19.8251952,140.208978 19.5494554,140.560587 19.1959904,140.845576 C18.8055133,141.156472 18.3521157,141.400748 17.8357976,141.574702 C17.3176289,141.748656 16.6939759,141.837484 15.9648386,141.837484 C15.1838843,141.837484 14.4806554,141.763461 13.8551518,141.619116 C13.2314988,141.472921 12.5967422,141.256403 11.9508819,140.971415 L11.9508819,139.163403 L12.0526651,139.163403 C12.6004434,139.618645 13.2352,139.970254 13.9550843,140.218231 C14.6731181,140.466208 15.348588,140.590197 15.9796434,140.590197 C16.8753349,140.590197 17.5711614,140.423645 18.0689735,140.088691 C18.5667855,139.751886 18.8147663,139.305898 18.8147663,138.747024 C18.8147663,138.265875 18.6981783,137.910564 18.4631518,137.682944 C18.2262747,137.453472 17.8691084,137.275817 17.3879518,137.149978 C17.0233831,137.053748 16.6273542,136.972323 16.2017157,136.909403 C15.7779277,136.846484 15.3263807,136.766909 14.8507759,136.668829 C13.8884627,136.465266 13.1759807,136.115507 12.7114795,135.623254 C12.2469783,135.131001 12.015653,134.488852 12.015653,133.696806 C12.015653,132.788174 12.3987277,132.042392 13.1667277,131.463162 C13.9347277,130.880231 14.9099952,130.591541 16.0888289,130.591541 C16.8531277,130.591541 17.5526554,130.663714 18.1892627,130.809909 C18.8258699,130.954254 19.3903036,131.13561 19.8807133,131.348426 L19.8807133,133.054656 L19.7770795,133.054656 C19.3643952,132.704898 18.8221687,132.414357 18.1485494,132.183036 C17.4749301,131.951714 16.786506,131.836978 16.0814265,131.836978 C15.3097253,131.836978 14.6879229,131.997978 14.2197205,132.318128 C13.7515181,132.640128 13.5164916,133.050955 13.5164916,133.558013 C13.5164916,134.009553 13.6330795,134.363013 13.8662554,134.622093 C14.0994313,134.879323 14.5102651,135.075484 15.0987566,135.212426 C15.4096578,135.279047 15.8519518,135.362323 16.423788,135.460403 C16.9993253,135.558484 17.4841831,135.656564 17.8839133,135.758346 C18.6889253,135.971162 19.2977735,136.295013 19.704906,136.728047 C20.1138892,137.161082 20.3174554,137.76622 20.3174554,138.543461" id="Fill-1" fill="#444444"></path>
                <path d="M29.6435663,132.070151 L25.7665542,132.070151 L25.7665542,141.641323 L24.3230843,141.641323 L24.3230843,132.070151 L20.4460723,132.070151 L20.4460723,130.789553 L29.6435663,130.789553 L29.6435663,132.070151 Z" id="Fill-3" fill="#444444"></path>
                <path d="M35.8802814,137.376118 L33.9778622,132.048314 L32.0680405,137.376118 L35.8802814,137.376118 Z M38.926373,141.641693 L37.3885224,141.641693 L36.324426,138.616003 L31.6312983,138.616003 L30.5672019,141.641693 L29.1015248,141.641693 L33.052561,130.788072 L34.9771875,130.788072 L38.926373,141.641693 Z" id="Fill-5" fill="#444444"></path>
                <path d="M45.4478959,133.841151 C45.4478959,133.530254 45.3942284,133.256369 45.2850429,133.015794 C45.1758573,132.77522 44.9926477,132.569806 44.7409658,132.406955 C44.5318477,132.264461 44.283867,132.16638 43.9970236,132.110863 C43.7120308,132.055346 43.3733706,132.027587 42.9847441,132.027587 L41.2858911,132.027587 L41.2858911,136.122909 L42.7441658,136.122909 C43.2012646,136.122909 43.5991441,136.084047 43.9396549,136.002622 C44.2801658,135.923047 44.5688598,135.773151 44.8057369,135.554783 C45.024108,135.349369 45.186961,135.116197 45.2924453,134.851564 C45.396079,134.585082 45.4478959,134.250128 45.4478959,133.841151 L45.4478959,133.841151 Z M48.8233947,141.641323 L46.9505851,141.641323 L43.3197031,137.325783 L41.2858911,137.325783 L41.2858911,141.641323 L39.8424212,141.641323 L39.8424212,130.789553 L42.882961,130.789553 C43.5380742,130.789553 44.0858525,130.830266 44.5225947,130.915392 C44.9593369,131.000518 45.3535152,131.152266 45.703279,131.370633 C46.0974573,131.61861 46.4046573,131.931357 46.624879,132.307024 C46.8451007,132.684541 46.9561369,133.16199 46.9561369,133.739369 C46.9561369,134.522162 46.759973,135.177266 46.3657947,135.704679 C45.973467,136.232093 45.4312405,136.628116 44.7409658,136.894599 L48.8233947,141.641323 Z" id="Fill-7" fill="#444444"></path>
                <path d="M57.2310516,132.070151 L53.3540395,132.070151 L53.3540395,141.641323 L51.9105696,141.641323 L51.9105696,132.070151 L48.0335576,132.070151 L48.0335576,130.789553 L57.2310516,130.789553 L57.2310516,132.070151 Z" id="Fill-9" fill="#444444"></path>
                <path d="M65.1077706,141.640953 L57.9570429,141.640953 L57.9570429,130.789183 L65.1077706,130.789183 L65.1077706,132.06978 L59.4005128,132.06978 L59.4005128,135.045505 L65.1077706,135.045505 L65.1077706,136.327953 L59.4005128,136.327953 L59.4005128,140.358505 L65.1077706,140.358505 L65.1077706,141.640953 Z" id="Fill-11" fill="#444444"></path>
                <path d="M74.3256212,136.203224 C74.3256212,135.35381 74.177573,134.635787 73.8814766,134.052856 C73.5853802,133.469925 73.1412357,133.010983 72.5545947,132.676029 C72.1271055,132.433603 71.6718573,132.263351 71.1907007,132.168971 C70.7095441,132.074592 70.1340067,132.026477 69.4640887,132.026477 L68.1075971,132.026477 L68.1075971,140.402178 L69.4640887,140.402178 C70.1599152,140.402178 70.7650622,140.350362 71.2813802,140.24858 C71.7995489,140.146799 72.2751537,139.95619 72.7063441,139.680454 C73.24672,139.334397 73.6520019,138.881006 73.9203393,138.318431 C74.1905272,137.754006 74.3256212,137.048937 74.3256212,136.203224 M75.8338622,136.225431 C75.8338622,137.211787 75.6191923,138.105615 75.1898525,138.906914 C74.7586622,139.710063 74.186826,140.330006 73.4724935,140.774144 C72.976532,141.079489 72.4250525,141.301557 71.8143537,141.436649 C71.2036549,141.571741 70.4004935,141.640213 69.4048694,141.640213 L66.6641272,141.640213 L66.6641272,130.788443 L69.3771104,130.788443 C70.4356549,130.788443 71.277679,130.864316 71.901332,131.017914 C72.5268357,131.169661 73.0542573,131.382477 73.4872983,131.647109 C74.2256887,132.109753 74.801226,132.724144 75.2139104,133.492132 C75.6284453,134.260121 75.8338622,135.170603 75.8338622,136.225431" id="Fill-13" fill="#444444"></path>
                <path d="M90.2535711,141.640953 L88.8101012,141.640953 L88.8101012,136.327953 L83.393388,136.327953 L83.393388,141.640953 L81.9517687,141.640953 L81.9517687,130.789183 L83.393388,130.789183 L83.393388,135.045505 L88.8101012,135.045505 L88.8101012,130.789183 L90.2535711,130.789183 L90.2535711,141.640953 Z" id="Fill-15" fill="#444444"></path>
                <path d="M96.2635875,141.640953 L91.9775923,141.640953 L91.9775923,140.532459 L93.3988549,140.532459 L93.3988549,131.895826 L91.9775923,131.895826 L91.9775923,130.789183 L96.2635875,130.789183 L96.2635875,131.895826 L94.8423248,131.895826 L94.8423248,140.532459 L96.2635875,140.532459 L96.2635875,141.640953 Z" id="Fill-17" fill="#444444"></path>
                <path d="M105.875246,138.543461 C105.875246,138.967243 105.777164,139.383622 105.57915,139.7963 C105.382986,140.208978 105.107246,140.560587 104.753781,140.845576 C104.363304,141.156472 103.909907,141.400748 103.393588,141.574702 C102.87542,141.748656 102.251767,141.837484 101.522629,141.837484 C100.741675,141.837484 100.038446,141.763461 99.4129427,141.619116 C98.7892896,141.472921 98.154533,141.256403 97.5086728,140.971415 L97.5086728,139.163403 L97.6104559,139.163403 C98.1582342,139.618645 98.7929908,139.970254 99.5128752,140.218231 C100.230909,140.466208 100.906379,140.590197 101.537434,140.590197 C102.433126,140.590197 103.128952,140.423645 103.626764,140.088691 C104.124576,139.751886 104.372557,139.305898 104.372557,138.747024 C104.372557,138.265875 104.255969,137.910564 104.020943,137.682944 C103.784066,137.453472 103.426899,137.275817 102.945743,137.149978 C102.581174,137.053748 102.185145,136.972323 101.759507,136.909403 C101.335719,136.846484 100.884172,136.766909 100.408567,136.668829 C99.4462535,136.465266 98.7337716,136.115507 98.2692704,135.623254 C97.8047692,135.131001 97.5734439,134.488852 97.5734439,133.696806 C97.5734439,132.788174 97.9565186,132.042392 98.7245186,131.463162 C99.4925186,130.880231 100.467786,130.591541 101.64662,130.591541 C102.410919,130.591541 103.110446,130.663714 103.747053,130.809909 C104.383661,130.954254 104.948094,131.13561 105.438504,131.348426 L105.438504,133.054656 L105.33487,133.054656 C104.922186,132.704898 104.37996,132.414357 103.70634,132.183036 C103.032721,131.951714 102.344297,131.836978 101.639217,131.836978 C100.867516,131.836978 100.245714,131.997978 99.7775113,132.318128 C99.3093089,132.640128 99.0742824,133.050955 99.0742824,133.558013 C99.0742824,134.009553 99.1908704,134.363013 99.4240463,134.622093 C99.6572222,134.879323 100.068056,135.075484 100.656547,135.212426 C100.967449,135.279047 101.409743,135.362323 101.981579,135.460403 C102.557116,135.558484 103.041974,135.656564 103.441704,135.758346 C104.246716,135.971162 104.855564,136.295013 105.262697,136.728047 C105.67168,137.161082 105.875246,137.76622 105.875246,138.543461" id="Fill-19" fill="#444444"></path>
                <path d="M120.359356,140.853163 C120.091019,140.969749 119.85044,141.078933 119.63392,141.182566 C119.4174,141.282497 119.134257,141.38983 118.784493,141.502715 C118.488397,141.593393 118.166392,141.672968 117.818479,141.739589 C117.472416,141.804359 117.089342,141.837669 116.671106,141.837669 C115.8846,141.837669 115.168416,141.726634 114.524407,141.506416 C113.882248,141.284347 113.321515,140.93829 112.84406,140.466393 C112.379559,140.0056 112.01499,139.418968 111.752204,138.706497 C111.489419,137.995876 111.358026,137.168669 111.358026,136.224876 C111.358026,135.332899 111.483867,134.5316 111.7374,133.826531 C111.990932,133.121462 112.35365,132.527428 112.831106,132.040726 C113.291906,131.56883 113.848937,131.209818 114.5022,130.961841 C115.155462,130.713864 115.882749,130.591726 116.678508,130.591726 C117.261448,130.591726 117.844387,130.662048 118.425477,130.802692 C119.004715,130.945186 119.650575,131.191313 120.359356,131.546623 L120.359356,133.258405 L120.250171,133.258405 C119.652426,132.758749 119.060233,132.394186 118.471742,132.166566 C117.88325,131.937094 117.254045,131.822359 116.584127,131.822359 C116.034498,131.822359 115.540387,131.911186 115.101795,132.088841 C114.661351,132.266497 114.269024,132.542232 113.922961,132.916048 C113.588002,133.280611 113.327067,133.741405 113.140156,134.296577 C112.953245,134.8536 112.858865,135.495749 112.858865,136.224876 C112.858865,136.987313 112.962498,137.644267 113.169766,138.193887 C113.377033,138.741657 113.641669,139.189497 113.967375,139.533703 C114.307886,139.892715 114.703915,140.159198 115.159163,140.333152 C115.614412,140.505255 116.093718,140.590382 116.598932,140.590382 C117.292908,140.590382 117.94432,140.471945 118.551318,140.233221 C119.160166,139.996347 119.728301,139.639186 120.257573,139.163589 L120.359356,139.163589 L120.359356,140.853163 Z" id="Fill-21" fill="#444444"></path>
                <path d="M127.178826,137.376118 L125.276407,132.048314 L123.366585,137.376118 L127.178826,137.376118 Z M130.224918,141.641693 L128.687067,141.641693 L127.622971,138.616003 L122.929843,138.616003 L121.865747,141.641693 L120.400069,141.641693 L124.351106,130.788072 L126.275732,130.788072 L130.224918,141.641693 Z" id="Fill-23" fill="#444444"></path>
                <path d="M136.746255,133.841151 C136.746255,133.530254 136.692588,133.256369 136.583402,133.015794 C136.474217,132.77522 136.291007,132.569806 136.039325,132.406955 C135.830207,132.264461 135.582227,132.16638 135.295383,132.110863 C135.01039,132.055346 134.67173,132.027587 134.283104,132.027587 L132.584251,132.027587 L132.584251,136.122909 L134.042525,136.122909 C134.499624,136.122909 134.897504,136.084047 135.238014,136.002622 C135.578525,135.923047 135.867219,135.773151 136.104096,135.554783 C136.322467,135.349369 136.48532,135.116197 136.590805,134.851564 C136.694439,134.585082 136.746255,134.250128 136.746255,133.841151 L136.746255,133.841151 Z M140.121754,141.641323 L138.248945,141.641323 L134.618063,137.325783 L132.584251,137.325783 L132.584251,141.641323 L131.140781,141.641323 L131.140781,130.789553 L134.18132,130.789553 C134.836434,130.789553 135.384212,130.830266 135.820954,130.915392 C136.257696,131.000518 136.651875,131.152266 137.001639,131.370633 C137.395817,131.61861 137.703017,131.931357 137.923239,132.307024 C138.14346,132.684541 138.254496,133.16199 138.254496,133.739369 C138.254496,134.522162 138.058333,135.177266 137.664154,135.704679 C137.271827,136.232093 136.7296,136.628116 136.039325,136.894599 L140.121754,141.641323 Z" id="Fill-25" fill="#444444"></path>
                <path d="M147.939439,141.640953 L140.788711,141.640953 L140.788711,130.789183 L147.939439,130.789183 L147.939439,132.06978 L142.232181,132.06978 L142.232181,135.045505 L147.939439,135.045505 L147.939439,136.327953 L142.232181,136.327953 L142.232181,140.358505 L147.939439,140.358505 L147.939439,141.640953 Z" id="Fill-27" fill="#444444"></path>
                <path d="M156.646708,141.640953 L149.495981,141.640953 L149.495981,130.789183 L156.646708,130.789183 L156.646708,132.06978 L150.939451,132.06978 L150.939451,135.045505 L156.646708,135.045505 L156.646708,136.327953 L150.939451,136.327953 L150.939451,140.358505 L156.646708,140.358505 L156.646708,141.640953 Z" id="Fill-29" fill="#444444"></path>
                <path d="M163.808725,133.841151 C163.808725,133.530254 163.755057,133.256369 163.645872,133.015794 C163.536686,132.77522 163.353477,132.569806 163.101795,132.406955 C162.892677,132.264461 162.644696,132.16638 162.357853,132.110863 C162.07286,132.055346 161.7342,132.027587 161.345573,132.027587 L159.64672,132.027587 L159.64672,136.122909 L161.104995,136.122909 C161.562093,136.122909 161.959973,136.084047 162.300484,136.002622 C162.640995,135.923047 162.929689,135.773151 163.166566,135.554783 C163.384937,135.349369 163.54779,135.116197 163.653274,134.851564 C163.756908,134.585082 163.808725,134.250128 163.808725,133.841151 L163.808725,133.841151 Z M167.184224,141.641323 L165.311414,141.641323 L161.680532,137.325783 L159.64672,137.325783 L159.64672,141.641323 L158.20325,141.641323 L158.20325,130.789553 L161.24379,130.789553 C161.898903,130.789553 162.446681,130.830266 162.883424,130.915392 C163.320166,131.000518 163.714344,131.152266 164.064108,131.370633 C164.458286,131.61861 164.765486,131.931357 164.985708,132.307024 C165.20593,132.684541 165.316966,133.16199 165.316966,133.739369 C165.316966,134.522162 165.120802,135.177266 164.726624,135.704679 C164.334296,136.232093 163.792069,136.628116 163.101795,136.894599 L167.184224,141.641323 Z" id="Fill-31" fill="#444444"></path>
                <path d="M7.2773706,155.288941 L5.37495133,149.961137 L3.46512964,155.288941 L7.2773706,155.288941 Z M10.3234622,159.552666 L8.78561157,159.552666 L7.72151518,156.528826 L3.02838747,156.528826 L1.96429108,159.552666 L0.498613976,159.552666 L4.44965012,148.699045 L6.37427663,148.699045 L10.3234622,159.552666 Z" id="Fill-33" fill="#444444"></path>
                <path d="M19.1264077,156.454618 C19.1264077,156.8784 19.0283258,157.294779 18.8303113,157.709308 C18.6341475,158.120136 18.3584077,158.471745 18.0049427,158.758584 C17.6144655,159.06948 17.161068,159.311906 16.6447499,159.48771 C16.1265812,159.661664 15.5029282,159.748641 14.7737908,159.748641 C13.9928366,159.748641 13.2896077,159.676469 12.6641041,159.530274 C12.0404511,159.384078 11.4056945,159.169411 10.7598342,158.882572 L10.7598342,157.074561 L10.8616173,157.074561 C11.4093957,157.531653 12.0441523,157.883262 12.7640366,158.131239 C13.4820704,158.379216 14.1575402,158.501354 14.7885957,158.501354 C15.6842872,158.501354 16.3801137,158.336653 16.8779258,157.999848 C17.3757378,157.664894 17.6237186,157.217055 17.6237186,156.658182 C17.6237186,156.178883 17.5071306,155.823572 17.2721041,155.594101 C17.035227,155.36648 16.6780607,155.188825 16.1969041,155.062986 C15.8323354,154.964906 15.4363065,154.885331 15.010668,154.822411 C14.58688,154.759492 14.135333,154.679917 13.6597282,154.581837 C12.6974149,154.378274 11.984933,154.028515 11.5204318,153.536262 C11.0559306,153.042159 10.8246053,152.400009 10.8246053,151.607963 C10.8246053,150.699331 11.20768,149.953549 11.97568,149.37432 C12.74368,148.793239 13.7189475,148.502699 14.8977812,148.502699 C15.66208,148.502699 16.3616077,148.574871 16.9982149,148.721067 C17.6348222,148.867262 18.1992559,149.046768 18.6896655,149.261434 L18.6896655,150.965814 L18.5860318,150.965814 C18.1733475,150.617906 17.631121,150.325515 16.9575017,150.094193 C16.2838824,149.864722 15.5954583,149.749986 14.8903788,149.749986 C14.1186776,149.749986 13.4968752,149.910986 13.0286728,150.231136 C12.5604704,150.551285 12.3254439,150.963963 12.3254439,151.471021 C12.3254439,151.922561 12.4420318,152.276021 12.6752077,152.533251 C12.9083836,152.792331 13.3192173,152.988492 13.9077089,153.123584 C14.2186101,153.192055 14.6609041,153.27348 15.2327402,153.371561 C15.8082776,153.469641 16.2931354,153.567722 16.6928655,153.671354 C17.4978776,153.88417 18.1067258,154.208021 18.5138583,154.641055 C18.9228414,155.072239 19.1264077,155.677377 19.1264077,156.454618" id="Fill-35" fill="#444444"></path>
                <path d="M30.7387528,155.288941 L28.8363335,149.961137 L26.9265118,155.288941 L30.7387528,155.288941 Z M33.7848443,159.552666 L32.2469937,159.552666 L31.1828973,156.528826 L26.4897696,156.528826 L25.4256733,159.552666 L23.9599961,159.552666 L27.9110323,148.699045 L29.8356588,148.699045 L33.7848443,159.552666 Z" id="Fill-37" fill="#444444"></path>
                <path d="M42.9810429,159.552295 L41.1952116,159.552295 L36.0486863,149.84418 L36.0486863,159.552295 L34.7014477,159.552295 L34.7014477,148.700525 L36.938826,148.700525 L41.6319537,157.562928 L41.6319537,148.700525 L42.9810429,148.700525 L42.9810429,159.552295 Z" id="Fill-39" fill="#444444"></path>
                <path d="M53.4791402,159.552295 L49.1931451,159.552295 L49.1931451,158.443801 L50.6144077,158.443801 L50.6144077,149.807169 L49.1931451,149.807169 L49.1931451,148.700525 L53.4791402,148.700525 L53.4791402,149.807169 L52.0578776,149.807169 L52.0578776,158.443801 L53.4791402,158.443801 L53.4791402,159.552295 Z" id="Fill-41" fill="#444444"></path>
                <path d="M63.484052,159.552295 L61.6982207,159.552295 L56.5516954,149.84418 L56.5516954,159.552295 L55.2044569,159.552295 L55.2044569,148.700525 L57.4418352,148.700525 L62.1349629,157.562928 L62.1349629,148.700525 L63.484052,148.700525 L63.484052,159.552295 Z" id="Fill-43" fill="#444444"></path>
                <path d="M73.3794082,149.983159 L69.5023961,149.983159 L69.5023961,159.55248 L68.0589263,159.55248 L68.0589263,149.983159 L64.1819142,149.983159 L64.1819142,148.70071 L73.3794082,148.70071 L73.3794082,149.983159 Z" id="Fill-45" fill="#444444"></path>
                <path d="M81.2563123,159.552295 L74.1055846,159.552295 L74.1055846,148.700525 L81.2563123,148.700525 L81.2563123,149.982974 L75.5490545,149.982974 L75.5490545,152.956847 L81.2563123,152.956847 L81.2563123,154.239295 L75.5490545,154.239295 L75.5490545,158.269847 L81.2563123,158.269847 L81.2563123,159.552295 Z" id="Fill-47" fill="#444444"></path>
                <path d="M88.4183287,151.754159 C88.4183287,151.443262 88.3646612,151.167526 88.2554757,150.926952 C88.1462901,150.686377 87.9630805,150.482814 87.7113986,150.318113 C87.5022805,150.175618 87.2542998,150.079389 86.9674564,150.022021 C86.6824636,149.966503 86.3438034,149.940595 85.9551769,149.940595 L84.2563239,149.940595 L84.2563239,154.034067 L85.7145986,154.034067 C86.1716973,154.034067 86.5695769,153.995205 86.9100877,153.91563 C87.2505986,153.834205 87.5392925,153.686159 87.7761696,153.467791 C87.9945407,153.262377 88.1573937,153.027354 88.2628781,152.762722 C88.3665118,152.49809 88.4183287,152.163136 88.4183287,151.754159 L88.4183287,151.754159 Z M91.7938275,159.55248 L89.9210178,159.55248 L86.2901359,155.238791 L84.2563239,155.238791 L84.2563239,159.55248 L82.812854,159.55248 L82.812854,148.70071 L85.8533937,148.70071 C86.508507,148.70071 87.0562853,148.743274 87.4930275,148.8284 C87.9297696,148.913526 88.323948,149.065274 88.6737118,149.283641 C89.0678901,149.531618 89.3750901,149.844366 89.5953118,150.220032 C89.8155335,150.595699 89.9265696,151.073147 89.9265696,151.650526 C89.9265696,152.43332 89.7304058,153.090274 89.3362275,153.615837 C88.9438998,154.143251 88.4016733,154.541124 87.7113986,154.807607 L91.7938275,159.55248 Z" id="Fill-49" fill="#444444"></path>
                <path d="M100.740935,159.552295 L98.9551036,159.552295 L93.8085783,149.84418 L93.8085783,159.552295 L92.4613398,159.552295 L92.4613398,148.700525 L94.6987181,148.700525 L99.3918458,157.562928 L99.3918458,148.700525 L100.740935,148.700525 L100.740935,159.552295 Z" id="Fill-51" fill="#444444"></path>
                <path d="M112.922525,155.288941 L111.020106,149.961137 L109.110284,155.288941 L112.922525,155.288941 Z M115.968617,159.552666 L114.430766,159.552666 L113.36667,156.528826 L108.673542,156.528826 L107.609446,159.552666 L106.143769,159.552666 L110.094805,148.699045 L112.019431,148.699045 L115.968617,159.552666 Z" id="Fill-53" fill="#444444"></path>
                <path d="M124.62518,149.983159 L120.748168,149.983159 L120.748168,159.55248 L119.304698,159.55248 L119.304698,149.983159 L115.427686,149.983159 L115.427686,148.70071 L124.62518,148.70071 L124.62518,149.983159 Z" id="Fill-55" fill="#444444"></path>
                <path d="M139.533078,159.552295 L138.089608,159.552295 L138.089608,150.201341 L135.071275,156.565468 L134.212596,156.565468 L131.21647,150.201341 L131.21647,159.552295 L129.867381,159.552295 L129.867381,148.700525 L131.836422,148.700525 L134.728914,154.740801 L137.528875,148.700525 L139.533078,148.700525 L139.533078,159.552295 Z" id="Fill-57" fill="#444444"></path>
                <path d="M149.675304,154.130667 C149.675304,152.720529 149.360702,151.632391 148.727796,150.868103 C148.09674,150.101966 147.23436,149.720747 146.140653,149.720747 C145.037694,149.720747 144.171613,150.101966 143.542408,150.868103 C142.913203,151.632391 142.5986,152.720529 142.5986,154.130667 C142.5986,155.553759 142.918755,156.641897 143.560914,157.398782 C144.201222,158.155667 145.061752,158.533184 146.140653,158.533184 C147.219555,158.533184 148.078234,158.155667 148.716692,157.398782 C149.357,156.641897 149.675304,155.553759 149.675304,154.130667 M149.806697,149.946517 C150.248991,150.433218 150.587651,151.027253 150.824528,151.732322 C151.059555,152.437391 151.177993,153.236839 151.177993,154.130667 C151.177993,155.022644 151.057704,155.823943 150.817126,156.532713 C150.576547,157.239632 150.239738,157.828115 149.806697,158.300011 C149.360702,158.790414 148.831429,159.158678 148.220731,159.408506 C147.611882,159.654632 146.916056,159.778621 146.133251,159.778621 C145.370803,159.778621 144.676827,159.650931 144.051323,159.401103 C143.42767,159.147575 142.896547,158.781161 142.459805,158.300011 C142.023063,157.817011 141.686253,157.228529 141.451227,156.529011 C141.21435,155.827644 141.097762,155.028195 141.097762,154.130667 C141.097762,153.244241 141.21435,152.452195 141.447526,151.750828 C141.680702,151.047609 142.019362,150.448023 142.467208,149.946517 C142.894697,149.469069 143.42582,149.106356 144.058726,148.852828 C144.693482,148.601149 145.385608,148.47346 146.133251,148.47346 C146.910504,148.47346 147.610032,148.603 148.228133,148.856529 C148.848085,149.111908 149.373656,149.474621 149.806697,149.946517" id="Fill-59" fill="#444444"></path>
                <path d="M159.60138,159.552295 L152.735645,159.552295 L152.735645,148.700525 L154.177265,148.700525 L154.177265,158.269847 L159.60138,158.269847 L159.60138,159.552295 Z" id="Fill-61" fill="#444444"></path>
                <path d="M167.461999,159.552295 L160.311271,159.552295 L160.311271,148.700525 L167.461999,148.700525 L167.461999,149.982974 L161.754741,149.982974 L161.754741,152.956847 L167.461999,152.956847 L167.461999,154.239295 L161.754741,154.239295 L161.754741,158.269847 L167.461999,158.269847 L167.461999,159.552295 Z" id="Fill-63" fill="#444444"></path>
                <path d="M177.299616,148.69997 L173.553997,154.062936 L177.292214,159.55174 L175.622971,159.55174 L172.663857,155.084453 L169.632571,159.55174 L168.057708,159.55174 L171.840339,154.131407 L168.144686,148.69997 L169.806527,148.69997 L172.730479,153.10989 L175.719202,148.69997 L177.299616,148.69997 Z" id="Fill-65" fill="#444444"></path>
                <path d="M82.0766843,36.3488034 C82.2006747,34.8405851 82.6152096,33.1843207 83.4461301,32.9233897 C83.9920578,32.7531368 84.5213301,33.0381253 85.0506024,33.4211943 C87.3953157,35.7140563 91.3648578,35.7140563 93.7095711,33.4211943 C94.2388434,33.0381253 94.7662651,32.7531368 95.3121928,32.9233897 C96.1449639,33.1843207 96.5594988,34.8405851 96.6834892,36.3488034 C96.7741687,37.129746 97.2109108,37.1389989 97.4144771,36.746677 C97.7105735,36.1063782 98.0584867,35.7140563 98.397147,35.7140563 C99.1003759,35.7140563 99.4945542,37.4073322 99.2761831,39.4984816 C99.0559614,41.589631 98.3083181,43.2847575 97.6050892,43.2847575 C97.4237301,43.2773552 97.312694,43.3735851 97.2701301,43.569746 C96.4447614,47.4189414 94.5608482,50.1651943 91.6683566,51.4235851 C90.2119325,52.0564816 88.548241,52.0564816 87.0918169,51.4235851 C84.1974747,50.1651943 82.3135614,47.4189414 81.4900434,43.569746 C81.4474795,43.3735851 81.3364434,43.2773552 81.1532337,43.2847575 C80.4500048,43.2847575 79.7023614,41.589631 79.4839904,39.4984816 C79.2656193,37.4073322 79.657947,35.7140563 80.3611759,35.7140563 C80.6998361,35.7140563 81.0496,36.1063782 81.3438458,36.746677 C81.547412,37.1389989 81.9860048,37.129746 82.0766843,36.3488034 M89.488347,55.2154126 C88.8887518,55.2135621 88.287306,55.1413897 87.6877108,55.0025966 C86.9548723,54.9563322 86.7772145,56.9956655 86.8512386,57.7951138 C86.8734458,57.9690678 86.8734458,58.0652977 87.0270458,58.2022402 C87.2269108,58.3798954 87.6044337,58.6574816 87.7839422,58.8591943 C87.9356916,59.0312977 87.8542651,59.260769 87.808,59.4661828 C86.849388,63.9408724 86.4422554,68.8745046 86.3941398,73.4953897 L92.5807036,73.4953897 C92.532588,68.833792 92.1384096,64.0019414 91.168694,59.4661828 C91.1224289,59.260769 91.0391518,59.0312977 91.1927518,58.8591943 C91.3722602,58.6574816 91.7497831,58.3798954 91.9496482,58.2022402 C92.1013976,58.0652977 92.1032482,57.9690678 92.1236048,57.7951138 C92.1994795,56.9956655 92.0199711,54.9563322 91.2889831,55.0025966 C90.6875373,55.1413897 90.0879422,55.2135621 89.488347,55.2154126 M84.7397012,71.3820333 L70.2383807,71.3820333 C69.7609253,71.3820333 69.2168482,71.0211713 69.2168482,70.5067115 C69.2168482,69.3630563 71.4634795,57.0049184 72.2388819,56.7365851 C74.3578217,56.0037575 77.4390747,55.4559874 79.4839904,54.5066425 C81.2790747,53.6720333 81.9674988,51.1108379 80.9496675,51.4883552 C78.4643084,53.4055506 74.2467855,53.8959529 71.3043277,54.9304241 C68.7782554,55.6558494 67.1034602,68.833792 67.1034602,70.7750448 C67.1034602,72.3461828 68.3914795,73.4953897 69.9607904,73.4953897 L84.7008386,73.4953897 C84.7008386,72.8273322 84.7119422,72.1278149 84.7397012,71.3820333 M94.2740048,73.4953897 L108.799383,73.4953897 C110.368694,73.4953897 111.654863,72.3461828 111.654863,70.7750448 C111.654863,68.833792 109.981918,55.6558494 107.453995,54.9304241 C104.513388,53.8959529 100.294014,53.4055506 97.8086554,51.4883552 C96.7908241,51.1108379 97.4810988,53.6720333 99.2761831,54.5066425 C101.321099,55.4559874 104.400501,56.0037575 106.519441,56.7365851 C107.296694,57.0049184 109.543325,69.3630563 109.543325,70.5067115 C109.543325,71.0211713 108.999248,71.3820333 108.521793,71.3820333 L94.2369928,71.3820333 C94.2629012,72.1278149 94.2740048,72.8273322 94.2740048,73.4953897 M100.479075,34.2243437 C100.479075,34.466769 100.469822,34.7073437 100.455017,34.9460678 C101.408077,36.1915046 101.41548,38.491769 101.276684,39.8075276 C101.117533,41.3138954 100.540145,43.9879759 99.002294,44.8762517 C98.0640386,48.5570448 96.0283759,51.7825966 92.406747,53.3370793 C90.4784193,54.1642862 88.2817542,54.1642862 86.3515759,53.3370793 C82.729947,51.7825966 80.6961349,48.5570448 79.7578795,44.8762517 C78.2200289,43.9879759 77.642641,41.3138954 77.4834892,39.8075276 C77.344694,38.491769 77.3502458,36.1915046 78.303306,34.9460678 C78.2885012,34.7073437 78.2810988,34.466769 78.2810988,34.2243437 C78.2810988,19.6251598 100.479075,19.6251598 100.479075,34.2243437" id="Fill-288" fill="#818286"></path>
                <path d="M89.3793465,3.70114943 C64.740426,3.70114943 44.6947007,23.7465747 44.6947007,48.3851264 C44.6947007,73.0236782 64.740426,93.0691034 89.3793465,93.0691034 C114.018267,93.0691034 134.063992,73.0236782 134.063992,48.3851264 C134.063992,23.7465747 114.018267,3.70114943 89.3793465,3.70114943 M89.3793465,96.7702529 C62.6992116,96.7702529 40.9934959,75.0648621 40.9934959,48.3851264 C40.9934959,21.7053908 62.6992116,0 89.3793465,0 C116.059481,0 137.765197,21.7053908 137.765197,48.3851264 C137.765197,75.0648621 116.059481,96.7702529 89.3793465,96.7702529" id="Fill-290" fill="#818286"></path>
                <path d="M62.5848443,119.432391 C62.8420781,119.119644 63.0308395,118.75323 63.1548299,118.329448 C63.2769696,117.907517 63.3380395,117.409713 63.3380395,116.837885 C63.3380395,116.225345 63.2677166,115.703483 63.1270708,115.274149 C62.9845745,114.844816 62.7995142,114.495057 62.5700395,114.228575 C62.3368636,113.95654 62.0685263,113.756678 61.7650275,113.63269 C61.4615287,113.510552 61.1432251,113.449483 60.8138178,113.449483 C60.4788588,113.449483 60.1642564,113.506851 59.8700106,113.625287 C59.5757648,113.745575 59.3055769,113.941736 59.0575961,114.217471 C58.829972,114.472851 58.6412106,114.82631 58.4987142,115.276 C58.3543672,115.72754 58.2821937,116.249402 58.2821937,116.845287 C58.2821937,117.454126 58.3525166,117.970437 58.4913118,118.39792 C58.630107,118.827253 58.8151672,119.175161 59.0446419,119.445345 C59.272266,119.713678 59.5387528,119.915391 59.8478034,120.04123 C60.1531528,120.16892 60.4751576,120.23554 60.8138178,120.23554 C61.1524781,120.23554 61.4744829,120.16892 61.7816829,120.039379 C62.0870323,119.907989 62.3553696,119.704425 62.5848443,119.432391 M66.0769311,116.845287 C66.0769311,118.471943 65.6105793,119.767345 64.6778757,120.724092 C63.7433214,121.68454 62.4553022,122.163839 60.8064154,122.163839 C59.1649311,122.163839 57.8769118,121.68454 56.9442082,120.724092 C56.009654,119.767345 55.5433022,118.471943 55.5433022,116.845287 C55.5433022,115.201977 56.009654,113.904724 56.9442082,112.949828 C57.8769118,111.996782 59.1649311,111.521184 60.8064154,111.521184 C62.4460492,111.521184 63.7322178,111.996782 64.6704733,112.949828 C65.6087287,113.904724 66.0769311,115.201977 66.0769311,116.845287" id="Fill-292" fill="#444444"></path>
                <path d="M76.3468492,118.250429 C76.3468492,119.514371 75.9619239,120.480371 75.1939239,121.15398 C74.4259239,121.82759 73.2933552,122.162544 71.7962178,122.162544 C70.3009311,122.162544 69.170213,121.82759 68.4040636,121.15398 C67.6379142,120.480371 67.2548395,119.516222 67.2548395,118.257831 L67.2548395,111.732705 L69.9030516,111.732705 L69.9030516,118.107934 C69.9030516,118.816705 70.0529504,119.344118 70.3490467,119.692026 C70.6469937,120.039934 71.130001,120.213889 71.7962178,120.213889 C72.4550323,120.213889 72.9361889,120.047337 73.2415383,119.712383 C73.5450371,119.377429 73.6967865,118.842613 73.6967865,118.107934 L73.6967865,111.732705 L76.3468492,111.732705 L76.3468492,118.250429 Z" id="Fill-294" fill="#444444"></path>
                <path d="M83.8523373,114.861841 C83.8523373,114.604611 83.8005205,114.386244 83.6950361,114.203037 C83.5877012,114.01983 83.4081928,113.875485 83.1528096,113.770002 C82.9733012,113.69783 82.7660337,113.653416 82.527306,113.636761 C82.2885783,113.620106 82.0128386,113.612703 81.6982361,113.612703 L80.7433253,113.612703 L80.7433253,116.364508 L81.5538892,116.364508 C81.9739759,116.364508 82.327441,116.344152 82.6105831,116.301589 C82.8937253,116.260876 83.1306024,116.166497 83.3249157,116.020301 C83.5062747,115.879657 83.6413687,115.722359 83.7264964,115.550255 C83.8097735,115.378152 83.8523373,115.14868 83.8523373,114.861841 L83.8523373,114.861841 Z M87.9625253,121.949543 L84.7424771,121.949543 L81.9628723,118.203979 L80.7433253,118.203979 L80.7433253,121.949543 L78.1210217,121.949543 L78.1210217,111.73252 L82.5421108,111.73252 C83.1454072,111.73252 83.6635759,111.76583 84.1003181,111.834301 C84.533359,111.902772 84.9404916,112.052669 85.3198651,112.28029 C85.7047904,112.509761 86.0101398,112.807703 86.2359133,113.170416 C86.4635373,113.533129 86.5764241,113.990221 86.5764241,114.537991 C86.5764241,115.293025 86.4006169,115.907416 86.050853,116.384864 C85.7010892,116.860462 85.2014265,117.256485 84.5518651,117.572933 L87.9625253,121.949543 Z" id="Fill-296" fill="#444444"></path>
                <path d="M97.1589089,122.148479 C96.4001619,122.148479 95.6987836,122.035594 95.054774,121.811675 C94.4126149,121.587755 93.8611354,121.254652 93.3984848,120.810514 C92.9358342,120.366376 92.5768173,119.813054 92.3251354,119.150548 C92.0697523,118.486192 91.9439113,117.720054 91.9439113,116.852134 C91.9439113,116.041583 92.0642005,115.308755 92.3066294,114.6481 C92.5490583,113.991146 92.9006728,113.42487 93.3633234,112.952974 C93.807468,112.501433 94.3570969,112.151675 95.0140607,111.903698 C95.669174,111.657571 96.3872077,111.533583 97.1663113,111.533583 C97.5938005,111.533583 97.982427,111.55764 98.3284896,111.605755 C98.6727017,111.65387 98.9928559,111.714939 99.2852511,111.792663 C99.5906005,111.881491 99.8700414,111.977721 100.119873,112.086905 C100.367853,112.192387 100.588075,112.292318 100.774986,112.384847 L100.774986,114.860916 L100.473338,114.860916 C100.345646,114.751732 100.184644,114.624043 99.98848,114.472295 C99.7941667,114.322399 99.5739451,114.172502 99.3278149,114.028157 C99.0742824,113.881962 98.8040945,113.759824 98.5098487,113.659893 C98.2174535,113.558111 97.9028511,113.509997 97.5715933,113.509997 C97.1996222,113.509997 96.8480077,113.567364 96.5130487,113.683951 C96.1799402,113.800537 95.8708896,113.994847 95.5858969,114.26318 C95.3175595,114.524111 95.0991884,114.866468 94.9326342,115.297652 C94.7642294,115.725134 94.6809523,116.246997 94.6809523,116.859537 C94.6809523,117.496134 94.7716318,118.030951 94.9529908,118.460284 C95.1324993,118.889617 95.3601234,119.228272 95.6358631,119.474399 C95.9134535,119.724226 96.2243547,119.903732 96.5685667,120.012916 C96.9109282,120.118399 97.2495884,120.173916 97.5826969,120.173916 C97.9028511,120.173916 98.2211547,120.123951 98.5339065,120.027721 C98.8466583,119.933341 99.1372029,119.803801 99.401839,119.640951 C99.6257619,119.507709 99.83488,119.367066 100.027343,119.217169 C100.217955,119.067272 100.377107,118.937732 100.501097,118.826698 L100.774986,118.826698 L100.774986,121.269456 C100.517752,121.384192 100.275323,121.493376 100.042147,121.593307 C99.807121,121.693238 99.5628414,121.780215 99.3056077,121.854238 C98.9706487,121.950468 98.6597475,122.02264 98.3655017,122.072606 C98.0731065,122.122571 97.6696752,122.148479 97.1589089,122.148479" id="Fill-298" fill="#444444"></path>
                <path d="M108.464979,119.432391 C108.722213,119.119644 108.910974,118.75323 109.034965,118.329448 C109.157105,117.907517 109.218174,117.409713 109.218174,116.837885 C109.218174,116.225345 109.147852,115.703483 109.007206,115.274149 C108.864709,114.844816 108.679649,114.495057 108.450174,114.228575 C108.216999,113.95654 107.948661,113.756678 107.645162,113.63269 C107.341664,113.510552 107.02336,113.449483 106.693953,113.449483 C106.358994,113.449483 106.044391,113.506851 105.750146,113.625287 C105.4559,113.745575 105.185712,113.941736 104.937731,114.217471 C104.710107,114.472851 104.521346,114.82631 104.378849,115.276 C104.234502,115.72754 104.162329,116.249402 104.162329,116.845287 C104.162329,117.454126 104.232652,117.970437 104.371447,118.39792 C104.510242,118.827253 104.695302,119.175161 104.924777,119.445345 C105.152401,119.713678 105.418888,119.915391 105.727938,120.04123 C106.033288,120.16892 106.355293,120.23554 106.693953,120.23554 C107.032613,120.23554 107.354618,120.16892 107.661818,120.039379 C107.967167,119.907989 108.235505,119.704425 108.464979,119.432391 M111.957066,116.845287 C111.957066,118.471943 111.490714,119.767345 110.558011,120.724092 C109.623456,121.68454 108.335437,122.163839 106.68655,122.163839 C105.045066,122.163839 103.757047,121.68454 102.824343,120.724092 C101.889789,119.767345 101.423437,118.471943 101.423437,116.845287 C101.423437,115.201977 101.889789,113.904724 102.824343,112.949828 C103.757047,111.996782 105.045066,111.521184 106.68655,111.521184 C108.326184,111.521184 109.612353,111.996782 110.550608,112.949828 C111.488864,113.904724 111.957066,115.201977 111.957066,116.845287" id="Fill-300" fill="#444444"></path>
                <path d="M119.724044,119.432391 C119.981278,119.119644 120.17004,118.75323 120.29403,118.329448 C120.41617,117.907517 120.47724,117.409713 120.47724,116.837885 C120.47724,116.225345 120.406917,115.703483 120.266271,115.274149 C120.123774,114.844816 119.938714,114.495057 119.70924,114.228575 C119.476064,113.95654 119.207726,113.756678 118.904227,113.63269 C118.600729,113.510552 118.282425,113.449483 117.953018,113.449483 C117.618059,113.449483 117.303456,113.506851 117.009211,113.625287 C116.714965,113.745575 116.444777,113.941736 116.196796,114.217471 C115.969172,114.472851 115.780411,114.82631 115.637914,115.276 C115.493567,115.72754 115.421394,116.249402 115.421394,116.845287 C115.421394,117.454126 115.491717,117.970437 115.630512,118.39792 C115.769307,118.827253 115.954367,119.175161 116.183842,119.445345 C116.411466,119.713678 116.677953,119.915391 116.987003,120.04123 C117.292353,120.16892 117.614358,120.23554 117.953018,120.23554 C118.291678,120.23554 118.613683,120.16892 118.920883,120.039379 C119.226232,119.907989 119.49457,119.704425 119.724044,119.432391 M123.216131,116.845287 C123.216131,118.471943 122.749779,119.767345 121.817076,120.724092 C120.882521,121.68454 119.594502,122.163839 117.945615,122.163839 C116.304131,122.163839 115.016112,121.68454 114.083408,120.724092 C113.148854,119.767345 112.682502,118.471943 112.682502,116.845287 C112.682502,115.201977 113.148854,113.904724 114.083408,112.949828 C115.016112,111.996782 116.304131,111.521184 117.945615,111.521184 C119.585249,111.521184 120.871418,111.996782 121.809673,112.949828 C122.747929,113.904724 123.216131,115.201977 123.216131,116.845287" id="Fill-302" fill="#444444"></path>
            </g>
        </g>
    </g>
</svg>