<?xml version="1.0" encoding="UTF-8" standalone="no"?>
<svg width="167px" height="117px" viewBox="0 0 167 117" version="1.1" xmlns="http://www.w3.org/2000/svg" xmlns:xlink="http://www.w3.org/1999/xlink">
    <!-- Generator: Sketch 3.6.1 (26313) - http://www.bohemiancoding.com/sketch -->
    <title>Group 4</title>
    <desc>Created with Sketch.</desc>
    <defs>
        <path id="path-1" d="M0.317513964,5.91549296 L10.1893833,5.91549296 L10.1893833,0.406788732 L0.317513964,0.406788732 L0.317513964,5.91549296 L0.317513964,5.91549296 Z"></path>
    </defs>
    <g id="Page-1" stroke="none" stroke-width="1" fill="none" fill-rule="evenodd">
        <g id="Careers" transform="translate(-615.000000, -813.000000)">
            <g id="Group-4" transform="translate(615.000000, 813.000000)">
                <path d="M91.4768063,33.9885634 L103.210847,56.8203944 L10.929045,56.8203944 L10.929045,11.7640563 L103.210847,11.7640563 L91.4768063,33.9885634 Z" id="Fill-1" fill="#CFCDD0"></path>
                <path d="M28.2688901,78.1435775 L17.662782,78.1435775 L17.662782,63.4554085 L28.2688901,63.4554085 L28.2688901,66.2968169 L21.4245252,66.2968169 L21.4245252,68.8306197 L27.776773,68.8306197 L27.776773,71.6720282 L21.4245252,71.6720282 L21.4245252,75.302169 L28.2688901,75.302169 L28.2688901,78.1435775 Z" id="Fill-2" fill="#444444"></path>
                <path d="M45.8246761,78.1435775 L42.0629329,78.1435775 L42.0629329,68.3080845 L39.3444779,74.6909014 L36.7362572,74.6909014 L34.0178023,68.3080845 L34.0178023,78.1435775 L30.4529059,78.1435775 L30.4529059,63.4554085 L34.844559,63.4554085 L38.1437122,70.8241408 L41.433023,63.4554085 L45.8246761,63.4554085 L45.8246761,78.1435775 Z" id="Fill-3" fill="#444444"></path>
                <path d="M56.7723135,68.1755775 C56.7723135,67.7634648 56.6601108,67.4065634 56.4376739,67.1068451 C56.2152369,66.8090986 55.9553991,66.6000845 55.6601288,66.4837465 C55.2664351,66.326 54.8825838,66.2392394 54.5085748,66.221493 C54.1325973,66.2057183 53.6345748,66.197831 53.0105703,66.197831 L52.3609757,66.197831 L52.3609757,70.5871268 L53.4456018,70.5871268 C54.0873225,70.5871268 54.6168405,70.5476901 55.0341559,70.4688169 C55.4514712,70.3899437 55.8018586,70.2321972 56.0833495,69.9955775 C56.3254712,69.7865634 56.5006649,69.5361408 56.6108991,69.2443099 C56.7191649,68.9524789 56.7723135,68.5955775 56.7723135,68.1755775 M60.6816919,68.0927606 C60.6816919,68.7493803 60.5675207,69.3921972 60.3391784,70.0212113 C60.1068991,70.6482535 59.7801333,71.1747324 59.3549441,71.6026197 C58.770309,72.182338 58.1187459,72.6181127 57.3982865,72.9158592 C56.6797955,73.2116338 55.7841423,73.3595211 54.715264,73.3595211 L52.3609757,73.3595211 L52.3609757,78.1431831 L48.5795477,78.1431831 L48.5795477,63.4550141 L54.803845,63.4550141 C55.7368991,63.4550141 56.522318,63.5358592 57.1620703,63.6975493 C57.8018225,63.8572676 58.3687414,64.0998028 58.8608586,64.4212113 C59.4513991,64.809662 59.9041468,65.3065634 60.2151649,65.9119155 C60.5261829,66.5172676 60.6816919,67.2429014 60.6816919,68.0927606" id="Fill-4" fill="#444444"></path>
                <path d="M72.9487937,78.1435775 L62.3722126,78.1435775 L62.3722126,63.4554085 L66.1536405,63.4554085 L66.1536405,75.302169 L72.9487937,75.302169 L72.9487937,78.1435775 Z" id="Fill-6" fill="#444444"></path>
                <path d="M83.4830527,74.5232958 C83.8511563,74.0756901 84.122805,73.5472394 84.2999671,72.9399155 C84.4771293,72.3325915 84.5676788,71.6168169 84.5676788,70.7945634 C84.5676788,69.9131549 84.4653185,69.1638592 84.2625662,68.5447042 C84.0578455,67.9275211 83.7921023,67.4266761 83.463368,67.0461127 C83.1287284,66.6517465 82.7429086,66.365831 82.3059086,66.1863944 C81.870877,66.0109014 81.4141923,65.9201972 80.9417599,65.9201972 C80.4634221,65.9201972 80.0106743,66.0069577 79.5874536,66.178507 C79.1662014,66.3480845 78.7744761,66.6320282 78.4221203,67.0263944 C78.093386,67.3951268 77.8256743,67.9018873 77.6189851,68.5506197 C77.4122959,69.1973803 77.3079671,69.9486479 77.3079671,70.8044225 C77.3079671,71.6799155 77.408359,72.4232958 77.6091428,73.038507 C77.8079581,73.6537183 78.0737014,74.1545634 78.4024356,74.5430141 C78.7292014,74.9314648 79.1130527,75.2173803 79.5539896,75.4007606 C79.9949266,75.5861127 80.4575167,75.6768169 80.9417599,75.6768169 C81.4279716,75.6768169 81.8905617,75.5841408 82.3314986,75.3968169 C82.7704671,75.209493 83.1543185,74.917662 83.4830527,74.5232958 M88.4967419,70.8044225 C88.4967419,73.1449859 87.8254941,75.0044225 86.4849671,76.3827324 C85.148377,77.7610423 83.2960482,78.4492113 80.9319176,78.4492113 C78.5756608,78.4492113 76.7272689,77.7610423 75.3887104,76.3827324 C74.0481833,75.0044225 73.3789041,73.1449859 73.3789041,70.8044225 C73.3789041,68.4441408 74.0481833,66.5768169 75.3887104,65.2063944 C76.7272689,63.834 78.5756608,63.1478028 80.9319176,63.1478028 C83.2822689,63.1478028 85.1306608,63.834 86.4770932,65.2063944 C87.8215572,66.5768169 88.4967419,68.4441408 88.4967419,70.8044225" id="Fill-8" fill="#444444"></path>
                <path d="M103.294704,63.4548169 L97.8873207,72.460169 L97.8873207,78.1429859 L94.1058928,78.1429859 L94.1058928,72.6396056 L88.6099288,63.4548169 L92.9169378,63.4548169 L96.0782982,69.1218592 L99.1353297,63.4548169 L103.294704,63.4548169 Z" id="Fill-10" fill="#444444"></path>
                <path d="M114.870873,78.1435775 L104.264765,78.1435775 L104.264765,63.4554085 L114.870873,63.4554085 L114.870873,66.2968169 L108.026508,66.2968169 L108.026508,68.8306197 L114.378756,68.8306197 L114.378756,71.6720282 L108.026508,71.6720282 L108.026508,75.302169 L114.870873,75.302169 L114.870873,78.1435775 Z" id="Fill-12" fill="#444444"></path>
                <path d="M127.660209,78.1435775 L117.052133,78.1435775 L117.052133,63.4554085 L127.660209,63.4554085 L127.660209,66.2968169 L120.813876,66.2968169 L120.813876,68.8306197 L127.168092,68.8306197 L127.168092,71.6720282 L120.813876,71.6720282 L120.813876,75.302169 L127.660209,75.302169 L127.660209,78.1435775 Z" id="Fill-14" fill="#444444"></path>
                <path d="M141.581809,73.5267324 C141.581809,74.9740563 140.967647,76.1492676 139.743259,77.054338 C138.518872,77.9574366 136.859453,78.4109577 134.757129,78.4109577 C133.542584,78.4109577 132.483548,78.302507 131.581989,78.0895493 C130.678462,77.8765915 129.832021,77.6044789 129.044633,77.2751831 L129.044633,73.753493 L129.45998,73.753493 C130.239494,74.3785634 131.115462,74.8577183 132.083949,75.1949014 C133.052435,75.5301127 133.983521,75.6977183 134.875237,75.6977183 C135.105548,75.6977183 135.406723,75.678 135.780732,75.6385634 C136.154741,75.5991268 136.459854,75.5320845 136.698039,75.4413803 C136.985435,75.3230704 137.22362,75.1732113 137.410624,74.9977183 C137.599597,74.8182817 137.690147,74.5560282 137.690147,74.2070141 C137.690147,73.8856056 137.554323,73.6075775 137.282674,73.3729296 C137.011025,73.1402535 136.611426,72.9608169 136.085845,72.8365915 C135.534674,72.7044789 134.952007,72.5822254 134.337845,72.4658873 C133.725651,72.3515211 133.14889,72.2056056 132.60953,72.0281408 C131.3753,71.6258873 130.487521,71.081662 129.946192,70.3954648 C129.402895,69.7072958 129.135183,68.853493 129.135183,67.8340563 C129.135183,66.4656056 129.745408,65.3515211 130.969795,64.4858873 C132.194183,63.6222254 133.768958,63.1884225 135.692151,63.1884225 C136.656701,63.1884225 137.60944,63.2830704 138.554305,63.4684225 C139.495232,63.6577183 140.310178,63.8923662 141.001111,64.174338 L141.001111,67.558 L140.597575,67.558 C140.005066,67.0847606 139.282638,66.6884225 138.424386,66.3709577 C137.568102,66.0495493 136.694102,65.8918028 135.800417,65.8918028 C135.485462,65.8918028 135.172476,65.913493 134.859489,65.9549014 C134.548471,65.9982817 134.247295,66.0791268 133.959899,66.1974366 C133.703998,66.2960282 133.48353,66.4458873 133.298494,66.6470141 C133.115426,66.846169 133.022908,67.0749014 133.022908,67.3312394 C133.022908,67.7196901 133.172512,68.0174366 133.467782,68.2244789 C133.761084,68.4315211 134.322097,68.6208169 135.14098,68.7923662 C135.678372,68.9027887 136.196079,69.0112394 136.692133,69.1177183 C137.188187,69.2222254 137.721642,69.3681408 138.292498,69.5515211 C139.414525,69.9202535 140.24325,70.4210986 140.778674,71.0560282 C141.314097,71.6909577 141.581809,72.5132113 141.581809,73.5267324" id="Fill-16" fill="#444444"></path>
                <path d="M25.8083045,91.4514648 C25.8083045,89.9489296 25.4736649,88.7914648 24.8004486,87.9751268 C24.1292009,87.1607606 23.2118946,86.7525915 22.0485297,86.7525915 C20.8753225,86.7525915 19.9540793,87.1607606 19.2848,87.9751268 C18.6155207,88.7914648 18.2808811,89.9489296 18.2808811,91.4514648 C18.2808811,92.9678028 18.6214261,94.1292113 19.3044847,94.9337183 C19.9855748,95.7401972 20.9009126,96.1424507 22.0485297,96.1424507 C23.1961468,96.1424507 24.1095162,95.7401972 24.7886378,94.9337183 C25.4697279,94.1292113 25.8083045,92.9678028 25.8083045,91.4514648 M25.9480658,86.9931549 C26.4185297,87.5117465 26.7787595,88.1447042 27.0307234,88.8959718 C27.2807189,89.6472394 27.4067009,90.4990704 27.4067009,91.4514648 C27.4067009,92.4038592 27.2787505,93.257662 27.0228495,94.0109014 C26.7669486,94.7641408 26.4086874,95.3911831 25.9480658,95.894 C25.4736649,96.4165352 24.9106829,96.8089296 24.2610883,97.0751268 C23.6134622,97.3373803 22.873318,97.469493 22.0406559,97.469493 C21.2296468,97.469493 20.4914712,97.3354085 19.8261288,97.0672394 C19.162755,96.7970986 18.5978045,96.4066761 18.1332459,95.894 C17.6686874,95.3813239 17.3104261,94.7523099 17.0604306,94.0069577 C16.8084667,93.2596338 16.6844532,92.4097746 16.6844532,91.4514648 C16.6844532,90.5089296 16.8084667,89.6630141 17.0564937,88.9156901 C17.3045207,88.1663944 17.6647505,87.5275211 18.1411198,86.9931549 C18.595836,86.4863944 19.1607865,86.0979437 19.8340027,85.8278028 C20.5091874,85.5596338 21.2453946,85.4235775 22.0406559,85.4235775 C22.8674126,85.4235775 23.6114937,85.5616056 24.2689622,85.8317465 C24.9283991,86.1038592 25.4874441,86.490338 25.9480658,86.9931549" id="Fill-18" fill="#444444"></path>
                <path d="M37.8691108,97.2293239 L35.9695387,97.2293239 L30.4952279,86.8850986 L30.4952279,97.2293239 L29.0621829,97.2293239 L29.0621829,85.666507 L31.4420613,85.666507 L36.4340973,95.1096056 L36.4340973,85.666507 L37.8691108,85.666507 L37.8691108,97.2293239 Z" id="Fill-20" fill="#444444"></path>
                <path d="M49.036823,97.2293239 L44.47785,97.2293239 L44.47785,96.0481972 L45.9896338,96.0481972 L45.9896338,86.845662 L44.47785,86.845662 L44.47785,85.666507 L49.036823,85.666507 L49.036823,86.845662 L47.5230707,86.845662 L47.5230707,96.0481972 L49.036823,96.0481972 L49.036823,97.2293239 Z" id="Fill-22" fill="#444444"></path>
                <path d="M59.6787572,97.2293239 L57.7791851,97.2293239 L52.3048743,86.8850986 L52.3048743,97.2293239 L50.8698608,97.2293239 L50.8698608,85.666507 L53.2517077,85.666507 L58.2437437,95.1096056 L58.2437437,85.666507 L59.6787572,85.666507 L59.6787572,97.2293239 Z" id="Fill-24" fill="#444444"></path>
                <path d="M70.2035676,87.0321972 L66.0776577,87.0321972 L66.0776577,97.2285352 L64.5442207,97.2285352 L64.5442207,87.0321972 L60.4183108,87.0321972 L60.4183108,85.6657183 L70.2035676,85.6657183 L70.2035676,87.0321972 Z" id="Fill-26" fill="#444444"></path>
                <path d="M78.5811725,97.2293239 L70.9769788,97.2293239 L70.9769788,85.666507 L78.5811725,85.666507 L78.5811725,87.0329859 L72.5104158,87.0329859 L72.5104158,90.2017183 L78.5811725,90.2017183 L78.5811725,91.5681972 L72.5104158,91.5681972 L72.5104158,95.8628451 L78.5811725,95.8628451 L78.5811725,97.2293239 Z" id="Fill-28" fill="#444444"></path>
                <path d="M86.2013108,88.9192394 C86.2013108,88.5879718 86.1442252,88.294169 86.0261171,88.037831 C85.9119459,87.781493 85.7170676,87.5645915 85.4493559,87.3890986 C85.2269189,87.2392394 84.9631441,87.1347324 84.6580315,87.0755775 C84.3548874,87.0164225 83.9946577,86.9868451 83.5812793,86.9868451 L81.7742252,86.9868451 L81.7742252,91.350507 L83.3253784,91.350507 C83.8096216,91.350507 84.2348108,91.3071268 84.597009,91.222338 C84.9572387,91.1375493 85.2643198,90.977831 85.5182523,90.7451549 C85.7505315,90.5262817 85.9217883,90.277831 86.033991,89.9938873 C86.1461937,89.7119155 86.2013108,89.3550141 86.2013108,88.9192394 L86.2013108,88.9192394 Z M89.7898288,97.2285352 L87.7997072,97.2285352 L83.9375721,92.6321972 L81.7742252,92.6321972 L81.7742252,97.2285352 L80.2388198,97.2285352 L80.2388198,85.6657183 L83.471045,85.6657183 C84.1698514,85.6657183 84.752518,85.7110704 85.2170766,85.8017746 C85.6816351,85.8924789 86.0989505,86.054169 86.4729595,86.2868451 C86.8922432,86.5510704 87.219009,86.8843099 87.4532568,87.2845915 C87.6875045,87.6868451 87.8056126,88.1936056 87.8056126,88.8107887 C87.8056126,89.6448732 87.596955,90.3429014 87.1776712,90.9029014 C86.7583874,91.4668451 86.1816261,91.8888169 85.4493559,92.1727606 L89.7898288,97.2285352 Z" id="Fill-30" fill="#444444"></path>
                <path d="M99.3077676,97.2293239 L97.4081955,97.2293239 L91.9338847,86.8850986 L91.9338847,97.2293239 L90.4988712,97.2293239 L90.4988712,85.666507 L92.880718,85.666507 L97.8727541,95.1096056 L97.8727541,85.666507 L99.3077676,85.666507 L99.3077676,97.2293239 Z" id="Fill-32" fill="#444444"></path>
                <path d="M107.460377,92.685831 L105.438759,87.0089296 L103.405332,92.685831 L107.460377,92.685831 Z M110.700476,97.2289296 L109.064678,97.2289296 L107.932809,94.0069577 L102.940773,94.0069577 L101.808904,97.2289296 L100.251845,97.2289296 L104.454525,85.6661127 L106.499764,85.6661127 L110.700476,97.2289296 Z" id="Fill-34" fill="#444444"></path>
                <path d="M119.909365,87.0321972 L115.783455,87.0321972 L115.783455,97.2285352 L114.250018,97.2285352 L114.250018,87.0321972 L110.124108,87.0321972 L110.124108,85.6657183 L119.909365,85.6657183 L119.909365,87.0321972 Z" id="Fill-36" fill="#444444"></path>
                <path d="M124.751797,97.2293239 L120.194793,97.2293239 L120.194793,96.0481972 L121.704608,96.0481972 L121.704608,86.845662 L120.194793,86.845662 L120.194793,85.666507 L124.751797,85.666507 L124.751797,86.845662 L123.240014,86.845662 L123.240014,96.0481972 L124.751797,96.0481972 L124.751797,97.2293239 Z" id="Fill-38" fill="#444444"></path>
                <path d="M135.05358,91.4514648 C135.05358,89.9489296 134.716972,88.7914648 134.043756,87.9751268 C133.372508,87.1607606 132.45717,86.7525915 131.293805,86.7525915 C130.11863,86.7525915 129.197386,87.1607606 128.530076,87.9751268 C127.860796,88.7914648 127.526157,89.9489296 127.526157,91.4514648 C127.526157,92.9678028 127.866702,94.1292113 128.547792,94.9337183 C129.23085,95.7401972 130.146188,96.1424507 131.293805,96.1424507 C132.441423,96.1424507 133.354792,95.7401972 134.031945,94.9337183 C134.713035,94.1292113 135.05358,92.9678028 135.05358,91.4514648 M135.191373,86.9931549 C135.663805,87.5117465 136.022067,88.1447042 136.274031,88.8959718 C136.524026,89.6472394 136.651977,90.4990704 136.651977,91.4514648 C136.651977,92.4038592 136.522058,93.257662 136.266157,94.0109014 C136.010256,94.7641408 135.653963,95.3911831 135.191373,95.894 C134.716972,96.4165352 134.155959,96.8089296 133.506364,97.0751268 C132.858738,97.3373803 132.118594,97.469493 131.285932,97.469493 C130.472954,97.469493 129.736747,97.3354085 129.071405,97.0672394 C128.408031,96.7970986 127.84308,96.4066761 127.378522,95.894 C126.911995,95.3813239 126.555702,94.7523099 126.303738,94.0069577 C126.053742,93.2596338 125.92776,92.4097746 125.92776,91.4514648 C125.92776,90.5089296 126.051774,89.6630141 126.299801,88.9156901 C126.547828,88.1663944 126.910026,87.5275211 127.384427,86.9931549 C127.841112,86.4863944 128.404094,86.0979437 129.079278,85.8278028 C129.754463,85.5596338 130.49067,85.4235775 131.285932,85.4235775 C132.112688,85.4235775 132.854801,85.5616056 133.514238,85.8317465 C134.173675,86.1038592 134.73272,86.490338 135.191373,86.9931549" id="Fill-40" fill="#444444"></path>
                <path d="M147.112221,97.2293239 L145.212649,97.2293239 L139.740307,86.8850986 L139.740307,97.2293239 L138.305293,97.2293239 L138.305293,85.666507 L140.685172,85.666507 L145.677208,95.1096056 L145.677208,85.666507 L147.112221,85.666507 L147.112221,97.2293239 Z" id="Fill-42" fill="#444444"></path>
                <path d="M155.266799,92.685831 L153.243213,87.0089296 L151.209785,92.685831 L155.266799,92.685831 Z M158.506898,97.2289296 L156.869132,97.2289296 L155.739231,94.0069577 L150.745227,94.0069577 L149.615326,97.2289296 L148.056299,97.2289296 L152.258979,85.6661127 L154.306186,85.6661127 L158.506898,97.2289296 Z" id="Fill-44" fill="#444444"></path>
                <path d="M166.785489,97.2293239 L159.482471,97.2293239 L159.482471,85.666507 L161.015908,85.666507 L161.015908,95.8628451 L166.785489,95.8628451 L166.785489,97.2293239 Z" id="Fill-46" fill="#444444"></path>
                <path d="M23.203627,111.772366 L21.1800414,106.095465 L19.148582,111.772366 L23.203627,111.772366 Z M26.4437261,116.315465 L24.8079288,116.315465 L23.6760595,113.093493 L18.6840234,113.093493 L17.5521541,116.315465 L15.993127,116.315465 L20.1958072,104.752648 L22.2430144,104.752648 L26.4437261,116.315465 Z" id="Fill-48" fill="#444444"></path>
                <path d="M35.8073369,113.015408 C35.8073369,113.466958 35.7030081,113.91062 35.492382,114.350338 C35.2837243,114.790056 34.9904225,115.164704 34.614445,115.470338 C34.1990982,115.801606 33.7168234,116.059915 33.1676207,116.245268 C32.6164495,116.432592 31.9530757,116.525268 31.1774991,116.525268 C30.3468054,116.525268 29.5987874,116.448366 28.933445,116.292592 C28.2700712,116.136817 27.5948865,115.906113 26.907891,115.602451 L26.907891,113.675972 L27.0161568,113.675972 C27.5988234,114.163014 28.2740081,114.537662 29.0397423,114.801887 C29.8035081,115.066113 30.5219991,115.196254 31.1932468,115.196254 C32.1459856,115.196254 32.8861297,115.018789 33.4156477,114.661887 C33.9451658,114.304986 34.2089405,113.827803 34.2089405,113.23231 C34.2089405,112.719634 34.084927,112.343014 33.8349315,112.098507 C33.5829676,111.855972 33.2030532,111.666676 32.6912514,111.532592 C32.3034631,111.428085 31.8822108,111.343296 31.4294631,111.276254 C30.9786838,111.207239 30.4983775,111.124423 29.9924811,111.019915 C28.9688775,110.801042 28.2110171,110.430338 27.7169315,109.903859 C27.2228459,109.379352 26.9767874,108.695127 26.9767874,107.851183 C26.9767874,106.883014 27.3842604,106.088366 28.2011748,105.471183 C29.0180892,104.852028 30.0554721,104.542451 31.3093865,104.542451 C32.122364,104.542451 32.866445,104.619352 33.5435982,104.775127 C34.2207514,104.930901 34.8211342,105.122169 35.3427784,105.350901 L35.3427784,107.166958 L35.2325441,107.166958 C34.7935757,106.794282 34.2168144,106.484704 33.5002919,106.238225 C32.7837694,105.993718 32.0514991,105.869493 31.3015126,105.869493 C30.4806613,105.869493 29.8192559,106.041042 29.3212333,106.382169 C28.8232108,106.725268 28.5732153,107.164986 28.5732153,107.703296 C28.5732153,108.184423 28.6972288,108.563014 28.9452559,108.837099 C29.1932829,109.111183 29.6302829,109.320197 30.2562559,109.466113 C30.5869586,109.53907 31.0574225,109.625831 31.6656793,109.730338 C32.277873,109.834845 32.7936117,109.939352 33.2188009,110.049775 C34.0750847,110.276535 34.7227108,110.621606 35.1557739,111.081042 C35.5908054,111.542451 35.8073369,112.187239 35.8073369,113.015408" id="Fill-50" fill="#444444"></path>
                <path d="M45.8831396,113.015408 C45.8831396,113.466958 45.7788108,113.91062 45.5681847,114.350338 C45.359527,114.790056 45.0662252,115.164704 44.6902477,115.470338 C44.2749009,115.801606 43.7926261,116.059915 43.2434234,116.245268 C42.6922523,116.432592 42.0288784,116.525268 41.2533018,116.525268 C40.4226081,116.525268 39.6745901,116.448366 39.0092477,116.292592 C38.3458739,116.136817 37.6706892,115.906113 36.9836937,115.602451 L36.9836937,113.675972 L37.0919595,113.675972 C37.6746261,114.163014 38.3498108,114.537662 39.115545,114.801887 C39.8793108,115.066113 40.5978018,115.196254 41.2690495,115.196254 C42.2217883,115.196254 42.9619324,115.018789 43.4914505,114.661887 C44.0209685,114.304986 44.2847432,113.827803 44.2847432,113.23231 C44.2847432,112.719634 44.1607297,112.343014 43.9107342,112.098507 C43.6587703,111.855972 43.2788559,111.666676 42.7670541,111.532592 C42.3792658,111.428085 41.9580135,111.343296 41.5052658,111.276254 C41.0544865,111.207239 40.5741802,111.124423 40.0682838,111.019915 C39.0446802,110.801042 38.2868198,110.430338 37.7927342,109.903859 C37.2986486,109.379352 37.0525901,108.695127 37.0525901,107.851183 C37.0525901,106.883014 37.4600631,106.088366 38.2769775,105.471183 C39.0938919,104.852028 40.1312748,104.542451 41.3851892,104.542451 C42.1981667,104.542451 42.9422477,104.619352 43.6194009,104.775127 C44.2965541,104.930901 44.8969369,105.122169 45.4185811,105.350901 L45.4185811,107.166958 L45.3083468,107.166958 C44.8693784,106.794282 44.2926171,106.484704 43.5760946,106.238225 C42.8595721,105.993718 42.1273018,105.869493 41.3773153,105.869493 C40.556464,105.869493 39.8950586,106.041042 39.397036,106.382169 C38.8990135,106.725268 38.649018,107.164986 38.649018,107.703296 C38.649018,108.184423 38.7730315,108.563014 39.0210586,108.837099 C39.2690856,109.111183 39.7060856,109.320197 40.3320586,109.466113 C40.6627613,109.53907 41.1332252,109.625831 41.741482,109.730338 C42.3536757,109.834845 42.8694144,109.939352 43.2946036,110.049775 C44.1508874,110.276535 44.7985135,110.621606 45.2315766,111.081042 C45.6666081,111.542451 45.8831396,112.187239 45.8831396,113.015408" id="Fill-52" fill="#444444"></path>
                <path d="M51.6415005,116.315859 L47.0825275,116.315859 L47.0825275,115.134732 L48.5943113,115.134732 L48.5943113,105.932197 L47.0825275,105.932197 L47.0825275,104.753042 L51.6415005,104.753042 L51.6415005,105.932197 L50.1277482,105.932197 L50.1277482,115.134732 L51.6415005,115.134732 L51.6415005,116.315859 Z" id="Fill-54" fill="#444444"></path>
                <path d="M63.1044829,115.461859 C62.474573,115.751718 61.785609,116.004113 61.0395595,116.219042 C60.2915414,116.433972 59.5691135,116.540451 58.8722757,116.540451 C57.9746541,116.540451 57.1498658,116.416225 56.3998793,116.167775 C55.6498928,115.919324 55.012109,115.546648 54.4845595,115.049746 C53.953073,114.548901 53.5416631,113.919887 53.2503297,113.166648 C52.9629333,112.413408 52.8172667,111.532 52.8172667,110.522423 C52.8172667,108.674817 53.356627,107.215662 54.4333793,106.144958 C55.5121,105.076225 56.9923883,104.541859 58.8722757,104.541859 C59.5297441,104.541859 60.1990234,104.620732 60.8840505,104.780451 C61.5690775,104.938197 62.3072532,105.204394 63.096609,105.582986 L63.096609,107.408901 L62.9588162,107.408901 C62.7974018,107.284676 62.5651225,107.121014 62.2600099,106.917915 C61.9548973,106.716789 61.6556901,106.549183 61.3604198,106.415099 C61.004127,106.253408 60.600591,106.121296 60.1478432,106.012845 C59.697064,105.908338 59.1832937,105.855099 58.6085009,105.855099 C57.3171856,105.855099 56.293582,106.269183 55.541627,107.101296 C54.7896721,107.933408 54.4136946,109.057352 54.4136946,110.475099 C54.4136946,111.971718 54.8073883,113.135099 55.5928072,113.967211 C56.3782261,114.797352 57.449073,115.213408 58.8014108,115.213408 C59.2974649,115.213408 59.7935189,115.164113 60.285636,115.065521 C60.7797216,114.96693 61.2127847,114.840732 61.5867937,114.684958 L61.5867937,111.849465 L58.4923613,111.849465 L58.4923613,110.498761 L63.1044829,110.498761 L63.1044829,115.461859 Z" id="Fill-56" fill="#444444"></path>
                <path d="M73.8157072,116.315859 L71.9161351,116.315859 L66.4437928,105.971634 L66.4437928,116.315859 L65.0087793,116.315859 L65.0087793,104.753042 L67.3886577,104.753042 L72.3806937,114.196141 L72.3806937,104.753042 L73.8157072,104.753042 L73.8157072,116.315859 Z" id="Fill-58" fill="#444444"></path>
                <path d="M86.3896932,116.315859 L84.8542878,116.315859 L84.8542878,106.352197 L81.6437158,113.131352 L80.7303464,113.131352 L77.5433959,106.352197 L77.5433959,116.315859 L76.1083824,116.315859 L76.1083824,104.753042 L78.2028329,104.753042 L81.2795491,111.189099 L84.2578419,104.753042 L86.3896932,104.753042 L86.3896932,116.315859 Z" id="Fill-60" fill="#444444"></path>
                <path d="M96.3184514,116.315859 L88.7122892,116.315859 L88.7122892,104.753042 L96.3184514,104.753042 L96.3184514,106.119521 L90.2476946,106.119521 L90.2476946,109.288254 L96.3184514,109.288254 L96.3184514,110.654732 L90.2476946,110.654732 L90.2476946,114.94938 L96.3184514,114.94938 L96.3184514,116.315859 Z" id="Fill-62" fill="#444444"></path>
                <path d="M106.781845,116.315859 L104.882273,116.315859 L99.4079626,105.971634 L99.4079626,116.315859 L97.9729491,116.315859 L97.9729491,104.753042 L100.354796,104.753042 L105.346832,114.196141 L105.346832,104.753042 L106.781845,104.753042 L106.781845,116.315859 Z" id="Fill-64" fill="#444444"></path>
                <path d="M117.308427,106.11893 L113.182518,106.11893 L113.182518,116.315268 L111.649081,116.315268 L111.649081,106.11893 L107.523171,106.11893 L107.523171,104.752451 L117.308427,104.752451 L117.308427,106.11893 Z" id="Fill-66" fill="#444444"></path>
                <path d="M126.46653,113.015408 C126.46653,113.466958 126.362201,113.91062 126.153544,114.350338 C125.942918,114.790056 125.651584,115.164704 125.273638,115.470338 C124.86026,115.801606 124.376017,116.059915 123.826814,116.245268 C123.277611,116.432592 122.614237,116.525268 121.838661,116.525268 C121.007967,116.525268 120.259949,116.448366 119.594607,116.292592 C118.931233,116.136817 118.25408,115.906113 117.567084,115.602451 L117.567084,113.675972 L117.67535,113.675972 C118.259985,114.163014 118.93517,114.537662 119.698936,114.801887 C120.462701,115.066113 121.181192,115.196254 121.854409,115.196254 C122.805179,115.196254 123.547291,115.018789 124.074841,114.661887 C124.606327,114.304986 124.870102,113.827803 124.870102,113.23231 C124.870102,112.719634 124.74412,112.343014 124.494125,112.098507 C124.244129,111.855972 123.862246,111.666676 123.350445,111.532592 C122.962656,111.428085 122.543373,111.343296 122.090625,111.276254 C121.637877,111.207239 121.159539,111.124423 120.653643,111.019915 C119.628071,110.801042 118.872179,110.430338 118.378093,109.903859 C117.884008,109.379352 117.637949,108.695127 117.637949,107.851183 C117.637949,106.883014 118.045422,106.088366 118.862336,105.471183 C119.679251,104.852028 120.714665,104.542451 121.970548,104.542451 C122.781557,104.542451 123.525638,104.619352 124.20476,104.775127 C124.879945,104.930901 125.480327,105.122169 126.001972,105.350901 L126.001972,107.166958 L125.893706,107.166958 C125.452769,106.794282 124.876008,106.484704 124.161454,106.238225 C123.444931,105.993718 122.712661,105.869493 121.962674,105.869493 C121.141823,105.869493 120.480418,106.041042 119.982395,106.382169 C119.482404,106.725268 119.234377,107.164986 119.234377,107.703296 C119.234377,108.184423 119.358391,108.563014 119.606418,108.837099 C119.854445,109.111183 120.289476,109.320197 120.917418,109.466113 C121.24812,109.53907 121.716616,109.625831 122.326841,109.730338 C122.937066,109.834845 123.454773,109.939352 123.877994,110.049775 C124.736246,110.276535 125.381904,110.621606 125.816936,111.081042 C126.249999,111.542451 126.46653,112.187239 126.46653,113.015408" id="Fill-68" fill="#444444"></path>
                <path d="M3.28331667,113.833521 L3.28331667,4.57239437 C3.28331667,3.43070423 4.20652838,2.50591549 5.34824009,2.50591549 C6.48601486,2.50591549 7.41316351,3.43070423 7.41316351,4.57239437 L7.41316351,113.833521 C7.41316351,114.975211 6.48601486,115.901972 5.34824009,115.901972 C4.20652838,115.901972 3.28331667,114.975211 3.28331667,113.833521" id="Fill-70" fill="#818286"></path>
                <g id="Group-74" transform="translate(0.094595, 110.625746)">
                    <mask id="mask-2" fill="white">
                        <use xlink:href="#path-1"></use>
                    </mask>
                    <g id="Clip-73"></g>
                    <path d="M10.1893833,3.16143662 C10.1893833,4.68171831 7.97879324,5.91608451 5.25246441,5.91608451 C2.52613559,5.91608451 0.317513964,4.68171831 0.317513964,3.16143662 C0.317513964,1.64115493 2.52613559,0.406788732 5.25246441,0.406788732 C7.97879324,0.406788732 10.1893833,1.64115493 10.1893833,3.16143662" id="Fill-72" fill="#818286" mask="url(#mask-2)"></path>
                </g>
                <path d="M0.713481081,5.44670423 C0.713481081,2.88332394 2.78824685,0.805014085 5.34725586,0.805014085 C7.90626486,0.805014085 9.98103063,2.88332394 9.98103063,5.44670423 C9.98103063,8.01008451 7.90626486,10.0883944 5.34725586,10.0883944 C2.78824685,10.0883944 0.713481081,8.01008451 0.713481081,5.44670423" id="Fill-75" fill="#818286"></path>
                <path d="M34.1882716,27.5428451 C34.1882716,26.5924225 33.820168,25.8332676 33.0878977,25.2712958 C32.3575959,24.7073521 31.3851725,24.4253803 30.1745644,24.4253803 C29.7237851,24.4253803 29.2671005,24.4825634 28.798605,24.5949577 C28.328141,24.7073521 27.9029518,24.8710141 27.513195,25.082 C27.1529653,25.2949577 26.8517896,25.5729859 26.613605,25.9180563 C26.3754203,26.2631268 26.2573122,26.6535493 26.2573122,27.0912958 C26.2573122,27.8307324 26.4679383,28.406507 26.8872221,28.8186197 C27.3025689,29.2327042 27.9875959,29.6448169 28.9363977,30.0589014 C29.2867851,30.2087606 29.7670914,30.3941127 30.3714113,30.6129859 C30.9776995,30.8318592 31.7119383,31.078338 32.5741275,31.3543944 C33.1508887,30.6780563 33.5622986,30.0707324 33.8122941,29.5324225 C34.0622896,28.9941127 34.1882716,28.3315775 34.1882716,27.5428451 M34.7689698,40.7797465 C34.7689698,39.8786197 34.5425959,39.1963662 34.0918167,38.7329859 C33.6430059,38.2696056 32.7197941,37.7372113 31.3202131,37.1377746 C30.9048662,36.9504507 30.3044833,36.7177746 29.5210329,36.4417183 C28.7336455,36.1676338 28.0722401,35.9290423 27.5328797,35.7279155 C26.9954878,36.2169296 26.5112446,36.8084789 26.08015,37.5025634 C25.6490554,38.1986197 25.4344923,38.977493 25.4344923,39.8411549 C25.4344923,41.1425634 25.8990509,42.1777746 26.8301365,42.9467887 C27.7592536,43.7177746 28.9757671,44.1022817 30.4737716,44.1022817 C30.8733707,44.1022817 31.3438347,44.0431268 31.8812266,43.9248169 C32.4205869,43.806507 32.8812086,43.6211549 33.2689968,43.3707324 C33.7197761,43.0828451 34.0800059,42.7436901 34.353623,42.3572113 C34.631177,41.9687606 34.7689698,41.4422817 34.7689698,40.7797465 M41.9282896,40.4603099 C41.9282896,42.9389014 40.8731905,44.9659437 38.7708662,46.5434085 C36.664605,48.1208732 33.7729248,48.9096056 30.1017311,48.9096056 C28.0368077,48.9096056 26.269123,48.6966479 24.7967086,48.2707324 C23.3203572,47.8448169 22.1038437,47.2572113 21.1392941,46.5059437 C20.1904923,45.7684789 19.4877491,44.9048169 19.0330329,43.9149577 C18.5763482,42.9270704 18.3480059,41.8622817 18.3480059,40.7225634 C18.3480059,39.3225634 18.7574473,38.078338 19.5743617,36.9958028 C20.3932446,35.9132676 21.8085734,34.9648169 23.8223167,34.1524225 L23.8223167,34.0380563 C22.1963617,33.2887606 21.0054383,32.3422817 20.2397041,31.2025634 C19.4779068,30.0648169 19.0979923,28.7436901 19.0979923,27.2431268 C19.0979923,25.0267887 20.1215959,23.2107324 22.1707716,21.7969296 C24.2199473,20.3831268 26.8872221,19.6752394 30.1745644,19.6752394 C33.6233212,19.6752394 36.3260284,20.3160845 38.282686,21.5997465 C40.2354068,22.8834085 41.2157041,24.5949577 41.2157041,26.7343944 C41.2157041,28.0614366 40.8042941,29.2445352 39.9775374,30.2836901 C39.1547176,31.3228451 37.8909608,32.2062254 36.1921725,32.9298873 L36.1921725,33.0442535 C38.1409563,33.7836901 39.5858122,34.777493 40.5208347,36.0296056 C41.4578257,37.2797465 41.9282896,38.7586197 41.9282896,40.4603099" id="Fill-77" fill="#E30536"></path>
                <path d="M59.8387937,34.2736901 C59.8387937,30.8900282 59.508091,28.4804507 58.8466856,27.0469296 C58.1833117,25.6114366 57.0849063,24.895662 55.545564,24.895662 C54.0101586,24.895662 52.9097847,25.6114366 52.2483793,27.0469296 C51.5869739,28.4804507 51.2562712,30.903831 51.2562712,34.3111549 C51.2562712,37.6317183 51.5928793,40.0255211 52.2660955,41.4905915 C52.9412802,42.9576338 54.0357486,43.6891831 55.545564,43.6891831 C57.0593162,43.6891831 58.1537847,42.9576338 58.8270009,41.4905915 C59.5021856,40.0255211 59.8387937,37.6198873 59.8387937,34.2736901 M67.0945685,34.2736901 C67.0945685,36.6280563 66.8800054,38.7359437 66.4548162,40.5953803 C66.0315955,42.4548169 65.3701901,43.9810141 64.4706,45.1700282 C63.5454198,46.3866479 62.3564649,47.3035493 60.9076721,47.9227042 C59.4588793,48.5418592 57.6715099,48.8534085 55.545564,48.8534085 C53.4609559,48.8534085 51.6775234,48.5398873 50.205109,47.9128451 C48.7307261,47.2877746 47.5378342,46.3610141 46.6264333,45.1325634 C45.7012532,43.9060845 45.0319739,42.3798873 44.620564,40.5579155 C44.2071856,38.7359437 44.0024649,36.6477746 44.0024649,34.2914366 C44.0024649,31.8621408 44.2150595,29.7522817 44.6402486,27.9598873 C45.0654378,26.1694648 45.7386541,24.6550986 46.6638342,23.4148169 C47.5890144,22.1863662 48.7878117,21.2655211 50.2621946,20.6522817 C51.7365775,20.0390423 53.4963883,19.7314366 55.545564,19.7314366 C57.6833207,19.7314366 59.4765955,20.0469296 60.9273568,20.6798873 C62.3761495,21.3128451 63.563136,22.2553803 64.4883162,23.507493 C65.3997171,24.7359437 66.063091,26.248338 66.4745009,28.0446761 C66.8878793,29.8429859 67.0945685,31.9193239 67.0945685,34.2736901" id="Fill-79" fill="#E30536"></path>
                <path d="M84.934995,34.7916901 L79.3012383,34.7916901 L79.3012383,40.3838028 L76.4016842,40.3838028 L76.4016842,34.7916901 L70.7679275,34.7916901 L70.7679275,31.9542254 L76.4016842,31.9542254 L76.4016842,26.3621127 L79.3012383,26.3621127 L79.3012383,31.9542254 L84.934995,31.9542254 L84.934995,34.7916901 Z" id="Fill-81" fill="#E30536"></path>
            </g>
        </g>
    </g>
</svg>