<?xml version="1.0" encoding="UTF-8" standalone="no"?>
<svg width="129px" height="124px" viewBox="0 0 129 124" version="1.1" xmlns="http://www.w3.org/2000/svg" xmlns:xlink="http://www.w3.org/1999/xlink">
    <!-- Generator: Sketch 3.7 (28169) - http://www.bohemiancoding.com/sketch -->
    <title>Group</title>
    <desc>Created with Sketch.</desc>
    <defs>
        <polygon id="path-1" points="3.93298001e-20 0.660108451 3.93298001e-20 11.9751507 4.48053626 11.9751507 4.48053626 0.660108451 0 0.660108451"></polygon>
    </defs>
    <g id="Page-1" stroke="none" stroke-width="1" fill="none" fill-rule="evenodd">
        <g id="Careers" transform="translate(-191.000000, -742.000000)">
            <g id="Group" transform="translate(191.000000, 742.000000)">
                <path d="M9.2096795,86.2774324 C8.13786419,86.2774324 7.14924032,86.119207 6.24380788,85.8046859 C5.33644077,85.4882352 4.55676284,85.0193479 3.9047741,84.3941648 C3.25278536,83.7709113 2.74976734,82.991362 2.39185068,82.0593761 C2.03393401,81.1254606 1.85400833,80.0468268 1.85400833,78.8254042 C1.85400833,77.6850239 2.02426059,76.6527 2.36669977,75.7265028 C2.70913896,74.8003056 3.20441824,74.0053197 3.85640698,73.3415451 C4.48324482,72.7047845 5.25905338,72.2127423 6.18576734,71.8654183 C7.11054662,71.5180944 8.12238671,71.3444324 9.21935293,71.3444324 C9.82490923,71.3444324 10.372425,71.3772352 10.8599655,71.4447704 C11.3475061,71.5123056 11.7963529,71.6010662 12.2103755,71.7110521 C12.6418101,71.8326155 13.0345511,71.9696155 13.3866637,72.1220521 C13.7368417,72.2725592 14.0463912,72.4114887 14.311443,72.5407704 L14.311443,76.0255873 L13.8858124,76.0255873 C13.703952,75.8712211 13.4775939,75.6898408 13.2028687,75.4775873 C12.9281435,75.2672634 12.6166592,75.058869 12.268416,74.8543338 C11.912434,74.6497986 11.5293664,74.4761366 11.1172786,74.3352775 C10.7032561,74.1944183 10.2602133,74.1249535 9.79008491,74.1249535 C9.26772005,74.1249535 8.77050608,74.2059958 8.3003777,74.3700099 C7.82831464,74.5340239 7.39301059,74.8041648 6.99253086,75.182362 C6.61333266,75.5489817 6.30571779,76.0352352 6.06775158,76.6372634 C5.83365473,77.2412211 5.71563896,77.9744606 5.71563896,78.8350521 C5.71563896,79.7342352 5.84332815,80.4848408 6.09870653,81.0887986 C6.35215023,81.6927563 6.67330788,82.1674324 7.0621795,82.5147563 C7.4549205,82.867869 7.89409392,83.1206437 8.37776509,83.2711507 C8.86143626,83.4216577 9.33930338,83.4969113 9.80943176,83.4969113 C10.2602133,83.4969113 10.7071255,83.4293761 11.1501682,83.2962352 C11.5912764,83.1611648 11.9994948,82.9797845 12.3748236,82.7482352 C12.6901773,82.5629958 12.9842493,82.3642493 13.2551052,82.1519958 C13.525961,81.9416718 13.7484498,81.758362 13.9245061,81.6059254 L14.311443,81.6059254 L14.311443,85.0425028 C13.949657,85.2026577 13.6033484,85.3531648 13.274452,85.4959535 C12.9455556,85.6368127 12.6011818,85.7583761 12.2393957,85.8625732 C11.7673327,85.9976437 11.3262245,86.0999113 10.912202,86.1713056 C10.5001142,86.2427 9.93325158,86.2774324 9.2096795,86.2774324" id="Fill-231" fill="#444444"></path>
                <path d="M25.1574788,82.4549394 C25.5192649,82.0169254 25.7862514,81.4997986 25.960373,80.9054887 C26.1344946,80.3111789 26.2215554,79.6107423 26.2215554,78.8061085 C26.2215554,77.9435873 26.1228865,77.2103479 25.9216793,76.6044606 C25.7224068,76.0005028 25.4612243,75.5103901 25.138132,75.1379817 C24.8092356,74.7520662 24.4300374,74.4722775 24.0005374,74.2966859 C23.5710374,74.1249535 23.1241252,74.036193 22.6598009,74.036193 C22.1877378,74.036193 21.744695,74.1210944 21.3287378,74.2889676 C20.9127806,74.4549113 20.5297131,74.7327704 20.1814698,75.1186859 C19.8603122,75.4795169 19.5952604,75.9754183 19.3940532,76.6102493 C19.1909113,77.2431507 19.088373,77.9783197 19.088373,78.8157563 C19.088373,79.6724887 19.1870419,80.3999394 19.3843797,81.0019676 C19.5797829,81.6039958 19.8390306,82.0941085 20.162123,82.4742352 C20.4852153,82.854362 20.8624788,83.1341507 21.2939135,83.3136014 C21.7272829,83.4949817 22.1819338,83.5837423 22.6598009,83.5837423 C23.137668,83.5837423 23.5923189,83.4930521 24.0256883,83.3097423 C24.457123,83.1264324 24.8343865,82.8408549 25.1574788,82.4549394 M30.083186,78.8157563 C30.083186,81.1061648 29.4253932,82.9257563 28.107873,84.274531 C26.7922874,85.6233056 24.9736838,86.2967282 22.6501275,86.2967282 C20.3343099,86.2967282 18.517641,85.6233056 17.2001207,84.274531 C15.8845351,82.9257563 15.2267423,81.1061648 15.2267423,78.8157563 C15.2267423,76.5060521 15.8845351,74.6787423 17.2001207,73.3376859 C18.517641,71.9947 20.3343099,71.323207 22.6501275,71.323207 C24.960141,71.323207 26.7768099,71.9947 28.1001342,73.3376859 C29.4215239,74.6787423 30.083186,76.5060521 30.083186,78.8157563" id="Fill-233" fill="#444444"></path>
                <path d="M44.9663284,80.7949239 C44.9663284,82.5701352 44.4246167,83.9304873 43.3411932,84.8779099 C42.2558351,85.8234028 40.6597203,86.2980789 38.5489793,86.2980789 C36.440173,86.2980789 34.8440581,85.8234028 33.7625694,84.8779099 C32.6830153,83.9304873 32.1432383,82.5739944 32.1432383,80.8045718 L32.1432383,71.6236423 L35.8771797,71.6236423 L35.8771797,80.5923183 C35.8771797,81.5899099 36.0880604,82.3327972 36.5059523,82.8209803 C36.9257788,83.311093 37.6067878,83.5561493 38.5489793,83.5561493 C39.4795626,83.5561493 40.1586369,83.3207408 40.5862023,82.8499239 C41.0157023,82.3810366 41.2304523,81.6285014 41.2304523,80.5923183 L41.2304523,71.6236423 L44.9663284,71.6236423 L44.9663284,80.7949239 Z" id="Fill-235" fill="#444444"></path>
                <polygon id="Fill-237" fill="#444444" points="60.9520475 85.9976437 57.3709462 85.9976437 51.2534732 76.1317141 51.2534732 85.9976437 47.8464935 85.9976437 47.8464935 71.6242211 52.2885295 71.6242211 57.5450678 79.8577282 57.5450678 71.6242211 60.9520475 71.6242211"></polygon>
                <polygon id="Fill-239" fill="#444444" points="75.3298502 74.4041634 70.8297736 74.4041634 70.8297736 85.9970648 67.1113097 85.9970648 67.1113097 74.4041634 62.6112331 74.4041634 62.6112331 71.6236423 75.3298502 71.6236423"></polygon>
                <path d="M85.0733092,76.0255873 C85.0733092,75.6647563 84.9978565,75.3560239 84.8508205,75.0993901 C84.7018498,74.8408268 84.4464714,74.6382211 84.08662,74.4915732 C83.8331764,74.3873761 83.541039,74.3256296 83.2063385,74.3024746 C82.8697034,74.2793197 82.4788971,74.2677423 82.0339196,74.2677423 L80.6893137,74.2677423 L80.6893137,78.1404042 L81.8307777,78.1404042 C82.4247259,78.1404042 82.9219399,78.1114606 83.3204849,78.0535732 C83.7209646,77.9956859 84.0575998,77.8625451 84.3284556,77.6580099 C84.5857687,77.4573338 84.7753678,77.237362 84.8933836,76.9961648 C85.013334,76.7549676 85.0733092,76.4307986 85.0733092,76.0255873 L85.0733092,76.0255873 Z M90.8715592,85.9976437 L86.3308543,85.9976437 L82.4111831,80.7279676 L80.6893137,80.7279676 L80.6893137,85.9976437 L76.9921313,85.9976437 L76.9921313,71.6242211 L83.2237507,71.6242211 C84.0769466,71.6242211 84.8082574,71.6724606 85.4215525,71.7689394 C86.0348475,71.8654183 86.6094489,72.0738127 87.1453565,72.3960521 C87.6870682,72.7182915 88.1165682,73.1331507 88.4357912,73.6464183 C88.7550142,74.1577563 88.915593,74.8003056 88.915593,75.5721366 C88.915593,76.6334042 88.6679534,77.4997845 88.1765435,78.1693479 C87.6812642,78.8389113 86.977039,79.3946296 86.0599984,79.8384324 L90.8715592,85.9976437 Z" id="Fill-241" fill="#444444"></path>
                <polygon id="Fill-243" fill="#444444" points="99.6939149 85.9976437 91.2528856 85.9976437 91.2528856 83.4486718 93.6151356 83.4486718 93.6151356 74.173193 91.2528856 74.173193 91.2528856 71.6242211 99.6939149 71.6242211 99.6939149 74.173193 97.3316649 74.173193 97.3316649 83.4486718 99.6939149 83.4486718"></polygon>
                <polygon id="Fill-245" fill="#444444" points="112.57253 85.9976437 102.148449 85.9976437 102.148449 71.6242211 112.57253 71.6242211 112.57253 74.4047423 105.845632 74.4047423 105.845632 76.8842493 112.088859 76.8842493 112.088859 79.6647704 105.845632 79.6647704 105.845632 83.2171225 112.57253 83.2171225"></polygon>
                <path d="M126.652005,81.479731 C126.652005,82.8960408 126.050318,84.046069 124.846944,84.9317451 C123.64357,85.8154915 122.008761,86.2592944 119.944453,86.2592944 C118.750752,86.2592944 117.709892,86.1531676 116.821872,85.9447732 C115.935786,85.7363789 115.103872,85.4700972 114.329998,85.1478577 L114.329998,81.7016324 L114.736282,81.7016324 C115.504352,82.3133085 116.365286,82.7821958 117.317151,83.1121535 C118.269016,83.4401817 119.182187,83.6041958 120.060534,83.6041958 C120.284957,83.6041958 120.582899,83.5849 120.950489,83.5463085 C121.318079,83.5077169 121.617955,83.4421113 121.852052,83.3533507 C122.134516,83.2375761 122.368613,83.0909282 122.552408,82.9191958 C122.736203,82.7436042 122.829068,82.4869704 122.829068,82.1454352 C122.829068,81.8309141 122.695575,81.5588437 122.426653,81.3292239 C122.159667,81.1015338 121.766926,80.9259423 121.250365,80.8043789 C120.708653,80.6750972 120.135987,80.5554634 119.532365,80.4416183 C118.928743,80.3297028 118.363816,80.1869141 117.833712,80.0132521 C116.620665,79.6196183 115.748122,79.0870549 115.216084,78.415562 C114.684045,77.7421394 114.417059,76.9066324 114.417059,75.9090408 C114.417059,74.5699141 115.018746,73.4797028 116.22212,72.6326183 C117.425493,71.7874634 118.973241,71.3629563 120.863428,71.3629563 C121.813358,71.3629563 122.749746,71.4555761 123.674525,71.6369563 C124.601239,71.8221958 125.402198,72.0518155 126.081273,72.3277451 L126.081273,75.6389 L125.684662,75.6389 C125.102322,75.1758014 124.392293,74.7879563 123.54877,74.4772944 C122.707183,74.1627732 121.848183,74.008407 120.969836,74.008407 C120.660286,74.008407 120.352671,74.0296324 120.045057,74.0701535 C119.739376,74.1126042 119.44337,74.1917169 119.158971,74.3074915 C118.909397,74.4039704 118.692712,74.5506183 118.510852,74.7474352 C118.330926,74.9423225 118.239996,75.1661535 118.239996,75.4169986 C118.239996,75.7971254 118.387032,76.0884915 118.6753,76.2910972 C118.967437,76.4937028 119.514953,76.6789423 120.321716,76.8468155 C120.849885,76.9548718 121.358707,77.0609986 121.846248,77.1651958 C122.333789,77.2674634 122.858088,77.4102521 123.419147,77.5897028 C124.521917,77.9505338 125.336419,78.4406465 125.862653,79.0619704 C126.388888,79.6832944 126.652005,80.4879282 126.652005,81.479731" id="Fill-247" fill="#444444"></path>
                <g id="Group-251" transform="translate(0.000000, 92.699259)">
                    <mask id="mask-2" fill="white">
                        <use xlink:href="#path-1"></use>
                    </mask>
                    <g id="Clip-250"></g>
                    <polygon id="Fill-249" fill="#444444" mask="url(#mask-2)" points="4.48053626 11.9751507 -0.000193468468 11.9751507 -0.000193468468 10.8193338 1.48564437 10.8193338 1.48564437 1.81399577 -0.000193468468 1.81399577 -0.000193468468 0.660108451 4.48053626 0.660108451 4.48053626 1.81399577 2.99469842 1.81399577 2.99469842 10.8193338 4.48053626 10.8193338"></polygon>
                </g>
                <polygon id="Fill-252" fill="#444444" points="14.9400221 104.67441 13.0730514 104.67441 7.69269324 94.5518465 7.69269324 104.67441 6.28424279 104.67441 6.28424279 93.3593676 8.62327658 93.3593676 13.5296369 102.600114 13.5296369 93.3593676 14.9400221 93.3593676"></polygon>
                <polygon id="Fill-254" fill="#444444" points="35.1189768 93.3587887 32.1705173 104.673831 30.4699295 104.673831 28.086398 95.2806479 25.7551029 104.673831 24.0932088 104.673831 21.0905782 93.3587887 22.6383259 93.3587887 25.0218574 102.765479 27.3705646 93.3587887 28.9009002 93.3587887 31.270889 102.858099 33.6408777 93.3587887"></polygon>
                <polygon id="Fill-256" fill="#444444" points="45.2592396 104.67441 43.7501856 104.67441 43.7501856 99.134593 38.0873635 99.134593 38.0873635 104.67441 36.5802441 104.67441 36.5802441 93.3593676 38.0873635 93.3593676 38.0873635 97.7973958 43.7501856 97.7973958 43.7501856 93.3593676 45.2592396 93.3593676"></polygon>
                <polygon id="Fill-258" fill="#444444" points="51.5421282 104.67441 47.0613984 104.67441 47.0613984 103.518593 48.5472363 103.518593 48.5472363 94.5132549 47.0613984 94.5132549 47.0613984 93.3593676 51.5421282 93.3593676 51.5421282 94.5132549 50.0562903 94.5132549 50.0562903 103.518593 51.5421282 103.518593"></polygon>
                <path d="M62.1082151,103.853761 C61.8276858,103.975324 61.5761768,104.089169 61.3498187,104.195296 C61.1234606,104.301423 60.8274538,104.413338 60.4617984,104.531042 C60.1522489,104.625592 59.8156137,104.708563 59.451893,104.778028 C59.090107,104.845563 58.6896273,104.880296 58.2523885,104.880296 C57.4301475,104.880296 56.6814245,104.764521 56.0081543,104.534901 C55.3368187,104.303352 54.7506092,103.942521 54.2514606,103.450479 C53.7658547,102.970014 53.3847218,102.358338 53.1099966,101.615451 C52.8352714,100.874493 52.6979088,100.010042 52.6979088,99.0278873 C52.6979088,98.0959014 52.8294673,97.2623239 53.0945191,96.5271549 C53.3595709,95.7919859 53.7387691,95.1725915 54.2379178,94.6651127 C54.7196543,94.1730704 55.3019944,93.7987324 55.9849381,93.540169 C56.6678818,93.2816056 57.4282128,93.1542535 58.2601273,93.1542535 C58.8695529,93.1542535 59.4789786,93.2275775 60.0864696,93.3742254 C60.6920259,93.5208732 61.3672309,93.7794366 62.1082151,94.1479859 L62.1082151,95.9347746 L61.9940687,95.9347746 C61.3691655,95.4118592 60.7500664,95.033662 60.1348367,94.7943944 C59.519607,94.5570563 58.8618142,94.4374225 58.1614583,94.4374225 C57.586857,94.4374225 57.0702962,94.5300423 56.6117759,94.7152817 C56.1513209,94.9005211 55.7411678,95.1880282 55.3793818,95.5778028 C55.0292038,95.9579296 54.7564133,96.4383944 54.5610101,97.0172676 C54.365607,97.5980704 54.2669381,98.2676338 54.2669381,99.0278873 C54.2669381,99.8228732 54.3752804,100.507873 54.5919651,101.080958 C54.8086498,101.652113 55.0853097,102.11907 55.4258142,102.477972 C55.7817962,102.85231 56.1958187,103.130169 56.6717511,103.30962 C57.1476836,103.491 57.6487669,103.579761 58.1769358,103.579761 C58.9024426,103.579761 59.5834516,103.456268 60.2180282,103.207352 C60.8545394,102.960366 61.4484876,102.587958 62.0018074,102.090127 L62.1082151,102.090127 L62.1082151,103.853761 Z" id="Fill-260" fill="#444444"></path>
                <polygon id="Fill-262" fill="#444444" points="72.1567739 104.67441 70.6477198 104.67441 70.6477198 99.134593 64.9848977 99.134593 64.9848977 104.67441 63.4777784 104.67441 63.4777784 93.3593676 64.9848977 93.3593676 64.9848977 97.7973958 70.6477198 97.7973958 70.6477198 93.3593676 72.1567739 93.3593676"></polygon>
                <polygon id="Fill-264" fill="#444444" points="89.2648036 104.67441 87.7557495 104.67441 87.7557495 94.9242549 84.6002788 101.558142 83.7025851 101.558142 80.5703306 94.9242549 80.5703306 104.67441 79.1599455 104.67441 79.1599455 93.3593676 81.21845 93.3593676 84.2423622 99.6575085 87.1695401 93.3593676 89.2648036 93.3593676"></polygon>
                <path d="M99.8686169,99.020362 C99.8686169,97.5500239 99.5397205,96.417362 98.8780583,95.6185169 C98.2183309,94.8216014 97.3167678,94.4221789 96.1733691,94.4221789 C95.0202971,94.4221789 94.1148646,94.8216014 93.4570718,95.6185169 C92.7992791,96.417362 92.4703827,97.5500239 92.4703827,99.020362 C92.4703827,100.504207 92.8050831,101.640728 93.4764187,102.427996 C94.1458196,103.217193 95.045448,103.610827 96.1733691,103.610827 C97.3012903,103.610827 98.198984,103.217193 98.8664502,102.427996 C99.5358511,101.640728 99.8686169,100.504207 99.8686169,99.020362 M100.00598,94.6575873 C100.468369,95.1650662 100.822416,95.7844606 101.070056,96.5196296 C101.315761,97.2547986 101.439581,98.0883761 101.439581,99.020362 C101.439581,99.9523479 101.313826,100.787855 101.062317,101.524954 C100.810808,102.262052 100.458696,102.875658 100.00598,103.3677 C99.5397205,103.879038 98.9864007,104.263024 98.3479547,104.523517 C97.7114435,104.780151 96.984002,104.909432 96.1656304,104.909432 C95.3685403,104.909432 94.6430336,104.778221 93.9891101,104.515799 C93.3371214,104.251446 92.7818669,103.86939 92.3252813,103.3677 C91.8686957,102.86601 91.5165831,102.250475 91.2708782,101.521094 C91.0232385,100.789785 90.9013534,99.9581366 90.9013534,99.020362 C90.9013534,98.0980239 91.0232385,97.2702352 91.2670088,96.5389254 C91.5107791,95.8056859 91.8648264,95.1805028 92.33302,94.6575873 C92.7799322,94.1616859 93.3351867,93.7815592 93.9968489,93.517207 C94.6604457,93.2547845 95.3840178,93.1216437 96.1656304,93.1216437 C96.978198,93.1216437 97.7095088,93.2567141 98.3556935,93.5210662 C99.0038128,93.7873479 99.5532633,94.1655451 100.00598,94.6575873" id="Fill-266" fill="#444444"></path>
                <polygon id="Fill-268" fill="#444444" points="110.244911 104.67441 103.067231 104.67441 103.067231 93.3593676 104.57435 93.3593676 104.57435 103.337213 110.244911 103.337213"></polygon>
                <polygon id="Fill-270" fill="#444444" points="118.463452 104.67441 110.98783 104.67441 110.98783 93.3593676 118.463452 93.3593676 118.463452 94.6965648 112.496884 94.6965648 112.496884 97.7973958 118.463452 97.7973958 118.463452 99.134593 112.496884 99.134593 112.496884 103.337213 118.463452 103.337213"></polygon>
                <polygon id="Fill-272" fill="#444444" points="128.747268 93.3587887 124.831466 98.9507042 128.73953 104.673831 126.994444 104.673831 123.900883 100.015831 120.73187 104.673831 119.085453 104.673831 123.039948 99.020169 119.176383 93.3587887 120.91373 93.3587887 123.970532 97.9569718 127.095048 93.3587887"></polygon>
                <polygon id="Fill-274" fill="#444444" points="10.3790029 123.351948 8.86994887 123.351948 8.86994887 117.812131 3.2071268 117.812131 3.2071268 123.351948 1.70000743 123.351948 1.70000743 112.036906 3.2071268 112.036906 3.2071268 116.474934 8.86994887 116.474934 8.86994887 112.036906 10.3790029 112.036906"></polygon>
                <path d="M18.4220676,118.905815 L16.4332117,113.350562 L14.4366171,118.905815 L18.4220676,118.905815 Z M21.6065586,123.351562 L19.9988356,123.351562 L18.8863919,120.198632 L13.9800315,120.198632 L12.8675878,123.351562 L11.3353176,123.351562 L15.4658694,112.03652 L17.4779414,112.03652 L21.6065586,123.351562 Z" id="Fill-276" fill="#444444"></path>
                <path d="M30.8094667,120.122221 C30.8094667,120.564094 30.7069284,120.998249 30.4999171,121.428545 C30.2948405,121.858841 30.0065725,122.225461 29.6370477,122.524545 C29.2288293,122.848714 28.7548315,123.101489 28.2150545,123.282869 C27.6733428,123.466179 27.0213541,123.556869 26.2590883,123.556869 C25.4426514,123.556869 24.7074712,123.481615 24.0535477,123.329179 C23.401559,123.176742 22.7379622,122.950982 22.0627572,122.653827 L22.0627572,120.76863 L22.1691649,120.76863 C22.7418315,121.245235 23.4054284,121.611855 24.1580207,121.870418 C24.9086784,122.128982 25.6148383,122.256334 26.2745658,122.256334 C27.2109532,122.256334 27.9383946,122.082672 28.4588248,121.733418 C28.979255,121.384165 29.2385027,120.917207 29.2385027,120.334475 C29.2385027,119.832785 29.1166176,119.464235 28.8709126,119.224968 C28.623273,118.98763 28.2498788,118.80239 27.7468608,118.671179 C27.3657279,118.568911 26.9517054,118.485939 26.5067279,118.420334 C26.0636851,118.352799 25.5916221,118.271756 25.0944081,118.169489 C24.0883721,117.955306 23.3435185,117.592545 22.8579126,117.077348 C22.3723068,116.56408 22.1304712,115.894517 22.1304712,115.068658 C22.1304712,114.121235 22.5309509,113.343615 23.333845,112.739658 C24.1367392,112.13377 25.156318,111.830827 26.3887122,111.830827 C27.1877369,111.830827 27.9190477,111.90608 28.5845793,112.058517 C29.2501108,112.210954 29.8401896,112.398123 30.3528811,112.621954 L30.3528811,114.399094 L30.2445387,114.399094 C29.8131041,114.034404 29.2462414,113.731461 28.5420162,113.490263 C27.837791,113.250996 27.1180883,113.129432 26.3809734,113.129432 C25.5742099,113.129432 24.9241559,113.297306 24.4346806,113.631123 C23.9452054,113.966869 23.6995005,114.397165 23.6995005,114.923939 C23.6995005,115.394756 23.8213856,115.765235 24.0651559,116.033446 C24.3089261,116.301658 24.7384261,116.506193 25.3536559,116.648982 C25.6786829,116.720376 26.1410725,116.805277 26.7388901,116.907545 C27.340577,117.009813 27.8474644,117.11208 28.2653563,117.220137 C29.1069441,117.442038 29.7434554,117.779714 30.169086,118.229306 C30.5966514,118.680827 30.8094667,119.311799 30.8094667,120.122221" id="Fill-278" fill="#444444"></path>
                <path d="M42.9503869,118.905815 L40.9615311,113.350562 L38.9649365,118.905815 L42.9503869,118.905815 Z M46.1348779,123.351562 L44.527155,123.351562 L43.4147113,120.198632 L38.5083509,120.198632 L37.3959072,123.351562 L35.8636369,123.351562 L39.9941887,112.03652 L42.0062608,112.03652 L46.1348779,123.351562 Z" id="Fill-280" fill="#444444"></path>
                <path d="M57.6663725,115.494323 C57.6663725,115.104548 57.5967239,114.764942 57.4612959,114.475506 C57.3239333,114.186069 57.1149874,113.950661 56.8363928,113.76928 C56.5926225,113.611055 56.3140279,113.499139 56.0025437,113.431604 C55.6891248,113.362139 55.2944491,113.327407 54.816582,113.327407 L53.3230054,113.327407 L53.3230054,117.850337 L54.5960279,117.850337 C55.2054536,117.850337 55.7007329,117.794379 56.0818658,117.686323 C56.4629986,117.578266 56.7725482,117.404604 57.0105144,117.165337 C57.2504153,116.92221 57.4187329,116.667506 57.5174018,116.399294 C57.6180054,116.131083 57.6663725,115.828139 57.6663725,115.494323 M59.2373365,115.455731 C59.2373365,115.957421 59.148341,116.422449 58.9722847,116.850815 C58.7981631,117.279182 58.5524581,117.649661 58.2371045,117.964182 C57.8462982,118.353956 57.3839086,118.647252 56.8518703,118.842139 C56.3178973,119.037027 55.644627,119.133506 54.8320595,119.133506 L53.3230054,119.133506 L53.3230054,123.351562 L51.8139514,123.351562 L51.8139514,112.03652 L54.8920347,112.03652 C55.5730437,112.03652 56.1495797,112.092477 56.6216428,112.206323 C57.0956405,112.320168 57.5135324,112.499618 57.8791878,112.742745 C58.3106225,113.032182 58.645323,113.391083 58.8813545,113.821379 C59.117386,114.251675 59.2373365,114.797745 59.2373365,115.455731" id="Fill-282" fill="#444444"></path>
                <path d="M66.3196367,115.22013 C66.3196367,114.895961 66.2635309,114.608454 66.1493845,114.357608 C66.0352381,114.106763 65.8437043,113.89451 65.5805872,113.722777 C65.3619678,113.57613 65.10272,113.473862 64.8028439,113.415975 C64.5049025,113.358087 64.1508552,113.329144 63.7445714,113.329144 L61.9685309,113.329144 L61.9685309,117.599299 L63.4930624,117.599299 C63.9709295,117.599299 64.3868867,117.556848 64.7428687,117.473876 C65.0988507,117.390904 65.4006615,117.234608 65.6483011,117.006918 C65.8765939,116.792735 66.0468462,116.549608 66.1571232,116.271749 C66.2654655,115.99582 66.3196367,115.646566 66.3196367,115.22013 L66.3196367,115.22013 Z M69.8485016,123.351369 L67.8906007,123.351369 L64.0947493,118.853524 L61.9685309,118.853524 L61.9685309,123.351369 L60.4594768,123.351369 L60.4594768,112.036327 L63.6381637,112.036327 C64.3230421,112.036327 64.8957088,112.080707 65.3522944,112.169468 C65.80888,112.258228 66.2209678,112.416454 66.5866232,112.644144 C66.998711,112.902707 67.3198687,113.228806 67.5500962,113.62051 C67.7803236,114.014144 67.8964047,114.510045 67.8964047,115.114003 C67.8964047,115.930214 67.6913282,116.613285 67.2792403,117.161285 C66.8690872,117.713144 66.3022245,118.126073 65.5805872,118.403932 L69.8485016,123.351369 Z" id="Fill-284" fill="#444444"></path>
                <polygon id="Fill-286" fill="#444444" points="78.0211901 123.351948 70.5455685 123.351948 70.5455685 112.036906 78.0211901 112.036906 78.0211901 113.374103 72.0546225 113.374103 72.0546225 116.474934 78.0211901 116.474934 78.0211901 117.812131 72.0546225 117.812131 72.0546225 122.014751 78.0211901 122.014751"></polygon>
                <path d="M87.8940795,120.122221 C87.8940795,120.564094 87.7915412,120.998249 87.58453,121.428545 C87.3794534,121.858841 87.0911854,122.225461 86.7216606,122.524545 C86.3134421,122.848714 85.8394444,123.101489 85.2996673,123.282869 C84.7579556,123.466179 84.1059669,123.556869 83.3437011,123.556869 C82.5272642,123.556869 81.792084,123.481615 81.1381606,123.329179 C80.4861718,123.176742 79.822575,122.950982 79.14737,122.653827 L79.14737,120.76863 L79.2537777,120.76863 C79.8264444,121.245235 80.4900412,121.611855 81.2426336,121.870418 C81.9932912,122.128982 82.6994511,122.256334 83.3591786,122.256334 C84.295566,122.256334 85.0230074,122.082672 85.5434376,121.733418 C86.0638678,121.384165 86.3231155,120.917207 86.3231155,120.334475 C86.3231155,119.832785 86.2012304,119.464235 85.9555255,119.224968 C85.7078858,118.98763 85.3344917,118.80239 84.8314736,118.671179 C84.4503408,118.568911 84.0363182,118.485939 83.5913408,118.420334 C83.148298,118.352799 82.6762349,118.271756 82.1790209,118.169489 C81.1729849,117.955306 80.4281313,117.592545 79.9425255,117.077348 C79.4569196,116.56408 79.215084,115.894517 79.215084,115.068658 C79.215084,114.121235 79.6155637,113.343615 80.4184579,112.739658 C81.221352,112.13377 82.2409309,111.830827 83.473325,111.830827 C84.2723498,111.830827 85.0036606,111.90608 85.6691921,112.058517 C86.3347236,112.210954 86.9248025,112.398123 87.4374939,112.621954 L87.4374939,114.399094 L87.3291516,114.399094 C86.8977169,114.034404 86.3308543,113.731461 85.6266291,113.490263 C84.9224038,113.250996 84.2027011,113.129432 83.4655863,113.129432 C82.6588227,113.129432 82.0087687,113.297306 81.5192935,113.631123 C81.0298182,113.966869 80.7841133,114.397165 80.7841133,114.923939 C80.7841133,115.394756 80.9059984,115.765235 81.1497687,116.033446 C81.393539,116.301658 81.823039,116.506193 82.4382687,116.648982 C82.7632957,116.720376 83.2256854,116.805277 83.8235029,116.907545 C84.4251899,117.009813 84.9320773,117.11208 85.3499691,117.220137 C86.191557,117.442038 86.8280682,117.779714 87.2536989,118.229306 C87.6812642,118.680827 87.8940795,119.311799 87.8940795,120.122221" id="Fill-288" fill="#444444"></path>
                <polygon id="Fill-290" fill="#444444" points="97.0271455 123.351948 89.5515239 123.351948 89.5515239 112.036906 97.0271455 112.036906 97.0271455 113.374103 91.0605779 113.374103 91.0605779 116.474934 97.0271455 116.474934 97.0271455 117.812131 91.0605779 117.812131 91.0605779 122.014751 97.0271455 122.014751"></polygon>
                <polygon id="Fill-292" fill="#444444" points="107.310768 123.351948 105.443798 123.351948 100.06344 113.229385 100.06344 123.351948 98.6549892 123.351948 98.6549892 112.036906 100.994023 112.036906 105.900383 121.277652 105.900383 112.036906 107.310768 112.036906"></polygon>
                <path d="M118.326476,122.531299 C118.045947,122.652862 117.794438,122.766707 117.56808,122.872834 C117.341722,122.978961 117.045715,123.090876 116.680059,123.20858 C116.37051,123.30313 116.033875,123.386101 115.670154,123.455566 C115.308368,123.523101 114.907888,123.557834 114.47065,123.557834 C113.648409,123.557834 112.899686,123.442059 112.226415,123.212439 C111.55508,122.98089 110.96887,122.620059 110.469722,122.128017 C109.984116,121.647552 109.602983,121.035876 109.328258,120.292989 C109.053532,119.552031 108.91617,118.68758 108.91617,117.705425 C108.91617,116.773439 109.047728,115.939862 109.31278,115.204693 C109.577832,114.469524 109.95703,113.85013 110.456179,113.342651 C110.937915,112.850608 111.520255,112.47627 112.203199,112.217707 C112.886143,111.959144 113.646474,111.831792 114.478388,111.831792 C115.087814,111.831792 115.69724,111.905115 116.304731,112.051763 C116.910287,112.198411 117.585492,112.456975 118.326476,112.825524 L118.326476,114.612313 L118.21233,114.612313 C117.587427,114.089397 116.968327,113.7112 116.353098,113.471932 C115.737868,113.234594 115.080075,113.114961 114.379719,113.114961 C113.805118,113.114961 113.288557,113.20758 112.830037,113.39282 C112.369582,113.578059 111.959429,113.865566 111.597643,114.255341 C111.247465,114.635468 110.974674,115.115932 110.779271,115.694806 C110.583868,116.275608 110.485199,116.945172 110.485199,117.705425 C110.485199,118.500411 110.593541,119.185411 110.810226,119.758496 C111.026911,120.329651 111.303571,120.796608 111.644075,121.15551 C112.000057,121.529848 112.41408,121.807707 112.890012,121.987158 C113.365945,122.168538 113.867028,122.257299 114.395197,122.257299 C115.120704,122.257299 115.801713,122.133806 116.436289,121.88489 C117.0728,121.637904 117.666749,121.265496 118.220068,120.767665 L118.326476,120.767665 L118.326476,122.531299 Z" id="Fill-294" fill="#444444"></path>
                <polygon id="Fill-296" fill="#444444" points="127.1705 123.351948 119.694879 123.351948 119.694879 112.036906 127.1705 112.036906 127.1705 113.374103 121.203933 113.374103 121.203933 116.474934 127.1705 116.474934 127.1705 117.812131 121.203933 117.812131 121.203933 122.014751 127.1705 122.014751"></polygon>
                <path d="M81.0950171,18.3771451 C71.9981297,18.3771451 63.3442851,16.2835535 57.3486973,12.632793 C56.963695,12.3993141 56.8418099,11.8976239 57.0759068,11.513638 C57.3080689,11.1277225 57.8072176,11.0042296 58.1902851,11.2377085 C63.940168,14.737962 72.2883324,16.7447225 81.0950171,16.7447225 C89.9017018,16.7447225 98.2498662,14.7398915 103.999749,11.239638 C104.382817,11.0061592 104.881965,11.1277225 105.114127,11.513638 C105.348224,11.8995535 105.224405,12.3993141 104.841337,12.632793 C98.8438144,16.2835535 90.1899698,18.3771451 81.0950171,18.3771451" id="Fill-298" fill="#CFCDD0"></path>
                <path d="M81.0950171,18.3771451 C71.9981297,18.3771451 63.3442851,16.2835535 57.3486973,12.632793 C56.963695,12.3993141 56.8418099,11.8976239 57.0759068,11.513638 C57.3080689,11.1277225 57.8072176,11.0042296 58.1902851,11.2377085 C63.940168,14.737962 72.2883324,16.7447225 81.0950171,16.7447225 C89.9017018,16.7447225 98.2498662,14.7398915 103.999749,11.239638 C104.382817,11.0061592 104.881965,11.1277225 105.114127,11.513638 C105.348224,11.8995535 105.224405,12.3993141 104.841337,12.632793 C98.8438144,16.2835535 90.1899698,18.3771451 81.0950171,18.3771451 L81.0950171,18.3771451 Z" id="Stroke-300" stroke="#CFCDD0" stroke-width="0.5"></path>
                <path d="M103.844974,51.2745113 C97.8397131,47.9440606 89.7604698,46.110962 81.0950171,46.110962 C75.9410171,46.110962 71.0056365,46.772807 66.5790779,48.0000183 L66.5790779,49.6826099 C70.9669428,48.416807 75.9158662,47.7414549 81.0950171,47.7414549 C89.4915486,47.7414549 97.2902626,49.5031592 103.059492,52.7023986 C103.185247,52.7718634 103.31874,52.8046662 103.452233,52.8046662 C103.738567,52.8046662 104.015227,52.6522296 104.162263,52.3820887 C104.380882,51.9884549 104.237715,51.4925535 103.844974,51.2745113" id="Fill-302" fill="#CFCDD0"></path>
                <path d="M103.844974,51.2745113 C97.8397131,47.9440606 89.7604698,46.110962 81.0950171,46.110962 C75.9410171,46.110962 71.0056365,46.772807 66.5790779,48.0000183 L66.5790779,49.6826099 C70.9669428,48.416807 75.9158662,47.7414549 81.0950171,47.7414549 C89.4915486,47.7414549 97.2902626,49.5031592 103.059492,52.7023986 C103.185247,52.7718634 103.31874,52.8046662 103.452233,52.8046662 C103.738567,52.8046662 104.015227,52.6522296 104.162263,52.3820887 C104.380882,51.9884549 104.237715,51.4925535 103.844974,51.2745113 L103.844974,51.2745113 Z" id="Stroke-304" stroke="#CFCDD0" stroke-width="0.5"></path>
                <path d="M93.3042318,9.94643521 C90.0868511,3.81037887 85.7512227,0.431688732 81.0944367,0.431688732 C76.4376507,0.431688732 72.1020223,3.81037887 68.8865764,9.94643521 C65.7562565,15.9165479 64.0324525,23.8336042 64.0324525,32.2427028 C64.0324525,32.4916183 64.04793,32.7347451 64.0517993,32.981731 C64.7366777,33.5856887 65.305475,34.3092803 65.7311056,35.1177732 C65.6866079,34.1703507 65.6575876,33.2132803 65.6575876,32.2427028 C65.6575876,15.6020268 72.5837588,2.06411127 81.0944367,2.06411127 C89.6070493,2.06411127 96.5332205,15.6020268 96.5332205,32.2427028 C96.5332205,48.8853085 89.6070493,62.4232239 81.0944367,62.4232239 C74.4101011,62.4232239 68.7201935,54.0565761 66.5784975,42.4115761 L66.5784975,48.9952944 C67.2324209,50.9750408 67.9946867,52.8428718 68.8865764,54.5409 C72.1020223,60.6769563 76.4376507,64.0556465 81.0944367,64.0556465 C85.7512227,64.0556465 90.0868511,60.6769563 93.3042318,54.5409 C96.4345516,48.5727169 98.1564209,40.653731 98.1564209,32.2427028 C98.1564209,23.8355338 96.4345516,15.9165479 93.3042318,9.94643521" id="Fill-306" fill="#CFCDD0"></path>
                <path d="M93.3042318,9.94643521 C90.0868511,3.81037887 85.7512227,0.431688732 81.0944367,0.431688732 C76.4376507,0.431688732 72.1020223,3.81037887 68.8865764,9.94643521 C65.7562565,15.9165479 64.0324525,23.8336042 64.0324525,32.2427028 C64.0324525,32.4916183 64.04793,32.7347451 64.0517993,32.981731 C64.7366777,33.5856887 65.305475,34.3092803 65.7311056,35.1177732 C65.6866079,34.1703507 65.6575876,33.2132803 65.6575876,32.2427028 C65.6575876,15.6020268 72.5837588,2.06411127 81.0944367,2.06411127 C89.6070493,2.06411127 96.5332205,15.6020268 96.5332205,32.2427028 C96.5332205,48.8853085 89.6070493,62.4232239 81.0944367,62.4232239 C74.4101011,62.4232239 68.7201935,54.0565761 66.5784975,42.4115761 L66.5784975,48.9952944 C67.2324209,50.9750408 67.9946867,52.8428718 68.8865764,54.5409 C72.1020223,60.6769563 76.4376507,64.0556465 81.0944367,64.0556465 C85.7512227,64.0556465 90.0868511,60.6769563 93.3042318,54.5409 C96.4345516,48.5727169 98.1564209,40.653731 98.1564209,32.2427028 C98.1564209,23.8355338 96.4345516,15.9165479 93.3042318,9.94643521 L93.3042318,9.94643521 Z" id="Stroke-308" stroke="#CFCDD0" stroke-width="0.5"></path>
                <path d="M81.0950171,64.0554535 C80.6461703,64.0554535 80.2824495,63.6907634 80.2824495,63.2392423 L80.2824495,1.24770704 C80.2824495,0.798115493 80.6461703,0.431495775 81.0950171,0.431495775 C81.543864,0.431495775 81.9075847,0.798115493 81.9075847,1.24770704 L81.9075847,63.2392423 C81.9075847,63.6907634 81.543864,64.0554535 81.0950171,64.0554535" id="Fill-310" fill="#CFCDD0"></path>
                <path d="M81.0950171,64.0554535 C80.6461703,64.0554535 80.2824495,63.6907634 80.2824495,63.2392423 L80.2824495,1.24770704 C80.2824495,0.798115493 80.6461703,0.431495775 81.0950171,0.431495775 C81.543864,0.431495775 81.9075847,0.798115493 81.9075847,1.24770704 L81.9075847,63.2392423 C81.9075847,63.6907634 81.543864,64.0554535 81.0950171,64.0554535 L81.0950171,64.0554535 Z" id="Stroke-312" stroke="#CFCDD0" stroke-width="0.5"></path>
                <path d="M58.387236,31.4276493 L50.220932,31.4276493 C49.7720851,31.4276493 49.4083644,31.794269 49.4083644,32.2438606 C49.4083644,32.6953817 49.7720851,33.0600718 50.220932,33.0600718 L54.9609095,33.0600718 C55.9263171,32.2477197 57.0968014,31.6784944 58.387236,31.4276493" id="Fill-314" fill="#CFCDD0"></path>
                <path d="M58.387236,31.4276493 L50.220932,31.4276493 C49.7720851,31.4276493 49.4083644,31.794269 49.4083644,32.2438606 C49.4083644,32.6953817 49.7720851,33.0600718 50.220932,33.0600718 L54.9609095,33.0600718 C55.9263171,32.2477197 57.0968014,31.6784944 58.387236,31.4276493 L58.387236,31.4276493 Z" id="Stroke-316" stroke="#CFCDD0" stroke-width="0.5"></path>
                <path d="M111.969489,31.4276493 L61.0892167,31.4276493 C62.2364847,31.6823535 63.2734757,32.2689451 64.1421491,33.0600718 L111.969489,33.0600718 C112.418336,33.0600718 112.782057,32.6953817 112.782057,32.2438606 C112.782057,31.794269 112.418336,31.4276493 111.969489,31.4276493" id="Fill-318" fill="#CFCDD0"></path>
                <path d="M111.969489,31.4276493 L61.0892167,31.4276493 C62.2364847,31.6823535 63.2734757,32.2689451 64.1421491,33.0600718 L111.969489,33.0600718 C112.418336,33.0600718 112.782057,32.6953817 112.782057,32.2438606 C112.782057,31.794269 112.418336,31.4276493 111.969489,31.4276493 L111.969489,31.4276493 Z" id="Stroke-320" stroke="#CFCDD0" stroke-width="0.5"></path>
                <path d="M81.0950171,0.432074648 C63.6228797,0.432074648 49.4087514,14.7013 49.4087514,32.2430887 C49.4087514,37.0979056 50.5289338,41.6845113 52.4752266,45.8041592 L52.4752266,41.4491028 C51.5446432,38.5450887 51.0319518,35.4539056 51.0319518,32.2430887 C51.0319518,15.6024127 64.5186387,2.06449718 81.0950171,2.06449718 C97.6713955,2.06449718 111.158082,15.6024127 111.158082,32.2430887 C111.158082,48.8856944 97.6713955,62.4236099 81.0950171,62.4236099 C74.1146748,62.4236099 67.6992604,60.0019901 62.5897581,55.9788211 C62.0170914,56.2605394 61.4115351,56.4824408 60.7692198,56.6155817 C66.2753324,61.2523563 73.3620824,64.0560324 81.0950171,64.0560324 C98.5671545,64.0560324 112.781283,49.7848775 112.781283,32.2430887 C112.781283,14.7013 98.5671545,0.432074648 81.0950171,0.432074648" id="Fill-322" fill="#818286"></path>
                <path d="M81.0950171,0.432074648 C63.6228797,0.432074648 49.4087514,14.7013 49.4087514,32.2430887 C49.4087514,37.0979056 50.5289338,41.6845113 52.4752266,45.8041592 L52.4752266,41.4491028 C51.5446432,38.5450887 51.0319518,35.4539056 51.0319518,32.2430887 C51.0319518,15.6024127 64.5186387,2.06449718 81.0950171,2.06449718 C97.6713955,2.06449718 111.158082,15.6024127 111.158082,32.2430887 C111.158082,48.8856944 97.6713955,62.4236099 81.0950171,62.4236099 C74.1146748,62.4236099 67.6992604,60.0019901 62.5897581,55.9788211 C62.0170914,56.2605394 61.4115351,56.4824408 60.7692198,56.6155817 C66.2753324,61.2523563 73.3620824,64.0560324 81.0950171,64.0560324 C98.5671545,64.0560324 112.781283,49.7848775 112.781283,32.2430887 C112.781283,14.7013 98.5671545,0.432074648 81.0950171,0.432074648 L81.0950171,0.432074648 Z" id="Stroke-324" stroke="#818286" stroke-width="0.5"></path>
                <path d="M32.9157579,47.476138 L32.9157579,36.3019549 L23.9059313,47.476138 L32.9157579,47.476138 Z M44.7618322,53.1143634 L40.5422849,53.1143634 L40.5422849,60.3058986 L32.9157579,60.3058986 L32.9157579,53.1143634 L17.931625,53.1143634 L17.931625,47.2696732 L32.4166092,29.3593352 L40.5422849,29.3593352 L40.5422849,47.476138 L44.7618322,47.476138 L44.7618322,53.1143634 Z" id="Fill-326" fill="#E30536"></path>
                <path d="M64.2059937,44.7710634 C64.2059937,41.0354014 63.8384036,38.3783732 63.1051581,36.7941901 C62.3699779,35.210007 61.1511266,34.4169507 59.4466694,34.4169507 C57.7422122,34.4169507 56.5233608,35.210007 55.7881806,36.7941901 C55.0549351,38.3783732 54.687345,41.050838 54.687345,44.8115845 C54.687345,48.4777817 55.0607392,51.1213028 55.8094622,52.7382887 C56.5581851,54.3572042 57.7692977,55.1656972 59.4466694,55.1656972 C61.1221063,55.1656972 62.3351536,54.3572042 63.0838766,52.7382887 C63.8325995,51.1213028 64.2059937,48.4642746 64.2059937,44.7710634 M72.2484779,44.7710634 C72.2484779,47.3702042 72.0124464,49.6972746 71.542318,51.7503451 C71.070255,53.8034155 70.3370095,55.4879366 69.3387122,56.8000493 C68.3133293,58.1430352 66.9977437,59.1560634 65.3900207,59.8391338 C63.7822977,60.5241338 61.8011806,60.865669 59.4466694,60.865669 C57.1327865,60.865669 55.1574734,60.5202746 53.5245995,59.8294859 C51.8878563,59.1386972 50.564532,58.1160211 49.5546266,56.7595282 C48.527309,55.4049648 47.7882595,53.7204437 47.3297392,51.7098239 C46.8731536,49.6972746 46.6448608,47.3914296 46.6448608,44.7922887 C46.6448608,42.1101761 46.8789577,39.7792465 47.3510207,37.8014296 C47.8211491,35.8255423 48.5698721,34.1525986 49.595255,32.7825986 C50.6206378,31.4261056 51.9517009,30.4111479 53.5865095,29.7338662 C55.2193833,29.0565845 57.1734149,28.7169789 59.4466694,28.7169789 C61.8166581,28.7169789 63.8035793,29.0662324 65.4113023,29.7647394 C67.0190252,30.4632465 68.3346108,31.5032887 69.3599937,32.8867958 C70.3718338,34.2413592 71.1050793,35.9104437 71.5635995,37.8959789 C72.0201851,39.8795845 72.2484779,42.1719225 72.2484779,44.7710634" id="Fill-328" fill="#E30536"></path>
            </g>
        </g>
    </g>
</svg>