<?xml version="1.0" encoding="UTF-8" standalone="no"?>
<svg width="138px" height="128px" viewBox="0 0 138 128" version="1.1" xmlns="http://www.w3.org/2000/svg" xmlns:xlink="http://www.w3.org/1999/xlink">
    <!-- Generator: Sketch 3.8.1 (29687) - http://www.bohemiancoding.com/sketch -->
    <title>Page 1</title>
    <desc>Created with Sketch.</desc>
    <defs>
        <polygon id="path-1" points="0 134.016054 140.26956 134.016054 140.26956 0.0141608392 0 0.0141608392"></polygon>
        <polygon id="path-3" points="140.26956 38.0796319 140.26956 0.137871976 0 0.137871976 0 38.0796319"></polygon>
    </defs>
    <g id="Page-1" stroke="none" stroke-width="1" fill="none" fill-rule="evenodd">
        <g id="Careers" transform="translate(-165.000000, -595.000000)">
            <g id="Page-1" transform="translate(164.000000, 595.000000)">
                <g id="Group-26" transform="translate(0.000000, 0.026114)">
                    <path d="M93.0823732,20.3989215 C82.1696841,20.3989215 71.7860064,18.0776076 64.5952155,14.0288043 C64.1331147,13.7704521 63.9867479,13.2132596 64.2669357,12.7852433 C64.5450326,12.3591549 65.1451364,12.2222668 65.6051463,12.480619 C72.5011127,16.3616862 82.5167825,18.588528 93.0823732,18.588528 C103.645873,18.588528 113.661543,16.3636142 120.5596,12.482547 C121.01961,12.2222668 121.619714,12.3591549 121.897811,12.7852433 C122.177999,13.2132596 122.029541,13.7704521 121.569531,14.0288043 C114.376649,18.0776076 103.992971,20.3989215 93.0823732,20.3989215 L93.0823732,20.3989215 Z" id="Fill-1" fill="#D8D7D9"></path>
                    <path d="M93.0823732,20.3989215 C82.1696841,20.3989215 71.7860064,18.0776076 64.5952155,14.0288043 C64.1331147,13.7704521 63.9867479,13.2132596 64.2669357,12.7852433 C64.5450326,12.3591549 65.1451364,12.2222668 65.6051463,12.480619 C72.5011127,16.3616862 82.5167825,18.588528 93.0823732,18.588528 C103.645873,18.588528 113.661543,16.3636142 120.5596,12.482547 C121.01961,12.2222668 121.619714,12.3591549 121.897811,12.7852433 C122.177999,13.2132596 122.029541,13.7704521 121.569531,14.0288043 C114.376649,18.0776076 103.992971,20.3989215 93.0823732,20.3989215 L93.0823732,20.3989215 Z" id="Stroke-3" stroke="#D8D7D9" stroke-width="0.5"></path>
                    <path d="M119.902831,58.5826071 C119.743919,58.5826071 119.582915,58.5459751 119.432367,58.468855 C112.5134,54.9232601 103.15429,52.9682665 93.0821641,52.9682665 C83.0100386,52.9682665 73.6509283,54.9232601 66.7319614,58.468855 C66.2594058,58.7117832 65.6676658,58.5536871 65.4083875,58.1141027 C65.1470183,57.6783744 65.3163856,57.1269659 65.7889412,56.8859657 C72.9922778,53.1919147 82.6859407,51.159801 93.0821641,51.159801 C103.478388,51.159801 113.17205,53.1919147 120.375387,56.8859657 C120.845852,57.1269659 121.01731,57.6783744 120.755941,58.1141027 C120.57821,58.414871 120.245748,58.5826071 119.902831,58.5826071" id="Fill-5" fill="#D8D7D9"></path>
                    <path d="M119.902831,58.5826071 C119.743919,58.5826071 119.582915,58.5459751 119.432367,58.468855 C112.5134,54.9232601 103.15429,52.9682665 93.0821641,52.9682665 C83.0100386,52.9682665 73.6509283,54.9232601 66.7319614,58.468855 C66.2594058,58.7117832 65.6676658,58.5536871 65.4083875,58.1141027 C65.1470183,57.6783744 65.3163856,57.1269659 65.7889412,56.8859657 C72.9922778,53.1919147 82.6859407,51.159801 93.0821641,51.159801 C103.478388,51.159801 113.17205,53.1919147 120.375387,56.8859657 C120.845852,57.1269659 121.01731,57.6783744 120.755941,58.1141027 C120.57821,58.414871 120.245748,58.5826071 119.902831,58.5826071 L119.902831,58.5826071 Z" id="Stroke-7" stroke="#D8D7D9" stroke-width="0.5"></path>
                    <path d="M93.0823732,71.0614045 C87.495344,71.0614045 82.2951414,67.3133694 78.4352402,60.5094519 C74.6798868,53.8886945 72.6140242,45.1066473 72.6140242,35.7770477 C72.6140242,26.451304 74.6798868,17.6692569 78.4352402,11.0484995 C82.2951414,4.2445819 87.495344,0.496546833 93.0823732,0.496546833 C98.6673114,0.496546833 103.869605,4.2445819 107.729506,11.0484995 C111.48486,17.6692569 113.550722,26.453232 113.550722,35.7770477 C113.550722,45.1066473 111.48486,53.8886945 107.729506,60.5094519 C103.869605,67.3133694 98.6673114,71.0614045 93.0823732,71.0614045 M93.0823732,2.30501231 C82.8701537,2.30501231 74.5627934,17.3202886 74.5627934,35.7770477 C74.5627934,54.2357348 82.8701537,69.251011 93.0823732,69.251011 C103.294593,69.251011 111.601953,54.2357348 111.601953,35.7770477 C111.601953,17.3202886 103.294593,2.30501231 93.0823732,2.30501231" id="Fill-9" fill="#D8D7D9"></path>
                    <path d="M93.0823732,71.0614045 C87.495344,71.0614045 82.2951414,67.3133694 78.4352402,60.5094519 C74.6798868,53.8886945 72.6140242,45.1066473 72.6140242,35.7770477 C72.6140242,26.451304 74.6798868,17.6692569 78.4352402,11.0484995 C82.2951414,4.2445819 87.495344,0.496546833 93.0823732,0.496546833 C98.6673114,0.496546833 103.869605,4.2445819 107.729506,11.0484995 C111.48486,17.6692569 113.550722,26.453232 113.550722,35.7770477 C113.550722,45.1066473 111.48486,53.8886945 107.729506,60.5094519 C103.869605,67.3133694 98.6673114,71.0614045 93.0823732,71.0614045 L93.0823732,71.0614045 Z M93.0823732,2.30501231 C82.8701537,2.30501231 74.5627934,17.3202886 74.5627934,35.7770477 C74.5627934,54.2357348 82.8701537,69.251011 93.0823732,69.251011 C103.294593,69.251011 111.601953,54.2357348 111.601953,35.7770477 C111.601953,17.3202886 103.294593,2.30501231 93.0823732,2.30501231 L93.0823732,2.30501231 Z" id="Stroke-11" stroke="#D8D7D9" stroke-width="0.5"></path>
                    <path d="M93.0823732,71.0614045 C92.544998,71.0614045 92.1079886,70.6565242 92.1079886,70.1571718 L92.1079886,1.40077957 C92.1079886,0.901427164 92.544998,0.496546833 93.0823732,0.496546833 C93.6197484,0.496546833 94.0567578,0.901427164 94.0567578,1.40077957 L94.0567578,70.1571718 C94.0567578,70.6565242 93.6197484,71.0614045 93.0823732,71.0614045" id="Fill-13" fill="#D8D7D9"></path>
                    <path d="M93.0823732,71.0614045 C92.544998,71.0614045 92.1079886,70.6565242 92.1079886,70.1571718 L92.1079886,1.40077957 C92.1079886,0.901427164 92.544998,0.496546833 93.0823732,0.496546833 C93.6197484,0.496546833 94.0567578,0.901427164 94.0567578,1.40077957 L94.0567578,70.1571718 C94.0567578,70.6565242 93.6197484,71.0614045 93.0823732,71.0614045 L93.0823732,71.0614045 Z" id="Stroke-15" stroke="#D8D7D9" stroke-width="0.5"></path>
                    <path d="M130.121742,36.6832084 L56.0413317,36.6832084 C55.5039565,36.6832084 55.0690381,36.2783281 55.0690381,35.7789757 C55.0690381,35.2796233 55.5039565,34.8728149 56.0413317,34.8728149 L130.121742,34.8728149 C130.659117,34.8728149 131.096127,35.2796233 131.096127,35.7789757 C131.096127,36.2783281 130.659117,36.6832084 130.121742,36.6832084" id="Fill-17" fill="#D8D7D9"></path>
                    <path d="M130.121742,36.6832084 L56.0413317,36.6832084 C55.5039565,36.6832084 55.0690381,36.2783281 55.0690381,35.7789757 C55.0690381,35.2796233 55.5039565,34.8728149 56.0413317,34.8728149 L130.121742,34.8728149 C130.659117,34.8728149 131.096127,35.2796233 131.096127,35.7789757 C131.096127,36.2783281 130.659117,36.6832084 130.121742,36.6832084 L130.121742,36.6832084 Z" id="Stroke-19" stroke="#D8D7D9" stroke-width="0.5"></path>
                    <g id="Group-24" transform="translate(54.364805, 0.151049)">
                        <path d="M38.7175685,70.9103556 C17.7557543,70.9103556 0.704024221,55.0833906 0.704024221,35.6259987 C0.704024221,16.1724628 17.7557543,0.345497882 38.7175685,0.345497882 C59.6793826,0.345497882 76.7311127,16.1724628 76.7311127,35.6259987 C76.7311127,55.0833906 59.6793826,70.9103556 38.7175685,70.9103556 M38.7175685,2.15396336 C18.8305047,2.15396336 2.65279338,17.1692396 2.65279338,35.6259987 C2.65279338,54.0846858 18.8305047,69.0999621 38.7175685,69.0999621 C58.6046322,69.0999621 74.7823435,54.0846858 74.7823435,35.6259987 C74.7823435,17.1692396 58.6046322,2.15396336 38.7175685,2.15396336" id="Fill-21" fill="#939598"></path>
                        <path d="M38.7175685,70.9103556 C17.7557543,70.9103556 0.704024221,55.0833906 0.704024221,35.6259987 C0.704024221,16.1724628 17.7557543,0.345497882 38.7175685,0.345497882 C59.6793826,0.345497882 76.7311127,16.1724628 76.7311127,35.6259987 C76.7311127,55.0833906 59.6793826,70.9103556 38.7175685,70.9103556 M38.7175685,2.15396336 C18.8305047,2.15396336 2.65279338,17.1692396 2.65279338,35.6259987 C2.65279338,54.0846858 18.8305047,69.0999621 38.7175685,69.0999621 C58.6046322,69.0999621 74.7823435,54.0846858 74.7823435,35.6259987 C74.7823435,17.1692396 58.6046322,2.15396336 38.7175685,2.15396336" id="Stroke-23" stroke="#939598" stroke-width="0.5"></path>
                    </g>
                    <mask id="mask-2" fill="white">
                        <use xlink:href="#path-1"></use>
                    </mask>
                    <g id="Clip-25"></g>
                    <text id="C" mask="url(#mask-2)" font-family="Verdana-Bold, Verdana" font-size="19.7057936" font-weight="bold" fill="#565656">
                        <tspan x="2.05415324" y="87.9689885">C</tspan>
                    </text>
                </g>
                <text id="O" font-family="Verdana-Bold, Verdana" font-size="19.7057936" font-weight="bold" fill="#565656">
                    <tspan x="16.5070366" y="87.9951029">O</tspan>
                </text>
                <text id="U" font-family="Verdana-Bold, Verdana" font-size="19.7057936" font-weight="bold" fill="#565656">
                    <tspan x="34.0957274" y="87.9951029">U</tspan>
                </text>
                <text id="NTR" font-family="Verdana-Bold, Verdana" font-size="19.7057936" font-weight="bold" letter-spacing="-0.029" fill="#565656">
                    <tspan x="50.8489019" y="87.9951029">NT</tspan>
                    <tspan x="80.9076665" y="87.9951029">R</tspan>
                </text>
                <text id="IES" font-family="Verdana-Bold, Verdana" font-size="19.7057936" font-weight="bold" letter-spacing="-0.029" fill="#565656">
                    <tspan x="98.4733353" y="87.9951029">IE</tspan>
                    <tspan x="122.633833" y="87.9951029">S</tspan>
                </text>
                <g id="Group-28" transform="translate(0.000000, 91.626134)">
                    <mask id="mask-4" fill="white">
                        <use xlink:href="#path-3"></use>
                    </mask>
                    <g id="Clip-27"></g>
                    <text id="IN-WHICH-MOLEX" mask="url(#mask-4)" font-family="Verdana" font-size="15.5135667" font-weight="normal" letter-spacing="-0.049" fill="#565656">
                        <tspan x="0" y="16.137872">IN WHICH MOLEX</tspan>
                    </text>
                    <text id="HAS-A-PRESENCE" mask="url(#mask-4)" font-family="Verdana" font-size="15.5135667" font-weight="normal" letter-spacing="-0.049" fill="#565656">
                        <tspan x="1.31553585" y="34.7996162">H</tspan>
                        <tspan x="12.9244358" y="34.7996162" letter-spacing="-0.05303305">A</tspan>
                        <tspan x="23.4006302" y="34.7996162">S</tspan>
                        <tspan x="33.9566074" y="34.7996162" letter-spacing="-0.05303305"> </tspan>
                        <tspan x="39.3575626" y="34.7996162">A PRESENCE</tspan>
                    </text>
                </g>
                <text id="4" font-family="Verdana-Bold, Verdana" font-size="42.3126997" font-weight="bold" fill="#EB2545">
                    <tspan x="14.5049481" y="55.165661">4</tspan>
                </text>
                <text id="0" font-family="Verdana-Bold, Verdana" font-size="42.3126997" font-weight="bold" fill="#EB2545">
                    <tspan x="44.9116016" y="55.165661">0</tspan>
                </text>
                <polygon id="Fill-29" fill="#EB2545" points="94.721263 48.9320817 88.1912135 48.9320817 88.1912135 54.8973185 84.8331414 54.8973185 84.8331414 48.9320817 78.3030919 48.9320817 78.3030919 45.9051192 84.8331414 45.9051192 84.8331414 39.9398823 88.1912135 39.9398823 88.1912135 45.9051192 94.721263 45.9051192"></polygon>
            </g>
        </g>
    </g>
</svg>