<?xml version="1.0" encoding="UTF-8" standalone="no"?>
<svg width="176px" height="117px" viewBox="0 0 176 117" version="1.1" xmlns="http://www.w3.org/2000/svg" xmlns:xlink="http://www.w3.org/1999/xlink">
    <!-- Generator: Sketch 3.6.1 (26313) - http://www.bohemiancoding.com/sketch -->
    <title>Group 2</title>
    <desc>Created with Sketch.</desc>
    <defs>
        <path id="path-1" d="M0.242970816,11.6513498 L9.27883551,11.6513498 L9.27883551,0.0262155369 L0.242970816,0.0262155369 L0.242970816,11.6513498 L0.242970816,11.6513498 Z"></path>
    </defs>
    <g id="Page-1" stroke="none" stroke-width="1" fill="none" fill-rule="evenodd">
        <g id="Careers" transform="translate(-396.000000, -825.000000)">
            <g id="Group-2" transform="translate(396.000000, 825.000000)">
                <path d="M56.866373,87.4917122 C56.866373,87.0858568 56.7519442,86.7343745 56.525094,86.4392069 C56.2982438,86.1459813 56.0332506,85.9401408 55.7321221,85.8255692 C55.3306173,85.6702178 54.9391502,85.5847746 54.5577206,85.5672976 C54.1742836,85.5517625 53.6663801,85.5439949 53.029995,85.5439949 L52.3675122,85.5439949 L52.3675122,89.8666457 L53.4716503,89.8666457 C54.1281105,89.8666457 54.6681345,89.8278078 55.0937295,89.7501322 C55.5193246,89.6724565 55.8746563,89.5171052 56.1637397,89.2840782 C56.4106651,89.0782377 56.5893347,88.8316174 56.6997486,88.5442175 C56.8121699,88.2568175 56.866373,87.9053351 56.866373,87.4917122 M60.8533153,87.4101527 C60.8533153,88.0568027 60.736879,88.6898593 60.5019987,89.3093228 C60.2671184,89.9268443 59.9338694,90.4453294 59.4982368,90.8667198 C58.9020022,91.437636 58.2375118,91.866794 57.5047656,92.1600197 C56.7720194,92.4513034 55.8585961,92.5969453 54.7685106,92.5969453 L52.3675122,92.5969453 L52.3675122,97.3079744 L48.5110589,97.3079744 L48.5110589,82.8428236 L54.8588492,82.8428236 C55.808408,82.8428236 56.6114175,82.9224412 57.2638627,83.0816763 C57.916308,83.2389695 58.4944748,83.4778222 58.9963558,83.7943505 C59.5986129,84.1769032 60.0583359,84.6662599 60.3775322,85.2624206 C60.694721,85.8585813 60.8533153,86.5731975 60.8533153,87.4101527" id="Fill-154" fill="#444444"></path>
                <path d="M73.3943166,97.3081685 L62.5777783,97.3081685 L62.5777783,82.8430178 L73.3943166,82.8430178 L73.3943166,85.6412837 L66.4141563,85.6412837 L66.4141563,88.1366144 L72.8924357,88.1366144 L72.8924357,90.9348802 L66.4141563,90.9348802 L66.4141563,94.5099027 L73.3943166,94.5099027 L73.3943166,97.3081685 Z" id="Fill-156" fill="#444444"></path>
                <path d="M85.0512044,93.7430497 C85.4266114,93.3022403 85.7036496,92.7818134 85.8843268,92.1837107 C86.0650039,91.5856081 86.1553425,90.8807015 86.1553425,90.0709327 C86.1553425,89.2029071 86.0529588,88.4649883 85.8441763,87.8552343 C85.6374014,87.2474222 85.3663856,86.7541818 85.0311292,86.3793967 C84.6898501,85.9910183 84.2963755,85.7094441 83.8507052,85.5327319 C83.4050349,85.3599036 82.9412969,85.2705766 82.4594912,85.2705766 C81.9696553,85.2705766 81.5099324,85.3560198 81.0783148,85.5249644 C80.6466972,85.691967 80.2492074,85.9715994 79.8878532,86.3599778 C79.5546042,86.7231115 79.2795734,87.2221776 79.070791,87.86106 C78.860001,88.4980004 78.7536022,89.2378611 78.7536022,90.0806421 C78.7536022,90.942842 78.8559859,91.6749351 79.0607533,92.2808053 C79.2635132,92.8866755 79.5325214,93.379916 79.8677779,93.7624686 C80.2030344,94.1450213 80.5945015,94.4265956 81.0421793,94.6071915 C81.4918647,94.7897293 81.9636328,94.8790563 82.4594912,94.8790563 C82.9553495,94.8790563 83.4271176,94.7877874 83.876803,94.6033077 C84.3244808,94.418828 84.7159479,94.131428 85.0512044,93.7430497 M90.16236,90.0806421 C90.16236,92.3856675 89.4798019,94.2168713 88.1126782,95.5742535 C86.747562,96.9316358 84.8604896,97.6093559 82.4494535,97.6093559 C80.0464475,97.6093559 78.1613827,96.9316358 76.7942589,95.5742535 C75.4291428,94.2168713 74.7465847,92.3856675 74.7465847,90.0806421 C74.7465847,87.7561978 75.4291428,85.9172265 76.7942589,84.5676118 C78.1613827,83.2160552 80.0464475,82.5402769 82.4494535,82.5402769 C84.846437,82.5402769 86.7315018,83.2160552 88.1046481,84.5676118 C89.4757869,85.9172265 90.16236,87.7561978 90.16236,90.0806421" id="Fill-158" fill="#444444"></path>
                <path d="M100.45373,87.4917122 C100.45373,87.0858568 100.339301,86.7343745 100.112451,86.4392069 C99.8856009,86.1459813 99.6206078,85.9401408 99.3194792,85.8255692 C98.9179744,85.6702178 98.5265073,85.5847746 98.1450777,85.5672976 C97.7616407,85.5517625 97.2537372,85.5439949 96.6173521,85.5439949 L95.9548693,85.5439949 L95.9548693,89.8666457 L97.0590074,89.8666457 C97.7154676,89.8666457 98.2554916,89.8278078 98.6810866,89.7501322 C99.1066817,89.6724565 99.4620134,89.5171052 99.7510968,89.2840782 C99.9980222,89.0782377 100.176692,88.8316174 100.287106,88.5442175 C100.399527,88.2568175 100.45373,87.9053351 100.45373,87.4917122 M104.440672,87.4101527 C104.440672,88.0568027 104.324236,88.6898593 104.089356,89.3093228 C103.854475,89.9268443 103.521227,90.4453294 103.085594,90.8667198 C102.489359,91.437636 101.824869,91.866794 101.092123,92.1600197 C100.359377,92.4513034 99.4459532,92.5969453 98.3558677,92.5969453 L95.9548693,92.5969453 L95.9548693,97.3079744 L92.098416,97.3079744 L92.098416,82.8428236 L98.4462063,82.8428236 C99.3957651,82.8428236 100.198775,82.9224412 100.85122,83.0816763 C101.503665,83.2389695 102.081832,83.4778222 102.583713,83.7943505 C103.18597,84.1769032 103.645693,84.6662599 103.964889,85.2624206 C104.282078,85.8585813 104.440672,86.5731975 104.440672,87.4101527" id="Fill-160" fill="#444444"></path>
                <path d="M116.951962,97.3081685 L106.165537,97.3081685 L106.165537,82.8430178 L110.02199,82.8430178 L110.02199,94.5099027 L116.951962,94.5099027 L116.951962,97.3081685 Z" id="Fill-162" fill="#444444"></path>
                <path d="M129.079414,97.3081685 L118.262875,97.3081685 L118.262875,82.8430178 L129.079414,82.8430178 L129.079414,85.6412837 L122.099253,85.6412837 L122.099253,88.1366144 L128.577533,88.1366144 L128.577533,90.9348802 L122.099253,90.9348802 L122.099253,94.5099027 L129.079414,94.5099027 L129.079414,97.3081685 Z" id="Fill-164" fill="#444444"></path>
                <path d="M13.6174844,111.629619 L11.55375,106.038913 L9.48198539,111.629619 L13.6174844,111.629619 Z M16.9218686,116.103738 L15.2536164,116.103738 L14.0992902,112.930687 L9.00820976,112.930687 L7.85388357,116.103738 L6.26392471,116.103738 L10.5499881,104.716485 L12.6378128,104.716485 L16.9218686,116.103738 Z" id="Fill-166" fill="#444444"></path>
                <path d="M23.9961818,107.920412 C23.9961818,107.594174 23.9379636,107.304832 23.8195197,107.052387 C23.7010758,106.799941 23.502331,106.586333 23.2293077,106.413504 C23.0024575,106.26592 22.7334493,106.163 22.4222832,106.104743 C22.1131245,106.046487 21.7457476,106.017358 21.3241676,106.017358 L19.4812608,106.017358 L19.4812608,110.314764 L21.0631895,110.314764 C21.5590479,110.314764 21.9906655,110.272043 22.3600499,110.188542 C22.7294343,110.10504 23.042608,109.947747 23.2995711,109.718604 C23.5364589,109.503054 23.713121,109.258375 23.8275498,108.978743 C23.9399712,108.701053 23.9961818,108.34957 23.9961818,107.920412 L23.9961818,107.920412 Z M27.6579053,116.103543 L25.6262912,116.103543 L21.6875294,111.576994 L19.4812608,111.576994 L19.4812608,116.103543 L17.9153922,116.103543 L17.9153922,104.716291 L21.2137538,104.716291 C21.9244172,104.716291 22.5186443,104.760954 22.9924199,104.850281 C23.4661955,104.939608 23.8937981,105.098844 24.2732201,105.327987 C24.7008227,105.5882 25.0340716,105.91638 25.272967,106.310584 C25.5118623,106.70673 25.6323137,107.205796 25.6323137,107.813608 C25.6323137,108.635028 25.4195162,109.322458 24.9919136,109.873955 C24.5663186,110.429336 23.9781141,110.844901 23.2293077,111.124533 L27.6579053,116.103543 Z" id="Fill-168" fill="#444444"></path>
                <path d="M37.0157768,110.414189 C37.0157768,108.934468 36.6744977,107.794578 35.9879246,106.990634 C35.303359,106.188633 34.3678529,105.786662 33.1814063,105.786662 C31.9849221,105.786662 31.045401,106.188633 30.3628429,106.990634 C29.6802848,107.794578 29.3390057,108.934468 29.3390057,110.414189 C29.3390057,111.907504 29.6863073,113.051278 30.3829181,113.84357 C31.0775213,114.637804 32.0110199,115.033949 33.1814063,115.033949 C34.3517927,115.033949 35.2832837,114.637804 35.9758794,113.84357 C36.6704827,113.051278 37.0157768,111.907504 37.0157768,110.414189 M37.158311,106.023572 C37.6381092,106.53429 38.005486,107.157637 38.2624491,107.897498 C38.5174046,108.637358 38.6458861,109.476256 38.6458861,110.414189 C38.6458861,111.352123 38.5153971,112.192962 38.254419,112.934765 C37.9934409,113.676567 37.6280715,114.294089 37.158311,114.789271 C36.6744977,115.303872 36.1003459,115.690309 35.4378631,115.952464 C34.7773877,116.210736 34.0225588,116.340843 33.1733762,116.340843 C32.3462764,116.340843 31.593455,116.208794 30.9149119,115.944697 C30.2383764,115.678658 29.662217,115.294163 29.1884414,114.789271 C28.7146658,114.284379 28.3492965,113.664916 28.0943409,112.930881 C27.8373779,112.194904 27.7109039,111.357949 27.7109039,110.414189 C27.7109039,109.485965 27.8373779,108.652894 28.0903259,107.916917 C28.3432739,107.178998 28.7106508,106.549825 29.1964715,106.023572 C29.6602095,105.524506 30.2363689,105.141954 30.922942,104.875914 C31.6115227,104.611817 32.3623366,104.477827 33.1733762,104.477827 C34.0165362,104.477827 34.7753802,104.613759 35.4458932,104.879798 C36.1184136,105.147779 36.6885504,105.52839 37.158311,106.023572" id="Fill-170" fill="#444444"></path>
                <g id="Group-174" transform="translate(39.918194, 104.689881)">
                    <mask id="mask-2" fill="white">
                        <use xlink:href="#path-1"></use>
                    </mask>
                    <g id="Clip-173"></g>
                    <path d="M9.27883551,6.84031325 C9.27883551,7.66755908 9.18648942,8.38605899 8.99778218,9.00163863 C8.81108246,9.61527638 8.50393132,10.1259939 8.07632875,10.5337911 C7.67080894,10.9221694 7.19703332,11.2056856 6.65299436,11.3843397 C6.11096293,11.5629937 5.47859293,11.6523207 4.75789188,11.6523207 C4.01912311,11.6523207 3.37671549,11.557168 2.82665397,11.3688045 C2.27859997,11.180441 1.81887701,10.9027505 1.44347006,10.5337911 C1.01586749,10.1162844 0.708716341,9.6113926 0.522016626,9.02105755 C0.335316911,8.4287806 0.242970816,7.70251313 0.242970816,6.84031325 L0.242970816,0.0262155369 L1.80683187,0.0262155369 L1.80683187,6.91798892 C1.80683187,7.53356856 1.85099739,8.02098336 1.93732092,8.37829142 C2.02565196,8.73559948 2.17019368,9.05989538 2.37696863,9.34923723 C2.60783387,9.6813007 2.92301511,9.92986283 3.32251235,10.0988074 C3.71799454,10.267752 4.19779273,10.3512533 4.75789188,10.3512533 C5.31999855,10.3512533 5.79979674,10.267752 6.19527893,10.1026912 C6.59076112,9.93763039 6.90794989,9.68518448 7.1448377,9.34923723 C7.34960513,9.05989538 7.49615436,8.72589002 7.58247789,8.35110494 C7.67080894,7.97631985 7.71296694,7.51220775 7.71296694,6.95488486 L7.71296694,0.0262155369 L9.27883551,0.0262155369 L9.27883551,6.84031325 Z" id="Fill-172" fill="#444444" mask="url(#mask-2)"></path>
                </g>
                <path d="M60.3747217,116.104126 L58.4374612,116.104126 L52.8545374,105.916963 L52.8545374,116.104126 L51.3930601,116.104126 L51.3930601,104.716873 L53.8201564,104.716873 L58.9112368,114.016592 L58.9112368,104.716873 L60.3747217,104.716873 L60.3747217,116.104126 Z" id="Fill-175" fill="#444444"></path>
                <path d="M71.0220257,110.398848 C71.0220257,109.50752 70.8614238,108.754066 70.54022,108.14237 C70.2190162,107.530674 69.7372105,107.049085 69.1008254,106.697603 C68.6370874,106.441273 68.1432366,106.264561 67.6212804,106.165525 C67.0993242,106.066488 66.4749843,106.015999 65.7482607,106.015999 L64.2767457,106.015999 L64.2767457,114.805 L65.7482607,114.805 C66.5030896,114.805 67.1595499,114.750628 67.719649,114.643823 C68.2817557,114.535078 68.7976893,114.337005 69.2654424,114.045721 C69.8516393,113.684529 70.2912871,113.208766 70.582378,112.616489 C70.8754765,112.024212 71.0220257,111.286293 71.0220257,110.398848 M72.6581576,110.422151 C72.6581576,111.457179 72.4252849,112.395113 71.9595393,113.235952 C71.4917863,114.076791 70.8714614,114.729267 70.0965572,115.193379 C69.5585409,115.515733 68.9602988,115.746818 68.2978159,115.890518 C67.635333,116.032276 66.7640677,116.104126 65.6840199,116.104126 L62.7108771,116.104126 L62.7108771,104.716873 L65.653907,104.716873 C66.8022107,104.716873 67.715634,104.796491 68.3921695,104.957668 C69.0707126,105.116903 69.6428569,105.338279 70.1126174,105.617911 C70.9136194,106.103384 71.5379593,106.748092 71.9856372,107.553977 C72.4353225,108.359862 72.6581576,109.315273 72.6581576,110.422151" id="Fill-177" fill="#444444"></path>
                <path d="M87.6908975,106.061828 L83.4851351,106.061828 L83.4851351,116.103349 L81.9192665,116.103349 L81.9192665,106.061828 L77.7135041,106.061828 L77.7135041,104.716097 L87.6908975,104.716097 L87.6908975,106.061828 Z" id="Fill-179" fill="#444444"></path>
                <path d="M97.4854054,116.104126 L95.9195368,116.104126 L95.9195368,110.528955 L90.0435146,110.528955 L90.0435146,116.104126 L88.4796536,116.104126 L88.4796536,104.716873 L90.0435146,104.716873 L90.0435146,109.183224 L95.9195368,109.183224 L95.9195368,104.716873 L97.4854054,104.716873 L97.4854054,116.104126 Z" id="Fill-181" fill="#444444"></path>
                <path d="M107.611356,116.104126 L99.8542835,116.104126 L99.8542835,104.716873 L107.611356,104.716873 L107.611356,106.062604 L101.420152,106.062604 L101.420152,109.183224 L107.611356,109.183224 L107.611356,110.528955 L101.420152,110.528955 L101.420152,114.758395 L107.611356,114.758395 L107.611356,116.104126 Z" id="Fill-183" fill="#444444"></path>
                <path d="M127.902202,104.716485 L124.842735,116.103738 L123.078122,116.103738 L120.604853,106.650609 L118.185787,116.103738 L116.461324,116.103738 L113.345647,104.716485 L114.951666,104.716485 L117.424935,114.183207 L119.862069,104.716485 L121.45002,104.716485 L123.909237,114.276418 L126.368454,104.716485 L127.902202,104.716485 Z" id="Fill-185" fill="#444444"></path>
                <path d="M138.050636,110.414189 C138.050636,108.934468 137.709357,107.794578 137.022784,106.990634 C136.338218,106.188633 135.402712,105.786662 134.216266,105.786662 C133.019781,105.786662 132.08026,106.188633 131.397702,106.990634 C130.715144,107.794578 130.373865,108.934468 130.373865,110.414189 C130.373865,111.907504 130.721167,113.051278 131.417777,113.84357 C132.112381,114.637804 133.045879,115.033949 134.216266,115.033949 C135.386652,115.033949 136.318143,114.637804 137.010739,113.84357 C137.705342,113.051278 138.050636,111.907504 138.050636,110.414189 M138.19317,106.023572 C138.672969,106.53429 139.040345,107.157637 139.297308,107.897498 C139.552264,108.637358 139.680746,109.476256 139.680746,110.414189 C139.680746,111.352123 139.550256,112.192962 139.289278,112.934765 C139.0283,113.676567 138.662931,114.294089 138.19317,114.789271 C137.709357,115.303872 137.135205,115.690309 136.472722,115.952464 C135.812247,116.210736 135.057418,116.340843 134.208236,116.340843 C133.381136,116.340843 132.628314,116.208794 131.949771,115.944697 C131.273236,115.678658 130.697076,115.294163 130.223301,114.789271 C129.749525,114.284379 129.384156,113.664916 129.1292,112.930881 C128.872237,112.194904 128.745763,111.357949 128.745763,110.414189 C128.745763,109.485965 128.872237,108.652894 129.125185,107.916917 C129.378133,107.178998 129.74551,106.549825 130.231331,106.023572 C130.695069,105.524506 131.271228,105.141954 131.957801,104.875914 C132.646382,104.611817 133.397196,104.477827 134.208236,104.477827 C135.051396,104.477827 135.81024,104.613759 136.480753,104.879798 C137.153273,105.147779 137.72341,105.52839 138.19317,106.023572" id="Fill-187" fill="#444444"></path>
                <path d="M147.44906,107.920412 C147.44906,107.594174 147.390841,107.304832 147.272398,107.052387 C147.153954,106.799941 146.955209,106.586333 146.682186,106.413504 C146.455335,106.26592 146.186327,106.163 145.875161,106.104743 C145.566002,106.046487 145.198625,106.017358 144.777045,106.017358 L142.934139,106.017358 L142.934139,110.314764 L144.516067,110.314764 C145.011926,110.314764 145.443543,110.272043 145.812928,110.188542 C146.182312,110.10504 146.495486,109.947747 146.752449,109.718604 C146.989337,109.503054 147.165999,109.258375 147.280428,108.978743 C147.392849,108.701053 147.44906,108.34957 147.44906,107.920412 L147.44906,107.920412 Z M151.110783,116.103543 L149.079169,116.103543 L145.140407,111.576994 L142.934139,111.576994 L142.934139,116.103543 L141.36827,116.103543 L141.36827,104.716291 L144.666632,104.716291 C145.377295,104.716291 145.971522,104.760954 146.445298,104.850281 C146.919073,104.939608 147.346676,105.098844 147.726098,105.327987 C148.153701,105.5882 148.486949,105.91638 148.725845,106.310584 C148.96474,106.70673 149.085192,107.205796 149.085192,107.813608 C149.085192,108.635028 148.872394,109.322458 148.444791,109.873955 C148.019196,110.429336 147.430992,110.844901 146.682186,111.124533 L151.110783,116.103543 Z" id="Fill-189" fill="#444444"></path>
                <path d="M159.283413,116.104126 L151.835499,116.104126 L151.835499,104.716873 L153.39936,104.716873 L153.39936,114.758395 L159.283413,114.758395 L159.283413,116.104126 Z" id="Fill-191" fill="#444444"></path>
                <path d="M168.36545,110.398848 C168.36545,109.50752 168.204848,108.754066 167.883645,108.14237 C167.562441,107.530674 167.080635,107.049085 166.44425,106.697603 C165.980512,106.441273 165.486661,106.264561 164.964705,106.165525 C164.442749,106.066488 163.818409,106.015999 163.091685,106.015999 L161.62017,106.015999 L161.62017,114.805 L163.091685,114.805 C163.846514,114.805 164.502974,114.750628 165.063074,114.643823 C165.62518,114.535078 166.141114,114.337005 166.608867,114.045721 C167.195064,113.684529 167.634712,113.208766 167.925803,112.616489 C168.218901,112.024212 168.36545,111.286293 168.36545,110.398848 M170.001582,110.422151 C170.001582,111.457179 169.768709,112.395113 169.302964,113.235952 C168.835211,114.076791 168.214886,114.729267 167.439982,115.193379 C166.901965,115.515733 166.303723,115.746818 165.64124,115.890518 C164.978758,116.032276 164.107492,116.104126 163.027444,116.104126 L160.054302,116.104126 L160.054302,104.716873 L162.997332,104.716873 C164.145635,104.716873 165.059059,104.796491 165.735594,104.957668 C166.414137,105.116903 166.986281,105.338279 167.456042,105.617911 C168.257044,106.103384 168.881384,106.748092 169.329062,107.553977 C169.778747,108.359862 170.001582,109.315273 170.001582,110.422151" id="Fill-193" fill="#444444"></path>
                <path d="M113.375358,43.3538749 C115.716131,43.3538749 117.462676,44.2432612 118.621018,45.5676313 C118.301821,42.5130358 116.09756,31.8423413 113.782885,31.1976333 C110.849893,30.199501 106.640116,29.7256794 104.158816,27.8847662 C103.982154,27.7701946 103.763334,27.869231 103.681025,28.0517689 L98.1502973,40.376955 C97.8832966,38.5865309 97.5520552,36.8232933 97.279032,35.5863084 C97.2308514,35.3882354 97.1505504,35.1649179 97.3031223,34.9998571 C97.4817919,34.803726 97.8592064,34.535745 98.0579512,34.3629166 C98.2125305,34.230868 98.2125305,34.1376572 98.2346133,33.9687126 C98.3088917,33.1977817 98.1302221,31.2228779 97.3994834,31.2694833 C96.2170519,31.5335805 95.1952223,31.5335805 94.0127907,31.2694833 C93.2820521,31.2228779 93.1033824,33.1977817 93.1776608,33.9687126 C93.1997436,34.1376572 93.1997436,34.230868 93.3543229,34.3629166 C93.5530678,34.535745 93.9304822,34.803726 94.1091519,34.9998571 C94.2637312,35.1649179 94.1814227,35.3882354 94.1332422,35.5863084 C93.8602189,36.8232933 93.5289775,38.5865309 93.2619768,40.376955 L87.7312487,28.0517689 C87.6509477,27.869231 87.4301201,27.7701946 87.253458,27.8847662 C84.7741661,29.7256794 80.5623812,30.199501 77.6293889,31.1976333 C75.1280142,31.8928305 72.7490985,44.3248207 72.7490985,46.1657339 C72.7490985,47.6862351 74.0379287,48.9290457 75.6058048,48.9290457 L76.6858527,48.9290457 C77.0211091,45.7385178 79.2996487,42.7732493 83.5716594,42.7732493 C87.8517001,42.7732493 90.1282321,45.7385178 90.4594736,48.9290457 L106.553792,48.9290457 C107.091808,45.967661 109.362318,43.3538749 113.375358,43.3538749" id="Fill-195" fill="#818286"></path>
                <path d="M86.1876636,12.3181745 C86.5409878,12.3181745 86.9063572,12.7279137 87.2135083,13.3978663 C87.3841478,13.726046 87.7434946,14.1027729 87.9121266,13.7687676 C87.9984501,13.5959392 88.0125028,12.3123489 88.0185254,12.0288327 C88.0386006,11.199645 88.3337066,11.1918774 89.0363399,11.3918922 C90.9454951,11.9356219 99.5236444,10.3782248 101.563289,9.49272221 C101.920628,9.33737088 102.253877,9.23833441 102.557013,9.58981679 C102.719622,9.77818028 102.828029,10.0461613 102.904314,10.3238518 C103.103059,11.0617706 103.139195,12.094857 103.195405,12.8638461 C103.207451,13.0483258 103.219496,13.2017352 103.227526,13.2988298 C103.285744,13.8775135 103.466421,13.9085838 103.643083,13.7823608 C103.865918,13.6211838 103.974325,13.3978663 104.096784,13.1648393 C104.377837,12.6347029 104.697033,12.3181745 105.008199,12.3181745 C105.740946,12.3181745 106.152488,14.0872378 105.92363,16.2718659 C105.694773,18.4545521 104.915853,20.2236153 104.1811,20.2236153 C103.992392,20.2177897 103.875956,20.3168261 103.83179,20.5226666 C103.17533,23.5869716 101.015235,26.2376537 98.5439727,27.6047454 C96.4420953,28.7679385 95.1131145,28.8281371 92.8325675,27.6960143 C90.2569144,26.4163077 88.0365931,23.6607635 87.3640726,20.5226666 C87.3199071,20.3168261 87.2034707,20.2177897 87.0147635,20.2236153 C86.2800097,20.2236153 85.5010905,18.4545521 85.2722328,16.2718659 C85.0433751,14.0872378 85.4549174,12.3181745 86.1876636,12.3181745 M83.3128895,16.5709172 C83.4775065,18.1380237 84.0737411,20.9226963 85.6616924,21.8470367 C86.4486417,24.959889 89.04437,27.8960291 92.1038363,29.5679978 C94.4887746,30.8710071 97.0443524,30.7564355 99.3048243,29.4359492 C102.251869,27.7134913 104.765289,24.8860971 105.534171,21.8470367 C107.122122,20.9226963 107.718357,18.1380237 107.882974,16.5709172 C108.027515,15.2018836 108.019485,12.8075312 107.033791,11.5103476 C107.152235,9.65001543 106.869174,7.47703871 106.140443,5.80701191 C105.253117,3.78161894 103.614978,2.11547593 100.792399,2.03197459 C100.312601,2.0280908 100.314609,1.96983406 99.9793523,1.73098139 C93.3605462,-1.68868977 82.337233,2.54463398 84.1600646,11.5103476 C83.1763779,12.8075312 83.1683478,15.2018836 83.3128895,16.5709172" id="Fill-197" fill="#818286"></path>
                <path d="M151.830882,46.1595199 C151.455475,44.7788349 150.277058,39.3881438 149.221101,36.4714226 C148.394001,34.187758 141.070554,30.6904112 138.902429,29.7990829 L139.723506,37.2287603 L134.674583,34.3256323 L129.659789,39.6949627 L124.644994,34.3256323 L119.59808,37.2287603 L120.419157,29.7990829 C118.247016,30.6904112 110.925577,34.1858161 110.098477,36.4753064 C109.413911,38.362825 108.683173,41.2737206 108.149171,43.4758257 C109.223196,42.7184879 110.596343,42.2466083 112.286678,42.2466083 C116.799591,42.2466083 119.096199,45.5439402 119.21665,48.9286573 L134.889388,48.9286573 C135.280856,45.798328 137.561403,42.932096 141.761142,42.932096 C145.97092,42.932096 148.247452,45.798328 148.636912,48.9286573 L148.968153,48.9286573 C150.542052,48.9286573 152.230379,47.6314737 151.830882,46.1595199" id="Fill-199" fill="#CFCDD0"></path>
                <path d="M122.782213,15.7058045 C123.655486,15.212564 125.26552,14.6843695 126.273297,14.3561898 C128.591987,13.6046777 131.420588,12.6842211 134.156843,10.7928187 C134.99398,10.2160768 135.650441,10.0063525 136.178419,11.4977253 C136.467503,12.3113779 136.638142,13.3716507 137.134001,13.9561601 C137.497363,14.3833763 137.754326,14.0318939 138.019319,13.546421 C138.300372,13.0318197 138.617561,12.7250008 138.92672,12.7250008 C139.659466,12.7250008 140.066993,14.4396911 139.840143,16.5544111 C139.611285,18.6691311 138.834373,20.3838214 138.103635,20.3838214 C137.965116,20.391589 137.91292,20.4051822 137.884815,20.5430565 C137.649934,21.7179009 137.294603,22.7820576 136.85094,23.5918264 C135.770892,25.568672 134.008286,27.1377205 131.454716,28.4795676 C130.248194,29.1631134 129.071785,29.1631134 127.867271,28.4795676 C125.311693,27.1377205 123.549087,25.568672 122.469039,23.5918264 C121.798526,22.3645509 121.326758,20.5508241 121.170171,18.6574797 C120.977449,17.2204799 121.611827,16.3660476 122.782213,15.7058045 L122.782213,15.7058045 Z M120.842945,28.3455771 C121.336796,28.8601783 122.13579,29.7476228 122.798273,30.0680349 C123.033154,30.1806646 123.569162,28.7592 123.709689,27.8756393 C123.709689,27.8756393 123.753855,27.9125352 123.761885,27.9203028 C124.735534,28.7300716 125.797514,29.438862 126.877562,30.0194876 C128.754596,31.0855861 130.565383,31.0855861 132.442418,30.0194876 C133.524473,29.438862 134.584446,28.7300716 135.558095,27.9203028 C135.566125,27.9125352 135.61029,27.8756393 135.61029,27.8756393 C135.752824,28.7592 136.288833,30.1806646 136.521706,30.0680349 C137.184189,29.7476228 137.983183,28.8601783 138.477034,28.3455771 L139.165615,28.6252095 C141.879787,29.7301458 144.477523,31.0817024 146.888559,32.7051238 C141.921945,25.0870829 143.391453,19.7041593 142.899609,12.3696347 C142.805256,10.9617632 142.578405,9.54612423 142.038381,8.17709064 C141.347793,6.42550439 140.528724,4.98073702 139.19372,3.83113718 C137.844664,2.66988599 135.032123,0.988207838 132.833885,1.79409286 C130.691857,0.749355168 128.897131,0.155136331 126.070537,0.848391641 C122.288362,1.77467395 118.857504,4.18067767 117.283605,8.17709064 C116.743581,9.54612423 116.514724,10.9617632 116.42037,12.3696347 C115.928527,19.7041593 117.118988,25.6288707 112.43142,32.7051238 C114.844464,31.0817024 117.4422,29.7301458 120.154364,28.6252095 L120.842945,28.3455771 Z" id="Fill-201" fill="#CFCDD0"></path>
                <path d="M151.829276,46.1595199 C151.453869,44.7788349 150.275452,39.3881438 149.219495,36.4714226 C148.392395,34.187758 141.066941,30.6904112 138.900823,29.7990829 L139.719892,37.2287603 L134.672977,34.3256323 L129.658183,39.6949627 L124.643388,34.3256323 L119.596473,37.2287603 L120.417551,29.7990829 C118.24541,30.6904112 110.923971,34.1858161 110.096871,36.4753064 C109.281816,38.722075 108.400513,42.4194366 107.866512,44.6370769 C108.998755,43.6408864 110.528488,42.9845271 112.503892,42.9845271 C113.862985,42.9845271 114.999244,43.308823 115.960848,43.8195405 C118.576651,44.5574593 120.130475,46.6119806 120.602243,48.9286573 L137.094051,48.9286573 C137.561804,45.8818294 139.842351,43.1437622 143.949745,43.1437622 C147.830288,43.1437622 150.064662,45.5866619 150.697032,48.4218236 C151.524132,47.9111061 152.076201,47.0702671 151.829276,46.1595199" id="Fill-203" fill="#CFCDD0"></path>
                <path d="M16.3206153,58.6965664 L16.3206153,47.451072 L6.97157685,58.6965664 L16.3206153,58.6965664 Z M28.6126836,64.3707737 L24.2342742,64.3707737 L24.2342742,71.6082038 L16.3206153,71.6082038 L16.3206153,64.3707737 L0.772343308,64.3707737 L0.772343308,58.488784 L15.8026741,40.4641459 L24.2342742,40.4641459 L24.2342742,58.6965664 L28.6126836,58.6965664 L28.6126836,64.3707737 Z" id="Fill-205" fill="#E30536"></path>
                <path d="M48.8330657,55.9742285 C48.8330657,52.2147264 48.4516362,49.5407416 47.6907847,47.9464486 C46.9279256,46.3521555 45.6631856,45.5540381 43.8945571,45.5540381 C42.1259287,45.5540381 40.8611887,46.3521555 40.0983296,47.9464486 C39.3374781,49.5407416 38.9560486,52.2302615 38.9560486,56.0150083 C38.9560486,59.7046024 39.3435006,62.3649939 40.1204124,63.9922991 C40.8973241,65.6215461 42.154034,66.4351987 43.8945571,66.4351987 C45.6330728,66.4351987 46.8917902,65.6215461 47.6687019,63.9922991 C48.4456136,62.3649939 48.8330657,59.6910091 48.8330657,55.9742285 M57.1783422,55.9742285 C57.1783422,58.5899566 56.9334243,60.9318779 56.445596,62.9980506 C55.9557602,65.0642232 55.1949087,66.7594946 54.1590264,68.0799809 C53.0950388,69.4315375 51.7299226,70.4510306 50.0616703,71.1384602 C48.393418,71.8278318 46.3377136,72.1715466 43.8945571,72.1715466 C41.4935587,72.1715466 39.4438768,71.823948 37.7495267,71.1287508 C36.0511616,70.4335536 34.6780153,69.404351 33.6300879,68.0392012 C32.5640927,66.6759933 31.7972186,64.9807219 31.3214355,62.9572708 C30.8476599,60.9318779 30.610772,58.6113174 30.610772,55.9955893 C30.610772,53.29636 30.8536824,50.9505549 31.3435182,48.960116 C31.8313465,46.971619 32.6082582,45.2879989 33.6722459,43.9092559 C34.7362335,42.5441061 36.1174099,41.5226711 37.8137675,40.8410671 C39.5081176,40.1594631 41.5357167,39.8176902 43.8945571,39.8176902 C46.3537738,39.8176902 48.4155008,40.1691726 50.0837531,40.8721374 C51.7520054,41.5751021 53.1171216,42.6217817 54.1811092,44.014118 C55.2310441,45.3773259 55.9918957,47.0570622 56.4676788,49.0552687 C56.9414544,51.0515333 57.1783422,53.3585005 57.1783422,55.9742285" id="Fill-207" fill="#E30536"></path>
                <path d="M67.7290844,63.9522961 L61.7306032,76.2502958 L58.0146767,76.2502958 L61.2969781,63.9522961 L67.7290844,63.9522961 Z" id="Fill-209" fill="#E30536"></path>
                <path d="M88.7277835,55.9742285 C88.7277835,52.2147264 88.346354,49.5407416 87.5855025,47.9464486 C86.8226434,46.3521555 85.5579034,45.5540381 83.7892749,45.5540381 C82.0206465,45.5540381 80.7559064,46.3521555 79.9930474,47.9464486 C79.2321959,49.5407416 78.8507663,52.2302615 78.8507663,56.0150083 C78.8507663,59.7046024 79.2382184,62.3649939 80.0151302,63.9922991 C80.7920419,65.6215461 82.0487518,66.4351987 83.7892749,66.4351987 C85.5277906,66.4351987 86.786508,65.6215461 87.5634197,63.9922991 C88.3403314,62.3649939 88.7277835,59.6910091 88.7277835,55.9742285 M97.07306,55.9742285 C97.07306,58.5899566 96.8281421,60.9318779 96.3403138,62.9980506 C95.850478,65.0642232 95.0896265,66.7594946 94.0537442,68.0799809 C92.9897566,69.4315375 91.6246404,70.4510306 89.9563881,71.1384602 C88.2881358,71.8278318 86.2324314,72.1715466 83.7892749,72.1715466 C81.3882765,72.1715466 79.3385946,71.823948 77.6442445,71.1287508 C75.9458794,70.4335536 74.5727331,69.404351 73.5248057,68.0392012 C72.4588105,66.6759933 71.6919364,64.9807219 71.2161533,62.9572708 C70.7423777,60.9318779 70.5054898,58.6113174 70.5054898,55.9955893 C70.5054898,53.29636 70.7484002,50.9505549 71.238236,48.960116 C71.7260643,46.971619 72.502976,45.2879989 73.5669637,43.9092559 C74.6309513,42.5441061 76.0121277,41.5226711 77.7084853,40.8410671 C79.4028354,40.1594631 81.4304345,39.8176902 83.7892749,39.8176902 C86.2484916,39.8176902 88.3102186,40.1691726 89.9784709,40.8721374 C91.6467232,41.5751021 93.0118393,42.6217817 94.075827,44.014118 C95.1257619,45.3773259 95.8866135,47.0570622 96.3623966,49.0552687 C96.8361722,51.0515333 97.07306,53.3585005 97.07306,55.9742285" id="Fill-211" fill="#E30536"></path>
                <path d="M117.962349,55.9742285 C117.962349,52.2147264 117.58092,49.5407416 116.820068,47.9464486 C116.057209,46.3521555 114.792469,45.5540381 113.023841,45.5540381 C111.255212,45.5540381 109.990472,46.3521555 109.227613,47.9464486 C108.466761,49.5407416 108.085332,52.2302615 108.085332,56.0150083 C108.085332,59.7046024 108.472784,62.3649939 109.249696,63.9922991 C110.026607,65.6215461 111.283317,66.4351987 113.023841,66.4351987 C114.762356,66.4351987 116.021074,65.6215461 116.797985,63.9922991 C117.574897,62.3649939 117.962349,59.6910091 117.962349,55.9742285 M126.307626,55.9742285 C126.307626,58.5899566 126.062708,60.9318779 125.574879,62.9980506 C125.085044,65.0642232 124.324192,66.7594946 123.28831,68.0799809 C122.224322,69.4315375 120.859206,70.4510306 119.190954,71.1384602 C117.522701,71.8278318 115.466997,72.1715466 113.023841,72.1715466 C110.622842,72.1715466 108.57316,71.823948 106.87881,71.1287508 C105.180445,70.4335536 103.807299,69.404351 102.759371,68.0392012 C101.693376,66.6759933 100.926502,64.9807219 100.450719,62.9572708 C99.9769432,60.9318779 99.7400554,58.6113174 99.7400554,55.9955893 C99.7400554,53.29636 99.9829658,50.9505549 100.472802,48.960116 C100.96063,46.971619 101.737542,45.2879989 102.801529,43.9092559 C103.865517,42.5441061 105.246693,41.5226711 106.943051,40.8410671 C108.637401,40.1594631 110.665,39.8176902 113.023841,39.8176902 C115.483057,39.8176902 117.544784,40.1691726 119.213036,40.8721374 C120.881289,41.5751021 122.246405,42.6217817 123.310393,44.014118 C124.360328,45.3773259 125.121179,47.0570622 125.596962,49.0552687 C126.070738,51.0515333 126.307626,53.3585005 126.307626,55.9742285" id="Fill-213" fill="#E30536"></path>
                <path d="M147.196915,55.9742285 C147.196915,52.2147264 146.815485,49.5407416 146.054634,47.9464486 C145.291775,46.3521555 144.027035,45.5540381 142.258406,45.5540381 C140.489778,45.5540381 139.225038,46.3521555 138.462179,47.9464486 C137.701327,49.5407416 137.319897,52.2302615 137.319897,56.0150083 C137.319897,59.7046024 137.70735,62.3649939 138.484261,63.9922991 C139.261173,65.6215461 140.517883,66.4351987 142.258406,66.4351987 C143.996922,66.4351987 145.255639,65.6215461 146.032551,63.9922991 C146.809463,62.3649939 147.196915,59.6910091 147.196915,55.9742285 M155.542191,55.9742285 C155.542191,58.5899566 155.297273,60.9318779 154.809445,62.9980506 C154.319609,65.0642232 153.558758,66.7594946 152.522875,68.0799809 C151.458888,69.4315375 150.093772,70.4510306 148.425519,71.1384602 C146.757267,71.8278318 144.701563,72.1715466 142.258406,72.1715466 C139.857408,72.1715466 137.807726,71.823948 136.113376,71.1287508 C134.415011,70.4335536 133.041864,69.404351 131.993937,68.0392012 C130.927942,66.6759933 130.161068,64.9807219 129.685284,62.9572708 C129.211509,60.9318779 128.974621,58.6113174 128.974621,55.9955893 C128.974621,53.29636 129.217531,50.9505549 129.707367,48.960116 C130.195195,46.971619 130.972107,45.2879989 132.036095,43.9092559 C133.100082,42.5441061 134.481259,41.5226711 136.177616,40.8410671 C137.871967,40.1594631 139.899566,39.8176902 142.258406,39.8176902 C144.717623,39.8176902 146.77935,40.1691726 148.447602,40.8721374 C150.115854,41.5751021 151.480971,42.6217817 152.544958,44.014118 C153.594893,45.3773259 154.355745,47.0570622 154.831528,49.0552687 C155.305303,51.0515333 155.542191,53.3585005 155.542191,55.9742285" id="Fill-215" fill="#E30536"></path>
                <path d="M175.445184,57.7502826 L169.175687,57.7502826 L169.175687,63.7584953 L165.951604,63.7584953 L165.951604,57.7502826 L159.682107,57.7502826 L159.682107,54.7015128 L165.951604,54.7015128 L165.951604,48.6933001 L169.175687,48.6933001 L169.175687,54.7015128 L175.445184,54.7015128 L175.445184,57.7502826 Z" id="Fill-217" fill="#E30536"></path>
            </g>
        </g>
    </g>
</svg>