<?xml version="1.0" encoding="UTF-8" standalone="no"?>
<svg width="129px" height="131px" viewBox="0 0 129 131" version="1.1" xmlns="http://www.w3.org/2000/svg" xmlns:xlink="http://www.w3.org/1999/xlink">
    <!-- Generator: Sketch 3.6.1 (26313) - http://www.bohemiancoding.com/sketch -->
    <title>Group 2</title>
    <desc>Created with Sketch.</desc>
    <defs>
        <path id="path-1" d="M3.9323792e-20,0.650930488 L3.9323792e-20,12.0213695 L4.47985181,12.0213695 L4.47985181,0.650930488 L0,0.650930488 L3.9323792e-20,0.650930488 Z"></path>
    </defs>
    <g id="Page-1" stroke="none" stroke-width="1" fill="none" fill-rule="evenodd">
        <g id="Careers" transform="translate(-193.000000, -801.000000)">
            <g id="Group-2" transform="translate(193.000000, 802.000000)">
                <path d="M9.20827262,92.4462744 C8.13662104,92.4462744 7.14814819,92.2872744 6.24285407,91.9712134 C5.33562557,91.6532134 4.55606674,91.1820305 3.9041776,90.5537866 C3.25228846,89.9274817 2.74934729,89.1441159 2.39148529,88.2075671 C2.0336233,87.2690793 1.85372511,86.1851646 1.85372511,84.9577622 C1.85372511,83.8117988 2.02395136,82.7744207 2.36633824,81.843689 C2.70872511,80.9129573 3.20392873,80.1140793 3.85581787,79.4470549 C4.48255995,78.8071768 5.25825,78.3127256 6.1848224,77.9637012 C7.10946041,77.6146768 8.12114593,77.4401646 9.21794457,77.4401646 C9.82340837,77.4401646 10.3708405,77.473128 10.8583066,77.5409939 C11.3457726,77.6088598 11.7945509,77.6980549 12.2085102,77.8085793 C12.639879,77.9307378 13.03256,78.0684085 13.3846188,78.2215915 C13.7347432,78.3728354 14.0442455,78.5124451 14.3092568,78.6423598 L14.3092568,82.1442378 L13.8836912,82.1442378 C13.7018586,81.9891159 13.4755351,81.8068476 13.2008518,81.5935549 C12.9261686,81.3822012 12.6147319,81.1727866 12.2665419,80.96725 C11.9106143,80.7617134 11.5276052,80.5872012 11.1155803,80.4456524 C10.701621,80.3041037 10.2586459,80.2342988 9.78858937,80.2342988 C9.2663043,80.2342988 8.76916629,80.3157378 8.29910973,80.4805549 C7.82711878,80.645372 7.39188122,80.9168354 6.99146267,81.2968841 C6.6123224,81.6652988 6.30475452,82.1539329 6.06682466,82.7589085 C5.83276357,83.3658232 5.71476584,84.1026524 5.71476584,84.9674573 C5.71476584,85.8710427 5.84243552,86.6253232 6.09777489,87.2322378 C6.35117986,87.8391524 6.67228846,88.3161524 7.06110068,88.6651768 C7.45378167,89.0200183 7.89288801,89.2740305 8.37648529,89.4252744 C8.86008258,89.5765183 9.3378767,89.6521402 9.80793326,89.6521402 C10.2586459,89.6521402 10.7054898,89.5842744 11.1484649,89.4504817 C11.5895057,89.31475 11.9976618,89.1324817 12.3729333,88.8997988 C12.6882387,88.7136524 12.9822658,88.5139329 13.2530803,88.3006402 C13.5238948,88.0892866 13.7463495,87.9050793 13.922379,87.7518963 L14.3092568,87.7518963 L14.3092568,91.2052988 C13.947526,91.3662378 13.6012704,91.5174817 13.2724242,91.6609695 C12.9435781,91.8025183 12.5992568,91.9246768 12.237526,92.0293841 C11.7655351,92.1651159 11.3244943,92.2678841 10.9105351,92.339628 C10.4985102,92.411372 9.93173416,92.4462744 9.20827262,92.4462744" id="Fill-9" fill="#444444"></path>
                <path d="M25.1536357,88.605261 C25.5153665,88.1651024 25.7823122,87.6454439 25.9564072,87.0482244 C26.1305023,86.4510049 26.2175498,85.747139 26.2175498,84.9385659 C26.2175498,84.071822 26.1188959,83.3349927 25.9177195,82.726139 C25.7184774,82.1192244 25.4573348,81.6267122 25.1342919,81.2524805 C24.8054457,80.8646756 24.4263054,80.5835171 23.996871,80.4070659 C23.5674367,80.2344927 23.1205928,80.1452976 22.6563394,80.1452976 C22.1843484,80.1452976 21.7413733,80.2306146 21.3254796,80.3993098 C20.909586,80.5660659 20.5265769,80.8452854 20.1783869,81.2330902 C19.8572783,81.5956878 19.592267,82.0940171 19.3910905,82.7319561 C19.1879796,83.3679561 19.085457,84.1067244 19.085457,84.948261 C19.085457,85.8091878 19.1841109,86.5402 19.3814186,87.1451756 C19.5767919,87.7501512 19.836,88.2426634 20.159043,88.6246512 C20.482086,89.006639 20.8592919,89.2877976 21.2906606,89.4681268 C21.7239638,89.6503951 22.1785452,89.7395902 22.6563394,89.7395902 C23.1341335,89.7395902 23.5887149,89.6484561 24.0220181,89.4642488 C24.4533869,89.2800415 24.8305928,88.9930659 25.1536357,88.605261 M30.0785905,84.948261 C30.0785905,87.2498829 29.4208982,89.0783829 28.1035792,90.433761 C26.7881946,91.789139 24.9698688,92.4658585 22.6466674,92.4658585 C20.3312036,92.4658585 18.5148122,91.789139 17.1974932,90.433761 C15.8821086,89.0783829 15.2244163,87.2498829 15.2244163,84.948261 C15.2244163,82.6272488 15.8821086,80.7909927 17.1974932,79.4433707 C18.5148122,78.0938098 20.3312036,77.4190293 22.6466674,77.4190293 C24.9563281,77.4190293 26.7727195,78.0938098 28.0958416,79.4433707 C29.4170294,80.7909927 30.0785905,82.6272488 30.0785905,84.948261" id="Fill-11" fill="#444444"></path>
                <path d="M44.9594593,86.9369244 C44.9594593,88.7208268 44.4178303,90.087839 43.3345724,91.0399 C42.2493801,91.990022 40.653509,92.467022 38.5430905,92.467022 C36.4346063,92.467022 34.8387353,91.990022 33.7574118,91.0399 C32.6780226,90.087839 32.1383281,88.7247049 32.1383281,86.9466195 L32.1383281,77.7207415 L35.8716991,77.7207415 L35.8716991,86.7333268 C35.8716991,87.7358024 36.0825475,88.4823268 36.5003756,88.9729 C36.920138,89.4654122 37.601043,89.7116683 38.5430905,89.7116683 C39.4735317,89.7116683 40.1525023,89.4751073 40.5800023,89.0019854 C41.0094367,88.5308024 41.2241538,87.7745829 41.2241538,86.7333268 L41.2241538,77.7207415 L44.9594593,77.7207415 L44.9594593,86.9369244 Z" id="Fill-13" fill="#444444"></path>
                <path d="M60.9427364,92.1651159 L57.3621821,92.1651159 L51.2456437,82.2508841 L51.2456437,92.1651159 L47.8391844,92.1651159 L47.8391844,77.7213232 L52.2805419,77.7213232 L57.5362771,85.9951402 L57.5362771,77.7213232 L60.9427364,77.7213232 L60.9427364,92.1651159 Z" id="Fill-15" fill="#444444"></path>
                <path d="M75.3183428,80.5148756 L70.8189536,80.5148756 L70.8189536,92.1645341 L67.1010577,92.1645341 L67.1010577,80.5148756 L62.6016686,80.5148756 L62.6016686,77.7207415 L75.3183428,77.7207415 L75.3183428,80.5148756 Z" id="Fill-17" fill="#444444"></path>
                <path d="M85.0603133,82.1442378 C85.0603133,81.7816402 84.9848722,81.4713963 84.8378586,81.2135061 C84.6889106,80.9536768 84.4335713,80.7500793 84.0737749,80.6027134 C83.8203699,80.4980061 83.5282771,80.4359573 83.1936278,80.412689 C82.8570441,80.3894207 82.4662975,80.3777866 82.021388,80.3777866 L80.6769876,80.3777866 L80.6769876,84.2694085 L81.8182771,84.2694085 C82.4121346,84.2694085 82.9092726,84.2403232 83.3077568,84.1821524 C83.7081753,84.1239817 84.044759,83.990189 84.3155735,83.7846524 C84.5728473,83.5829939 84.7624174,83.3619451 84.8804152,83.1195671 C85.0003473,82.877189 85.0603133,82.5514329 85.0603133,82.1442378 L85.0603133,82.1442378 Z M90.8576776,92.1651159 L86.3176663,92.1651159 L82.3985939,86.8696402 L80.6769876,86.8696402 L80.6769876,92.1651159 L76.9803699,92.1651159 L76.9803699,77.7213232 L83.2110373,77.7213232 C84.0641029,77.7213232 84.795302,77.7697988 85.4085034,77.86675 C86.0217048,77.9637012 86.5962183,78.1731159 87.1320441,78.4969329 C87.6736731,78.82075 88.1031075,79.2376402 88.4222817,79.7534207 C88.7414559,80.2672622 88.9020102,80.9129573 88.9020102,81.6885671 C88.9020102,82.7550305 88.6544084,83.6256524 88.1630735,84.2984939 C87.6678699,84.9713354 86.9637523,85.5297744 86.0468518,85.97575 L90.8576776,92.1651159 Z" id="Fill-19" fill="#444444"></path>
                <path d="M99.6786855,92.1651159 L91.2389457,92.1651159 L91.2389457,89.6036646 L93.6008348,89.6036646 L93.6008348,80.2827744 L91.2389457,80.2827744 L91.2389457,77.7213232 L99.6786855,77.7213232 L99.6786855,80.2827744 L97.3167964,80.2827744 L97.3167964,89.6036646 L99.6786855,89.6036646 L99.6786855,92.1651159 Z" id="Fill-21" fill="#444444"></path>
                <path d="M112.555334,92.1651159 L102.132845,92.1651159 L102.132845,77.7213232 L112.555334,77.7213232 L112.555334,80.5154573 L105.829463,80.5154573 L105.829463,83.0071037 L112.071736,83.0071037 L112.071736,85.8012378 L105.829463,85.8012378 L105.829463,89.3709817 L112.555334,89.3709817 L112.555334,92.1651159 Z" id="Fill-23" fill="#444444"></path>
                <path d="M126.632657,87.625278 C126.632657,89.048522 126.031062,90.2041805 124.827872,91.0941927 C123.624682,91.9822659 121.990123,92.4282415 119.92613,92.4282415 C118.732612,92.4282415 117.691911,92.3215951 116.804026,92.1121805 C115.918076,91.9027659 115.086288,91.6351805 114.312533,91.3113634 L114.312533,87.8482659 L114.718755,87.8482659 C115.486707,88.4629366 116.34751,88.9341195 117.29923,89.2656927 C118.250949,89.5953268 119.163981,89.7601439 120.042193,89.7601439 C120.266583,89.7601439 120.564479,89.7407537 120.932012,89.7019732 C121.299546,89.6631927 121.599377,89.5972659 121.833438,89.5080707 C122.115859,89.3917293 122.34992,89.2443634 122.533687,89.0717902 C122.717454,88.895339 122.810304,88.6374488 122.810304,88.2942415 C122.810304,87.9781805 122.676831,87.704778 122.407951,87.4740341 C122.141006,87.2452293 121.748325,87.068778 121.231843,86.9466195 C120.690214,86.8167049 120.117635,86.6964854 119.514105,86.5820829 C118.910576,86.4696195 118.345734,86.3261317 117.815712,86.1516195 C116.60285,85.7560585 115.73044,85.2208878 115.198483,84.5461073 C114.666526,83.8693878 114.39958,83.0297902 114.39958,82.0273146 C114.39958,80.6816317 115.001175,79.5860829 116.204365,78.7348512 C117.407555,77.8855585 118.955067,77.4589732 120.844965,77.4589732 C121.79475,77.4589732 122.730994,77.5520463 123.655632,77.7343146 C124.582205,77.920461 125.383042,78.1512049 126.062012,78.4284854 L126.062012,81.7558512 L125.665463,81.7558512 C125.083212,81.2904854 124.373291,80.9007415 123.529897,80.5885585 C122.688438,80.2724976 121.829569,80.1173756 120.951356,80.1173756 C120.641854,80.1173756 120.334286,80.1387049 120.026718,80.1794244 C119.721085,80.2220829 119.425123,80.3015829 119.140768,80.4179244 C118.891232,80.5148756 118.67458,80.6622415 118.492748,80.860022 C118.31285,81.0558634 118.221933,81.2807902 118.221933,81.5328634 C118.221933,81.9148512 118.368947,82.2076439 118.657171,82.4112415 C118.949264,82.614839 119.496696,82.8009854 120.303336,82.9696805 C120.831424,83.0782659 121.340169,83.1849122 121.827635,83.2896195 C122.315101,83.3923878 122.83932,83.5358756 123.400293,83.7162049 C124.502895,84.0788024 125.317273,84.5713146 125.843426,85.1956805 C126.36958,85.8200463 126.632657,86.6286195 126.632657,87.625278" id="Fill-25" fill="#444444"></path>
                <g id="Group-29" transform="translate(0.000000, 98.911951)">
                    <mask id="mask-2" fill="white">
                        <use xlink:href="#path-1"></use>
                    </mask>
                    <g id="Clip-28"></g>
                    <path d="M4.47985181,12.0213695 L-0.000193438914,12.0213695 L-0.000193438914,10.8598939 L1.48541742,10.8598939 L1.48541742,1.81046707 L-0.000193438914,1.81046707 L-0.000193438914,0.650930488 L4.47985181,0.650930488 L4.47985181,1.81046707 L2.99424095,1.81046707 L2.99424095,10.8598939 L4.47985181,10.8598939 L4.47985181,12.0213695 Z" id="Fill-27" fill="#444444" mask="url(#mask-2)"></path>
                </g>
                <path d="M14.9377398,110.933321 L13.0710543,110.933321 L7.6915181,100.761199 L7.6915181,110.933321 L6.28328281,110.933321 L6.28328281,99.5628817 L8.62195928,99.5628817 L13.5275701,108.84887 L13.5275701,99.5628817 L14.9377398,99.5628817 L14.9377398,110.933321 Z" id="Fill-30" fill="#444444"></path>
                <path d="M35.113612,99.5623 L32.1656029,110.932739 L30.4652749,110.932739 L28.0821075,101.493568 L25.7511686,110.932739 L24.0895283,110.932739 L21.0873563,99.5623 L22.6348676,99.5623 L25.0180351,109.015044 L27.3663835,99.5623 L28.8964853,99.5623 L31.266112,109.108117 L33.6357387,99.5623 L35.113612,99.5623 Z" id="Fill-32" fill="#444444"></path>
                <path d="M45.2523258,110.933321 L43.7435023,110.933321 L43.7435023,105.366382 L38.0815452,105.366382 L38.0815452,110.933321 L36.5746561,110.933321 L36.5746561,99.5628817 L38.0815452,99.5628817 L38.0815452,104.022638 L43.7435023,104.022638 L43.7435023,99.5628817 L45.2523258,99.5628817 L45.2523258,110.933321 Z" id="Fill-34" fill="#444444"></path>
                <path d="M51.5342545,110.933321 L47.0542093,110.933321 L47.0542093,109.771845 L48.5398201,109.771845 L48.5398201,100.722418 L47.0542093,100.722418 L47.0542093,99.5628817 L51.5342545,99.5628817 L51.5342545,100.722418 L50.0486437,100.722418 L50.0486437,109.771845 L51.5342545,109.771845 L51.5342545,110.933321 Z" id="Fill-36" fill="#444444"></path>
                <path d="M62.0987274,110.108654 C61.818241,110.230812 61.5667704,110.345215 61.3404468,110.451861 C61.1141233,110.558507 60.8181618,110.670971 60.4525622,110.789251 C60.14306,110.884263 59.8064762,110.967641 59.4428111,111.037446 C59.0810803,111.105312 58.6806618,111.140215 58.2434898,111.140215 C57.4213744,111.140215 56.6727658,111.023873 55.9995984,110.793129 C55.3283654,110.560446 54.7422455,110.197849 54.2431731,109.703398 C53.7576414,109.22058 53.3765667,108.60591 53.1018835,107.859385 C52.8272002,107.1148 52.6898586,106.246117 52.6898586,105.259154 C52.6898586,104.322605 52.8213971,103.484946 53.0864084,102.746178 C53.3514197,102.00741 53.73056,101.384983 54.2296324,100.87502 C54.7112952,100.380568 55.2935464,100.004398 55.9763857,99.7445683 C56.6592251,99.484739 57.41944,99.3567634 58.2512274,99.3567634 C58.86056,99.3567634 59.4698925,99.4304463 60.0772907,99.5778122 C60.6827545,99.725178 61.3578563,99.9850073 62.0987274,100.355361 L62.0987274,102.150898 L61.9845984,102.150898 C61.3597907,101.625422 60.7407862,101.245373 60.1256505,101.004934 C59.5105147,100.766434 58.8528224,100.646215 58.1525735,100.646215 C57.57806,100.646215 57.0615781,100.739288 56.6031278,100.925434 C56.1427432,101.11158 55.7326527,101.400495 55.3709219,101.792178 C55.0207975,102.174166 54.7480486,102.656983 54.5526753,103.23869 C54.357302,103.822337 54.2586482,104.495178 54.2586482,105.259154 C54.2586482,106.058032 54.366974,106.746385 54.5836256,107.322276 C54.8002771,107.896227 55.0768948,108.365471 55.4173473,108.726129 C55.7732749,109.1023 56.1872342,109.38152 56.6630939,109.561849 C57.1389536,109.744117 57.6399604,109.833312 58.1680486,109.833312 C58.8934446,109.833312 59.5743495,109.709215 60.2088292,109.45908 C60.8452432,109.210885 61.4391007,108.836654 61.992336,108.336385 L62.0987274,108.336385 L62.0987274,110.108654 Z" id="Fill-38" fill="#444444"></path>
                <path d="M72.1457511,110.933321 L70.6369276,110.933321 L70.6369276,105.366382 L64.9749706,105.366382 L64.9749706,110.933321 L63.4680814,110.933321 L63.4680814,99.5628817 L64.9749706,99.5628817 L64.9749706,104.022638 L70.6369276,104.022638 L70.6369276,99.5628817 L72.1457511,99.5628817 L72.1457511,110.933321 Z" id="Fill-40" fill="#444444"></path>
                <path d="M89.2511674,110.933321 L87.7423439,110.933321 L87.7423439,101.13543 L84.5873552,107.801796 L83.6897986,107.801796 L80.5580226,101.13543 L80.5580226,110.933321 L79.1478529,110.933321 L79.1478529,99.5628817 L81.206043,99.5628817 L84.2294932,105.891857 L87.156224,99.5628817 L89.2511674,99.5628817 L89.2511674,110.933321 Z" id="Fill-42" fill="#444444"></path>
                <path d="M99.8533609,105.251591 C99.8533609,103.774055 99.5245147,102.635848 98.8629536,101.833091 C98.2033269,101.032274 97.3019016,100.630896 96.1586776,100.630896 C95.0057817,100.630896 94.1004876,101.032274 93.4427952,101.833091 C92.7851029,102.635848 92.4562568,103.774055 92.4562568,105.251591 C92.4562568,106.742701 92.7909061,107.884787 93.4621391,108.675909 C94.1314378,109.46897 95.0309287,109.86453 96.1586776,109.86453 C97.2864265,109.86453 98.183983,109.46897 98.8513473,108.675909 C99.5206459,107.884787 99.8533609,106.742701 99.8533609,105.251591 M99.9907025,100.867457 C100.453021,101.377421 100.807015,101.999848 101.054617,102.738616 C101.300284,103.477384 101.424085,104.315043 101.424085,105.251591 C101.424085,106.18814 101.29835,107.027738 101.046879,107.768445 C100.795408,108.509152 100.44335,109.125762 99.9907025,109.620213 C99.5245147,110.134055 98.9712794,110.519921 98.332931,110.781689 C97.696517,111.039579 96.9691867,111.169494 96.15094,111.169494 C95.3539717,111.169494 94.6285758,111.03764 93.9747523,110.773933 C93.3228631,110.508287 92.7676934,110.12436 92.3111776,109.620213 C91.8546618,109.116067 91.5026029,108.497518 91.2569355,107.764567 C91.0093337,107.029677 90.8874672,106.193957 90.8874672,105.251591 C90.8874672,104.324738 91.0093337,103.492896 91.2530667,102.758006 C91.4967998,102.021177 91.850793,101.392933 92.3189152,100.867457 C92.765759,100.369128 93.3209287,99.9871402 93.9824898,99.7214939 C94.6459853,99.4577866 95.3694468,99.3239939 96.15094,99.3239939 C96.9633835,99.3239939 97.6945826,99.4597256 98.3406686,99.725372 C98.9886889,99.9929573 99.5380554,100.373006 99.9907025,100.867457" id="Fill-44" fill="#444444"></path>
                <path d="M110.22807,110.933321 L103.051486,110.933321 L103.051486,99.5628817 L104.558376,99.5628817 L104.558376,109.589577 L110.22807,109.589577 L110.22807,110.933321 Z" id="Fill-46" fill="#444444"></path>
                <path d="M118.445355,110.933321 L110.970876,110.933321 L110.970876,99.5628817 L118.445355,99.5628817 L118.445355,100.906626 L112.479699,100.906626 L112.479699,104.022638 L118.445355,104.022638 L118.445355,105.366382 L112.479699,105.366382 L112.479699,109.589577 L118.445355,109.589577 L118.445355,110.933321 Z" id="Fill-48" fill="#444444"></path>
                <path d="M128.727601,99.5623 L124.812397,105.181593 L128.719863,110.932739 L126.975044,110.932739 L123.881956,106.251934 L120.713426,110.932739 L119.067261,110.932739 L123.021153,105.251398 L119.158178,99.5623 L120.895259,99.5623 L123.951594,104.182995 L127.075632,99.5623 L128.727601,99.5623 Z" id="Fill-50" fill="#444444"></path>
                <path d="M10.3774174,129.702495 L8.86859389,129.702495 L8.86859389,124.135556 L3.20663688,124.135556 L3.20663688,129.702495 L1.69974774,129.702495 L1.69974774,118.332056 L3.20663688,118.332056 L3.20663688,122.791812 L8.86859389,122.791812 L8.86859389,118.332056 L10.3774174,118.332056 L10.3774174,129.702495 Z" id="Fill-52" fill="#444444"></path>
                <path d="M18.4192534,125.234595 L16.4307014,119.652144 L14.4344118,125.234595 L18.4192534,125.234595 Z M21.6032579,129.702107 L19.9957805,129.702107 L18.8835068,126.533741 L13.9778959,126.533741 L12.8656222,129.702107 L11.333586,129.702107 L15.4635068,118.331668 L17.4752715,118.331668 L21.6032579,129.702107 Z" id="Fill-54" fill="#444444"></path>
                <path d="M30.8047602,126.456956 C30.8047602,126.900993 30.7022376,127.337273 30.4952579,127.769676 C30.2902127,128.202078 30.0019887,128.570493 29.6325204,128.871041 C29.2243643,129.196798 28.7504389,129.45081 28.2107443,129.633078 C27.6691154,129.817285 27.0172262,129.90842 26.2550769,129.90842 C25.4387647,129.90842 24.7036968,129.832798 24.0498733,129.679615 C23.3979842,129.526432 22.7344887,129.299566 22.0593869,129.000956 L22.0593869,127.106529 L22.1657783,127.106529 C22.7383575,127.585468 23.4018529,127.953883 24.1543303,128.213712 C24.9048733,128.473541 25.6109253,128.601517 26.270552,128.601517 C27.2067964,128.601517 27.9341267,128.427005 28.4544774,128.076041 C28.9748281,127.725078 29.2340362,127.255834 29.2340362,126.670249 C29.2340362,126.166102 29.1121697,125.795749 28.8665023,125.55531 C28.6189005,125.31681 28.2455633,125.130663 27.7426222,124.99881 C27.3615475,124.896041 26.9475882,124.812663 26.5026787,124.746737 C26.0597036,124.678871 25.5877127,124.597432 25.0905747,124.494663 C24.0846923,124.279432 23.3399525,123.914895 22.8544208,123.397176 C22.3688891,122.881395 22.1270905,122.208554 22.1270905,121.378651 C22.1270905,120.42659 22.527509,119.645163 23.3302805,119.038249 C24.133052,118.429395 25.1524751,118.124968 26.384681,118.124968 C27.1835837,118.124968 27.9147828,118.20059 28.5802127,118.353773 C29.2456425,118.506956 29.8356312,118.695041 30.3482443,118.919968 L30.3482443,120.70581 L30.2399186,120.70581 C29.8085498,120.339334 29.2417738,120.034907 28.5376561,119.792529 C27.8335385,119.55209 27.1139457,119.429932 26.3769434,119.429932 C25.5703032,119.429932 24.9203484,119.598627 24.430948,119.934078 C23.9415475,120.271468 23.6958801,120.703871 23.6958801,121.233224 C23.6958801,121.706346 23.8177466,122.078639 24.0614796,122.348163 C24.3052127,122.617688 24.7346471,122.823224 25.3497828,122.966712 C25.6747602,123.038456 26.1370792,123.123773 26.7348054,123.226541 C27.3364005,123.32931 27.8432104,123.432078 28.2610385,123.540663 C29.1024977,123.763651 29.7389118,124.10298 30.1644774,124.554773 C30.5919774,125.008505 30.8047602,125.642566 30.8047602,126.456956" id="Fill-56" fill="#444444"></path>
                <path d="M42.9438258,125.234595 L40.9552738,119.652144 L38.9589842,125.234595 L42.9438258,125.234595 Z M46.1278303,129.702107 L44.5203529,129.702107 L43.4080792,126.533741 L38.5024683,126.533741 L37.3901946,129.702107 L35.8581584,129.702107 L39.9880792,118.331668 L41.9998439,118.331668 L46.1278303,129.702107 Z" id="Fill-58" fill="#444444"></path>
                <path d="M57.6575633,121.806206 C57.6575633,121.414523 57.5879253,121.073255 57.4525181,120.782401 C57.3151765,120.491548 57.1062624,120.254987 56.8277104,120.072718 C56.5839774,119.913718 56.3054253,119.801255 55.9939887,119.733389 C55.6806176,119.663584 55.2860023,119.628682 54.8082081,119.628682 L53.3148597,119.628682 L53.3148597,124.173755 L54.5876878,124.173755 C55.1970204,124.173755 55.692224,124.117523 56.0732986,124.008938 C56.4543733,123.900352 56.7638756,123.72584 57.0018054,123.485401 C57.2416697,123.241084 57.4099615,122.985133 57.5086154,122.715609 C57.6092036,122.446084 57.6575633,122.141657 57.6575633,121.806206 M59.2282873,121.767426 C59.2282873,122.271572 59.1393054,122.738877 58.963276,123.16934 C58.789181,123.599804 58.5435136,123.972096 58.2282081,124.288157 C57.8374615,124.67984 57.3751425,124.974572 56.8431855,125.170413 C56.3092941,125.366255 55.6361267,125.463206 54.8236833,125.463206 L53.3148597,125.463206 L53.3148597,129.701913 L51.8060362,129.701913 L51.8060362,118.331474 L54.8836493,118.331474 C55.5645543,118.331474 56.1410023,118.387706 56.6129932,118.502109 C57.0869186,118.616511 57.5047466,118.79684 57.8703462,119.041157 C58.3017149,119.332011 58.6363643,119.69267 58.8723597,120.125072 C59.1083552,120.557474 59.2282873,121.106218 59.2282873,121.767426" id="Fill-60" fill="#444444"></path>
                <path d="M66.3095057,121.530671 C66.3095057,121.204915 66.2534084,120.916 66.1392794,120.663927 C66.0251505,120.411854 65.8336459,120.198561 65.570569,120.025988 C65.351983,119.878622 65.0927749,119.775854 64.7929446,119.717683 C64.4950486,119.659512 64.1410554,119.630427 63.7348337,119.630427 L61.9590645,119.630427 L61.9590645,123.921488 L63.4833631,123.921488 C63.9611572,123.921488 64.3770509,123.878829 64.7329785,123.795451 C65.0889061,123.712073 65.3906708,123.555012 65.6382726,123.326207 C65.8665305,123.110976 66.0367568,122.866659 66.147017,122.587439 C66.2553428,122.310159 66.3095057,121.959195 66.3095057,121.530671 L66.3095057,121.530671 Z M69.8378314,129.70172 L67.8802296,129.70172 L64.0849581,125.181854 L61.9590645,125.181854 L61.9590645,129.70172 L60.450241,129.70172 L60.450241,118.33128 L63.6284423,118.33128 C64.3132161,118.33128 64.8857952,118.375878 65.3423111,118.465073 C65.7988269,118.554268 66.2108518,118.713268 66.5764514,118.942073 C66.9884762,119.201902 67.3095848,119.529598 67.5397771,119.92322 C67.7699695,120.31878 67.8860328,120.81711 67.8860328,121.424024 C67.8860328,122.244232 67.6809876,122.930646 67.2689627,123.481329 C66.8588722,124.03589 66.2920962,124.450841 65.570569,124.730061 L69.8378314,129.70172 Z" id="Fill-62" fill="#444444"></path>
                <path d="M78.0092715,129.702495 L70.5347919,129.702495 L70.5347919,118.332056 L78.0092715,118.332056 L78.0092715,119.6758 L72.0436154,119.6758 L72.0436154,122.791812 L78.0092715,122.791812 L78.0092715,124.135556 L72.0436154,124.135556 L72.0436154,128.358751 L78.0092715,128.358751 L78.0092715,129.702495 Z" id="Fill-64" fill="#444444"></path>
                <path d="M87.8806527,126.456956 C87.8806527,126.900993 87.7781301,127.337273 87.5711505,127.769676 C87.3661052,128.202078 87.0778812,128.570493 86.7084129,128.871041 C86.3002568,129.196798 85.8263314,129.45081 85.2866369,129.633078 C84.7450079,129.817285 84.0931188,129.90842 83.3309695,129.90842 C82.5146572,129.90842 81.7795894,129.832798 81.1257658,129.679615 C80.4738767,129.526432 79.8103812,129.299566 79.1352794,129.000956 L79.1352794,127.106529 L79.2416708,127.106529 C79.81425,127.585468 80.4777455,127.953883 81.2302229,128.213712 C81.9807658,128.473541 82.6868179,128.601517 83.3464446,128.601517 C84.2826889,128.601517 85.0100192,128.427005 85.5303699,128.076041 C86.0507206,127.725078 86.3099287,127.255834 86.3099287,126.670249 C86.3099287,126.166102 86.1880622,125.795749 85.9423948,125.55531 C85.694793,125.31681 85.3214559,125.130663 84.8185147,124.99881 C84.43744,124.896041 84.0234808,124.812663 83.5785713,124.746737 C83.1355962,124.678871 82.6636052,124.597432 82.1664672,124.494663 C81.1605848,124.279432 80.415845,123.914895 79.9303133,123.397176 C79.4447817,122.881395 79.202983,122.208554 79.202983,121.378651 C79.202983,120.42659 79.6034016,119.645163 80.4061731,119.038249 C81.2089446,118.429395 82.2283676,118.124968 83.4605735,118.124968 C84.2594762,118.124968 84.9906753,118.20059 85.6561052,118.353773 C86.3215351,118.506956 86.9115238,118.695041 87.4241369,118.919968 L87.4241369,120.70581 L87.3158111,120.70581 C86.8844423,120.339334 86.3176663,120.034907 85.6135486,119.792529 C84.909431,119.55209 84.1898382,119.429932 83.452836,119.429932 C82.6461957,119.429932 81.996241,119.598627 81.5068405,119.934078 C81.01744,120.271468 80.7717726,120.703871 80.7717726,121.233224 C80.7717726,121.706346 80.8936391,122.078639 81.1373722,122.348163 C81.3811052,122.617688 81.8105396,122.823224 82.4256753,122.966712 C82.7506527,123.038456 83.2129717,123.123773 83.810698,123.226541 C84.412293,123.32931 84.9191029,123.432078 85.336931,123.540663 C86.1783903,123.763651 86.8148043,124.10298 87.2403699,124.554773 C87.6678699,125.008505 87.8806527,125.642566 87.8806527,126.456956" id="Fill-66" fill="#444444"></path>
                <path d="M97.0123235,129.702495 L89.5378439,129.702495 L89.5378439,118.332056 L97.0123235,118.332056 L97.0123235,119.6758 L91.0466674,119.6758 L91.0466674,122.791812 L97.0123235,122.791812 L97.0123235,124.135556 L91.0466674,124.135556 L91.0466674,128.358751 L97.0123235,128.358751 L97.0123235,129.702495 Z" id="Fill-68" fill="#444444"></path>
                <path d="M107.294376,129.702495 L105.42769,129.702495 L100.048154,119.530373 L100.048154,129.702495 L98.6399186,129.702495 L98.6399186,118.332056 L100.978595,118.332056 L105.884206,127.618044 L105.884206,118.332056 L107.294376,118.332056 L107.294376,129.702495 Z" id="Fill-70" fill="#444444"></path>
                <path d="M118.3084,128.877828 C118.027914,128.999987 117.776443,129.114389 117.55012,129.221035 C117.323796,129.327682 117.027835,129.440145 116.662235,129.558426 C116.352733,129.653438 116.016149,129.736816 115.652484,129.806621 C115.290753,129.874487 114.890335,129.909389 114.453163,129.909389 C113.631048,129.909389 112.882439,129.793048 112.209271,129.562304 C111.538038,129.329621 110.951919,128.967023 110.452846,128.472572 C109.967314,127.989755 109.58624,127.375084 109.311557,126.62856 C109.036873,125.883974 108.899532,125.015291 108.899532,124.028328 C108.899532,123.091779 109.03107,122.254121 109.296081,121.515352 C109.561093,120.776584 109.940233,120.154157 110.439305,119.644194 C110.920968,119.149743 111.503219,118.773572 112.186059,118.513743 C112.868898,118.253913 113.629113,118.125938 114.4609,118.125938 C115.070233,118.125938 115.679566,118.199621 116.286964,118.346987 C116.892428,118.494352 117.567529,118.754182 118.3084,119.124535 L118.3084,120.920072 L118.194271,120.920072 C117.569464,120.394596 116.950459,120.014548 116.335324,119.774109 C115.720188,119.535609 115.062495,119.415389 114.362247,119.415389 C113.787733,119.415389 113.271251,119.508462 112.812801,119.694609 C112.352416,119.880755 111.942326,120.16967 111.580595,120.561352 C111.230471,120.94334 110.957722,121.426157 110.762348,122.007865 C110.566975,122.591511 110.468321,123.264352 110.468321,124.028328 C110.468321,124.827206 110.576647,125.51556 110.793299,126.09145 C111.00995,126.665401 111.286568,127.134645 111.62702,127.495304 C111.982948,127.871474 112.396907,128.150694 112.872767,128.331023 C113.348627,128.513291 113.849633,128.602487 114.377722,128.602487 C115.103118,128.602487 115.784023,128.478389 116.418502,128.228255 C117.054916,127.98006 117.648774,127.605828 118.202009,127.10556 L118.3084,127.10556 L118.3084,128.877828 Z" id="Fill-72" fill="#444444"></path>
                <path d="M127.151074,129.702495 L119.676594,129.702495 L119.676594,118.332056 L127.151074,118.332056 L127.151074,119.6758 L121.185417,119.6758 L121.185417,122.791812 L127.151074,122.791812 L127.151074,124.135556 L121.185417,124.135556 L121.185417,128.358751 L127.151074,128.358751 L127.151074,129.702495 Z" id="Fill-74" fill="#444444"></path>
                <path d="M82.2537081,20.1784476 C72.1581312,20.1784476 62.5519548,17.8438622 55.8995905,13.771911 C55.4720905,13.5120817 55.3366833,12.9517037 55.5958914,12.5212402 C55.8531652,12.0927159 56.4083348,11.9550451 56.8339005,12.2148744 C63.2135158,16.1181305 72.4792398,18.3577037 82.2537081,18.3577037 C92.0262421,18.3577037 101.291966,16.1200695 107.673516,12.2168134 C108.099081,11.9550451 108.654251,12.0927159 108.911525,12.5212402 C109.170733,12.9517037 109.033391,13.5120817 108.607826,13.771911 C101.953527,17.8438622 92.3473507,20.1784476 82.2537081,20.1784476" id="Fill-301" fill="#CFCDD0"></path>
                <path d="M82.2537081,20.1784476 C72.1581312,20.1784476 62.5519548,17.8438622 55.8995905,13.771911 C55.4720905,13.5120817 55.3366833,12.9517037 55.5958914,12.5212402 C55.8531652,12.0927159 56.4083348,11.9550451 56.8339005,12.2148744 C63.2135158,16.1181305 72.4792398,18.3577037 82.2537081,18.3577037 C92.0262421,18.3577037 101.291966,16.1200695 107.673516,12.2168134 C108.099081,11.9550451 108.654251,12.0927159 108.911525,12.5212402 C109.170733,12.9517037 109.033391,13.5120817 108.607826,13.771911 C101.953527,17.8438622 92.3473507,20.1784476 82.2537081,20.1784476 L82.2537081,20.1784476 Z" id="Stroke-303" stroke="#CFCDD0" stroke-width="0.5"></path>
                <path d="M107.065924,58.5804378 C106.918911,58.5804378 106.769963,58.5435963 106.630687,58.4660354 C100.229793,54.9001695 91.5714672,52.9339988 82.2535147,52.9339988 C72.9355622,52.9339988 64.2772364,54.9001695 57.8763428,58.4660354 C57.4391708,58.7103524 56.8917387,58.5513524 56.6518744,58.1092549 C56.4100758,57.6710354 56.5667613,57.1164744 57.0039333,56.8740963 C63.6679038,53.1589256 72.6357319,51.1151939 82.2535147,51.1151939 C91.8712975,51.1151939 100.839126,53.1589256 107.503096,56.8740963 C107.938334,57.1164744 108.096954,57.6710354 107.855155,58.1092549 C107.690732,58.4117427 107.383164,58.5804378 107.065924,58.5804378" id="Fill-305" fill="#CFCDD0"></path>
                <path d="M107.065924,58.5804378 C106.918911,58.5804378 106.769963,58.5435963 106.630687,58.4660354 C100.229793,54.9001695 91.5714672,52.9339988 82.2535147,52.9339988 C72.9355622,52.9339988 64.2772364,54.9001695 57.8763428,58.4660354 C57.4391708,58.7103524 56.8917387,58.5513524 56.6518744,58.1092549 C56.4100758,57.6710354 56.5667613,57.1164744 57.0039333,56.8740963 C63.6679038,53.1589256 72.6357319,51.1151939 82.2535147,51.1151939 C91.8712975,51.1151939 100.839126,53.1589256 107.503096,56.8740963 C107.938334,57.1164744 108.096954,57.6710354 107.855155,58.1092549 C107.690732,58.4117427 107.383164,58.5804378 107.065924,58.5804378 L107.065924,58.5804378 Z" id="Stroke-307" stroke="#CFCDD0" stroke-width="0.5"></path>
                <path d="M82.2537081,71.1305793 C77.0850204,71.1305793 72.2741946,67.3611159 68.7033122,60.5182988 C65.2291493,53.859689 63.3179729,45.0274329 63.3179729,35.6444939 C63.3179729,26.2654329 65.2291493,17.4331768 68.7033122,10.7745671 C72.2741946,3.93175 77.0850204,0.162286585 82.2537081,0.162286585 C87.4204615,0.162286585 92.2332217,3.93175 95.8041041,10.7745671 C99.278267,17.4331768 101.189443,26.267372 101.189443,35.6444939 C101.189443,45.0274329 99.278267,53.859689 95.8041041,60.5182988 C92.2332217,67.3611159 87.4204615,71.1305793 82.2537081,71.1305793 M82.2537081,1.98109146 C72.8061516,1.98109146 65.1208235,17.0822134 65.1208235,35.6444939 C65.1208235,54.2087134 72.8061516,69.3098354 82.2537081,69.3098354 C91.7012647,69.3098354 99.3865928,54.2087134 99.3865928,35.6444939 C99.3865928,17.0822134 91.7012647,1.98109146 82.2537081,1.98109146" id="Fill-309" fill="#CFCDD0"></path>
                <path d="M82.2537081,71.1305793 C77.0850204,71.1305793 72.2741946,67.3611159 68.7033122,60.5182988 C65.2291493,53.859689 63.3179729,45.0274329 63.3179729,35.6444939 C63.3179729,26.2654329 65.2291493,17.4331768 68.7033122,10.7745671 C72.2741946,3.93175 77.0850204,0.162286585 82.2537081,0.162286585 C87.4204615,0.162286585 92.2332217,3.93175 95.8041041,10.7745671 C99.278267,17.4331768 101.189443,26.267372 101.189443,35.6444939 C101.189443,45.0274329 99.278267,53.859689 95.8041041,60.5182988 C92.2332217,67.3611159 87.4204615,71.1305793 82.2537081,71.1305793 L82.2537081,71.1305793 Z M82.2537081,1.98109146 C72.8061516,1.98109146 65.1208235,17.0822134 65.1208235,35.6444939 C65.1208235,54.2087134 72.8061516,69.3098354 82.2537081,69.3098354 C91.7012647,69.3098354 99.3865928,54.2087134 99.3865928,35.6444939 C99.3865928,17.0822134 91.7012647,1.98109146 82.2537081,1.98109146 L82.2537081,1.98109146 Z" id="Stroke-311" stroke="#CFCDD0" stroke-width="0.5"></path>
                <path d="M82.2537081,71.1305793 C81.7565701,71.1305793 81.3522828,70.7233841 81.3522828,70.2211768 L81.3522828,1.07168902 C81.3522828,0.569481707 81.7565701,0.162286585 82.2537081,0.162286585 C82.7508462,0.162286585 83.1551335,0.569481707 83.1551335,1.07168902 L83.1551335,70.2211768 C83.1551335,70.7233841 82.7508462,71.1305793 82.2537081,71.1305793" id="Fill-313" fill="#CFCDD0"></path>
                <path d="M82.2537081,71.1305793 C81.7565701,71.1305793 81.3522828,70.7233841 81.3522828,70.2211768 L81.3522828,1.07168902 C81.3522828,0.569481707 81.7565701,0.162286585 82.2537081,0.162286585 C82.7508462,0.162286585 83.1551335,0.569481707 83.1551335,1.07168902 L83.1551335,70.2211768 C83.1551335,70.7233841 82.7508462,71.1305793 82.2537081,71.1305793 L82.2537081,71.1305793 Z" id="Stroke-315" stroke="#CFCDD0" stroke-width="0.5"></path>
                <path d="M116.519671,36.5558354 L47.986198,36.5558354 C47.48906,36.5558354 47.086707,36.1486402 47.086707,35.6464329 C47.086707,35.1442256 47.48906,34.7350915 47.986198,34.7350915 L116.519671,34.7350915 C117.016809,34.7350915 117.421096,35.1442256 117.421096,35.6464329 C117.421096,36.1486402 117.016809,36.5558354 116.519671,36.5558354" id="Fill-317" fill="#CFCDD0"></path>
                <path d="M116.519671,36.5558354 L47.986198,36.5558354 C47.48906,36.5558354 47.086707,36.1486402 47.086707,35.6464329 C47.086707,35.1442256 47.48906,34.7350915 47.986198,34.7350915 L116.519671,34.7350915 C117.016809,34.7350915 117.421096,35.1442256 117.421096,35.6464329 C117.421096,36.1486402 117.016809,36.5558354 116.519671,36.5558354 L116.519671,36.5558354 Z" id="Stroke-319" stroke="#CFCDD0" stroke-width="0.5"></path>
                <g id="Group-324" transform="translate(46.425339, 0.021707)">
                    <path d="M35.8283688,71.108872 C16.4361176,71.108872 0.661174208,55.1914207 0.661174208,35.6227866 C0.661174208,16.0580305 16.4361176,0.140579268 35.8283688,0.140579268 C55.2206199,0.140579268 70.9955633,16.0580305 70.9955633,35.6227866 C70.9955633,55.1914207 55.2206199,71.108872 35.8283688,71.108872 M35.8283688,1.95938415 C17.4303937,1.95938415 2.46402489,17.0605061 2.46402489,35.6227866 C2.46402489,54.1870061 17.4303937,69.288128 35.8283688,69.288128 C54.2263439,69.288128 69.1927127,54.1870061 69.1927127,35.6227866 C69.1927127,17.0605061 54.2263439,1.95938415 35.8283688,1.95938415" id="Fill-321" fill="#818286"></path>
                    <path d="M35.8283688,71.108872 C16.4361176,71.108872 0.661174208,55.1914207 0.661174208,35.6227866 C0.661174208,16.0580305 16.4361176,0.140579268 35.8283688,0.140579268 C55.2206199,0.140579268 70.9955633,16.0580305 70.9955633,35.6227866 C70.9955633,55.1914207 55.2206199,71.108872 35.8283688,71.108872 M35.8283688,1.95938415 C17.4303937,1.95938415 2.46402489,17.0605061 2.46402489,35.6227866 C2.46402489,54.1870061 17.4303937,69.288128 35.8283688,69.288128 C54.2263439,69.288128 69.1927127,54.1870061 69.1927127,35.6227866 C69.1927127,17.0605061 54.2263439,1.95938415 35.8283688,1.95938415" id="Stroke-323" stroke="#818286" stroke-width="0.5"></path>
                </g>
                <path d="M26.2877681,50.9059732 L26.2877681,39.6770829 L17.2793179,50.9059732 L26.2877681,50.9059732 Z M38.1320328,56.5718024 L33.9131301,56.5718024 L33.9131301,63.7985463 L26.2877681,63.7985463 L26.2877681,56.5718024 L11.3059242,56.5718024 L11.3059242,50.6984976 L25.7886957,32.7004732 L33.9131301,32.7004732 L33.9131301,50.9059732 L38.1320328,50.9059732 L38.1320328,56.5718024 Z" id="Fill-325" fill="#E30536"></path>
                <path d="M61.3164604,63.7159439 L40.6610532,63.7159439 L40.6610532,58.3002488 L47.1857477,58.3002488 L47.1857477,41.9077366 L40.6610532,41.9077366 L40.6610532,36.8468829 C41.659198,36.8468829 42.6147862,36.7867732 43.5297523,36.6684927 C44.4427839,36.5521512 45.2049333,36.3466146 45.8142658,36.053822 C46.5338586,35.7086756 47.0754876,35.2568829 47.4352839,34.7003829 C47.7950803,34.145822 48.0039943,33.4516512 48.0581572,32.6178707 L54.936845,32.6178707 L54.936845,58.3002488 L61.3164604,58.3002488 L61.3164604,63.7159439 Z" id="Fill-327" fill="#E30536"></path>
            </g>
        </g>
    </g>
</svg>