<?xml version="1.0" encoding="UTF-8" standalone="no"?>
<svg width="210px" height="150px" viewBox="0 0 210 150" version="1.1" xmlns="http://www.w3.org/2000/svg" xmlns:xlink="http://www.w3.org/1999/xlink">
    <!-- Generator: Sketch 3.7.2 (28276) - http://www.bohemiancoding.com/sketch -->
    <title>Page 1</title>
    <desc>Created with Sketch.</desc>
    <defs>
        <polygon id="path-1" points="40.221 0.165 0.009 0.165 0.009 27.0244 40.221 27.0244 40.221 0.165"></polygon>
        <polygon id="path-3" points="0.4556 12 10.2956 12 10.2956 0.9653 0.4556 0.9653 0.4556 12"></polygon>
        <polygon id="path-5" points="0.6724 12 10.5124 12 10.5124 0.9653 0.6724 0.9653"></polygon>
        <polygon id="path-7" points="9.384 11.0777 9.384 0.7427 0.8583 0.7427 0.8583 11.0777 9.384 11.0777"></polygon>
    </defs>
    <g id="Page-1" stroke="none" stroke-width="1" fill="none" fill-rule="evenodd">
        <g transform="translate(0.000000, -1.000000)">
            <polygon id="Fill-1" fill="#E83649" points="69.2208 1.5025 69.2208 6.4445 82.4818 6.4445 70.3488 27.3215 77.7698 27.3215 89.4568 6.6355 89.4568 1.5025"></polygon>
            <g id="Group-142" transform="translate(0.000000, 0.835000)">
                <path d="M112.9468,17.7476 C112.9468,19.0886 112.6948,20.3336 112.1918,21.4846 C111.6888,22.6346 110.9588,23.6206 109.9988,24.4406 C108.9348,25.3196 107.7128,25.9696 106.3318,26.3916 C104.9498,26.8136 103.3748,27.0246 101.6058,27.0246 C99.5368,27.0126 97.7888,26.8486 96.3608,26.5306 C94.9328,26.2126 93.7688,25.8566 92.8668,25.4636 L92.8668,19.7586 L93.5948,19.7586 C94.6468,20.3836 95.7798,20.9036 96.9938,21.3196 C98.2078,21.7356 99.4158,21.9436 100.6178,21.9436 C101.3458,21.9436 102.1348,21.8596 102.9848,21.6926 C103.8348,21.5246 104.5078,21.2216 105.0058,20.7816 C105.3978,20.4236 105.6948,20.0596 105.8978,19.6896 C106.0998,19.3196 106.2008,18.7476 106.2008,17.9726 C106.2008,17.3726 106.0658,16.8546 105.7948,16.4206 C105.5218,15.9876 105.1728,15.6376 104.7448,15.3716 C104.1208,14.9906 103.3688,14.7386 102.4908,14.6176 C101.6118,14.4966 100.8138,14.4356 100.0968,14.4356 C99.0568,14.4356 98.0598,14.5246 97.1068,14.7046 C96.1528,14.8836 95.3178,15.0596 94.6008,15.2326 L93.8378,15.2326 L93.8378,0.6676 L112.2008,0.6676 L112.2008,5.6096 L100.0968,5.6096 L100.0968,9.8226 C100.4558,9.7996 100.9098,9.7796 101.4588,9.7626 C102.0078,9.7456 102.4908,9.7366 102.9068,9.7366 C104.3288,9.7366 105.5968,9.8726 106.7128,10.1436 C107.8278,10.4156 108.7908,10.7936 109.5998,11.2796 C110.6518,11.9156 111.4728,12.7566 112.0618,13.8026 C112.6518,14.8496 112.9468,16.1636 112.9468,17.7476" id="Fill-2" fill="#E83649"></path>
                <g id="Group-6" transform="translate(116.000000, 0.000000)">
                    <mask id="mask-2" fill="white">
                        <use xlink:href="#path-1"></use>
                    </mask>
                    <g id="Clip-5"></g>
                    <path d="M35.106,18.5884 C35.106,16.7354 34.892,15.4844 34.464,14.8364 C34.037,14.1874 33.337,13.8634 32.366,13.8634 C31.395,13.8634 30.696,14.1874 30.268,14.8364 C29.84,15.4844 29.627,16.7414 29.627,18.6064 C29.627,20.4704 29.84,21.7274 30.268,22.3754 C30.696,23.0244 31.395,23.3484 32.366,23.3484 C33.337,23.3484 34.037,23.0244 34.464,22.3754 C34.892,21.7274 35.106,20.4644 35.106,18.5884 L35.106,18.5884 Z M40.221,18.5454 C40.221,21.4234 39.556,23.5564 38.227,24.9434 C36.898,26.3304 34.961,27.0244 32.418,27.0244 C29.794,27.0244 27.82,26.3224 26.497,24.9174 C25.172,23.5134 24.511,21.4124 24.511,18.6144 C24.511,15.7594 25.187,13.6404 26.54,12.2594 C27.892,10.8784 29.852,10.1874 32.418,10.1874 C35.007,10.1874 36.956,10.8784 38.261,12.2594 C39.568,13.6404 40.221,15.7354 40.221,18.5454 L40.221,18.5454 Z M29.245,0.6674 L15.714,26.4864 L11.055,26.4864 L24.585,0.6674 L29.245,0.6674 Z M10.604,8.5664 C10.604,6.7134 10.39,5.4624 9.962,4.8134 C9.535,4.1654 8.835,3.8404 7.865,3.8404 C6.893,3.8404 6.194,4.1654 5.766,4.8134 C5.338,5.4624 5.125,6.7184 5.125,8.5834 C5.125,10.4474 5.338,11.7044 5.766,12.3534 C6.194,13.0014 6.893,13.3254 7.865,13.3254 C8.835,13.3254 9.535,13.0014 9.962,12.3534 C10.39,11.7044 10.604,10.4424 10.604,8.5664 L10.604,8.5664 Z M15.719,8.5224 C15.719,11.4014 15.054,13.5334 13.725,14.9214 C12.396,16.3084 10.46,17.0024 7.917,17.0024 C5.293,17.0024 3.319,16.2994 1.995,14.8954 C0.671,13.4904 0.009,11.3894 0.009,8.5914 C0.009,5.7364 0.686,3.6184 2.039,2.2364 C3.391,0.8554 5.35,0.1644 7.917,0.1644 C10.506,0.1644 12.454,0.8554 13.76,2.2364 C15.066,3.6184 15.719,5.7134 15.719,8.5224 L15.719,8.5224 Z" id="Fill-4" fill="#E83649" mask="url(#mask-2)"></path>
                </g>
                <polygon id="Fill-7" fill="#565657" points="62.1807 104.2158 59.4277 114.8098 57.8407 114.8098 55.6147 106.0158 53.4367 114.8098 51.8857 114.8098 49.0827 104.2158 50.5267 104.2158 52.7537 113.0238 54.9457 104.2158 56.3757 104.2158 58.5877 113.1098 60.8007 104.2158"></polygon>
                <polygon id="Fill-9" fill="#565657" points="70.9463 114.8096 63.9673 114.8096 63.9673 104.2156 70.9463 104.2156 70.9463 105.4676 65.3753 105.4676 65.3753 108.3716 70.9463 108.3716 70.9463 109.6226 65.3753 109.6226 65.3753 113.5576 70.9463 113.5576"></polygon>
                <path d="M78.3599,107.1973 C78.3599,106.8933 78.3069,106.6243 78.1999,106.3893 C78.0929,106.1543 77.9169,105.9573 77.6699,105.7953 C77.4659,105.6583 77.2239,105.5613 76.9439,105.5073 C76.6639,105.4533 76.3349,105.4263 75.9549,105.4263 L74.2979,105.4263 L74.2979,109.4243 L75.7199,109.4243 C76.1659,109.4243 76.5549,109.3853 76.8869,109.3063 C77.2189,109.2283 77.5019,109.0823 77.7339,108.8693 C77.9469,108.6703 78.1049,108.4403 78.2069,108.1823 C78.3089,107.9243 78.3599,107.5953 78.3599,107.1973 L78.3599,107.1973 Z M81.6539,114.8093 L79.8259,114.8093 L76.2819,110.5973 L74.2979,110.5973 L74.2979,114.8093 L72.8889,114.8093 L72.8889,104.2163 L75.8559,104.2163 C76.4959,104.2163 77.0289,104.2583 77.4569,104.3413 C77.8829,104.4243 78.2679,104.5713 78.6089,104.7853 C78.9929,105.0273 79.2929,105.3323 79.5089,105.6993 C79.7249,106.0663 79.8329,106.5333 79.8329,107.0973 C79.8329,107.8613 79.6409,108.5003 79.2559,109.0143 C78.8719,109.5293 78.3429,109.9173 77.6699,110.1773 L81.6539,114.8093 Z" id="Fill-11" fill="#565657"></path>
                <polygon id="Fill-13" fill="#565657" points="89.7085 114.8096 82.7295 114.8096 82.7295 104.2156 89.7085 104.2156 89.7085 105.4676 84.1375 105.4676 84.1375 108.3716 89.7085 108.3716 89.7085 109.6226 84.1375 109.6226 84.1375 113.5576 89.7085 113.5576"></polygon>
                <path d="M104.2515,109.5166 C104.2515,108.1406 103.9425,107.0786 103.3255,106.3316 C102.7095,105.5846 101.8675,105.2116 100.8005,105.2116 C99.7245,105.2116 98.8785,105.5846 98.2645,106.3316 C97.6495,107.0786 97.3435,108.1406 97.3435,109.5166 C97.3435,110.9066 97.6555,111.9696 98.2825,112.7066 C98.9075,113.4446 99.7475,113.8136 100.8005,113.8136 C101.8535,113.8136 102.6915,113.4446 103.3155,112.7066 C103.9395,111.9696 104.2515,110.9066 104.2515,109.5166 M104.3795,105.4326 C104.8115,105.9076 105.1425,106.4886 105.3715,107.1756 C105.6015,107.8636 105.7165,108.6436 105.7165,109.5166 C105.7165,110.3886 105.5995,111.1706 105.3645,111.8606 C105.1305,112.5506 104.8015,113.1256 104.3795,113.5856 C103.9425,114.0656 103.4275,114.4256 102.8315,114.6666 C102.2355,114.9096 101.5575,115.0306 100.7935,115.0306 C100.0485,115.0306 99.3715,114.9066 98.7625,114.6606 C98.1525,114.4136 97.6345,114.0556 97.2075,113.5856 C96.7805,113.1166 96.4525,112.5396 96.2225,111.8576 C95.9915,111.1736 95.8775,110.3936 95.8775,109.5166 C95.8775,108.6536 95.9915,107.8786 96.2185,107.1936 C96.4465,106.5076 96.7785,105.9206 97.2145,105.4326 C97.6325,104.9676 98.1495,104.6126 98.7695,104.3656 C99.3885,104.1196 100.0635,103.9956 100.7935,103.9956 C101.5525,103.9956 102.2335,104.1206 102.8395,104.3696 C103.4435,104.6186 103.9565,104.9726 104.3795,105.4326" id="Fill-15" fill="#565657"></path>
                <polygon id="Fill-17" fill="#565657" points="114.4253 105.4678 109.0683 105.4678 109.0683 108.4558 113.6713 108.4558 113.6713 109.7078 109.0683 109.7078 109.0683 114.8098 107.6593 114.8098 107.6593 104.2158 114.4253 104.2158"></polygon>
                <polygon id="Fill-19" fill="#565657" points="122.5083 105.4678 117.1513 105.4678 117.1513 108.4558 121.7533 108.4558 121.7533 109.7078 117.1513 109.7078 117.1513 114.8098 115.7413 114.8098 115.7413 104.2158 122.5083 104.2158"></polygon>
                <polygon id="Fill-21" fill="#565657" points="130.8042 114.8096 123.8252 114.8096 123.8252 104.2156 130.8042 104.2156 130.8042 105.4676 125.2342 105.4676 125.2342 108.3716 130.8042 108.3716 130.8042 109.6226 125.2342 109.6226 125.2342 113.5576 130.8042 113.5576"></polygon>
                <path d="M138.2183,107.1973 C138.2183,106.8933 138.1643,106.6243 138.0583,106.3893 C137.9503,106.1543 137.7743,105.9573 137.5283,105.7953 C137.3233,105.6583 137.0813,105.5613 136.8023,105.5073 C136.5223,105.4533 136.1933,105.4263 135.8133,105.4263 L134.1563,105.4263 L134.1563,109.4243 L135.5783,109.4243 C136.0243,109.4243 136.4123,109.3853 136.7443,109.3063 C137.0763,109.2283 137.3593,109.0823 137.5913,108.8693 C137.8053,108.6703 137.9623,108.4403 138.0653,108.1823 C138.1663,107.9243 138.2183,107.5953 138.2183,107.1973 L138.2183,107.1973 Z M141.5123,114.8093 L139.6833,114.8093 L136.1403,110.5973 L134.1563,110.5973 L134.1563,114.8093 L132.7463,114.8093 L132.7463,104.2163 L135.7133,104.2163 C136.3543,104.2163 136.8873,104.2583 137.3143,104.3413 C137.7403,104.4243 138.1253,104.5713 138.4673,104.7853 C138.8513,105.0273 139.1513,105.3323 139.3663,105.6993 C139.5823,106.0663 139.6913,106.5333 139.6913,107.0973 C139.6913,107.8613 139.4983,108.5003 139.1143,109.0143 C138.7303,109.5293 138.2003,109.9173 137.5283,110.1773 L141.5123,114.8093 Z" id="Fill-23" fill="#565657"></path>
                <polygon id="Fill-25" fill="#565657" points="149.5659 114.8096 142.5869 114.8096 142.5869 104.2156 149.5659 104.2156 149.5659 105.4676 143.9959 105.4676 143.9959 108.3716 149.5659 108.3716 149.5659 109.6226 143.9959 109.6226 143.9959 113.5576 149.5659 113.5576"></polygon>
                <path d="M158.9858,109.502 C158.9858,108.672 158.8408,107.973 158.5518,107.403 C158.2618,106.834 157.8308,106.386 157.2568,106.059 C156.8398,105.821 156.3958,105.656 155.9258,105.564 C155.4568,105.472 154.8948,105.426 154.2408,105.426 L152.9178,105.426 L152.9178,113.6 L154.2408,113.6 C154.9188,113.6 155.5098,113.55 156.0148,113.45 C156.5208,113.351 156.9838,113.166 157.4068,112.896 C157.9328,112.559 158.3278,112.115 158.5908,111.565 C158.8538,111.015 158.9858,110.327 158.9858,109.502 M160.4588,109.523 C160.4588,110.486 160.2488,111.359 159.8288,112.142 C159.4098,112.924 158.8508,113.531 158.1538,113.963 C157.6698,114.262 157.1308,114.478 156.5348,114.61 C155.9398,114.743 155.1558,114.81 154.1828,114.81 L151.5078,114.81 L151.5078,104.216 L154.1548,104.216 C155.1888,104.216 156.0108,104.291 156.6208,104.44 C157.2298,104.589 157.7458,104.795 158.1678,105.056 C158.8878,105.506 159.4508,106.106 159.8538,106.856 C160.2568,107.605 160.4588,108.494 160.4588,109.523" id="Fill-27" fill="#565657"></path>
                <polygon id="Fill-29" fill="#565657" points="35.5391 122.9531 30.1821 122.9531 30.1821 125.9411 34.7851 125.9411 34.7851 127.1931 30.1821 127.1931 30.1821 132.2951 28.7731 132.2951 28.7731 121.7011 35.5391 121.7011"></polygon>
                <path d="M44.8311,128.04 C44.8311,128.809 44.7471,129.478 44.5791,130.05 C44.4101,130.622 44.1341,131.098 43.7491,131.477 C43.3841,131.837 42.9571,132.101 42.4691,132.267 C41.9801,132.433 41.4111,132.516 40.7621,132.516 C40.0971,132.516 39.5191,132.428 39.0251,132.252 C38.5321,132.077 38.1171,131.818 37.7801,131.477 C37.3961,131.088 37.1201,130.618 36.9521,130.068 C36.7831,129.518 36.6991,128.842 36.6991,128.04 L36.6991,121.701 L38.1081,121.701 L38.1081,128.111 C38.1081,128.686 38.1471,129.139 38.2251,129.471 C38.3031,129.803 38.4351,130.103 38.6201,130.374 C38.8291,130.683 39.1121,130.915 39.4701,131.071 C39.8281,131.228 40.2591,131.306 40.7621,131.306 C41.2691,131.306 41.7011,131.228 42.0561,131.075 C42.4121,130.921 42.6971,130.686 42.9101,130.374 C43.0951,130.103 43.2271,129.794 43.3051,129.445 C43.3831,129.097 43.4221,128.664 43.4221,128.147 L43.4221,121.701 L44.8311,121.701 L44.8311,128.04 Z" id="Fill-31" fill="#565657"></path>
                <polygon id="Fill-33" fill="#565657" points="53.9312 132.2949 47.2292 132.2949 47.2292 121.7009 48.6382 121.7009 48.6382 131.0429 53.9312 131.0429"></polygon>
                <polygon id="Fill-35" fill="#565657" points="61.7505 132.2949 55.0485 132.2949 55.0485 121.7009 56.4575 121.7009 56.4575 131.0429 61.7505 131.0429"></polygon>
                <polygon id="Fill-37" fill="#565657" points="75.2544 122.9531 71.4694 122.9531 71.4694 132.2951 70.0614 132.2951 70.0614 122.9531 66.2754 122.9531 66.2754 121.7011 75.2544 121.7011"></polygon>
                <polygon id="Fill-39" fill="#565657" points="80.1216 132.2949 75.9376 132.2949 75.9376 131.2139 77.3256 131.2139 77.3256 122.7819 75.9376 122.7819 75.9376 121.7009 80.1216 121.7009 80.1216 122.7819 78.7346 122.7819 78.7346 131.2139 80.1216 131.2139"></polygon>
                <polygon id="Fill-41" fill="#565657" points="91.6616 132.2949 90.2536 132.2949 90.2536 123.1669 87.3076 129.3779 86.4686 129.3779 83.5436 123.1669 83.5436 132.2949 82.2276 132.2949 82.2276 121.7009 84.1486 121.7009 86.9736 127.5999 89.7046 121.7009 91.6616 121.7009"></polygon>
                <polygon id="Fill-43" fill="#565657" points="101.1948 132.2949 94.2158 132.2949 94.2158 121.7009 101.1948 121.7009 101.1948 122.9529 95.6248 122.9529 95.6248 125.8569 101.1948 125.8569 101.1948 127.1079 95.6248 127.1079 95.6248 131.0429 101.1948 131.0429"></polygon>
                <path d="M115.7388,127.002 C115.7388,125.626 115.4298,124.564 114.8138,123.817 C114.1968,123.07 113.3548,122.697 112.2878,122.697 C111.2118,122.697 110.3658,123.07 109.7518,123.817 C109.1368,124.564 108.8308,125.626 108.8308,127.002 C108.8308,128.392 109.1428,129.455 109.7688,130.192 C110.3948,130.93 111.2348,131.299 112.2878,131.299 C113.3418,131.299 114.1788,130.93 114.8028,130.192 C115.4268,129.455 115.7388,128.392 115.7388,127.002 M115.8668,122.918 C116.2988,123.393 116.6298,123.974 116.8588,124.661 C117.0898,125.349 117.2048,126.129 117.2048,127.002 C117.2048,127.874 117.0868,128.656 116.8518,129.346 C116.6178,130.036 116.2888,130.611 115.8668,131.071 C115.4298,131.551 114.9148,131.911 114.3188,132.152 C113.7238,132.395 113.0448,132.516 112.2808,132.516 C111.5358,132.516 110.8588,132.392 110.2498,132.146 C109.6398,131.899 109.1218,131.541 108.6948,131.071 C108.2678,130.602 107.9398,130.025 107.7098,129.343 C107.4798,128.659 107.3648,127.879 107.3648,127.002 C107.3648,126.139 107.4778,125.364 107.7068,124.679 C107.9338,123.993 108.2658,123.406 108.7018,122.918 C109.1198,122.453 109.6378,122.098 110.2568,121.851 C110.8758,121.605 111.5508,121.481 112.2808,121.481 C113.0398,121.481 113.7208,121.606 114.3268,121.855 C114.9308,122.104 115.4448,122.458 115.8668,122.918" id="Fill-45" fill="#565657"></path>
                <path d="M124.6187,124.6826 C124.6187,124.3786 124.5647,124.1096 124.4587,123.8746 C124.3507,123.6396 124.1747,123.4426 123.9287,123.2806 C123.7237,123.1436 123.4817,123.0466 123.2027,122.9926 C122.9227,122.9386 122.5937,122.9116 122.2137,122.9116 L120.5567,122.9116 L120.5567,126.9096 L121.9787,126.9096 C122.4247,126.9096 122.8127,126.8706 123.1447,126.7916 C123.4767,126.7136 123.7597,126.5676 123.9917,126.3546 C124.2057,126.1556 124.3627,125.9256 124.4657,125.6676 C124.5667,125.4096 124.6187,125.0806 124.6187,124.6826 L124.6187,124.6826 Z M127.9127,132.2946 L126.0837,132.2946 L122.5407,128.0826 L120.5567,128.0826 L120.5567,132.2946 L119.1467,132.2946 L119.1467,121.7016 L122.1137,121.7016 C122.7547,121.7016 123.2877,121.7436 123.7147,121.8266 C124.1407,121.9096 124.5257,122.0566 124.8677,122.2706 C125.2517,122.5126 125.5517,122.8176 125.7667,123.1846 C125.9827,123.5516 126.0917,124.0186 126.0917,124.5826 C126.0917,125.3466 125.8987,125.9856 125.5147,126.4996 C125.1307,127.0146 124.6007,127.4026 123.9287,127.6626 L127.9127,132.2946 Z" id="Fill-47" fill="#565657"></path>
                <path d="M139.2896,124.6826 C139.2896,124.3786 139.2356,124.1096 139.1296,123.8746 C139.0216,123.6396 138.8456,123.4426 138.5996,123.2806 C138.3946,123.1436 138.1526,123.0466 137.8736,122.9926 C137.5936,122.9386 137.2646,122.9116 136.8846,122.9116 L135.2276,122.9116 L135.2276,126.9096 L136.6496,126.9096 C137.0956,126.9096 137.4836,126.8706 137.8156,126.7916 C138.1476,126.7136 138.4306,126.5676 138.6626,126.3546 C138.8766,126.1556 139.0336,125.9256 139.1366,125.6676 C139.2376,125.4096 139.2896,125.0806 139.2896,124.6826 L139.2896,124.6826 Z M142.5836,132.2946 L140.7546,132.2946 L137.2116,128.0826 L135.2276,128.0826 L135.2276,132.2946 L133.8176,132.2946 L133.8176,121.7016 L136.7846,121.7016 C137.4256,121.7016 137.9586,121.7436 138.3856,121.8266 C138.8116,121.9096 139.1966,122.0566 139.5386,122.2706 C139.9226,122.5126 140.2226,122.8176 140.4376,123.1846 C140.6536,123.5516 140.7626,124.0186 140.7626,124.5826 C140.7626,125.3466 140.5696,125.9856 140.1856,126.4996 C139.8016,127.0146 139.2716,127.4026 138.5996,127.6626 L142.5836,132.2946 Z" id="Fill-49" fill="#565657"></path>
                <polygon id="Fill-51" fill="#565657" points="150.6372 132.2949 143.6582 132.2949 143.6582 121.7009 150.6372 121.7009 150.6372 122.9529 145.0672 122.9529 145.0672 125.8569 150.6372 125.8569 150.6372 127.1079 145.0672 127.1079 145.0672 131.0429 150.6372 131.0429"></polygon>
                <path d="M158.0435,124.9385 C158.0435,124.5735 157.9805,124.2545 157.8525,123.9855 C157.7235,123.7145 157.5285,123.4945 157.2685,123.3235 C157.0405,123.1765 156.7805,123.0705 156.4885,123.0065 C156.1975,122.9425 155.8285,122.9115 155.3835,122.9115 L153.9885,122.9115 L153.9885,127.1435 L155.1765,127.1435 C155.7455,127.1435 156.2085,127.0925 156.5645,126.9915 C156.9195,126.8885 157.2085,126.7265 157.4325,126.5035 C157.6545,126.2765 157.8135,126.0365 157.9045,125.7855 C157.9975,125.5335 158.0435,125.2505 158.0435,124.9385 M159.5095,124.9025 C159.5095,125.3725 159.4275,125.8075 159.2645,126.2085 C159.1005,126.6095 158.8715,126.9575 158.5775,127.2515 C158.2125,127.6165 157.7805,127.8895 157.2825,128.0725 C156.7845,128.2545 156.1555,128.3465 155.3975,128.3465 L153.9885,128.3465 L153.9885,132.2945 L152.5795,132.2945 L152.5795,121.7015 L155.4535,121.7015 C156.0895,121.7015 156.6275,121.7545 157.0685,121.8615 C157.5105,121.9675 157.9015,122.1345 158.2425,122.3635 C158.6465,122.6325 158.9575,122.9695 159.1785,123.3735 C159.3985,123.7765 159.5095,124.2865 159.5095,124.9025" id="Fill-53" fill="#565657"></path>
                <polygon id="Fill-55" fill="#565657" points="168.0542 132.2949 161.0752 132.2949 161.0752 121.7009 168.0542 121.7009 168.0542 122.9529 162.4842 122.9529 162.4842 125.8569 168.0542 125.8569 168.0542 127.1079 162.4842 127.1079 162.4842 131.0429 168.0542 131.0429"></polygon>
                <path d="M175.3755,128.1328 L173.5185,122.9318 L171.6545,128.1328 L175.3755,128.1328 Z M178.3495,132.2948 L176.8485,132.2948 L175.8095,129.3428 L171.2275,129.3428 L170.1885,132.2948 L168.7585,132.2948 L172.6145,121.7008 L174.4925,121.7008 L178.3495,132.2948 Z" id="Fill-57" fill="#565657"></path>
                <polygon id="Fill-59" fill="#565657" points="187.2212 122.9531 183.4362 122.9531 183.4362 132.2951 182.0282 132.2951 182.0282 122.9531 178.2422 122.9531 178.2422 121.7011 187.2212 121.7011"></polygon>
                <polygon id="Fill-61" fill="#565657" points="22.2983 149.7793 18.1143 149.7793 18.1143 148.6983 19.5023 148.6983 19.5023 140.2663 18.1143 140.2663 18.1143 139.1853 22.2983 139.1853 22.2983 140.2663 20.9113 140.2663 20.9113 148.6983 22.2983 148.6983"></polygon>
                <polygon id="Fill-63" fill="#565657" points="32.4868 149.7793 30.7438 149.7793 25.7208 140.3023 25.7208 149.7793 24.4038 149.7793 24.4038 139.1853 26.5888 139.1853 31.1708 147.8373 31.1708 139.1853 32.4868 139.1853"></polygon>
                <polygon id="Fill-65" fill="#565657" points="42.5684 140.4375 38.7834 140.4375 38.7834 149.7795 37.3754 149.7795 37.3754 140.4375 33.5894 140.4375 33.5894 139.1855 42.5684 139.1855"></polygon>
                <polygon id="Fill-67" fill="#565657" points="50.6792 149.7793 43.7002 149.7793 43.7002 139.1853 50.6792 139.1853 50.6792 140.4373 45.1082 140.4373 45.1082 143.3413 50.6792 143.3413 50.6792 144.5923 45.1082 144.5923 45.1082 148.5273 50.6792 148.5273"></polygon>
                <path d="M58.0933,142.167 C58.0933,141.863 58.0403,141.594 57.9333,141.359 C57.8263,141.124 57.6503,140.927 57.4033,140.765 C57.1993,140.628 56.9573,140.531 56.6773,140.477 C56.3973,140.423 56.0683,140.396 55.6883,140.396 L54.0313,140.396 L54.0313,144.394 L55.4533,144.394 C55.8993,144.394 56.2883,144.355 56.6203,144.276 C56.9523,144.198 57.2353,144.052 57.4673,143.839 C57.6803,143.64 57.8383,143.41 57.9403,143.152 C58.0423,142.894 58.0933,142.565 58.0933,142.167 L58.0933,142.167 Z M61.3873,149.779 L59.5593,149.779 L56.0153,145.567 L54.0313,145.567 L54.0313,149.779 L52.6223,149.779 L52.6223,139.186 L55.5893,139.186 C56.2293,139.186 56.7623,139.228 57.1903,139.311 C57.6163,139.394 58.0013,139.541 58.3423,139.755 C58.7263,139.997 59.0263,140.302 59.2423,140.669 C59.4583,141.036 59.5663,141.503 59.5663,142.067 C59.5663,142.831 59.3743,143.47 58.9893,143.984 C58.6053,144.499 58.0763,144.887 57.4033,145.147 L61.3873,149.779 Z" id="Fill-69" fill="#565657"></path>
                <polygon id="Fill-71" fill="#565657" points="70.5444 149.7793 68.8014 149.7793 63.7784 140.3023 63.7784 149.7793 62.4614 149.7793 62.4614 139.1853 64.6464 139.1853 69.2284 147.8373 69.2284 139.1853 70.5444 139.1853"></polygon>
                <path d="M80.7686,146.7559 C80.7686,147.1679 80.6726,147.5759 80.4806,147.9799 C80.2886,148.3829 80.0186,148.7239 79.6726,149.0039 C79.2936,149.3079 78.8516,149.5449 78.3456,149.7149 C77.8406,149.8859 77.2326,149.9719 76.5206,149.9719 C75.7576,149.9719 75.0706,149.9009 74.4616,149.7579 C73.8516,149.6149 73.2316,149.4039 72.6006,149.1249 L72.6006,147.3599 L72.7006,147.3599 C73.2366,147.8069 73.8556,148.1509 74.5576,148.3919 C75.2596,148.6339 75.9186,148.7549 76.5356,148.7549 C77.4076,148.7549 78.0876,148.5909 78.5736,148.2639 C79.0596,147.9369 79.3026,147.4999 79.3026,146.9549 C79.3026,146.4849 79.1876,146.1389 78.9576,145.9159 C78.7276,145.6939 78.3776,145.5209 77.9086,145.3969 C77.5526,145.3019 77.1666,145.2239 76.7526,145.1619 C76.3366,145.1009 75.8976,145.0229 75.4326,144.9269 C74.4936,144.7279 73.7976,144.3879 73.3446,143.9059 C72.8916,143.4249 72.6646,142.7979 72.6646,142.0249 C72.6646,141.1379 73.0396,140.4099 73.7896,139.8439 C74.5386,139.2769 75.4896,138.9929 76.6426,138.9929 C77.3866,138.9929 78.0696,139.0649 78.6906,139.2069 C79.3126,139.3499 79.8626,139.5249 80.3416,139.7339 L80.3416,141.3989 L80.2426,141.3989 C79.8386,141.0569 79.3086,140.7739 78.6516,140.5479 C77.9946,140.3229 77.3226,140.2099 76.6346,140.2099 C75.8806,140.2099 75.2746,140.3659 74.8166,140.6799 C74.3596,140.9929 74.1306,141.3959 74.1306,141.8889 C74.1306,142.3299 74.2446,142.6769 74.4726,142.9279 C74.6996,143.1799 75.1006,143.3709 75.6746,143.5039 C75.9776,143.5699 76.4096,143.6519 76.9696,143.7459 C77.5286,143.8409 78.0036,143.9389 78.3926,144.0379 C79.1796,144.2459 79.7726,144.5619 80.1706,144.9849 C80.5696,145.4059 80.7686,145.9969 80.7686,146.7559" id="Fill-73" fill="#565657"></path>
                <polygon id="Fill-75" fill="#565657" points="90.8433 149.7793 89.4343 149.7793 89.4343 144.5923 84.1483 144.5923 84.1483 149.7793 82.7393 149.7793 82.7393 139.1853 84.1483 139.1853 84.1483 143.3413 89.4343 143.3413 89.4343 139.1853 90.8433 139.1853"></polygon>
                <polygon id="Fill-77" fill="#565657" points="97.1323 149.7793 92.9483 149.7793 92.9483 148.6983 94.3373 148.6983 94.3373 140.2663 92.9483 140.2663 92.9483 139.1853 97.1323 139.1853 97.1323 140.2663 95.7453 140.2663 95.7453 148.6983 97.1323 148.6983"></polygon>
                <path d="M104.7026,142.4229 C104.7026,142.0579 104.6386,141.7389 104.5116,141.4699 C104.3826,141.1989 104.1876,140.9789 103.9276,140.8079 C103.6996,140.6609 103.4396,140.5549 103.1476,140.4909 C102.8566,140.4269 102.4876,140.3959 102.0426,140.3959 L100.6476,140.3959 L100.6476,144.6279 L101.8356,144.6279 C102.4046,144.6279 102.8666,144.5769 103.2236,144.4759 C103.5786,144.3729 103.8686,144.2109 104.0916,143.9879 C104.3136,143.7609 104.4726,143.5209 104.5636,143.2699 C104.6566,143.0179 104.7026,142.7349 104.7026,142.4229 M106.1686,142.3869 C106.1686,142.8569 106.0876,143.2919 105.9236,143.6929 C105.7596,144.0939 105.5306,144.4419 105.2356,144.7359 C104.8706,145.1009 104.4386,145.3739 103.9406,145.5569 C103.4436,145.7389 102.8146,145.8309 102.0566,145.8309 L100.6476,145.8309 L100.6476,149.7789 L99.2386,149.7789 L99.2386,139.1859 L102.1126,139.1859 C102.7486,139.1859 103.2866,139.2389 103.7276,139.3459 C104.1696,139.4519 104.5596,139.6189 104.9016,139.8479 C105.3056,140.1169 105.6166,140.4539 105.8376,140.8579 C106.0576,141.2609 106.1686,141.7709 106.1686,142.3869" id="Fill-79" fill="#565657"></path>
                <path d="M118.0288,142.4229 C118.0288,142.0579 117.9658,141.7389 117.8378,141.4699 C117.7088,141.1989 117.5138,140.9789 117.2538,140.8079 C117.0258,140.6609 116.7658,140.5549 116.4738,140.4909 C116.1828,140.4269 115.8138,140.3959 115.3688,140.3959 L113.9738,140.3959 L113.9738,144.6279 L115.1618,144.6279 C115.7308,144.6279 116.1938,144.5769 116.5498,144.4759 C116.9048,144.3729 117.1938,144.2109 117.4178,143.9879 C117.6398,143.7609 117.7988,143.5209 117.8898,143.2699 C117.9828,143.0179 118.0288,142.7349 118.0288,142.4229 M119.4948,142.3869 C119.4948,142.8569 119.4128,143.2919 119.2498,143.6929 C119.0858,144.0939 118.8568,144.4419 118.5628,144.7359 C118.1978,145.1009 117.7658,145.3739 117.2678,145.5569 C116.7698,145.7389 116.1408,145.8309 115.3828,145.8309 L113.9738,145.8309 L113.9738,149.7789 L112.5648,149.7789 L112.5648,139.1859 L115.4388,139.1859 C116.0748,139.1859 116.6128,139.2389 117.0538,139.3459 C117.4958,139.4519 117.8868,139.6189 118.2278,139.8479 C118.6318,140.1169 118.9428,140.4539 119.1638,140.8579 C119.3838,141.2609 119.4948,141.7709 119.4948,142.3869" id="Fill-81" fill="#565657"></path>
                <g id="Group-85" transform="translate(120.000000, 138.000000)">
                    <mask id="mask-4" fill="white">
                        <use xlink:href="#path-3"></use>
                    </mask>
                    <g id="Clip-84"></g>
                    <path d="M8.8296,6.4863 C8.8296,5.1103 8.5206,4.0483 7.9046,3.3013 C7.2876,2.5543 6.4456,2.1813 5.3786,2.1813 C4.3026,2.1813 3.4566,2.5543 2.8426,3.3013 C2.2276,4.0483 1.9216,5.1103 1.9216,6.4863 C1.9216,7.8763 2.2336,8.9393 2.8596,9.6763 C3.4856,10.4143 4.3256,10.7833 5.3786,10.7833 C6.4326,10.7833 7.2696,10.4143 7.8936,9.6763 C8.5176,8.9393 8.8296,7.8763 8.8296,6.4863 M8.9576,2.4023 C9.3896,2.8773 9.7206,3.4583 9.9496,4.1453 C10.1806,4.8333 10.2956,5.6133 10.2956,6.4863 C10.2956,7.3583 10.1776,8.1403 9.9426,8.8303 C9.7086,9.5203 9.3796,10.0953 8.9576,10.5553 C8.5206,11.0353 8.0056,11.3953 7.4096,11.6363 C6.8146,11.8793 6.1356,12.0003 5.3716,12.0003 C4.6266,12.0003 3.9496,11.8763 3.3406,11.6303 C2.7306,11.3833 2.2126,11.0253 1.7856,10.5553 C1.3586,10.0863 1.0306,9.5093 0.8006,8.8273 C0.5706,8.1433 0.4556,7.3633 0.4556,6.4863 C0.4556,5.6233 0.5686,4.8483 0.7976,4.1633 C1.0246,3.4773 1.3566,2.8903 1.7926,2.4023 C2.2106,1.9373 2.7286,1.5823 3.3476,1.3353 C3.9666,1.0893 4.6416,0.9653 5.3716,0.9653 C6.1306,0.9653 6.8116,1.0903 7.4176,1.3393 C8.0216,1.5883 8.5356,1.9423 8.9576,2.4023" id="Fill-83" fill="#565657" mask="url(#mask-4)"></path>
                </g>
                <path d="M139.936,146.7559 C139.936,147.1679 139.84,147.5759 139.648,147.9799 C139.456,148.3829 139.186,148.7239 138.84,149.0039 C138.46,149.3079 138.018,149.5449 137.513,149.7149 C137.008,149.8859 136.4,149.9719 135.689,149.9719 C134.924,149.9719 134.238,149.9009 133.628,149.7579 C133.019,149.6149 132.399,149.4039 131.768,149.1249 L131.768,147.3599 L131.868,147.3599 C132.404,147.8069 133.023,148.1509 133.725,148.3919 C134.426,148.6339 135.086,148.7549 135.703,148.7549 C136.576,148.7549 137.254,148.5909 137.741,148.2639 C138.227,147.9369 138.47,147.4999 138.47,146.9549 C138.47,146.4849 138.355,146.1389 138.125,145.9159 C137.895,145.6939 137.545,145.5209 137.076,145.3969 C136.72,145.3019 136.334,145.2239 135.919,145.1619 C135.504,145.1009 135.065,145.0229 134.6,144.9269 C133.661,144.7279 132.964,144.3879 132.512,143.9059 C132.059,143.4249 131.832,142.7979 131.832,142.0249 C131.832,141.1379 132.207,140.4099 132.957,139.8439 C133.706,139.2769 134.657,138.9929 135.809,138.9929 C136.554,138.9929 137.237,139.0649 137.859,139.2069 C138.48,139.3499 139.03,139.5249 139.509,139.7339 L139.509,141.3989 L139.41,141.3989 C139.006,141.0569 138.476,140.7739 137.819,140.5479 C137.163,140.3229 136.49,140.2099 135.802,140.2099 C135.048,140.2099 134.442,140.3659 133.985,140.6799 C133.527,140.9929 133.298,141.3959 133.298,141.8889 C133.298,142.3299 133.412,142.6769 133.639,142.9279 C133.867,143.1799 134.268,143.3709 134.842,143.5039 C135.145,143.5699 135.577,143.6519 136.136,143.7459 C136.697,143.8409 137.17,143.9389 137.56,144.0379 C138.347,144.2459 138.94,144.5619 139.338,144.9849 C139.737,145.4059 139.936,145.9969 139.936,146.7559" id="Fill-86" fill="#565657"></path>
                <polygon id="Fill-88" fill="#565657" points="145.6421 149.7793 141.4581 149.7793 141.4581 148.6983 142.8461 148.6983 142.8461 140.2663 141.4581 140.2663 141.4581 139.1853 145.6421 139.1853 145.6421 140.2663 144.2541 140.2663 144.2541 148.6983 145.6421 148.6983"></polygon>
                <polygon id="Fill-90" fill="#565657" points="155.3042 140.4375 151.5192 140.4375 151.5192 149.7795 150.1112 149.7795 150.1112 140.4375 146.3252 140.4375 146.3252 139.1855 155.3042 139.1855"></polygon>
                <polygon id="Fill-92" fill="#565657" points="160.1704 149.7793 155.9864 149.7793 155.9864 148.6983 157.3744 148.6983 157.3744 140.2663 155.9864 140.2663 155.9864 139.1853 160.1704 139.1853 160.1704 140.2663 158.7824 140.2663 158.7824 148.6983 160.1704 148.6983"></polygon>
                <g id="Group-96" transform="translate(161.000000, 138.000000)">
                    <mask id="mask-6" fill="white">
                        <use xlink:href="#path-5"></use>
                    </mask>
                    <g id="Clip-95"></g>
                    <path d="M9.0464,6.4863 C9.0464,5.1103 8.7374,4.0483 8.1214,3.3013 C7.5044,2.5543 6.6624,2.1813 5.5954,2.1813 C4.5194,2.1813 3.6734,2.5543 3.0594,3.3013 C2.4444,4.0483 2.1384,5.1103 2.1384,6.4863 C2.1384,7.8763 2.4504,8.9393 3.0764,9.6763 C3.7024,10.4143 4.5424,10.7833 5.5954,10.7833 C6.6494,10.7833 7.4864,10.4143 8.1104,9.6763 C8.7344,8.9393 9.0464,7.8763 9.0464,6.4863 M9.1744,2.4023 C9.6064,2.8773 9.9374,3.4583 10.1664,4.1453 C10.3974,4.8333 10.5124,5.6133 10.5124,6.4863 C10.5124,7.3583 10.3944,8.1403 10.1594,8.8303 C9.9254,9.5203 9.5964,10.0953 9.1744,10.5553 C8.7374,11.0353 8.2224,11.3953 7.6264,11.6363 C7.0314,11.8793 6.3524,12.0003 5.5884,12.0003 C4.8434,12.0003 4.1664,11.8763 3.5574,11.6303 C2.9474,11.3833 2.4294,11.0253 2.0024,10.5553 C1.5754,10.0863 1.2474,9.5093 1.0174,8.8273 C0.7874,8.1433 0.6724,7.3633 0.6724,6.4863 C0.6724,5.6233 0.7854,4.8483 1.0144,4.1633 C1.2414,3.4773 1.5734,2.8903 2.0094,2.4023 C2.4274,1.9373 2.9454,1.5823 3.5644,1.3353 C4.1834,1.0893 4.8584,0.9653 5.5884,0.9653 C6.3474,0.9653 7.0284,1.0903 7.6344,1.3393 C8.2384,1.5883 8.7524,1.9423 9.1744,2.4023" id="Fill-94" fill="#565657" mask="url(#mask-6)"></path>
                </g>
                <polygon id="Fill-97" fill="#565657" points="181.5366 149.7793 179.7936 149.7793 174.7706 140.3023 174.7706 149.7793 173.4546 149.7793 173.4546 139.1853 175.6396 139.1853 180.2216 147.8373 180.2216 139.1853 181.5366 139.1853"></polygon>
                <path d="M191.7603,146.7559 C191.7603,147.1679 191.6643,147.5759 191.4723,147.9799 C191.2803,148.3829 191.0103,148.7239 190.6643,149.0039 C190.2843,149.3079 189.8423,149.5449 189.3373,149.7149 C188.8323,149.8859 188.2243,149.9719 187.5133,149.9719 C186.7483,149.9719 186.0623,149.9009 185.4523,149.7579 C184.8433,149.6149 184.2233,149.4039 183.5923,149.1249 L183.5923,147.3599 L183.6923,147.3599 C184.2283,147.8069 184.8473,148.1509 185.5493,148.3919 C186.2503,148.6339 186.9103,148.7549 187.5273,148.7549 C188.4003,148.7549 189.0783,148.5909 189.5653,148.2639 C190.0513,147.9369 190.2943,147.4999 190.2943,146.9549 C190.2943,146.4849 190.1793,146.1389 189.9493,145.9159 C189.7193,145.6939 189.3693,145.5209 188.9003,145.3969 C188.5443,145.3019 188.1583,145.2239 187.7433,145.1619 C187.3283,145.1009 186.8893,145.0229 186.4243,144.9269 C185.4853,144.7279 184.7883,144.3879 184.3363,143.9059 C183.8833,143.4249 183.6563,142.7979 183.6563,142.0249 C183.6563,141.1379 184.0313,140.4099 184.7813,139.8439 C185.5303,139.2769 186.4813,138.9929 187.6333,138.9929 C188.3783,138.9929 189.0613,139.0649 189.6833,139.2069 C190.3043,139.3499 190.8543,139.5249 191.3333,139.7339 L191.3333,141.3989 L191.2343,141.3989 C190.8303,141.0569 190.3003,140.7739 189.6433,140.5479 C188.9873,140.3229 188.3143,140.2099 187.6263,140.2099 C186.8723,140.2099 186.2663,140.3659 185.8093,140.6799 C185.3513,140.9929 185.1223,141.3959 185.1223,141.8889 C185.1223,142.3299 185.2363,142.6769 185.4633,142.9279 C185.6913,143.1799 186.0923,143.3709 186.6663,143.5039 C186.9693,143.5699 187.4013,143.6519 187.9603,143.7459 C188.5213,143.8409 188.9943,143.9389 189.3843,144.0379 C190.1713,144.2459 190.7643,144.5619 191.1623,144.9849 C191.5613,145.4059 191.7603,145.9969 191.7603,146.7559" id="Fill-99" fill="#565657"></path>
                <path d="M6.8721,93.4395 C7.1221,93.1355 7.3081,92.7775 7.4281,92.3645 C7.5491,91.9515 7.6091,91.4655 7.6091,90.9075 C7.6091,90.3085 7.5401,89.7995 7.4011,89.3795 C7.2631,88.9605 7.0821,88.6215 6.8591,88.3625 C6.6311,88.0935 6.3691,87.8995 6.0721,87.7795 C5.7751,87.6595 5.4661,87.5985 5.1441,87.5985 C4.8181,87.5985 4.5111,87.6565 4.2231,87.7725 C3.9351,87.8885 3.6701,88.0815 3.4291,88.3485 C3.2061,88.5985 3.0241,88.9435 2.8831,89.3835 C2.7431,89.8235 2.6721,90.3345 2.6721,90.9145 C2.6721,91.5075 2.7411,92.0135 2.8771,92.4315 C3.0131,92.8485 3.1931,93.1895 3.4161,93.4525 C3.6391,93.7155 3.9001,93.9105 4.2001,94.0355 C4.4991,94.1605 4.8131,94.2225 5.1441,94.2225 C5.4751,94.2225 5.7891,94.1595 6.0881,94.0325 C6.3881,93.9045 6.6491,93.7075 6.8721,93.4395 M10.2821,90.9145 C10.2821,92.5035 9.8261,93.7665 8.9151,94.7025 C8.0041,95.6375 6.7451,96.1055 5.1381,96.1055 C3.5341,96.1055 2.2771,95.6375 1.3661,94.7025 C0.4551,93.7665 0.0001,92.5035 0.0001,90.9145 C0.0001,89.3105 0.4551,88.0435 1.3661,87.1135 C2.2771,86.1815 3.5341,85.7155 5.1381,85.7155 C6.7361,85.7155 7.9931,86.1815 8.9091,87.1135 C9.8241,88.0435 10.2821,89.3105 10.2821,90.9145" id="Fill-101" fill="#565657"></path>
                <polygon id="Fill-103" fill="#565657" points="19.3911 87.8525 14.8031 87.8525 14.8031 89.7075 19.0561 89.7075 19.0561 91.6375 14.8031 91.6375 14.8031 95.8975 12.2441 95.8975 12.2441 85.9235 19.3911 85.9235"></polygon>
                <path d="M33.6514,95.8975 L25.8214,95.8975 L25.8214,94.2505 C26.4194,93.8165 27.0194,93.3565 27.6194,92.8705 C28.2204,92.3825 28.7014,91.9635 29.0634,91.6105 C29.6034,91.0875 29.9874,90.6325 30.2154,90.2445 C30.4434,89.8555 30.5564,89.4715 30.5564,89.0915 C30.5564,88.6365 30.4104,88.2855 30.1184,88.0375 C29.8254,87.7895 29.4044,87.6655 28.8554,87.6655 C28.4444,87.6655 28.0124,87.7505 27.5594,87.9195 C27.1064,88.0895 26.6854,88.3065 26.2974,88.5695 L26.0824,88.5695 L26.0824,86.3525 C26.3994,86.2135 26.8674,86.0765 27.4854,85.9375 C28.1044,85.7985 28.7234,85.7295 29.3444,85.7295 C30.5944,85.7295 31.5484,85.9925 32.2044,86.5165 C32.8604,87.0415 33.1894,87.7845 33.1894,88.7445 C33.1894,89.3735 33.0314,89.9715 32.7164,90.5395 C32.4024,91.1065 31.9214,91.6915 31.2734,92.2935 C30.8674,92.6685 30.4584,93.0135 30.0474,93.3295 C29.6364,93.6435 29.3444,93.8635 29.1704,93.9885 L33.6514,93.9885 L33.6514,95.8975 Z" id="Fill-105" fill="#565657"></path>
                <path d="M40.7451,90.9043 C40.7451,89.6973 40.6271,88.8383 40.3901,88.3263 C40.1531,87.8143 39.7601,87.5583 39.2111,87.5583 C38.6621,87.5583 38.2691,87.8143 38.0321,88.3263 C37.7951,88.8383 37.6771,89.7013 37.6771,90.9173 C37.6771,92.1013 37.7981,92.9563 38.0391,93.4783 C38.2801,94.0023 38.6711,94.2623 39.2111,94.2623 C39.7511,94.2623 40.1421,94.0023 40.3831,93.4783 C40.6241,92.9563 40.7451,92.0973 40.7451,90.9043 M43.3371,90.9043 C43.3371,91.7443 43.2611,92.4963 43.1091,93.1593 C42.9571,93.8233 42.7211,94.3673 42.3991,94.7913 C42.0691,95.2243 41.6451,95.5513 41.1271,95.7733 C40.6091,95.9943 39.9701,96.1053 39.2111,96.1053 C38.4651,96.1053 37.8291,95.9933 37.3021,95.7693 C36.7751,95.5473 36.3491,95.2163 36.0231,94.7783 C35.6921,94.3403 35.4531,93.7963 35.3061,93.1453 C35.1591,92.4963 35.0851,91.7513 35.0851,90.9113 C35.0851,90.0443 35.1611,89.2913 35.3131,88.6523 C35.4651,88.0123 35.7051,87.4723 36.0361,87.0303 C36.3671,86.5923 36.7951,86.2633 37.3221,86.0453 C37.8491,85.8263 38.4791,85.7163 39.2111,85.7163 C39.9741,85.7163 40.6161,85.8293 41.1341,86.0543 C41.6511,86.2803 42.0761,86.6163 42.4061,87.0633 C42.7321,87.5013 42.9691,88.0413 43.1161,88.6813 C43.2641,89.3233 43.3371,90.0643 43.3371,90.9043" id="Fill-107" fill="#565657"></path>
                <path d="M52.5269,95.8975 L45.8689,95.8975 L45.8689,94.1565 L47.9719,94.1565 L47.9719,88.8845 L45.8689,88.8845 L45.8689,87.2565 C46.1909,87.2565 46.4989,87.2385 46.7939,87.2005 C47.0889,87.1625 47.3339,87.0955 47.5299,87.0015 C47.7619,86.8905 47.9369,86.7455 48.0529,86.5675 C48.1689,86.3885 48.2359,86.1655 48.2539,85.8975 L50.4709,85.8975 L50.4709,94.1565 L52.5269,94.1565 L52.5269,95.8975 Z" id="Fill-109" fill="#565657"></path>
                <path d="M62.6948,92.5215 C62.6948,93.0405 62.5978,93.5205 62.4028,93.9645 C62.2088,94.4095 61.9268,94.7905 61.5558,95.1075 C61.1448,95.4465 60.6728,95.6975 60.1398,95.8605 C59.6058,96.0235 58.9978,96.1055 58.3148,96.1055 C57.5148,96.1005 56.8398,96.0375 56.2878,95.9145 C55.7368,95.7915 55.2868,95.6545 54.9388,95.5015 L54.9388,93.2985 L55.2198,93.2985 C55.6258,93.5405 56.0638,93.7405 56.5328,93.9015 C57.0018,94.0625 57.4678,94.1425 57.9328,94.1425 C58.2138,94.1425 58.5188,94.1105 58.8468,94.0455 C59.1748,93.9805 59.4348,93.8635 59.6268,93.6935 C59.7788,93.5555 59.8938,93.4155 59.9718,93.2715 C60.0498,93.1285 60.0898,92.9085 60.0898,92.6085 C60.0898,92.3765 60.0368,92.1765 59.9318,92.0085 C59.8268,91.8415 59.6918,91.7075 59.5268,91.6035 C59.2858,91.4575 58.9948,91.3595 58.6558,91.3125 C58.3168,91.2655 58.0078,91.2425 57.7318,91.2425 C57.3298,91.2425 56.9448,91.2775 56.5758,91.3455 C56.2078,91.4155 55.8848,91.4835 55.6088,91.5505 L55.3138,91.5505 L55.3138,85.9235 L62.4068,85.9235 L62.4068,87.8335 L57.7318,87.8335 L57.7318,89.4605 C57.8698,89.4515 58.0448,89.4435 58.2578,89.4375 C58.4688,89.4305 58.6558,89.4265 58.8168,89.4265 C59.3658,89.4265 59.8558,89.4795 60.2868,89.5835 C60.7178,89.6895 61.0898,89.8355 61.4018,90.0235 C61.8088,90.2685 62.1258,90.5935 62.3528,90.9985 C62.5808,91.4025 62.6948,91.9105 62.6948,92.5215" id="Fill-111" fill="#565657"></path>
                <path d="M77.5376,92.7627 C77.5376,93.7447 77.1206,94.5427 76.2886,95.1577 C75.4556,95.7717 74.3246,96.0777 72.8956,96.0777 C72.0696,96.0777 71.3496,96.0057 70.7356,95.8607 C70.1216,95.7157 69.5466,95.5317 69.0106,95.3077 L69.0106,92.9167 L69.2916,92.9167 C69.8236,93.3407 70.4186,93.6667 71.0776,93.8947 C71.7356,94.1217 72.3686,94.2367 72.9756,94.2367 C73.1326,94.2367 73.3376,94.2227 73.5926,94.1967 C73.8476,94.1687 74.0546,94.1247 74.2156,94.0627 C74.4116,93.9817 74.5736,93.8807 74.7016,93.7607 C74.8286,93.6407 74.8916,93.4617 74.8916,93.2247 C74.8916,93.0057 74.7996,92.8177 74.6136,92.6587 C74.4286,92.4997 74.1576,92.3787 73.8006,92.2937 C73.4246,92.2037 73.0286,92.1207 72.6116,92.0427 C72.1936,91.9647 71.8016,91.8657 71.4356,91.7437 C70.5966,91.4727 69.9926,91.1027 69.6236,90.6357 C69.2556,90.1697 69.0716,89.5897 69.0716,88.8977 C69.0716,87.9687 69.4876,87.2107 70.3206,86.6237 C71.1536,86.0367 72.2236,85.7427 73.5326,85.7427 C74.1886,85.7427 74.8366,85.8067 75.4776,85.9337 C76.1186,86.0617 76.6736,86.2207 77.1426,86.4127 L77.1426,88.7097 L76.8676,88.7097 C76.4656,88.3887 75.9736,88.1197 75.3906,87.9037 C74.8086,87.6867 74.2126,87.5777 73.6056,87.5777 C73.3916,87.5777 73.1786,87.5927 72.9666,87.6217 C72.7536,87.6517 72.5496,87.7057 72.3526,87.7857 C72.1796,87.8527 72.0296,87.9537 71.9046,88.0907 C71.7796,88.2267 71.7166,88.3817 71.7166,88.5567 C71.7166,88.8197 71.8176,89.0217 72.0186,89.1617 C72.2196,89.3027 72.5986,89.4317 73.1576,89.5477 C73.5226,89.6237 73.8746,89.6977 74.2116,89.7687 C74.5496,89.8397 74.9126,89.9387 75.3006,90.0637 C76.0636,90.3137 76.6276,90.6547 76.9916,91.0847 C77.3556,91.5157 77.5376,92.0757 77.5376,92.7627" id="Fill-113" fill="#565657"></path>
                <path d="M88.0337,92.2871 C88.0337,93.5191 87.6587,94.4641 86.9087,95.1201 C86.1577,95.7771 85.0537,96.1051 83.5937,96.1051 C82.1327,96.1051 81.0287,95.7771 80.2807,95.1201 C79.5327,94.4641 79.1587,93.5211 79.1587,92.2941 L79.1587,85.9241 L81.7437,85.9241 L81.7437,92.1461 C81.7437,92.8391 81.8887,93.3541 82.1797,93.6931 C82.4697,94.0331 82.9407,94.2031 83.5937,94.2031 C84.2357,94.2031 84.7067,94.0401 85.0037,93.7141 C85.3007,93.3881 85.4487,92.8651 85.4487,92.1461 L85.4487,85.9241 L88.0337,85.9241 L88.0337,92.2871 Z" id="Fill-115" fill="#565657"></path>
                <polygon id="Fill-117" fill="#565657" points="100.894 95.8975 98.335 95.8975 98.335 89.2195 96.488 93.5525 94.712 93.5525 92.863 89.2195 92.863 95.8975 90.439 95.8975 90.439 85.9235 93.426 85.9235 95.669 90.9275 97.908 85.9235 100.894 85.9235"></polygon>
                <polygon id="Fill-119" fill="#565657" points="113.896 95.8975 111.337 95.8975 111.337 89.2195 109.488 93.5525 107.712 93.5525 105.865 89.2195 105.865 95.8975 103.439 95.8975 103.439 85.9235 106.427 85.9235 108.671 90.9275 110.908 85.9235 113.896 85.9235"></polygon>
                <polygon id="Fill-121" fill="#565657" points="123.6548 95.8975 116.4408 95.8975 116.4408 85.9235 123.6548 85.9235 123.6548 87.8525 118.9998 87.8525 118.9998 89.5745 123.3198 89.5745 123.3198 91.5035 118.9998 91.5035 118.9998 93.9685 123.6548 93.9685"></polygon>
                <path d="M131.4038,88.9785 C131.4038,88.7285 131.3528,88.5135 131.2508,88.3345 C131.1468,88.1565 130.9708,88.0155 130.7208,87.9135 C130.5468,87.8415 130.3428,87.7975 130.1118,87.7825 C129.8798,87.7665 129.6088,87.7585 129.3008,87.7585 L128.3698,87.7585 L128.3698,90.4455 L129.1608,90.4455 C129.5708,90.4455 129.9148,90.4245 130.1918,90.3845 C130.4678,90.3445 130.7008,90.2525 130.8878,90.1105 C131.0668,89.9715 131.1978,89.8195 131.2808,89.6515 C131.3628,89.4845 131.4038,89.2595 131.4038,88.9785 L131.4038,88.9785 Z M135.4168,95.8975 L132.2748,95.8975 L129.5618,92.2405 L128.3698,92.2405 L128.3698,95.8975 L125.8108,95.8975 L125.8108,85.9235 L130.1248,85.9235 C130.7148,85.9235 131.2208,85.9575 131.6448,86.0245 C132.0698,86.0915 132.4668,86.2365 132.8378,86.4595 C133.2128,86.6825 133.5108,86.9715 133.7318,87.3275 C133.9528,87.6825 134.0628,88.1275 134.0628,88.6635 C134.0628,89.4005 133.8918,90.0005 133.5508,90.4645 C133.2098,90.9295 132.7208,91.3155 132.0878,91.6245 L135.4168,95.8975 Z" id="Fill-123" fill="#565657"></path>
                <polygon id="Fill-125" fill="#565657" points="146.6226 95.8975 140.7816 95.8975 140.7816 94.1285 142.4156 94.1285 142.4156 87.6925 140.7816 87.6925 140.7816 85.9235 146.6226 85.9235 146.6226 87.6925 144.9876 87.6925 144.9876 94.1285 146.6226 94.1285"></polygon>
                <polygon id="Fill-127" fill="#565657" points="157.7886 95.8975 155.3096 95.8975 151.0776 89.0515 151.0776 95.8975 148.7196 95.8975 148.7196 85.9235 151.7936 85.9235 155.4316 91.6375 155.4316 85.9235 157.7886 85.9235"></polygon>
                <polygon id="Fill-129" fill="#565657" points="168.1372 87.8525 165.0222 87.8525 165.0222 95.8975 162.4502 95.8975 162.4502 87.8525 159.3352 87.8525 159.3352 85.9235 168.1372 85.9235"></polygon>
                <polygon id="Fill-131" fill="#565657" points="176.8979 95.8975 169.6839 95.8975 169.6839 85.9235 176.8979 85.9235 176.8979 87.8525 172.2429 87.8525 172.2429 89.5745 176.5629 89.5745 176.5629 91.5035 172.2429 91.5035 172.2429 93.9685 176.8979 93.9685"></polygon>
                <path d="M184.6479,88.9785 C184.6479,88.7285 184.5969,88.5135 184.4949,88.3345 C184.3909,88.1565 184.2149,88.0155 183.9649,87.9135 C183.7909,87.8415 183.5869,87.7975 183.3559,87.7825 C183.1239,87.7665 182.8529,87.7585 182.5449,87.7585 L181.6139,87.7585 L181.6139,90.4455 L182.4049,90.4455 C182.8149,90.4455 183.1589,90.4245 183.4359,90.3845 C183.7119,90.3445 183.9449,90.2525 184.1319,90.1105 C184.3109,89.9715 184.4419,89.8195 184.5249,89.6515 C184.6069,89.4845 184.6479,89.2595 184.6479,88.9785 L184.6479,88.9785 Z M188.6609,95.8975 L185.5189,95.8975 L182.8059,92.2405 L181.6139,92.2405 L181.6139,95.8975 L179.0549,95.8975 L179.0549,85.9235 L183.3689,85.9235 C183.9589,85.9235 184.4649,85.9575 184.8889,86.0245 C185.3139,86.0915 185.7109,86.2365 186.0819,86.4595 C186.4569,86.6825 186.7549,86.9715 186.9759,87.3275 C187.1969,87.6825 187.3069,88.1275 187.3069,88.6635 C187.3069,89.4005 187.1359,90.0005 186.7949,90.4645 C186.4539,90.9295 185.9649,91.3155 185.3319,91.6245 L188.6609,95.8975 Z" id="Fill-133" fill="#565657"></path>
                <polygon id="Fill-135" fill="#565657" points="198.855 95.8975 196.376 95.8975 192.144 89.0515 192.144 95.8975 189.786 95.8975 189.786 85.9235 192.86 85.9235 196.498 91.6375 196.498 85.9235 198.855 85.9235"></polygon>
                <g id="Group-139" transform="translate(200.000000, 85.000000)">
                    <mask id="mask-8" fill="white">
                        <use xlink:href="#path-7"></use>
                    </mask>
                    <g id="Clip-138"></g>
                    <path d="M9.3843,7.7627 C9.3843,8.7447 8.9683,9.5427 8.1353,10.1577 C7.3023,10.7717 6.1713,11.0777 4.7423,11.0777 C3.9163,11.0777 3.1963,11.0057 2.5823,10.8607 C1.9683,10.7157 1.3933,10.5317 0.8583,10.3077 L0.8583,7.9167 L1.1393,7.9167 C1.6703,8.3407 2.2653,8.6667 2.9243,8.8947 C3.5823,9.1217 4.2153,9.2367 4.8223,9.2367 C4.9793,9.2367 5.1843,9.2227 5.4393,9.1967 C5.6943,9.1687 5.9013,9.1247 6.0623,9.0627 C6.2583,8.9817 6.4203,8.8807 6.5473,8.7607 C6.6753,8.6407 6.7383,8.4617 6.7383,8.2247 C6.7383,8.0057 6.6463,7.8177 6.4603,7.6587 C6.2753,7.4997 6.0043,7.3787 5.6473,7.2937 C5.2723,7.2037 4.8753,7.1207 4.4573,7.0427 C4.0403,6.9647 3.6483,6.8657 3.2823,6.7437 C2.4433,6.4727 1.8383,6.1027 1.4703,5.6357 C1.1023,5.1697 0.9173,4.5897 0.9173,3.8977 C0.9173,2.9687 1.3343,2.2107 2.1673,1.6237 C2.9993,1.0367 4.0713,0.7427 5.3783,0.7427 C6.0353,0.7427 6.6843,0.8067 7.3243,0.9337 C7.9653,1.0617 8.5203,1.2207 8.9883,1.4127 L8.9883,3.7097 L8.7143,3.7097 C8.3133,3.3887 7.8203,3.1197 7.2383,2.9037 C6.6553,2.6867 6.0603,2.5777 5.4523,2.5777 C5.2383,2.5777 5.0253,2.5927 4.8133,2.6217 C4.6013,2.6517 4.3963,2.7057 4.1993,2.7857 C4.0263,2.8527 3.8763,2.9537 3.7513,3.0907 C3.6263,3.2267 3.5643,3.3817 3.5643,3.5567 C3.5643,3.8197 3.6643,4.0217 3.8643,4.1617 C4.0663,4.3027 4.4463,4.4317 5.0033,4.5477 C5.3693,4.6237 5.7213,4.6977 6.0593,4.7687 C6.3963,4.8397 6.7583,4.9387 7.1473,5.0637 C7.9103,5.3137 8.4743,5.6547 8.8383,6.0847 C9.2023,6.5157 9.3843,7.0757 9.3843,7.7627" id="Fill-137" fill="#565657" mask="url(#mask-8)"></path>
                </g>
                <path d="M70.2078,60.6283 L65.6258,42.1173 L89.1108,34.9473 C91.9278,33.8013 94.5318,33.6353 96.9698,34.2273 L115.5198,40.9903 L117.5998,41.7483 C122.5508,43.4253 121.2938,51.5533 114.3248,49.6293 L108.1528,47.7033 C104.6058,46.5973 104.2458,48.0673 106.1948,48.7113 L113.6978,50.9843 C114.7668,51.3083 115.3868,51.4083 116.5608,51.3563 C120.2428,51.1953 123.7278,47.9993 121.8478,43.3423 L136.2188,37.0763 C141.7828,34.1303 146.5028,41.2823 140.8478,44.2773 L119.1658,55.7503 C117.5658,56.5963 116.0998,56.8973 114.7308,56.4793 L91.9388,52.1503 C88.0318,51.4073 87.8018,51.3133 84.2828,53.1773 L70.2078,60.6283 Z" id="Fill-140" fill="#929397"></path>
            </g>
        </g>
    </g>
</svg>