<?xml version="1.0" encoding="UTF-8" standalone="no"?>
<svg width="128px" height="165px" viewBox="0 0 128 165" version="1.1" xmlns="http://www.w3.org/2000/svg" xmlns:xlink="http://www.w3.org/1999/xlink">
    <!-- Generator: Sketch 3.7.2 (28276) - http://www.bohemiancoding.com/sketch -->
    <title>Page 1</title>
    <desc>Created with Sketch.</desc>
    <defs>
        <polygon id="path-1" points="1.35525272e-20 0.2766 1.35525272e-20 11.0286 8.8978 11.0286 8.8978 0.2766 0 0.2766"></polygon>
        <polygon id="path-3" points="0.7993 12 10.7853 12 10.7853 0.7992 0.7993 0.7992"></polygon>
        <polygon id="path-5" points="0 164.338 127.684 164.338 127.684 0 0 0"></polygon>
    </defs>
    <g id="Page-1" stroke="none" stroke-width="1" fill="none" fill-rule="evenodd">
        <g>
            <g id="Group-3" transform="translate(0.000000, 135.338000)">
                <mask id="mask-2" fill="white">
                    <use xlink:href="#path-1"></use>
                </mask>
                <g id="Clip-2"></g>
                <path d="M5.5528,3.3006 C5.5528,2.9926 5.4988,2.7206 5.3918,2.4826 C5.2828,2.2446 5.1038,2.0416 4.8528,1.8786 C4.6448,1.7396 4.3998,1.6406 4.1168,1.5866 C3.8318,1.5316 3.4968,1.5026 3.1118,1.5026 L1.4288,1.5026 L1.4288,5.5626 L2.8738,5.5626 C3.3268,5.5626 3.7208,5.5226 4.0578,5.4426 C4.3958,5.3636 4.6828,5.2146 4.9168,4.9986 C5.1338,4.7956 5.2948,4.5646 5.3988,4.3016 C5.5008,4.0386 5.5528,3.7056 5.5528,3.3006 L5.5528,3.3006 Z M8.8978,11.0286 L7.0408,11.0286 L3.4448,6.7526 L1.4288,6.7526 L1.4288,11.0286 L-0.0002,11.0286 L-0.0002,0.2766 L3.0118,0.2766 C3.6618,0.2766 4.2028,0.3176 4.6358,0.4016 C5.0698,0.4856 5.4598,0.6366 5.8048,0.8526 C6.1958,1.0986 6.4998,1.4076 6.7198,1.7806 C6.9388,2.1546 7.0478,2.6276 7.0478,3.2006 C7.0478,3.9756 6.8528,4.6236 6.4628,5.1466 C6.0738,5.6696 5.5368,6.0616 4.8528,6.3266 L8.8978,11.0286 Z" id="Fill-1" fill="#565657" mask="url(#mask-2)"></path>
            </g>
            <polygon id="Fill-4" fill="#565657" points="17.072 146.3671 9.988 146.3671 9.988 135.6141 17.072 135.6141 17.072 136.8841 11.417 136.8841 11.417 139.8311 17.072 139.8311 17.072 141.1031 11.417 141.1031 11.417 145.0961 17.072 145.0961"></polygon>
            <path d="M24.591,138.9001 C24.591,138.5291 24.525,138.2051 24.396,137.9311 C24.265,137.6571 24.068,137.4331 23.803,137.2601 C23.572,137.1111 23.309,137.0041 23.013,136.9391 C22.716,136.8731 22.342,136.8411 21.889,136.8411 L20.474,136.8411 L20.474,141.1381 L21.679,141.1381 C22.258,141.1381 22.727,141.0861 23.089,140.9831 C23.45,140.8791 23.742,140.7141 23.97,140.4881 C24.195,140.2571 24.356,140.0141 24.45,139.7601 C24.544,139.5031 24.591,139.2171 24.591,138.9001 M26.079,138.8621 C26.079,139.3401 25.995,139.7811 25.828,140.1871 C25.664,140.5961 25.431,140.9481 25.132,141.2461 C24.761,141.6161 24.324,141.8961 23.817,142.0801 C23.312,142.2661 22.675,142.3581 21.903,142.3581 L20.474,142.3581 L20.474,146.3671 L19.044,146.3671 L19.044,135.6141 L21.962,135.6141 C22.607,135.6141 23.153,135.6681 23.601,135.7751 C24.048,135.8851 24.446,136.0551 24.793,136.2861 C25.202,136.5601 25.519,136.9021 25.742,137.3101 C25.966,137.7201 26.079,138.2371 26.079,138.8621" id="Fill-6" fill="#565657"></path>
            <path d="M33.2201,138.6386 C33.2201,138.3306 33.1661,138.0586 33.0591,137.8206 C32.9501,137.5826 32.7711,137.3796 32.5201,137.2166 C32.3121,137.0776 32.0671,136.9786 31.7841,136.9246 C31.4991,136.8696 31.1641,136.8406 30.7791,136.8406 L29.0961,136.8406 L29.0961,140.9006 L30.5411,140.9006 C30.9941,140.9006 31.3881,140.8606 31.7251,140.7806 C32.0631,140.7016 32.3501,140.5526 32.5841,140.3366 C32.8011,140.1336 32.9621,139.9026 33.0661,139.6396 C33.1681,139.3766 33.2201,139.0436 33.2201,138.6386 L33.2201,138.6386 Z M36.5651,146.3666 L34.7081,146.3666 L31.1121,142.0906 L29.0961,142.0906 L29.0961,146.3666 L27.6671,146.3666 L27.6671,135.6146 L30.6791,135.6146 C31.3291,135.6146 31.8701,135.6556 32.3031,135.7396 C32.7371,135.8236 33.1271,135.9746 33.4721,136.1906 C33.8631,136.4366 34.1671,136.7456 34.3881,137.1186 C34.6061,137.4926 34.7151,137.9656 34.7151,138.5386 C34.7151,139.3136 34.5201,139.9616 34.1301,140.4846 C33.7411,141.0076 33.2041,141.3996 32.5201,141.6646 L36.5651,146.3666 Z" id="Fill-8" fill="#565657"></path>
            <polygon id="Fill-10" fill="#565657" points="44.7393 146.3671 37.6553 146.3671 37.6553 135.6141 44.7393 135.6141 44.7393 136.8841 39.0843 136.8841 39.0843 139.8311 44.7393 139.8311 44.7393 141.1031 39.0843 141.1031 39.0843 145.0961 44.7393 145.0961"></polygon>
            <path d="M54.5252,143.2979 C54.5252,143.7169 54.4282,144.1309 54.2332,144.5389 C54.0382,144.9489 53.7642,145.2959 53.4132,145.5789 C53.0282,145.8869 52.5792,146.1289 52.0662,146.3009 C51.5542,146.4749 50.9372,146.5619 50.2132,146.5619 C49.4382,146.5619 48.7412,146.4889 48.1232,146.3459 C47.5042,146.2009 46.8752,145.9859 46.2342,145.7029 L46.2342,143.9119 L46.3362,143.9119 C46.8792,144.3629 47.5072,144.7129 48.2202,144.9579 C48.9332,145.2029 49.6032,145.3269 50.2272,145.3269 C51.1142,145.3269 51.8032,145.1599 52.2972,144.8289 C52.7922,144.4959 53.0372,144.0539 53.0372,143.4999 C53.0372,143.0219 52.9212,142.6709 52.6882,142.4459 C52.4532,142.2179 52.0992,142.0429 51.6222,141.9169 C51.2612,141.8229 50.8702,141.7419 50.4482,141.6789 C50.0272,141.6169 49.5812,141.5379 49.1082,141.4409 C48.1562,141.2389 47.4482,140.8929 46.9902,140.4039 C46.5302,139.9169 46.2992,139.2799 46.2992,138.4949 C46.2992,137.5949 46.6802,136.8569 47.4412,136.2819 C48.2002,135.7059 49.1672,135.4189 50.3372,135.4189 C51.0922,135.4189 51.7852,135.4909 52.4162,135.6359 C53.0482,135.7789 53.6062,135.9579 54.0922,136.1689 L54.0922,137.8599 L53.9912,137.8599 C53.5812,137.5119 53.0442,137.2259 52.3762,136.9969 C51.7102,136.7679 51.0282,136.6529 50.3302,136.6529 C49.5632,136.6529 48.9492,136.8119 48.4832,137.1289 C48.0202,137.4479 47.7872,137.8559 47.7872,138.3579 C47.7872,138.8049 47.9032,139.1559 48.1342,139.4119 C48.3652,139.6669 48.7722,139.8619 49.3542,139.9979 C49.6622,140.0639 50.1002,140.1459 50.6682,140.2429 C51.2372,140.3399 51.7192,140.4379 52.1132,140.5389 C52.9122,140.7499 53.5152,141.0699 53.9182,141.4979 C54.3232,141.9279 54.5252,142.5279 54.5252,143.2979" id="Fill-12" fill="#565657"></path>
            <polygon id="Fill-14" fill="#565657" points="63.6109 146.3671 56.5249 146.3671 56.5249 135.6141 63.6109 135.6141 63.6109 136.8841 57.9559 136.8841 57.9559 139.8311 63.6109 139.8311 63.6109 141.1031 57.9559 141.1031 57.9559 145.0961 63.6109 145.0961"></polygon>
            <polygon id="Fill-16" fill="#565657" points="73.7872 146.3671 72.0182 146.3671 66.9182 136.7481 66.9182 146.3671 65.5822 146.3671 65.5822 135.6141 67.8012 135.6141 72.4512 144.3961 72.4512 135.6141 73.7872 135.6141"></polygon>
            <polygon id="Fill-18" fill="#565657" points="84.0189 136.8838 80.1779 136.8838 80.1779 146.3668 78.7469 146.3668 78.7469 136.8838 74.9059 136.8838 74.9059 135.6138 84.0189 135.6138"></polygon>
            <polygon id="Fill-20" fill="#565657" points="92.2523 146.3671 85.1683 146.3671 85.1683 135.6141 92.2523 135.6141 92.2523 136.8841 86.5973 136.8841 86.5973 139.8311 92.2523 139.8311 92.2523 141.1031 86.5973 141.1031 86.5973 145.0961 92.2523 145.0961"></polygon>
            <path d="M101.8162,140.979 C101.8162,140.137 101.6692,139.427 101.3762,138.848 C101.0822,138.272 100.6432,137.817 100.0612,137.484 C99.6372,137.244 99.1872,137.075 98.7092,136.982 C98.2332,136.887 97.6632,136.841 96.9992,136.841 L95.6542,136.841 L95.6542,145.139 L96.9992,145.139 C97.6872,145.139 98.2872,145.089 98.8012,144.986 C99.3132,144.886 99.7842,144.698 100.2122,144.424 C100.7472,144.082 101.1482,143.633 101.4152,143.074 C101.6822,142.515 101.8162,141.817 101.8162,140.979 M103.3092,141 C103.3092,141.978 103.0962,142.865 102.6722,143.658 C102.2462,144.453 101.6782,145.069 100.9712,145.508 C100.4782,145.81 99.9322,146.03 99.3272,146.165 C98.7242,146.299 97.9272,146.367 96.9402,146.367 L94.2252,146.367 L94.2252,135.614 L96.9112,135.614 C97.9612,135.614 98.7952,135.689 99.4152,135.842 C100.0332,135.992 100.5552,136.202 100.9852,136.465 C101.7162,136.923 102.2872,137.532 102.6972,138.293 C103.1052,139.054 103.3092,139.957 103.3092,141" id="Fill-22" fill="#565657"></path>
            <path d="M116.8522,143.117 C116.8522,142.684 116.7862,142.34 116.6572,142.084 C116.5262,141.83 116.2902,141.613 115.9502,141.434 C115.7172,141.314 115.4372,141.235 115.1082,141.199 C114.7772,141.163 114.3772,141.146 113.9052,141.146 L111.6592,141.146 L111.6592,145.146 L113.5522,145.146 C114.1772,145.146 114.6892,145.114 115.0902,145.049 C115.4892,144.983 115.8172,144.865 116.0712,144.691 C116.3422,144.503 116.5392,144.29 116.6642,144.048 C116.7892,143.808 116.8522,143.497 116.8522,143.117 M115.9332,138.212 C115.9332,137.953 115.8902,137.734 115.8042,137.555 C115.7172,137.378 115.5772,137.233 115.3852,137.122 C115.1602,136.993 114.8842,136.912 114.5622,136.88 C114.2392,136.85 113.8402,136.834 113.3642,136.834 L111.6592,136.834 L111.6592,139.939 L113.5072,139.939 C113.9552,139.939 114.3112,139.917 114.5762,139.871 C114.8412,139.824 115.0862,139.729 115.3142,139.586 C115.5392,139.441 115.6992,139.255 115.7942,139.025 C115.8872,138.796 115.9332,138.526 115.9332,138.212 M118.3382,143.06 C118.3382,143.593 118.2382,144.066 118.0362,144.474 C117.8332,144.884 117.5612,145.221 117.2192,145.486 C116.8162,145.803 116.3702,146.03 115.8872,146.165 C115.4032,146.299 114.7892,146.367 114.0422,146.367 L110.2282,146.367 L110.2282,135.614 L113.4142,135.614 C114.1982,135.614 114.7862,135.643 115.1762,135.7 C115.5662,135.757 115.9392,135.877 116.2952,136.062 C116.6912,136.268 116.9772,136.535 117.1552,136.859 C117.3342,137.185 117.4212,137.573 117.4212,138.026 C117.4212,138.537 117.2932,138.97 117.0332,139.33 C116.7712,139.688 116.4262,139.974 115.9932,140.191 L115.9932,140.25 C116.7192,140.399 117.2932,140.718 117.7122,141.206 C118.1312,141.695 118.3382,142.313 118.3382,143.06" id="Fill-24" fill="#565657"></path>
            <polygon id="Fill-26" fill="#565657" points="127.6839 135.6142 123.8999 141.6502 123.8999 146.3672 122.4699 146.3672 122.4699 141.8022 118.6719 135.6142 120.2529 135.6142 123.1929 140.4242 126.1599 135.6142"></polygon>
            <polygon id="Fill-28" fill="#565657" points="13.8184 164.1142 12.3894 164.1142 12.3894 154.8492 9.3994 161.1542 8.5464 161.1542 5.5774 154.8492 5.5774 164.1142 4.2424 164.1142 4.2424 153.3612 6.1924 153.3612 9.0584 159.3472 11.8324 153.3612 13.8184 153.3612"></polygon>
            <g id="Group-32" transform="translate(15.000000, 152.338000)">
                <mask id="mask-4" fill="white">
                    <use xlink:href="#path-3"></use>
                </mask>
                <g id="Clip-31"></g>
                <path d="M9.2973,6.4042 C9.2973,5.0072 8.9853,3.9292 8.3593,3.1722 C7.7343,2.4132 6.8783,2.0352 5.7943,2.0352 C4.7023,2.0352 3.8443,2.4132 3.2213,3.1722 C2.5963,3.9292 2.2853,5.0072 2.2853,6.4042 C2.2853,7.8132 2.6043,8.8932 3.2393,9.6412 C3.8753,10.3922 4.7273,10.7662 5.7943,10.7662 C6.8643,10.7662 7.7163,10.3922 8.3483,9.6412 C8.9823,8.8932 9.2973,7.8132 9.2973,6.4042 M9.4283,2.2592 C9.8663,2.7402 10.2013,3.3292 10.4363,4.0282 C10.6693,4.7262 10.7853,5.5182 10.7853,6.4042 C10.7853,7.2892 10.6673,8.0822 10.4293,8.7842 C10.1913,9.4842 9.8563,10.0682 9.4283,10.5352 C8.9853,11.0202 8.4613,11.3862 7.8573,11.6332 C7.2523,11.8782 6.5633,12.0002 5.7873,12.0002 C5.0323,12.0002 4.3443,11.8742 3.7263,11.6262 C3.1073,11.3752 2.5823,11.0112 2.1493,10.5352 C1.7153,10.0572 1.3823,9.4732 1.1483,8.7802 C0.9153,8.0852 0.7993,7.2942 0.7993,6.4042 C0.7993,5.5272 0.9133,4.7402 1.1443,4.0462 C1.3753,3.3492 1.7123,2.7552 2.1563,2.2592 C2.5783,1.7862 3.1053,1.4262 3.7333,1.1752 C4.3623,0.9252 5.0463,0.7992 5.7873,0.7992 C6.5593,0.7992 7.2503,0.9262 7.8643,1.1792 C8.4793,1.4312 9.0003,1.7912 9.4283,2.2592" id="Fill-30" fill="#565657" mask="url(#mask-4)"></path>
            </g>
            <polygon id="Fill-33" fill="#565657" points="34.5613 164.1142 27.7573 164.1142 27.7573 153.3612 29.1873 153.3612 29.1873 162.8432 34.5613 162.8432"></polygon>
            <polygon id="Fill-35" fill="#565657" points="42.7785 164.1142 35.6945 164.1142 35.6945 153.3612 42.7785 153.3612 42.7785 154.6332 37.1235 154.6332 37.1235 157.5782 42.7785 157.5782 42.7785 158.8502 37.1235 158.8502 37.1235 162.8432 42.7785 162.8432"></polygon>
            <polygon id="Fill-37" fill="#565657" points="52.9548 153.3613 49.2428 158.6763 52.9478 164.1143 51.2928 164.1143 48.3618 159.6873 45.3568 164.1143 43.7978 164.1143 47.5448 158.7423 43.8838 153.3613 45.5308 153.3613 48.4258 157.7303 51.3878 153.3613"></polygon>
            <polygon id="Fill-39" fill="#565657" points="63.2832 164.1142 59.0362 164.1142 59.0362 163.0162 60.4452 163.0162 60.4452 154.4592 59.0362 154.4592 59.0362 153.3612 63.2832 153.3612 63.2832 154.4592 61.8742 154.4592 61.8742 163.0162 63.2832 163.0162"></polygon>
            <polygon id="Fill-41" fill="#565657" points="73.6242 164.1142 71.8552 164.1142 66.7552 154.4952 66.7552 164.1142 65.4192 164.1142 65.4192 153.3612 67.6382 153.3612 72.2882 162.1432 72.2882 153.3612 73.6242 153.3612"></polygon>
            <polygon id="Fill-43" fill="#565657" points="83.8578 154.6327 80.0148 154.6327 80.0148 164.1137 78.5858 164.1137 78.5858 154.6327 74.7438 154.6327 74.7438 153.3617 83.8578 153.3617"></polygon>
            <polygon id="Fill-45" fill="#565657" points="92.0912 164.1142 85.0052 164.1142 85.0052 153.3612 92.0912 153.3612 92.0912 154.6332 86.4362 154.6332 86.4362 157.5782 92.0912 157.5782 92.0912 158.8502 86.4362 158.8502 86.4362 162.8432 92.0912 162.8432"></polygon>
            <path d="M99.6155,156.3875 C99.6155,156.0795 99.5615,155.8055 99.4545,155.5675 C99.3455,155.3295 99.1665,155.1285 98.9155,154.9635 C98.7075,154.8245 98.4625,154.7275 98.1795,154.6725 C97.8945,154.6165 97.5595,154.5895 97.1745,154.5895 L95.4915,154.5895 L95.4915,158.6475 L96.9365,158.6475 C97.3895,158.6475 97.7835,158.6075 98.1205,158.5295 C98.4585,158.4485 98.7455,158.3015 98.9795,158.0855 C99.1965,157.8825 99.3575,157.6495 99.4615,157.3865 C99.5635,157.1255 99.6155,156.7925 99.6155,156.3875 L99.6155,156.3875 Z M102.9605,164.1145 L101.1035,164.1145 L97.5075,159.8395 L95.4915,159.8395 L95.4915,164.1145 L94.0625,164.1145 L94.0625,153.3615 L97.0745,153.3615 C97.7245,153.3615 98.2655,153.4045 98.6985,153.4885 C99.1325,153.5725 99.5225,153.7235 99.8675,153.9395 C100.2585,154.1855 100.5625,154.4945 100.7825,154.8675 C101.0015,155.2395 101.1105,155.7125 101.1105,156.2855 C101.1105,157.0605 100.9155,157.7105 100.5255,158.2315 C100.1365,158.7545 99.5995,159.1485 98.9155,159.4135 L102.9605,164.1145 Z" id="Fill-47" fill="#565657"></path>
            <polygon id="Fill-49" fill="#565657" points="112.2539 164.1142 110.4849 164.1142 105.3869 154.4952 105.3869 164.1142 104.0509 164.1142 104.0509 153.3612 106.2679 153.3612 110.9179 162.1432 110.9179 153.3612 112.2539 153.3612"></polygon>
            <path d="M122.6324,161.045 C122.6324,161.464 122.5354,161.878 122.3404,162.288 C122.1454,162.696 121.8714,163.043 121.5204,163.328 C121.1354,163.636 120.6864,163.876 120.1734,164.05 C119.6614,164.223 119.0444,164.309 118.3204,164.309 C117.5454,164.309 116.8484,164.238 116.2304,164.093 C115.6114,163.948 114.9824,163.735 114.3414,163.45 L114.3414,161.659 L114.4434,161.659 C114.9864,162.112 115.6144,162.461 116.3274,162.707 C117.0404,162.952 117.7104,163.074 118.3344,163.074 C119.2214,163.074 119.9104,162.909 120.4044,162.576 C120.8994,162.245 121.1444,161.801 121.1444,161.247 C121.1444,160.771 121.0284,160.42 120.7954,160.193 C120.5604,159.967 120.2064,159.792 119.7294,159.666 C119.3684,159.57 118.9774,159.491 118.5554,159.428 C118.1344,159.365 117.6884,159.287 117.2154,159.19 C116.2634,158.988 115.5554,158.642 115.0974,158.153 C114.6374,157.664 114.4064,157.027 114.4064,156.242 C114.4064,155.342 114.7874,154.604 115.5484,154.029 C116.3074,153.454 117.2744,153.166 118.4444,153.166 C119.1994,153.166 119.8924,153.238 120.5234,153.383 C121.1554,153.528 121.7134,153.705 122.1994,153.918 L122.1994,155.607 L122.0984,155.607 C121.6884,155.261 121.1514,154.973 120.4834,154.744 C119.8174,154.516 119.1354,154.402 118.4374,154.402 C117.6704,154.402 117.0564,154.561 116.5904,154.878 C116.1274,155.195 115.8944,155.605 115.8944,156.106 C115.8944,156.554 116.0104,156.905 116.2414,157.159 C116.4724,157.415 116.8794,157.611 117.4614,157.745 C117.7694,157.813 118.2074,157.893 118.7754,157.99 C119.3444,158.087 119.8264,158.185 120.2204,158.287 C121.0194,158.499 121.6224,158.819 122.0254,159.247 C122.4304,159.675 122.6324,160.275 122.6324,161.045" id="Fill-51" fill="#565657"></path>
            <path d="M35.2202,123.9876 C35.2202,124.9846 34.7972,125.7946 33.9522,126.4176 C33.1072,127.0426 31.9592,127.3536 30.5092,127.3536 C29.6712,127.3536 28.9402,127.2786 28.3172,127.1316 C27.6942,126.9856 27.1102,126.7976 26.5662,126.5716 L26.5662,124.1436 L26.8512,124.1436 C27.3912,124.5746 27.9952,124.9066 28.6632,125.1376 C29.3322,125.3686 29.9732,125.4826 30.5912,125.4826 C30.7492,125.4826 30.9582,125.4706 31.2162,125.4436 C31.4742,125.4146 31.6852,125.3696 31.8482,125.3076 C32.0472,125.2246 32.2122,125.1226 32.3412,125.0016 C32.4712,124.8776 32.5362,124.6966 32.5362,124.4566 C32.5362,124.2346 32.4412,124.0436 32.2532,123.8816 C32.0652,123.7206 31.7892,123.5976 31.4272,123.5116 C31.0462,123.4216 30.6432,123.3356 30.2212,123.2566 C29.7962,123.1786 29.3992,123.0766 29.0262,122.9546 C28.1742,122.6786 27.5612,122.3026 27.1872,121.8276 C26.8132,121.3556 26.6272,120.7676 26.6272,120.0646 C26.6272,119.1226 27.0492,118.3526 27.8942,117.7566 C28.7402,117.1596 29.8272,116.8626 31.1552,116.8626 C31.8212,116.8626 32.4802,116.9266 33.1302,117.0556 C33.7802,117.1846 34.3442,117.3476 34.8192,117.5426 L34.8192,119.8746 L34.5412,119.8746 C34.1332,119.5486 33.6332,119.2746 33.0412,119.0546 C32.4502,118.8356 31.8462,118.7246 31.2302,118.7246 C31.0122,118.7246 30.7952,118.7396 30.5802,118.7696 C30.3662,118.7986 30.1582,118.8536 29.9592,118.9366 C29.7822,119.0046 29.6302,119.1066 29.5022,119.2456 C29.3752,119.3836 29.3132,119.5416 29.3132,119.7186 C29.3132,119.9856 29.4152,120.1896 29.6192,120.3326 C29.8232,120.4766 30.2082,120.6066 30.7742,120.7236 C31.1462,120.8016 31.5032,120.8756 31.8452,120.9486 C32.1872,121.0206 32.5562,121.1206 32.9492,121.2476 C33.7252,121.5026 34.2982,121.8476 34.6672,122.2846 C35.0362,122.7216 35.2202,123.2896 35.2202,123.9876" id="Fill-53" fill="#565657"></path>
            <path d="M41.586,127.3665 C40.834,127.3665 40.139,127.2555 39.502,127.0335 C38.864,126.8115 38.318,126.4805 37.86,126.0415 C37.401,125.6005 37.047,125.0525 36.796,124.3955 C36.544,123.7385 36.418,122.9795 36.418,122.1185 C36.418,121.3155 36.538,120.5885 36.778,119.9355 C37.018,119.2835 37.367,118.7235 37.826,118.2555 C38.266,117.8085 38.811,117.4605 39.46,117.2155 C40.111,116.9715 40.821,116.8485 41.593,116.8485 C42.018,116.8485 42.403,116.8735 42.745,116.9195 C43.087,116.9685 43.404,117.0295 43.694,117.1065 C43.996,117.1935 44.272,117.2885 44.519,117.3965 C44.766,117.5015 44.983,117.6005 45.169,117.6915 L45.169,120.1465 L44.87,120.1465 C44.743,120.0375 44.584,119.9105 44.39,119.7595 C44.197,119.6115 43.978,119.4645 43.735,119.3215 C43.484,119.1765 43.215,119.0545 42.925,118.9555 C42.635,118.8555 42.324,118.8075 41.994,118.8075 C41.627,118.8075 41.278,118.8645 40.947,118.9795 C40.615,119.0955 40.309,119.2875 40.028,119.5535 C39.761,119.8115 39.545,120.1515 39.38,120.5785 C39.213,121.0025 39.131,121.5185 39.131,122.1255 C39.131,122.7575 39.221,123.2875 39.4,123.7115 C39.579,124.1375 39.804,124.4725 40.076,124.7165 C40.352,124.9655 40.66,125.1425 41,125.2495 C41.341,125.3555 41.676,125.4095 42.007,125.4095 C42.324,125.4095 42.639,125.3605 42.949,125.2665 C43.258,125.1715 43.547,125.0445 43.808,124.8815 C44.03,124.7505 44.238,124.6105 44.428,124.4625 C44.618,124.3135 44.775,124.1845 44.897,124.0755 L45.169,124.0755 L45.169,126.4965 C44.915,126.6095 44.673,126.7165 44.442,126.8165 C44.209,126.9155 43.968,127.0015 43.713,127.0745 C43.382,127.1695 43.072,127.2415 42.782,127.2915 C42.492,127.3415 42.093,127.3665 41.586,127.3665" id="Fill-55" fill="#565657"></path>
            <polygon id="Fill-57" fill="#565657" points="56.1618 127.1695 53.5508 127.1695 53.5508 122.7095 49.6958 122.7095 49.6958 127.1695 47.0848 127.1695 47.0848 117.0455 49.6958 117.0455 49.6958 120.7515 53.5508 120.7515 53.5508 117.0455 56.1618 117.0455"></polygon>
            <path d="M65.1294,124.6752 C65.3834,124.3652 65.5714,124.0022 65.6934,123.5832 C65.8154,123.1642 65.8764,122.6712 65.8764,122.1042 C65.8764,121.4972 65.8064,120.9812 65.6664,120.5552 C65.5254,120.1292 65.3424,119.7832 65.1154,119.5202 C64.8844,119.2492 64.6174,119.0512 64.3164,118.9292 C64.0154,118.8072 63.7004,118.7462 63.3744,118.7462 C63.0434,118.7462 62.7314,118.8032 62.4394,118.9222 C62.1484,119.0402 61.8794,119.2352 61.6344,119.5072 C61.4084,119.7612 61.2224,120.1112 61.0804,120.5572 C60.9374,121.0042 60.8654,121.5222 60.8654,122.1112 C60.8654,122.7142 60.9354,123.2262 61.0734,123.6512 C61.2114,124.0752 61.3944,124.4212 61.6214,124.6882 C61.8474,124.9542 62.1124,125.1532 62.4164,125.2782 C62.7194,125.4062 63.0394,125.4702 63.3744,125.4702 C63.7094,125.4702 64.0304,125.4062 64.3344,125.2772 C64.6374,125.1462 64.9024,124.9452 65.1294,124.6752 M68.5894,122.1112 C68.5894,123.7242 68.1274,125.0062 67.2034,125.9552 C66.2774,126.9062 65.0004,127.3812 63.3674,127.3812 C61.7414,127.3812 60.4644,126.9062 59.5404,125.9552 C58.6154,125.0062 58.1534,123.7242 58.1534,122.1112 C58.1534,120.4832 58.6154,119.1972 59.5404,118.2522 C60.4644,117.3082 61.7414,116.8362 63.3674,116.8362 C64.9914,116.8362 66.2664,117.3082 67.1954,118.2522 C68.1254,119.1972 68.5894,120.4832 68.5894,122.1112" id="Fill-59" fill="#565657"></path>
            <path d="M76.9674,124.6752 C77.2214,124.3652 77.4094,124.0022 77.5314,123.5832 C77.6534,123.1642 77.7144,122.6712 77.7144,122.1042 C77.7144,121.4972 77.6444,120.9812 77.5044,120.5552 C77.3634,120.1292 77.1804,119.7832 76.9534,119.5202 C76.7224,119.2492 76.4554,119.0512 76.1544,118.9292 C75.8534,118.8072 75.5384,118.7462 75.2124,118.7462 C74.8814,118.7462 74.5694,118.8032 74.2774,118.9222 C73.9864,119.0402 73.7174,119.2352 73.4724,119.5072 C73.2464,119.7612 73.0604,120.1112 72.9184,120.5572 C72.7754,121.0042 72.7034,121.5222 72.7034,122.1112 C72.7034,122.7142 72.7734,123.2262 72.9114,123.6512 C73.0494,124.0752 73.2324,124.4212 73.4594,124.6882 C73.6854,124.9542 73.9504,125.1532 74.2544,125.2782 C74.5574,125.4062 74.8774,125.4702 75.2124,125.4702 C75.5474,125.4702 75.8684,125.4062 76.1724,125.2772 C76.4754,125.1462 76.7404,124.9452 76.9674,124.6752 M80.4274,122.1112 C80.4274,123.7242 79.9654,125.0062 79.0414,125.9552 C78.1154,126.9062 76.8384,127.3812 75.2054,127.3812 C73.5794,127.3812 72.3024,126.9062 71.3784,125.9552 C70.4534,125.0062 69.9914,123.7242 69.9914,122.1112 C69.9914,120.4832 70.4534,119.1972 71.3784,118.2522 C72.3024,117.3082 73.5794,116.8362 75.2054,116.8362 C76.8294,116.8362 78.1044,117.3082 79.0334,118.2522 C79.9634,119.1972 80.4274,120.4832 80.4274,122.1112" id="Fill-61" fill="#565657"></path>
            <polygon id="Fill-63" fill="#565657" points="89.7204 127.1695 82.4184 127.1695 82.4184 117.0455 85.0294 117.0455 85.0294 125.2105 89.7204 125.2105"></polygon>
            <path d="M99.3952,123.9876 C99.3952,124.9846 98.9722,125.7946 98.1272,126.4176 C97.2822,127.0426 96.1342,127.3536 94.6842,127.3536 C93.8462,127.3536 93.1152,127.2786 92.4922,127.1316 C91.8692,126.9856 91.2852,126.7976 90.7412,126.5716 L90.7412,124.1436 L91.0262,124.1436 C91.5662,124.5746 92.1702,124.9066 92.8382,125.1376 C93.5072,125.3686 94.1482,125.4826 94.7662,125.4826 C94.9242,125.4826 95.1332,125.4706 95.3912,125.4436 C95.6492,125.4146 95.8602,125.3696 96.0232,125.3076 C96.2222,125.2246 96.3872,125.1226 96.5162,125.0016 C96.6462,124.8776 96.7112,124.6966 96.7112,124.4566 C96.7112,124.2346 96.6162,124.0436 96.4282,123.8816 C96.2402,123.7206 95.9642,123.5976 95.6022,123.5116 C95.2212,123.4216 94.8182,123.3356 94.3962,123.2566 C93.9712,123.1786 93.5742,123.0766 93.2012,122.9546 C92.3492,122.6786 91.7362,122.3026 91.3622,121.8276 C90.9882,121.3556 90.8022,120.7676 90.8022,120.0646 C90.8022,119.1226 91.2242,118.3526 92.0692,117.7566 C92.9152,117.1596 94.0022,116.8626 95.3302,116.8626 C95.9962,116.8626 96.6552,116.9266 97.3052,117.0556 C97.9552,117.1846 98.5192,117.3476 98.9942,117.5426 L98.9942,119.8746 L98.7162,119.8746 C98.3082,119.5486 97.8082,119.2746 97.2162,119.0546 C96.6252,118.8356 96.0212,118.7246 95.4052,118.7246 C95.1872,118.7246 94.9702,118.7396 94.7552,118.7696 C94.5412,118.7986 94.3332,118.8536 94.1342,118.9366 C93.9572,119.0046 93.8052,119.1066 93.6772,119.2456 C93.5502,119.3836 93.4882,119.5416 93.4882,119.7186 C93.4882,119.9856 93.5902,120.1896 93.7942,120.3326 C93.9982,120.4766 94.3832,120.6066 94.9492,120.7236 C95.3212,120.8016 95.6782,120.8756 96.0202,120.9486 C96.3622,121.0206 96.7312,121.1206 97.1242,121.2476 C97.9002,121.5026 98.4732,121.8476 98.8422,122.2846 C99.2112,122.7216 99.3952,123.2896 99.3952,123.9876" id="Fill-65" fill="#565657"></path>
            <polygon id="Fill-67" fill="#929397" points="116.6243 51.6756 9.6593 51.6756 20.8163 27.9576 105.4673 27.9576"></polygon>
            <mask id="mask-6" fill="white">
                <use xlink:href="#path-5"></use>
            </mask>
            <g id="Clip-70"></g>
            <polygon id="Fill-69" fill="#FFFFFF" mask="url(#mask-6)" points="11.883 87.605 114.401 87.605 114.401 53.899 11.883 53.899"></polygon>
            <path d="M14.106,85.382 L112.177,85.382 L112.177,56.123 L14.106,56.123 L14.106,85.382 Z M9.659,89.829 L116.624,89.829 L116.624,51.675 L9.659,51.675 L9.659,89.829 Z" id="Fill-71" fill="#929397" mask="url(#mask-6)"></path>
            <polygon id="Fill-72" fill="#FFFFFF" mask="url(#mask-6)" points="63.1412 18.2119 100.3072 40.1629 63.1412 40.1629 25.9762 40.1629"></polygon>
            <path d="M32.9237,37.9392 L93.3597,37.9392 L63.1407,20.9432 L32.9237,37.9392 Z M100.3077,42.3862 L25.9767,42.3862 L24.6857,38.3522 L61.8507,16.4012 L64.4317,16.4012 L101.5977,38.3522 L100.3077,42.3862 Z" id="Fill-73" fill="#929397" mask="url(#mask-6)"></path>
            <polygon id="Fill-74" fill="#FFFFFF" mask="url(#mask-6)" points="31.081 87.606 95.202 87.606 95.202 49.453 31.081 49.453"></polygon>
            <path d="M33.305,85.382 L92.979,85.382 L92.979,51.676 L33.305,51.676 L33.305,85.382 Z M28.858,89.829 L97.426,89.829 L97.426,47.229 L28.858,47.229 L28.858,89.829 Z" id="Fill-75" fill="#929397" mask="url(#mask-6)"></path>
            <polygon id="Fill-76" fill="#FFFFFF" mask="url(#mask-6)" points="27.746 49.453 98.538 49.453 98.538 40.157 27.746 40.157"></polygon>
            <path d="M29.969,47.229 L96.314,47.229 L96.314,42.38 L29.969,42.38 L29.969,47.229 Z M25.522,51.676 L100.761,51.676 L100.761,37.933 L25.522,37.933 L25.522,51.676 Z" id="Fill-77" fill="#929397" mask="url(#mask-6)"></path>
            <path d="M63.1417,17.9351 L63.1417,7.5391" id="Fill-78" fill="#FFFFFF" mask="url(#mask-6)"></path>
            <polygon id="Fill-79" fill="#929397" mask="url(#mask-6)" points="60.918 17.935 65.365 17.935 65.365 3.335 60.918 3.335"></polygon>
            <polygon id="Fill-80" fill="#D7D5D8" mask="url(#mask-6)" points="67.6252 16.6756 67.6252 11.6726 67.6252 6.6706 92.9792 6.6706 89.9822 11.6726 92.9792 16.6756"></polygon>
            <polygon id="Fill-81" fill="#D7D5D8" mask="url(#mask-6)" points="19.074 70.442 23.521 70.442 23.521 64.513 19.074 64.513"></polygon>
            <polygon id="Fill-82" fill="#D7D5D8" mask="url(#mask-6)" points="19.074 78.735 23.521 78.735 23.521 72.806 19.074 72.806"></polygon>
            <polygon id="Fill-83" fill="#D7D5D8" mask="url(#mask-6)" points="102.434 70.442 106.881 70.442 106.881 64.513 102.434 64.513"></polygon>
            <polygon id="Fill-84" fill="#D7D5D8" mask="url(#mask-6)" points="102.434 78.735 106.881 78.735 106.881 72.806 102.434 72.806"></polygon>
            <path d="M66.477,32.0231 C66.477,33.8651 64.984,35.3581 63.142,35.3581 C61.3,35.3581 59.806,33.8651 59.806,32.0231 C59.806,30.1811 61.3,28.6881 63.142,28.6881 C64.984,28.6881 66.477,30.1811 66.477,32.0231" id="Fill-85" fill="#D7D5D8" mask="url(#mask-6)"></path>
            <path d="M66.477,3.3352 C66.477,5.1772 64.984,6.6702 63.142,6.6702 C61.3,6.6702 59.806,5.1772 59.806,3.3352 C59.806,1.4932 61.3,0.0002 63.142,0.0002 C64.984,0.0002 66.477,1.4932 66.477,3.3352" id="Fill-86" fill="#929397" mask="url(#mask-6)"></path>
            <polygon id="Fill-87" fill="#929397" mask="url(#mask-6)" points="9.659 90.486 116.624 90.486 116.624 85.382 9.659 85.382"></polygon>
            <path d="M60.8927,68.3253 C61.3887,68.7513 61.7867,69.2493 62.0797,69.8183 C62.3737,70.3863 62.5227,71.1423 62.5227,72.0873 C62.5227,73.1533 62.3107,74.1483 61.8897,75.0703 C61.4677,75.9943 60.8207,76.7883 59.9487,77.4473 C59.0967,78.0863 58.0937,78.5763 56.9407,78.9173 C55.7877,79.2573 54.3907,79.4273 52.7467,79.4273 C50.8667,79.4273 49.2557,79.2783 47.9107,78.9853 C46.5657,78.6913 45.4717,78.3603 44.6287,77.9943 L44.6287,73.0153 L45.2227,73.0153 C46.0967,73.5433 47.1387,74.0003 48.3527,74.3863 C49.5647,74.7713 50.6737,74.9653 51.6797,74.9653 C52.2667,74.9653 52.9087,74.9163 53.5997,74.8203 C54.2887,74.7233 54.8727,74.5133 55.3507,74.1883 C55.7247,73.9353 56.0237,73.6273 56.2477,73.2673 C56.4717,72.9073 56.5827,72.3863 56.5827,71.7063 C56.5827,71.0473 56.4307,70.5363 56.1257,70.1753 C55.8217,69.8153 55.4207,69.5593 54.9247,69.4073 C54.4267,69.2443 53.8267,69.1563 53.1267,69.1403 C52.4247,69.1253 51.7767,69.1163 51.1787,69.1163 L49.9287,69.1163 L49.9287,65.0663 L51.2237,65.0663 C52.0147,65.0663 52.7147,65.0413 53.3237,64.9913 C53.9327,64.9393 54.4517,64.8223 54.8777,64.6403 C55.3237,64.4483 55.6587,64.1903 55.8827,63.8723 C56.1067,63.5513 56.2177,63.0823 56.2177,62.4623 C56.2177,62.0063 56.1007,61.6393 55.8667,61.3593 C55.6337,61.0803 55.3397,60.8583 54.9857,60.6973 C54.5877,60.5143 54.1227,60.3923 53.5837,60.3303 C53.0447,60.2693 52.5827,60.2383 52.1977,60.2383 C51.2427,60.2383 50.2077,60.4053 49.0907,60.7343 C47.9727,61.0643 46.8937,61.5383 45.8477,62.1583 L45.2837,62.1583 L45.2837,57.2393 C46.1167,56.9043 47.2497,56.5823 48.6787,56.2723 C50.1117,55.9623 51.5617,55.8083 53.0357,55.8083 C54.4657,55.8083 55.7197,55.9323 56.7977,56.1813 C57.8717,56.4303 58.7597,56.7633 59.4617,57.1783 C60.2927,57.6763 60.9127,58.2793 61.3187,58.9903 C61.7257,59.7013 61.9277,60.5343 61.9277,61.4883 C61.9277,62.7473 61.5377,63.8723 60.7547,64.8603 C59.9737,65.8503 58.9427,66.4823 57.6637,66.7563 L57.6637,66.9693 C58.1817,67.0413 58.7317,67.1833 59.3077,67.3963 C59.8877,67.6093 60.4147,67.9193 60.8927,68.3253" id="Fill-88" fill="#E83649" mask="url(#mask-6)"></path>
            <path d="M77.4401,65.4889 C77.4401,64.2479 77.3221,63.2289 77.0821,62.4309 C76.8441,61.6319 76.5161,61.0139 76.1011,60.5769 C75.8051,60.2509 75.4671,60.0169 75.0801,59.8749 C74.6951,59.7319 74.2881,59.6599 73.8621,59.6599 C73.4671,59.6599 73.0871,59.7299 72.7271,59.8659 C72.3671,60.0039 72.0201,60.2409 71.6851,60.5769 C71.3701,60.9009 71.1141,61.3289 70.9151,61.8579 C70.7181,62.3879 70.6191,63.0179 70.6191,63.7499 C70.6191,64.4609 70.7251,65.0589 70.9381,65.5429 C71.1511,66.0259 71.4471,66.4089 71.8211,66.6939 C72.1771,66.9699 72.5961,67.1629 73.0781,67.2739 C73.5601,67.3869 74.0861,67.4429 74.6541,67.4429 C75.1101,67.4429 75.6081,67.3839 76.1451,67.2669 C76.6841,67.1509 77.1001,67.0309 77.3951,66.9089 C77.3951,66.7959 77.4021,66.6369 77.4191,66.4269 C77.4331,66.2199 77.4401,65.9059 77.4401,65.4889 M83.2721,66.3379 C83.2721,68.2379 83.0291,70.0049 82.5421,71.6399 C82.0541,73.2769 81.3131,74.6519 80.3191,75.7689 C79.2431,76.9779 77.9071,77.8859 76.3141,78.4889 C74.7201,79.0939 72.8611,79.3969 70.7411,79.3969 C69.9891,79.3969 69.1761,79.3499 68.3041,79.2589 C67.4301,79.1679 66.8571,79.0869 66.5831,79.0159 L66.5831,74.5529 L67.1921,74.5529 C67.4971,74.6969 67.9321,74.8489 68.4941,75.0099 C69.0581,75.1729 69.8261,75.2549 70.8021,75.2549 C71.5941,75.2549 72.3691,75.1549 73.1321,74.9579 C73.8931,74.7589 74.5481,74.4479 75.0961,74.0209 C75.6941,73.5629 76.1871,72.9919 76.5731,72.3079 C76.9581,71.6219 77.2181,70.7959 77.3491,69.8309 C76.4661,70.3399 75.6461,70.7279 74.8901,70.9969 C74.1331,71.2669 73.1931,71.4019 72.0641,71.4019 C71.2121,71.4019 70.3971,71.2979 69.6201,71.0899 C68.8451,70.8809 68.1361,70.5579 67.4971,70.1209 C66.6551,69.5219 65.9821,68.7319 65.4781,67.7509 C64.9771,66.7709 64.7251,65.5339 64.7251,64.0399 C64.7251,61.6099 65.5701,59.6319 67.2601,58.1029 C68.9511,56.5729 71.1671,55.8089 73.9071,55.8089 C75.3181,55.8089 76.5701,55.9929 77.6621,56.3639 C78.7531,56.7349 79.6941,57.3019 80.4861,58.0629 C81.4101,58.9369 82.1051,60.0489 82.5721,61.4009 C83.0391,62.7509 83.2721,64.3969 83.2721,66.3379" id="Fill-89" fill="#E83649" mask="url(#mask-6)"></path>
        </g>
    </g>
</svg>