<?xml version="1.0" encoding="UTF-8" standalone="no"?>
<svg width="156px" height="160px" viewBox="0 0 156 160" version="1.1" xmlns="http://www.w3.org/2000/svg" xmlns:xlink="http://www.w3.org/1999/xlink">
    <!-- Generator: Sketch 3.6.1 (26313) - http://www.bohemiancoding.com/sketch -->
    <title>Group 2</title>
    <desc>Created with Sketch.</desc>
    <defs></defs>
    <g id="Page-1" stroke="none" stroke-width="1" fill="none" fill-rule="evenodd">
        <g id="College" transform="translate(-258.000000, -1095.000000)">
            <g id="Group-2" transform="translate(258.000000, 1095.000000)">
                <path d="M8.35660361,138.57233 C8.35660361,138.996111 8.2586494,139.412491 8.06089277,139.82702 C7.86498434,140.237847 7.58960361,140.589456 7.2365988,140.876295 C6.84663012,141.187192 6.39382289,141.429617 5.87817711,141.605422 C5.36068313,141.779376 4.73784217,141.866353 4.00965422,141.866353 C3.22971687,141.866353 2.52740361,141.79418 1.90271446,141.647985 C1.27987349,141.50179 0.645943373,141.287123 0.000924096385,141.000284 L0.000924096385,139.192272 L0.102574699,139.192272 C0.649639759,139.649364 1.28356988,140.000974 2.00251687,140.248951 C2.71961566,140.496928 3.39420602,140.619066 4.02443976,140.619066 C4.91896506,140.619066 5.61388554,140.454364 6.1110494,140.11756 C6.60821325,139.782606 6.85587108,139.334767 6.85587108,138.775893 C6.85587108,138.296594 6.73943494,137.941284 6.50471446,137.711813 C6.26814578,137.484192 5.91144458,137.306537 5.43091446,137.180698 C5.06682048,137.082617 4.67130723,137.003043 4.24622289,136.940123 C3.82298675,136.877203 3.37202771,136.797629 2.89704217,136.699548 C1.93598193,136.495985 1.22442771,136.146226 0.760531325,135.653974 C0.29663494,135.15987 0.0656108434,134.517721 0.0656108434,133.725675 C0.0656108434,132.817043 0.448186747,132.071261 1.21518675,131.492031 C1.98218675,130.910951 2.95618434,130.62041 4.13348313,130.62041 C4.89678675,130.62041 5.59540361,130.692583 6.23118193,130.838778 C6.86696024,130.984974 7.43065904,131.164479 7.92043012,131.379146 L7.92043012,133.083525 L7.81693133,133.083525 C7.40478434,132.735617 6.86326386,132.443226 6.19052169,132.211905 C5.51777952,131.982433 4.83025181,131.867698 4.12609036,131.867698 C3.35539398,131.867698 2.7344012,132.028698 2.26680843,132.348847 C1.79921566,132.668997 1.56449518,133.081675 1.56449518,133.588732 C1.56449518,134.040272 1.68093133,134.393732 1.91380361,134.650962 C2.1466759,134.910043 2.5569747,135.106203 3.1447,135.241295 C3.45519639,135.309767 3.89691446,135.391192 4.46800602,135.489272 C5.04279398,135.587353 5.52702048,135.685433 5.92623012,135.789066 C6.73019398,136.001882 7.3382494,136.325732 7.74485181,136.758767 C8.15330241,137.189951 8.35660361,137.795089 8.35660361,138.57233" id="Fill-144" fill="#444444"></path>
                <path d="M17.6705711,132.10087 L13.7986072,132.10087 L13.7986072,141.670192 L12.3570169,141.670192 L12.3570169,132.10087 L8.48505301,132.10087 L8.48505301,130.818422 L17.6705711,130.818422 L17.6705711,132.10087 Z" id="Fill-146" fill="#444444"></path>
                <path d="M23.8993504,137.406838 L21.9994082,132.079033 L20.0920733,137.406838 L23.8993504,137.406838 Z M26.9414757,141.670562 L25.4056275,141.670562 L24.3429166,138.646723 L19.6558998,138.646723 L18.5931889,141.670562 L17.1294202,141.670562 L21.0753118,130.816941 L22.9974323,130.816941 L26.9414757,141.670562 Z" id="Fill-148" fill="#444444"></path>
                <path d="M33.4543222,133.87187 C33.4543222,133.560974 33.4007246,133.285238 33.2916812,133.044663 C33.1826378,132.804089 32.9996667,132.600525 32.7483125,132.435824 C32.5394667,132.29333 32.2918089,132.1971 32.005339,132.139732 C31.7207173,132.084215 31.3824981,132.058307 30.9943776,132.058307 L29.2977366,132.058307 L29.2977366,136.151778 L30.7541125,136.151778 C31.2106161,136.151778 31.6079776,136.112916 31.9480451,136.033341 C32.2881125,135.951916 32.5764306,135.80387 32.8129993,135.585502 C33.031086,135.380089 33.193727,135.145066 33.299074,134.880433 C33.4025728,134.615801 33.4543222,134.280847 33.4543222,133.87187 L33.4543222,133.87187 Z M36.8254258,141.670192 L34.9550547,141.670192 L31.3289005,137.356502 L29.2977366,137.356502 L29.2977366,141.670192 L27.8561463,141.670192 L27.8561463,130.818422 L30.892727,130.818422 C31.5469872,130.818422 32.0940523,130.860985 32.5302258,130.946111 C32.9663993,131.031238 33.3600643,131.182985 33.7093728,131.401353 C34.1030378,131.64933 34.4098378,131.962077 34.6297728,132.337744 C34.8497077,132.71341 34.9605993,133.190859 34.9605993,133.768238 C34.9605993,134.551031 34.7646908,135.207985 34.3710258,135.733548 C33.9792089,136.260962 33.4376884,136.658836 32.7483125,136.925318 L36.8254258,141.670192 Z" id="Fill-150" fill="#444444"></path>
                <path d="M45.2221352,132.10087 L41.3501713,132.10087 L41.3501713,141.670192 L39.908581,141.670192 L39.908581,132.10087 L36.0366171,132.10087 L36.0366171,130.818422 L45.2221352,130.818422 L45.2221352,132.10087 Z" id="Fill-152" fill="#444444"></path>
                <path d="M53.0885981,141.670007 L45.9471812,141.670007 L45.9471812,130.818237 L53.0885981,130.818237 L53.0885981,132.100685 L47.3887716,132.100685 L47.3887716,135.074559 L53.0885981,135.074559 L53.0885981,136.357007 L47.3887716,136.357007 L47.3887716,140.387559 L53.0885981,140.387559 L53.0885981,141.670007 Z" id="Fill-154" fill="#444444"></path>
                <path d="M62.2944463,136.233944 C62.2944463,135.382679 62.1465908,134.664656 61.85088,134.083576 C61.5551692,133.498794 61.1116029,133.039852 60.5257258,132.706748 C60.0987933,132.462472 59.6441378,132.29407 59.1636077,132.19784 C58.6830776,132.105311 58.1082896,132.057197 57.4392439,132.057197 L56.0845186,132.057197 L56.0845186,140.432898 L57.4392439,140.432898 C58.1341643,140.432898 58.7385234,140.379231 59.2541692,140.2793 C59.7716631,140.175668 60.2466487,139.986909 60.6772776,139.709323 C61.2169499,139.363266 61.6217041,138.909875 61.889692,138.3473 C62.1595282,137.782875 62.2944463,137.077806 62.2944463,136.233944 M63.8007234,136.256151 C63.8007234,137.242507 63.586333,138.134484 63.1575523,138.937633 C62.7269234,139.738932 62.1558318,140.360725 61.4424294,140.803013 C60.9471137,141.110208 60.3963523,141.330426 59.7864487,141.465518 C59.1765451,141.602461 58.3744294,141.670932 57.3801017,141.670932 L54.6429282,141.670932 L54.6429282,130.817311 L57.3523788,130.817311 C58.4095451,130.817311 59.2504728,130.893185 59.8733137,131.046783 C60.4980029,131.20038 61.0247378,131.411346 61.4572149,131.677829 C62.1946439,132.138622 62.7694318,132.753013 63.1815788,133.521001 C63.595574,134.28899 63.8007234,135.199472 63.8007234,136.256151" id="Fill-156" fill="#444444"></path>
                <path d="M75.4131034,137.406838 L73.5131612,132.079033 L71.6058263,137.406838 L75.4131034,137.406838 Z M78.4552287,141.670562 L76.9193805,141.670562 L75.8566696,138.646723 L71.1696528,138.646723 L70.1069419,141.670562 L68.6431733,141.670562 L72.5890648,130.816941 L74.5111853,130.816941 L78.4552287,141.670562 Z" id="Fill-158" fill="#444444"></path>
                <path d="M87.246712,138.57233 C87.246712,138.996111 87.1487578,139.412491 86.9510012,139.82702 C86.7550928,140.237847 86.479712,140.589456 86.1267072,140.876295 C85.7367386,141.187192 85.2839313,141.429617 84.7682855,141.605422 C84.2507916,141.779376 83.6279506,141.866353 82.8997627,141.866353 C82.1198253,141.866353 81.417512,141.79418 80.7928229,141.647985 C80.1699819,141.50179 79.5360518,141.287123 78.8910325,141.000284 L78.8910325,139.192272 L78.9926831,139.192272 C79.5397482,139.649364 80.1736783,140.000974 80.8926253,140.248951 C81.6097241,140.496928 82.2843145,140.619066 82.9145482,140.619066 C83.8090735,140.619066 84.503994,140.454364 85.0011578,140.11756 C85.4983217,139.782606 85.7459795,139.334767 85.7459795,138.775893 C85.7459795,138.296594 85.6295434,137.941284 85.3948229,137.711813 C85.1582542,137.484192 84.801553,137.306537 84.3210229,137.180698 C83.9569289,137.082617 83.5614157,137.003043 83.1363313,136.940123 C82.7130952,136.877203 82.2621361,136.797629 81.7871506,136.699548 C80.8260904,136.495985 80.1145361,136.146226 79.6506398,135.653974 C79.1867434,135.15987 78.9557193,134.517721 78.9557193,133.725675 C78.9557193,132.817043 79.3382952,132.071261 80.1052952,131.492031 C80.8722952,130.910951 81.8462928,130.62041 83.0235916,130.62041 C83.7868952,130.62041 84.485512,130.692583 85.1212904,130.838778 C85.7570687,130.984974 86.3207675,131.164479 86.8105386,131.379146 L86.8105386,133.083525 L86.7070398,133.083525 C86.2948928,132.735617 85.7533723,132.443226 85.0806301,132.211905 C84.407888,131.982433 83.7203602,131.867698 83.0161988,131.867698 C82.2455024,131.867698 81.6245096,132.028698 81.1569169,132.348847 C80.6893241,132.668997 80.4546036,133.081675 80.4546036,133.588732 C80.4546036,134.040272 80.5710398,134.393732 80.803912,134.650962 C81.0367843,134.910043 81.4470831,135.106203 82.0348084,135.241295 C82.3453048,135.309767 82.7870229,135.391192 83.3581145,135.489272 C83.9329024,135.587353 84.4171289,135.685433 84.8163386,135.789066 C85.6203024,136.001882 86.2283578,136.325732 86.6349602,136.758767 C87.0434108,137.189951 87.246712,137.795089 87.246712,138.57233" id="Fill-160" fill="#444444"></path>
                <path d="M101.711962,140.883883 C101.443974,140.998618 101.203709,141.109653 100.987471,141.211434 C100.771232,141.313216 100.488459,141.420549 100.13915,141.533434 C99.8434395,141.624113 99.521854,141.701837 99.1743937,141.770308 C98.8287817,141.835078 98.4462058,141.866538 98.0285142,141.866538 C97.2430323,141.866538 96.5277817,141.757354 95.8846106,141.537136 C95.2432877,141.313216 94.6832853,140.969009 94.2064516,140.497113 C93.7425552,140.03632 93.3784612,139.449687 93.1160178,138.737216 C92.8535745,138.024745 92.7223528,137.197538 92.7223528,136.255595 C92.7223528,135.361768 92.8480299,134.56232 93.1012323,133.857251 C93.3544347,133.152182 93.7166805,132.558147 94.1935142,132.071446 C94.6537142,131.599549 95.2100202,131.240538 95.8624323,130.992561 C96.5148443,130.744584 97.2411841,130.620595 98.035907,130.620595 C98.6180877,130.620595 99.2002684,130.690917 99.780601,130.831561 C100.359085,130.974055 101.004105,131.220182 101.711962,131.575492 L101.711962,133.289124 L101.602919,133.289124 C101.005953,132.787618 100.414531,132.424906 99.8268058,132.195434 C99.2390805,131.967814 98.6106949,131.853078 97.9416492,131.853078 C97.3927359,131.853078 96.8992684,131.941906 96.4612467,132.119561 C96.0213769,132.295366 95.62956,132.572952 95.283948,132.946768 C94.9494251,133.30948 94.6888299,133.770274 94.5021624,134.327297 C94.3154949,134.88432 94.2212371,135.524618 94.2212371,136.255595 C94.2212371,137.018032 94.3247359,137.674986 94.5317335,138.224607 C94.7387311,138.770526 95.0030227,139.220216 95.3283046,139.564423 C95.668372,139.923434 96.0638853,140.189917 96.5185407,140.362021 C96.9731961,140.535975 97.4518781,140.619251 97.9564347,140.619251 C98.649507,140.619251 99.3000708,140.502664 99.9062781,140.26394 C100.514333,140.025216 101.081729,139.669906 101.610312,139.192457 L101.711962,139.192457 L101.711962,140.883883 Z" id="Fill-162" fill="#444444"></path>
                <path d="M110.968266,136.248378 C110.968266,134.83824 110.654073,133.750102 110.021992,132.985815 C109.391758,132.219677 108.5305,131.838459 107.438218,131.838459 C106.336695,131.838459 105.471741,132.219677 104.843355,132.985815 C104.21497,133.750102 103.900777,134.83824 103.900777,136.248378 C103.900777,137.67147 104.220514,138.759608 104.861837,139.516493 C105.501312,140.273378 106.360722,140.650895 107.438218,140.650895 C108.515714,140.650895 109.373276,140.273378 110.010902,139.516493 C110.650377,138.759608 110.968266,137.67147 110.968266,136.248378 M111.099488,132.064229 C111.541206,132.55093 111.879425,133.144964 112.115994,133.850033 C112.350714,134.555102 112.468999,135.354551 112.468999,136.248378 C112.468999,137.140355 112.348866,137.941654 112.108601,138.650424 C111.868336,139.357344 111.531965,139.945826 111.099488,140.417723 C110.654073,140.908125 110.12549,141.27639 109.515587,141.526217 C108.907531,141.772344 108.212611,141.896332 107.430825,141.896332 C106.66937,141.896332 105.976298,141.768643 105.351608,141.518815 C104.728767,141.265286 104.198336,140.898872 103.762163,140.417723 C103.325989,139.934723 102.989618,139.34624 102.754898,138.646723 C102.518329,137.945355 102.401893,137.145907 102.401893,136.248378 C102.401893,135.361953 102.518329,134.569907 102.751201,133.868539 C102.984073,133.165321 103.322293,132.565734 103.769555,132.064229 C104.196488,131.58678 104.726919,131.224068 105.359001,130.970539 C105.992931,130.718861 106.684155,130.591171 107.430825,130.591171 C108.207066,130.591171 108.905683,130.720711 109.52298,130.97424 C110.142124,131.22962 110.667011,131.592332 111.099488,132.064229" id="Fill-164" fill="#444444"></path>
                <path d="M120.881603,141.670007 L114.024807,141.670007 L114.024807,130.818237 L115.46455,130.818237 L115.46455,140.387559 L120.881603,140.387559 L120.881603,141.670007 Z" id="Fill-166" fill="#444444"></path>
                <path d="M128.448473,141.670007 L121.591678,141.670007 L121.591678,130.818237 L123.03142,130.818237 L123.03142,140.387559 L128.448473,140.387559 L128.448473,141.670007 Z" id="Fill-168" fill="#444444"></path>
                <path d="M136.299781,141.670007 L129.158364,141.670007 L129.158364,130.818237 L136.299781,130.818237 L136.299781,132.100685 L130.599955,132.100685 L130.599955,135.074559 L136.299781,135.074559 L136.299781,136.357007 L130.599955,136.357007 L130.599955,140.387559 L136.299781,140.387559 L136.299781,141.670007 Z" id="Fill-170" fill="#444444"></path>
                <path d="M146.895286,140.869448 C146.303864,141.139632 145.656996,141.376506 144.956531,141.580069 C144.254218,141.779931 143.575931,141.881713 142.921671,141.881713 C142.077047,141.881713 141.302654,141.765126 140.598493,141.531954 C139.894331,141.298782 139.295517,140.949023 138.802049,140.482678 C138.301189,140.010782 137.914917,139.422299 137.643233,138.715379 C137.371548,138.00846 137.23663,137.181253 137.23663,136.233759 C137.23663,134.49977 137.741187,133.128494 138.753996,132.125483 C139.766806,131.122471 141.154799,130.620966 142.921671,130.620966 C143.537119,130.620966 144.167353,130.694989 144.810524,130.843034 C145.453695,130.99108 146.146767,131.242759 146.887893,131.598069 L146.887893,133.309851 L146.756671,133.309851 C146.606967,133.195115 146.388881,133.041517 146.102411,132.850908 C145.815941,132.660299 145.535016,132.503 145.257787,132.377161 C144.923264,132.227264 144.544384,132.103276 144.1193,132.001494 C143.694216,131.901563 143.211837,131.853448 142.674013,131.853448 C141.461599,131.853448 140.500539,132.242069 139.794529,133.023011 C139.088519,133.803954 138.735514,134.858782 138.735514,136.189345 C138.735514,137.59208 139.105153,138.68577 139.842582,139.464862 C140.580011,140.245805 141.58358,140.636276 142.855136,140.636276 C143.320881,140.636276 143.786625,140.590011 144.248673,140.497483 C144.71257,140.404954 145.119172,140.286517 145.468481,140.138471 L145.468481,137.479195 L142.56497,137.479195 L142.56497,136.209701 L146.895286,136.209701 L146.895286,140.869448 Z" id="Fill-172" fill="#444444"></path>
                <path d="M155.824829,141.670007 L148.683412,141.670007 L148.683412,130.818237 L155.824829,130.818237 L155.824829,132.100685 L150.125002,132.100685 L150.125002,135.074559 L155.824829,135.074559 L155.824829,136.357007 L150.125002,136.357007 L150.125002,140.387559 L155.824829,140.387559 L155.824829,141.670007 Z" id="Fill-174" fill="#444444"></path>
                <path d="M30.4301243,159.583015 L26.1497099,159.583015 L26.1497099,158.474521 L27.5691219,158.474521 L27.5691219,149.837889 L26.1497099,149.837889 L26.1497099,148.731245 L30.4301243,148.731245 L30.4301243,149.837889 L29.0107123,149.837889 L29.0107123,158.474521 L30.4301243,158.474521 L30.4301243,159.583015 Z" id="Fill-176" fill="#444444"></path>
                <path d="M40.4220089,159.583015 L38.6385029,159.583015 L33.4986788,149.8749 L33.4986788,159.583015 L32.1531945,159.583015 L32.1531945,148.731245 L34.3876595,148.731245 L39.0746764,157.593647 L39.0746764,148.731245 L40.4220089,148.731245 L40.4220089,159.583015 Z" id="Fill-178" fill="#444444"></path>
                <path d="M50.3037412,150.012028 L46.4317773,150.012028 L46.4317773,159.5832 L44.990187,159.5832 L44.990187,150.012028 L41.1182231,150.012028 L41.1182231,148.73143 L50.3037412,148.73143 L50.3037412,150.012028 Z" id="Fill-180" fill="#444444"></path>
                <path d="M58.1702041,159.583015 L51.0287872,159.583015 L51.0287872,148.731245 L58.1702041,148.731245 L58.1702041,150.011843 L52.4703776,150.011843 L52.4703776,152.987567 L58.1702041,152.987567 L58.1702041,154.270015 L52.4703776,154.270015 L52.4703776,158.300567 L58.1702041,158.300567 L58.1702041,159.583015 Z" id="Fill-182" fill="#444444"></path>
                <path d="M65.3228949,151.783028 C65.3228949,151.472131 65.2692973,151.198246 65.160254,150.957671 C65.0512106,150.717097 64.8682395,150.511683 64.6168853,150.348832 C64.4080395,150.206338 64.1603817,150.108257 63.8739118,150.05274 C63.5892901,149.997223 63.2510708,149.969464 62.8629504,149.969464 L61.1663094,149.969464 L61.1663094,154.064786 L62.6226853,154.064786 C63.0791889,154.064786 63.4765504,154.025924 63.8166178,153.944499 C64.1566853,153.864924 64.4450034,153.715028 64.681572,153.49666 C64.8996588,153.291246 65.0622998,153.058074 65.1676467,152.793441 C65.2711455,152.526959 65.3228949,152.192005 65.3228949,151.783028 L65.3228949,151.783028 Z M68.6939986,159.5832 L66.8236275,159.5832 L63.1974733,155.26766 L61.1663094,155.26766 L61.1663094,159.5832 L59.724719,159.5832 L59.724719,148.73143 L62.7612998,148.73143 C63.41556,148.73143 63.9626251,148.772143 64.3987986,148.857269 C64.834972,148.942395 65.2286371,149.094143 65.5779455,149.31251 C65.9716106,149.560487 66.2784106,149.873234 66.4983455,150.248901 C66.7182805,150.626418 66.829172,151.103867 66.829172,151.681246 C66.829172,152.464039 66.6332636,153.119143 66.2395986,153.646556 C65.8477817,154.17397 65.3062612,154.569993 64.6168853,154.836476 L68.6939986,159.5832 Z" id="Fill-184" fill="#444444"></path>
                <path d="M77.6294561,159.583015 L75.8459501,159.583015 L70.706126,149.8749 L70.706126,159.583015 L69.3606417,159.583015 L69.3606417,148.731245 L71.5951067,148.731245 L76.2821236,157.593647 L76.2821236,148.731245 L77.6294561,148.731245 L77.6294561,159.583015 Z" id="Fill-186" fill="#444444"></path>
                <path d="M87.6583046,156.485338 C87.6583046,156.90912 87.5603504,157.325499 87.3625937,157.738177 C87.1666853,158.150855 86.8913046,158.502464 86.5382998,158.787453 C86.1483311,159.098349 85.6955239,159.342625 85.1798781,159.516579 C84.6623841,159.690533 84.0395431,159.779361 83.3113552,159.779361 C82.5314178,159.779361 81.8291046,159.705338 81.2044154,159.560993 C80.5815745,159.414798 79.9476443,159.19828 79.3026251,158.913292 L79.3026251,157.10528 L79.4042757,157.10528 C79.9513407,157.560522 80.5852708,157.912131 81.3042178,158.160108 C82.0213166,158.408085 82.695907,158.532074 83.3261407,158.532074 C84.220666,158.532074 84.9155865,158.365522 85.4127504,158.030568 C85.9099142,157.693763 86.157572,157.247775 86.157572,156.688901 C86.157572,156.207752 86.0411359,155.852441 85.8064154,155.624821 C85.5698467,155.395349 85.2131455,155.217694 84.7326154,155.091855 C84.3685214,154.995625 83.9730082,154.9142 83.5479239,154.85128 C83.1246877,154.788361 82.6737287,154.708786 82.1987431,154.610706 C81.2376829,154.407143 80.5261287,154.057384 80.0622323,153.565131 C79.5983359,153.072878 79.3673118,152.430729 79.3673118,151.638683 C79.3673118,150.730051 79.7498877,149.984269 80.5168877,149.405039 C81.2838877,148.822108 82.2578853,148.533418 83.4351841,148.533418 C84.1984877,148.533418 84.8971046,148.605591 85.5328829,148.751786 C86.1686612,148.896131 86.73236,149.077487 87.2221311,149.290303 L87.2221311,150.996533 L87.1186323,150.996533 C86.7064853,150.646775 86.1649648,150.356234 85.4922227,150.124913 C84.8194805,149.893591 84.1319528,149.778855 83.4277913,149.778855 C82.6570949,149.778855 82.0361022,149.939855 81.5685094,150.260005 C81.1009166,150.582005 80.8661961,150.992832 80.8661961,151.49989 C80.8661961,151.95143 80.9826323,152.30489 81.2155046,152.56397 C81.4483769,152.8212 81.8586757,153.017361 82.446401,153.154303 C82.7568973,153.220924 83.1986154,153.3042 83.769707,153.40228 C84.3444949,153.500361 84.8287214,153.598441 85.2279311,153.700223 C86.0318949,153.913039 86.6399504,154.23689 87.0465528,154.669924 C87.4550034,155.102959 87.6583046,155.708097 87.6583046,156.485338" id="Fill-188" fill="#444444"></path>
                <path d="M102.044083,159.583015 L100.602492,159.583015 L100.602492,154.270015 L95.192832,154.270015 L95.192832,159.583015 L93.7530899,159.583015 L93.7530899,148.731245 L95.192832,148.731245 L95.192832,152.987567 L100.602492,152.987567 L100.602492,148.731245 L102.044083,148.731245 L102.044083,159.583015 Z" id="Fill-190" fill="#444444"></path>
                <path d="M111.366182,159.583015 L104.224765,159.583015 L104.224765,148.731245 L111.366182,148.731245 L111.366182,150.011843 L105.666356,150.011843 L105.666356,152.987567 L111.366182,152.987567 L111.366182,154.270015 L105.666356,154.270015 L105.666356,158.300567 L111.366182,158.300567 L111.366182,159.583015 Z" id="Fill-192" fill="#444444"></path>
                <path d="M118.519058,151.783028 C118.519058,151.472131 118.46546,151.198246 118.356417,150.957671 C118.247373,150.717097 118.064402,150.511683 117.813048,150.348832 C117.604202,150.206338 117.356545,150.108257 117.070075,150.05274 C116.785453,149.997223 116.447234,149.969464 116.059113,149.969464 L114.362472,149.969464 L114.362472,154.064786 L115.818848,154.064786 C116.275352,154.064786 116.672713,154.025924 117.012781,153.944499 C117.352848,153.864924 117.641166,153.715028 117.877735,153.49666 C118.095822,153.291246 118.258463,153.058074 118.36381,152.793441 C118.467308,152.526959 118.519058,152.192005 118.519058,151.783028 L118.519058,151.783028 Z M121.890161,159.5832 L120.01979,159.5832 L116.393636,155.26766 L114.362472,155.26766 L114.362472,159.5832 L112.920882,159.5832 L112.920882,148.73143 L115.957463,148.73143 C116.611723,148.73143 117.158788,148.772143 117.594961,148.857269 C118.031135,148.942395 118.4248,149.094143 118.774108,149.31251 C119.167773,149.560487 119.474573,149.873234 119.694508,150.248901 C119.914443,150.626418 120.025335,151.103867 120.025335,151.681246 C120.025335,152.464039 119.829427,153.119143 119.435761,153.646556 C119.043945,154.17397 118.502424,154.569993 117.813048,154.836476 L121.890161,159.5832 Z" id="Fill-194" fill="#444444"></path>
                <path d="M129.696558,159.583015 L122.555141,159.583015 L122.555141,148.731245 L129.696558,148.731245 L129.696558,150.011843 L123.996732,150.011843 L123.996732,152.987567 L129.696558,152.987567 L129.696558,154.270015 L123.996732,154.270015 L123.996732,158.300567 L129.696558,158.300567 L129.696558,159.583015 Z" id="Fill-196" fill="#444444"></path>
                <path d="M77.9124145,3.70114943 C53.3055759,3.70114943 33.2859518,23.7465747 33.2859518,48.3851264 C33.2859518,73.0236782 53.3055759,93.0691034 77.9124145,93.0691034 C102.519253,93.0691034 122.538877,73.0236782 122.538877,48.3851264 C122.538877,23.7465747 102.519253,3.70114943 77.9124145,3.70114943 M77.9124145,96.7702529 C51.2670193,96.7702529 29.5895663,75.0648621 29.5895663,48.3851264 C29.5895663,21.7053908 51.2670193,0 77.9124145,0 C104.55781,0 126.235263,21.7053908 126.235263,48.3851264 C126.235263,75.0648621 104.55781,96.7702529 77.9124145,96.7702529" id="Fill-198" fill="#818286"></path>
                <path d="M86.9323345,51.8947414 C86.9323345,53.0994655 86.7068549,54.2209138 86.2540477,55.2553851 C85.8030887,56.2898563 85.145132,57.1762816 84.282026,57.9146609 C83.3283586,58.7067069 82.2286839,59.2914885 80.9885465,59.6708563 C79.746561,60.0502241 78.3326935,60.2408333 76.7432477,60.2408333 C74.8839658,60.2297299 73.3130019,60.0816839 72.0303561,59.7966954 C70.7477104,59.5080057 69.7016333,59.1878563 68.8921248,58.8362471 L68.8921248,53.7046034 L69.5463851,53.7046034 C70.4908116,54.2653276 71.5091658,54.733523 72.5995995,55.1073391 C73.6900333,55.4811552 74.7749224,55.6699138 75.8561152,55.6699138 C76.5085272,55.6699138 77.2182333,55.5940402 77.9815369,55.4422931 C78.7448405,55.2923966 79.3491995,55.0185115 79.7983104,54.6243391 C80.149467,54.3023391 80.4174549,53.9747874 80.5985778,53.6398333 C80.7815489,53.3085805 80.8721104,52.7941207 80.8721104,52.096454 C80.8721104,51.5560862 80.7482814,51.0897414 80.50432,50.6992701 C80.2622067,50.3125 79.948014,49.9979023 79.5635899,49.7573276 C79.0017393,49.4131207 78.3271489,49.1873506 77.5379706,49.0800172 C76.7487923,48.9689828 76.0335417,48.9153161 75.3885224,48.9153161 C74.4533369,48.9153161 73.5588116,48.9967414 72.7012501,49.1577414 C71.8436887,49.3168908 71.0933224,49.4760402 70.4501513,49.6314885 L69.7644718,49.6314885 L69.7644718,36.5294195 L86.2632887,36.5294195 L86.2632887,40.9763506 L75.3885224,40.9763506 L75.3885224,44.764477 C75.710108,44.7459713 76.1167104,44.7274655 76.6101778,44.7108103 C77.1054935,44.6941552 77.5379706,44.6867529 77.9113055,44.6867529 C79.1902549,44.6867529 80.3287417,44.8107414 81.3323104,45.0550172 C82.3340308,45.2992931 83.1971369,45.6397989 83.9253248,46.0746839 C84.8697513,46.6483621 85.6071802,47.4033966 86.1357634,48.3453391 C86.6661947,49.2872816 86.9323345,50.4679483 86.9323345,51.8947414" id="Fill-200" fill="#E30536"></path>
                <path d="M37.763014,112.048043 L34.0426019,122.265066 L31.0965827,122.265066 L27.3743224,112.048043 L30.1392188,112.048043 L32.604708,119.22087 L35.0720453,112.048043 L37.763014,112.048043 Z" id="Fill-202" fill="#444444"></path>
                <path d="M44.2424082,115.331702 C44.2424082,115.044863 44.1647841,114.796886 44.0095359,114.589622 C43.8542877,114.380507 43.6731648,114.236162 43.4680154,114.154737 C43.1963311,114.045553 42.9264949,113.984484 42.6658998,113.97338 C42.4071528,113.962277 42.0596925,113.956725 41.6253672,113.956725 L41.17256,113.956725 L41.17256,117.010174 L41.9266227,117.010174 C42.3738853,117.010174 42.7435239,116.982415 43.0336901,116.926898 C43.3238564,116.873231 43.5678178,116.762197 43.7637263,116.599346 C43.9319118,116.4513 44.0538925,116.279197 44.1296684,116.073783 C44.2054443,115.87207 44.2424082,115.624093 44.2424082,115.331702 M46.9647961,115.274334 C46.9647961,115.731426 46.8853239,116.179266 46.7245311,116.614151 C46.5637383,117.052737 46.3364106,117.419151 46.0388516,117.717093 C45.6322492,118.118668 45.1794419,118.424013 44.6785817,118.629426 C44.1777214,118.836691 43.5548805,118.936622 42.811907,118.936622 L41.17256,118.936622 L41.17256,122.265806 L38.5407335,122.265806 L38.5407335,112.048783 L42.8728973,112.048783 C43.521613,112.048783 44.0686781,112.1043 44.5122443,112.215334 C44.959507,112.32822 45.3550202,112.496622 45.6950877,112.720541 C46.1072347,112.990725 46.4214275,113.336783 46.6395142,113.756863 C46.8557528,114.178794 46.9647961,114.682151 46.9647961,115.274334" id="Fill-204" fill="#444444"></path>
                <path d="M54.6926446,119.822677 C54.6926446,120.620275 54.3377916,121.260574 53.6243892,121.747275 C52.9109867,122.235826 51.9369892,122.480102 50.6987,122.480102 C50.0130205,122.480102 49.3920277,122.413482 48.8338735,122.285792 C48.2757193,122.159953 47.8284566,122.017459 47.4920855,121.86201 L47.4920855,119.830079 L47.7175651,119.830079 C47.8395458,119.917056 47.9818566,120.013286 48.1444976,120.115068 C48.3071386,120.2187 48.5363145,120.327884 48.8338735,120.448171 C49.0907723,120.553654 49.3790904,120.642482 49.7043723,120.718355 C50.0296542,120.794229 50.3752663,120.83124 50.7449048,120.83124 C51.2309795,120.83124 51.5876807,120.779424 51.820553,120.67024 C52.0534253,120.562907 52.1717096,120.403757 52.1717096,120.192792 C52.1717096,120.007734 52.1033265,119.868941 51.964712,119.783815 C51.8279458,119.70239 51.5691988,119.620964 51.1847747,119.54324 C51.0018036,119.500677 50.7541458,119.456263 50.439953,119.408148 C50.1276084,119.360033 49.8429867,119.302666 49.5879361,119.234194 C48.8874711,119.050987 48.3699771,118.765999 48.0317578,118.379229 C47.6935386,117.992459 47.525353,117.511309 47.525353,116.93393 C47.525353,116.1937 47.8765096,115.577459 48.5769747,115.083355 C49.2774398,114.592953 50.2366518,114.346826 51.4509145,114.346826 C52.0275506,114.346826 52.578312,114.406045 53.1068952,114.522631 C53.6354783,114.639217 54.0457771,114.765056 54.3451843,114.896447 L54.3451843,116.845102 L54.130794,116.845102 C53.7648518,116.593424 53.3471602,116.389861 52.8814157,116.232562 C52.4138229,116.073413 51.9388373,115.995689 51.4583072,115.995689 C51.0609458,115.995689 50.7264229,116.049355 50.4547386,116.16039 C50.1830542,116.267723 50.046288,116.425022 50.046288,116.624884 C50.046288,116.808091 50.1091265,116.946884 50.2311072,117.044964 C50.3549361,117.141194 50.6469506,117.237424 51.1034542,117.331803 C51.3529602,117.38362 51.6246446,117.431734 51.9148108,117.479849 C52.2031289,117.527964 52.4969916,117.589033 52.789006,117.661206 C53.4358735,117.831459 53.9164036,118.096091 54.2269,118.462505 C54.5373964,118.825217 54.6926446,119.278608 54.6926446,119.822677" id="Fill-206" fill="#444444"></path>
                <path d="M64.583433,120.289022 C64.7442258,120.094711 64.8625101,119.857838 64.9438306,119.578401 C65.0233029,119.302666 65.0639631,118.919597 65.0639631,118.429194 C65.0639631,117.977654 65.0214547,117.598286 64.9401342,117.291091 C64.8569655,116.985746 64.7442258,116.73962 64.5982186,116.556413 C64.4522113,116.369505 64.2747848,116.238114 64.0714836,116.16039 C63.864486,116.082666 63.6427029,116.041953 63.404286,116.041953 C63.1677173,116.041953 62.9570234,116.075263 62.7722041,116.138183 C62.5873848,116.202953 62.4081101,116.330643 62.2399246,116.523102 C62.0883728,116.702608 61.9700884,116.945033 61.879527,117.25593 C61.7908137,117.566826 61.7464571,117.959148 61.7464571,118.429194 C61.7464571,118.851125 61.7852692,119.215689 61.8628933,119.524734 C61.9405173,119.83378 62.0551053,120.081757 62.2066571,120.268666 C62.3526643,120.448171 62.5282427,120.577711 62.7296957,120.660987 C62.9329969,120.742413 63.164021,120.784976 63.4264643,120.784976 C63.6500957,120.784976 63.8626378,120.746114 64.0677872,120.67024 C64.2692402,120.594367 64.4429704,120.468528 64.583433,120.289022 M67.6200137,118.41624 C67.6200137,119.683884 67.2503752,120.683194 66.5129463,121.41047 C65.7755173,122.141447 64.7386812,122.50601 63.404286,122.50601 C62.071739,122.50601 61.0349029,122.141447 60.297474,121.41047 C59.5600451,120.683194 59.1904065,119.683884 59.1904065,118.41624 C59.1904065,117.141194 59.5618933,116.138183 60.3048667,115.410907 C61.045992,114.683631 62.08098,114.319068 63.404286,114.319068 C64.7479222,114.319068 65.7866065,114.687332 66.520339,115.418309 C67.2522234,116.151137 67.6200137,117.150447 67.6200137,118.41624" id="Fill-208" fill="#444444"></path>
                <path d="M73.6889243,113.399887 L73.5022569,113.399887 C73.3950617,113.368428 73.2527508,113.331416 73.0771725,113.290703 C72.9015942,113.249991 72.7130786,113.227784 72.5116255,113.227784 C72.0310954,113.227784 71.7039653,113.316611 71.5320834,113.490566 C71.3602014,113.66452 71.2751846,113.999474 71.2751846,114.499129 L71.2751846,114.560198 L73.1751267,114.560198 L73.1751267,116.233117 L71.3583533,116.233117 L71.3583533,122.265991 L68.8836231,122.265991 L68.8836231,116.233117 L67.8283051,116.233117 L67.8283051,114.560198 L68.8836231,114.560198 L68.8836231,114.347382 C68.8836231,113.405439 69.1349773,112.69852 69.6358376,112.226623 C70.1348496,111.754726 70.8926087,111.519703 71.9054183,111.519703 C72.2713605,111.519703 72.602187,111.532657 72.899746,111.558566 C73.1973051,111.584474 73.4597484,111.615933 73.6889243,111.658497 L73.6889243,113.399887 Z" id="Fill-210" fill="#444444"></path>
                <path d="M88.8825475,122.265991 L86.2655065,122.265991 L86.2655065,115.424416 L84.3748053,119.863945 L82.5580318,119.863945 L80.6673306,115.424416 L80.6673306,122.265991 L78.1852077,122.265991 L78.1852077,112.048968 L81.2421186,112.048968 L83.537574,117.17506 L85.8274848,112.048968 L88.8825475,112.048968 L88.8825475,122.265991 Z" id="Fill-212" fill="#444444"></path>
                <path d="M97.2354547,119.748654 C97.4923535,119.435907 97.6808692,119.069493 97.8046981,118.645711 C97.9266788,118.22378 97.9876692,117.725976 97.9876692,117.154148 C97.9876692,116.541608 97.9174378,116.019746 97.7769752,115.590413 C97.6346643,115.161079 97.4498451,114.811321 97.2206692,114.544838 C96.9877969,114.272803 96.7198089,114.072941 96.4167053,113.948953 C96.1136017,113.826815 95.7957125,113.765746 95.4667342,113.765746 C95.1322113,113.765746 94.8180186,113.823114 94.5241559,113.941551 C94.2302933,114.061838 93.9604571,114.257999 93.7127993,114.533734 C93.4854716,114.789114 93.2969559,115.142574 93.1546451,115.592263 C93.010486,116.043803 92.9384065,116.565666 92.9384065,117.161551 C92.9384065,117.77039 93.0086378,118.2867 93.1472523,118.714183 C93.2858667,119.143516 93.470686,119.491424 93.6998619,119.761608 C93.9271896,120.029941 94.1933294,120.231654 94.5019776,120.357493 C94.8069294,120.485183 95.1285149,120.551803 95.4667342,120.551803 C95.8049535,120.551803 96.126539,120.485183 96.433339,120.355643 C96.7382908,120.224252 97.0062788,120.020689 97.2354547,119.748654 M100.722994,117.161551 C100.722994,118.788206 100.25725,120.083608 99.3257607,121.040355 C98.3924234,122.000803 97.1060812,122.480102 95.4593414,122.480102 C93.8199945,122.480102 92.5336523,122.000803 91.6021631,121.040355 C90.6688258,120.083608 90.2030812,118.788206 90.2030812,117.161551 C90.2030812,115.51824 90.6688258,114.220987 91.6021631,113.266091 C92.5336523,112.313045 93.8199945,111.837447 95.4593414,111.837447 C97.0968402,111.837447 98.3813342,112.313045 99.318368,113.266091 C100.255402,114.220987 100.722994,115.51824 100.722994,117.161551" id="Fill-214" fill="#444444"></path>
                <path d="M109.403956,122.265991 L102.044452,122.265991 L102.044452,112.048968 L104.674431,112.048968 L104.674431,120.289577 L109.403956,120.289577 L109.403956,122.265991 Z" id="Fill-216" fill="#444444"></path>
                <path d="M117.681087,122.265991 L110.299405,122.265991 L110.299405,112.048968 L117.681087,112.048968 L117.681087,114.025382 L112.918294,114.025382 L112.918294,115.788979 L117.337323,115.788979 L117.337323,117.763543 L112.918294,117.763543 L112.918294,120.289577 L117.681087,120.289577 L117.681087,122.265991 Z" id="Fill-218" fill="#444444"></path>
                <path d="M128.450691,122.265991 L125.406718,122.265991 L123.209217,118.912749 L120.969207,122.265991 L118.062,122.265991 L121.680761,117.119543 L118.137776,112.048968 L121.174356,112.048968 L123.29793,115.230106 L125.480646,112.048968 L128.397094,112.048968 L124.835626,117.010359 L128.450691,122.265991 Z" id="Fill-220" fill="#444444"></path>
            </g>
        </g>
    </g>
</svg>